<svg width="13" height="22" viewBox="0 0 13 22" fill="none" xmlns="http://www.w3.org/2000/svg">
<mask id="path-1-outside-1" maskUnits="userSpaceOnUse" x="0.501221" y="0.916992" width="12" height="21" fill="black">
<rect fill="white" x="0.501221" y="0.916992" width="12" height="21"/>
<path d="M1.87975 20.8439C1.78288 20.8439 1.68598 20.8069 1.61208 20.733C1.46427 20.5852 1.46427 20.3455 1.61208 20.1976L10.4293 11.3805L1.61208 2.56323C1.46427 2.41542 1.46427 2.17573 1.61208 2.02787C1.7599 1.88001 1.99959 1.88005 2.14745 2.02787L11.2323 11.1128C11.3802 11.2606 11.3802 11.5003 11.2323 11.6481L2.14745 20.733C2.07352 20.8069 1.97662 20.8439 1.87975 20.8439Z"/>
</mask>
<path d="M1.87975 20.8439C1.78288 20.8439 1.68598 20.8069 1.61208 20.733C1.46427 20.5852 1.46427 20.3455 1.61208 20.1976L10.4293 11.3805L1.61208 2.56323C1.46427 2.41542 1.46427 2.17573 1.61208 2.02787C1.7599 1.88001 1.99959 1.88005 2.14745 2.02787L11.2323 11.1128C11.3802 11.2606 11.3802 11.5003 11.2323 11.6481L2.14745 20.733C2.07352 20.8069 1.97662 20.8439 1.87975 20.8439Z" fill="#00EAFF"/>
<path d="M1.61208 20.733L2.31919 20.0259L1.61208 20.733ZM1.61208 20.1976L0.904978 19.4905L0.904887 19.4906L1.61208 20.1976ZM10.4293 11.3805L11.1364 12.0876L11.8435 11.3805L11.1364 10.6734L10.4293 11.3805ZM1.61208 2.56323L2.31919 1.85613L2.31919 1.85613L1.61208 2.56323ZM2.14745 2.02787L2.85456 1.32076L2.85447 1.32067L2.14745 2.02787ZM11.2323 11.1128L10.5252 11.8199V11.8199L11.2323 11.1128ZM11.2323 11.6481L11.9394 12.3552L11.9395 12.3551L11.2323 11.6481ZM2.14745 20.733L2.85438 21.4403L2.85456 21.4401L2.14745 20.733ZM1.87975 19.8439C2.03732 19.8439 2.19806 19.9048 2.31919 20.0259L0.904978 21.4401C1.17389 21.709 1.52844 21.8439 1.87975 21.8439V19.8439ZM2.31919 20.0259C2.56195 20.2687 2.56182 20.6621 2.31928 20.9047L0.904887 19.4906C0.366715 20.0289 0.366585 20.9017 0.904978 21.4401L2.31919 20.0259ZM2.31919 20.9047L11.1364 12.0876L9.72216 10.6733L0.904978 19.4905L2.31919 20.9047ZM11.1364 10.6734L2.31919 1.85613L0.904976 3.27034L9.72216 12.0876L11.1364 10.6734ZM2.31919 1.85613C2.56195 2.09888 2.56182 2.49229 2.31928 2.73489L0.904887 1.32085C0.366715 1.85916 0.366585 2.73195 0.904978 3.27034L2.31919 1.85613ZM2.31928 2.73489C2.07639 2.97784 1.68292 2.97749 1.44043 2.73507L2.85447 1.32067C2.31627 0.782616 1.44342 0.782188 0.904887 1.32085L2.31928 2.73489ZM1.44034 2.73498L10.5252 11.8199L11.9394 10.4056L2.85456 1.32076L1.44034 2.73498ZM10.5252 11.8199C10.2825 11.5771 10.2826 11.1837 10.5251 10.9411L11.9395 12.3551C12.4777 11.8168 12.4778 10.944 11.9394 10.4056L10.5252 11.8199ZM10.5252 10.941L1.44034 20.0259L2.85456 21.4401L11.9394 12.3552L10.5252 10.941ZM1.44052 20.0257C1.56151 19.9048 1.72213 19.8439 1.87975 19.8439V21.8439C2.2311 21.8439 2.58553 21.709 2.85438 21.4403L1.44052 20.0257Z" fill="#00EAFF" mask="url(#path-1-outside-1)"/>
</svg>
