<svg width="128" height="129" viewBox="0 0 128 129" fill="none" xmlns="http://www.w3.org/2000/svg">
<path d="M29.7389 3.2149V18.8098H9.78339C6.94883 18.8098 4.64215 21.1117 4.64215 23.9414V27.3055H1.63003C0.745432 27.3055 0.0303932 28.0205 0.0303932 28.9051V37.8119C0.0303932 38.6965 0.745432 39.4115 1.63003 39.4115H3.08411L7.61748 126.469C7.66227 127.318 8.36451 127.985 9.21552 127.985H54.079C54.9284 127.985 55.6306 127.32 55.677 126.472L60.3768 39.4115H62.6259C63.5105 39.4115 64.2255 38.6965 64.2255 37.8119V28.9051C64.2255 28.0205 63.5105 27.3055 62.6259 27.3055H59.6154V23.9414C59.6154 21.1117 57.3087 18.8098 54.4725 18.8098H32.9382V1.61526C32.9382 0.730664 32.2231 0.015625 31.3385 0.015625H1.59964C0.715039 0.015625 0 0.730664 0 1.61526C0 2.49986 0.715039 3.2149 1.59964 3.2149H29.7389ZM7.27836 58.4408H56.1425L54.1046 96.1923H9.24432L7.27836 58.4408ZM10.7336 124.786L9.41068 99.3916H53.9334L52.5625 124.786H10.7336ZM6.28818 39.4115H57.1711L56.3169 55.2416H7.112L6.28818 39.4115ZM3.22967 30.5031H61.0262V36.2107H3.22967V30.5031ZM9.78339 22.0091H54.4741C55.5459 22.0091 56.4177 22.8761 56.4177 23.9414V27.3055H7.84143V23.9414C7.84143 22.8761 8.71323 22.0091 9.78339 22.0091Z" fill="#FF14A1"/>
<path d="M125.026 106.704V40.1651C126.775 39.3813 128 37.6185 128 35.5678V20.408C128 19.5234 127.285 18.8083 126.4 18.8083C123.851 18.8083 122.481 19.7073 121.379 20.4304C120.41 21.0654 119.707 21.5277 118.113 21.5277C116.518 21.5277 115.816 21.067 114.846 20.4304C113.746 19.7073 112.373 18.8083 109.823 18.8083C107.273 18.8083 105.904 19.7073 104.802 20.4304C103.833 21.0654 103.13 21.5277 101.537 21.5277C99.9423 21.5277 99.2385 21.067 98.2675 20.4304C97.1669 19.7073 95.796 18.8083 93.2446 18.8083C90.6932 18.8083 89.3223 19.7073 88.2201 20.4288C87.2476 21.0654 86.5453 21.5277 84.9473 21.5277C83.3508 21.5277 82.647 21.067 81.6744 20.4288C80.5739 19.7073 79.2014 18.8083 76.6484 18.8083C76.2229 18.8083 75.8149 18.9779 75.5142 19.2802C75.2135 19.5826 75.0471 19.9889 75.0487 20.416L75.1175 35.5902C75.1255 37.6009 76.3204 39.3269 78.0224 40.1251V106.665C76.274 107.449 75.0487 109.21 75.0487 111.261V126.422C75.0487 127.307 75.7638 128.022 76.6484 128.022C79.1998 128.022 80.5691 127.123 81.6712 126.4C82.6406 125.763 83.3428 125.303 84.9361 125.303C86.5309 125.303 87.2332 125.763 88.2026 126.4C89.3031 127.123 90.6756 128.022 93.2254 128.022C95.7752 128.022 97.1445 127.123 98.2467 126.4C99.2161 125.765 99.9183 125.303 101.512 125.303C103.106 125.303 103.81 125.763 104.781 126.4C105.882 127.123 107.253 128.022 109.804 128.022C112.357 128.022 113.728 127.123 114.83 126.4C115.803 125.765 116.505 125.303 118.101 125.303C119.698 125.303 120.402 125.763 121.374 126.402C122.475 127.123 123.847 128.022 126.4 128.022C126.826 128.022 127.234 127.853 127.534 127.55C127.835 127.248 128.002 126.842 128 126.414L127.931 111.239C127.925 109.228 126.73 107.502 125.026 106.704ZM121.827 40.6034V106.227H81.2281V40.6034H121.827ZM119.909 122.278V109.426H122.942C123.926 109.426 124.729 110.245 124.734 111.251L124.794 124.605C124.175 124.41 123.699 124.098 123.129 123.724C122.323 123.194 121.365 122.574 119.909 122.278ZM113.08 123.724C112.546 124.074 112.082 124.361 111.517 124.557V109.428H116.71V122.212C115.022 122.465 113.96 123.146 113.08 123.724ZM103.127 122.243V109.428H108.318V124.618C107.653 124.426 107.136 124.117 106.538 123.725C105.695 123.172 104.692 122.519 103.127 122.243ZM96.4951 123.725C95.9032 124.113 95.3913 124.42 94.7371 124.612V109.426H99.9279V122.238C98.3507 122.515 97.3413 123.169 96.4951 123.725ZM86.3454 122.214V109.428H91.5378V124.562C90.9683 124.365 90.4996 124.079 89.9638 123.727C89.0856 123.148 88.025 122.468 86.3454 122.214ZM78.2528 111.261C78.2528 110.25 79.0574 109.428 80.046 109.428H83.1461V122.278C81.6872 122.572 80.729 123.194 79.9196 123.727C79.3502 124.1 78.8735 124.415 78.2528 124.608V111.261ZM83.1461 24.5511V37.4026H80.1132C79.1294 37.4026 78.3264 36.5819 78.3216 35.5758L78.2608 22.2236C78.8799 22.4187 79.3565 22.7307 79.926 23.105C80.7338 23.6361 81.6904 24.2567 83.1461 24.5511ZM89.9766 23.105C90.5108 22.7563 90.9747 22.4699 91.5378 22.2748V37.4042H86.3454V24.6198C88.033 24.3655 89.0968 23.6824 89.9766 23.105ZM99.9279 24.5878V37.4026H94.7371V22.2124C95.4025 22.4043 95.9192 22.7131 96.5175 23.105C97.3605 23.6585 98.3635 24.3111 99.9279 24.5878ZM106.562 23.105C107.153 22.7179 107.665 22.4107 108.32 22.2188V37.4042H103.129V24.5926C104.704 24.3159 105.714 23.6617 106.562 23.105ZM116.71 24.6166V37.4026H111.517V22.2684C112.087 22.4651 112.555 22.7515 113.091 23.1034C113.97 23.6824 115.03 24.3623 116.71 24.6166ZM124.802 35.5678C124.802 36.5803 123.998 37.4026 123.011 37.4026H119.911V24.5527C121.371 24.2583 122.329 23.6361 123.139 23.1034C123.707 22.7307 124.185 22.4171 124.804 22.222V35.5678H124.802Z" fill="#FF14A1"/>
<path d="M116.001 69.3714C115.814 68.7923 115.312 68.3684 114.709 68.2821L106.341 67.0695L102.599 59.508C102.059 58.4171 100.272 58.4171 99.7312 59.508L95.9897 67.0695L87.6219 68.2821C87.0189 68.37 86.5182 68.7907 86.3294 69.3714C86.1423 69.9505 86.299 70.5871 86.7357 71.011L92.7888 76.8945L91.3603 85.2014C91.2579 85.8013 91.5027 86.4092 91.9938 86.7675C92.2737 86.9706 92.6048 87.073 92.9359 87.073C93.1903 87.073 93.4446 87.0122 93.6798 86.8906L101.164 82.9651L108.652 86.8906C109.188 87.1738 109.843 87.1258 110.337 86.7675C110.83 86.4092 111.074 85.8013 110.97 85.2014L109.542 76.8945L115.593 71.011C116.03 70.5871 116.188 69.9505 116.001 69.3714ZM111.034 70.9822L106.707 75.1893C106.33 75.5556 106.157 76.0883 106.247 76.6082L107.269 82.554L101.907 79.7435C101.444 79.5003 100.886 79.5003 100.421 79.7435L95.0619 82.554L96.084 76.6082C96.1736 76.0883 96.0009 75.5572 95.6233 75.1893L91.2947 70.9822L97.279 70.1152C97.7988 70.0401 98.2483 69.7137 98.4835 69.2418L101.164 63.8255L103.845 69.2418C104.079 69.7137 104.53 70.0401 105.05 70.1152L111.034 70.9822Z" fill="#11CFE7"/>
<path d="M44.3293 74.2552C44.1421 73.6761 43.6398 73.2538 43.0368 73.1659L35.9424 72.1373L32.7719 65.7291C32.5016 65.1837 31.9449 64.8381 31.3386 64.8381C30.7323 64.8381 30.1741 65.1837 29.9053 65.7291L26.7364 72.1373L19.6421 73.1659C19.039 73.2538 18.5383 73.6745 18.3495 74.2552C18.1608 74.8359 18.3191 75.4709 18.7558 75.8948L23.8859 80.8809L22.675 87.9209C22.5726 88.5208 22.8173 89.1286 23.3084 89.487C23.5884 89.6901 23.9195 89.7925 24.2506 89.7925C24.505 89.7925 24.7593 89.7317 24.9944 89.6101L31.3386 86.2829L37.686 89.6101C38.2219 89.8917 38.8745 89.8453 39.3704 89.487C39.8631 89.1286 40.1078 88.5208 40.0039 87.9209L38.7929 80.8809L43.923 75.8948C44.3597 75.4709 44.5164 74.8343 44.3293 74.2552ZM39.364 75.866L35.9584 79.1757C35.5809 79.542 35.4081 80.0747 35.4977 80.5946L36.3023 85.2735L32.0808 83.0612C31.6185 82.8181 31.0603 82.8181 30.5948 83.0612L26.3765 85.2735L27.1811 80.5946C27.2707 80.0747 27.098 79.5436 26.7205 79.1757L23.3148 75.866L28.0242 75.183C28.544 75.1078 28.9935 74.7815 29.2287 74.3096L31.337 70.0466L33.4469 74.3096C33.6805 74.7815 34.1316 75.1078 34.6515 75.183L39.364 75.866Z" fill="#11CFE7"/>
</svg>
