<svg width="129" height="130" viewBox="0 0 129 130" fill="none" xmlns="http://www.w3.org/2000/svg">
<path d="M122.98 65.1827C122.98 60.9891 122.542 56.7954 121.642 52.7304V52.7047C120.407 47.0445 118.349 41.5902 115.493 36.5475C112.869 31.8907 109.627 27.6199 105.871 23.8636C102.089 20.0816 97.8177 16.8656 93.1867 14.2414C88.1183 11.3855 82.6897 9.32731 77.0296 8.09237C72.9388 7.19189 68.7452 6.75452 64.5258 6.75452C48.9089 6.75452 34.2182 12.8263 23.1809 23.8893C12.1436 34.9524 6.02039 49.5658 6.02039 65.1827C6.02039 69.3764 6.45776 73.57 7.35824 77.635V77.6608C8.59318 83.3209 10.6514 88.7753 13.5072 93.8179C16.1315 98.4747 19.3732 102.746 23.1295 106.502C26.9115 110.284 31.1823 113.5 35.8134 116.124C40.8818 118.98 46.3104 121.038 51.9705 122.273C56.0613 123.174 60.2549 123.611 64.4743 123.611C80.0912 123.611 94.7818 117.539 105.819 106.476C116.856 95.4131 122.98 80.7996 122.98 65.1827ZM89.7906 81.7258L83.0242 74.9593C83.3586 74.3419 83.6416 73.6987 83.8989 73.0555C87.861 73.8273 91.8489 74.7278 95.7595 75.7055L89.7906 81.7258ZM98.6153 73.8016C93.5726 72.4637 88.427 71.2802 83.3329 70.3283C82.7154 70.1997 82.098 70.5599 81.8664 71.1773C81.4548 72.3351 80.9402 73.4671 80.3227 74.522C80.014 75.0365 80.1169 75.6797 80.5285 76.0914L88.8901 84.453L96.9944 92.5573C99.7731 95.3359 99.7731 99.8383 96.9944 102.591L90.0479 109.538C87.295 103.852 84.2591 98.2174 81.0174 92.7888C79.0878 89.5728 77.081 86.4083 74.997 83.3209C76.1548 82.6263 77.8529 81.4942 79.0621 80.1564C79.5252 79.6161 79.4737 78.8185 78.9592 78.3297C78.4189 77.8666 77.6213 77.9181 77.1325 78.4326C75.5373 80.2336 72.6558 81.6743 72.5786 81.7001C71.4723 82.2404 70.3146 82.6777 69.1311 82.9607H69.1053H69.0796C67.6131 83.3981 64.8602 84.0413 63.5996 83.9127C62.9049 83.8355 62.2617 84.35 62.1845 85.0704C62.1073 85.7651 62.6219 86.4083 63.3423 86.4855C63.5224 86.5112 63.7282 86.5112 63.9598 86.5112C65.2719 86.5112 66.9442 86.1767 68.1791 85.8937V103.903V107.454C68.1791 111.364 64.9889 114.555 61.0782 114.555H57.5278H51.2501C53.3084 108.637 55.1351 102.54 56.6787 96.4165C57.7079 92.3 58.6341 88.1063 59.4059 83.9899C59.5345 83.3724 59.1744 82.7549 58.5569 82.5234C57.3991 82.1117 56.2671 81.5972 55.2122 80.9797C54.6977 80.6709 54.0545 80.7739 53.6428 81.1855L37.2027 97.6257C35.2473 99.581 32.2886 100.224 29.6901 99.2465C28.7382 98.8863 27.8892 98.3461 27.1688 97.6257L20.2222 90.6791C29.2527 86.3054 38.0774 81.2627 46.4133 75.654C47.0308 76.6317 48.0599 78.021 49.655 79.3588C49.8866 79.5647 50.1953 79.6676 50.4783 79.6676C50.8385 79.6676 51.1987 79.5132 51.456 79.2045C51.9191 78.6642 51.8419 77.8409 51.3016 77.4035C48.9604 75.4482 48.0599 73.3642 48.0599 73.3128L48.0341 73.287C48.0341 73.2613 48.0341 73.2613 48.0084 73.2356C47.4681 72.1293 47.0308 70.9458 46.722 69.7623C46.2846 68.0385 45.6414 64.8225 45.8215 63.4847C45.9244 62.79 45.4356 62.1211 44.741 62.0182C44.0463 61.9153 43.3774 62.4041 43.2745 63.0988C43.0429 64.6167 43.4803 67.138 43.8405 68.7846H37.7944H22.1775C20.7368 68.7846 19.3475 68.3473 18.1383 67.524C16.2087 66.1861 15.0509 63.9992 15.0509 61.6837V51.8556C20.0679 53.6051 25.2134 55.1745 30.359 56.5639C35.4017 57.9017 40.5473 59.0852 45.6414 60.0371C45.7186 60.0629 45.7958 60.0629 45.873 60.0629C46.4133 60.0629 46.9021 59.7284 47.0822 59.1881C47.4939 58.0303 48.0084 56.8983 48.6259 55.8435C48.9346 55.3289 48.8317 54.6857 48.4201 54.2741L40.0585 45.9125L31.9542 37.8082C29.1756 35.0295 29.1756 30.5272 31.9542 27.7743L38.9007 20.8277C41.6536 26.5136 44.6895 32.148 47.9312 37.5766C49.8608 40.7926 51.8933 43.9829 53.9773 47.0702C52.9482 47.6877 51.5074 48.6139 50.6327 49.5144C50.1438 50.0289 50.1438 50.8265 50.6584 51.3411C50.9157 51.5726 51.2244 51.7013 51.5589 51.7013C51.8933 51.7013 52.2278 51.5726 52.4851 51.3153C53.4113 50.3634 55.5982 49.1027 56.3957 48.6654C57.502 48.1251 58.6598 47.7134 59.8176 47.4047C59.8433 47.4047 59.869 47.379 59.8947 47.379C59.9205 47.379 59.9462 47.379 59.9462 47.3532C59.9719 47.3532 62.2874 46.4785 65.2204 47.0445C65.9151 47.1731 66.584 46.7358 66.7384 46.0154C66.867 45.3207 66.4296 44.6518 65.7093 44.4974C63.7539 44.1115 62.0044 44.2659 60.7695 44.4717V26.4364V22.8859C60.7695 18.9753 63.9598 15.785 67.8704 15.785H71.4209H77.6985C75.6402 21.7025 73.8136 27.8 72.2699 33.9232C71.2408 38.0397 70.3146 42.2334 69.5427 46.3498C69.4141 46.9673 69.7743 47.5848 70.3917 47.8163C71.5495 48.228 72.6815 48.7425 73.7364 49.36C73.9422 49.4887 74.1738 49.5401 74.3796 49.5401C74.714 49.5401 75.0485 49.4115 75.2801 49.1542L91.7202 32.714C93.6755 30.7587 96.6343 30.1155 99.2328 31.0932C100.185 31.4534 101.034 31.9936 101.754 32.714L108.701 39.6606C99.6444 44.0343 90.8455 49.1027 82.4839 54.7114C81.7378 53.4765 80.5028 51.6498 79.3965 50.7751C78.8305 50.3377 78.0329 50.4406 77.5956 51.0066C77.1582 51.5726 77.2611 52.3702 77.8271 52.8076C78.7533 53.528 80.2198 55.8177 80.9145 57.1299C81.4548 58.2362 81.8921 59.3939 82.2009 60.6031C82.2009 60.6289 82.2009 60.6289 82.2266 60.6546V60.6803C82.5611 61.7609 83.4101 64.9769 83.1013 66.855C82.9984 67.5497 83.4615 68.2186 84.1562 68.3215C84.2334 68.3215 84.2848 68.3473 84.362 68.3473C84.9795 68.3473 85.5198 67.8842 85.6227 67.2667C85.9057 65.4657 85.4941 63.1245 85.1081 61.5808H91.1027H106.694C108.135 61.5808 109.524 62.0182 110.733 62.8415C112.663 64.1793 113.821 66.3662 113.821 68.6817V78.5098C108.907 76.7603 103.761 75.1909 98.6153 73.8016ZM72.6558 84.5044C74.5854 87.3602 76.4635 90.3189 78.2645 93.2776L70.7262 100.816V85.1991C71.3694 84.9932 72.0126 84.7617 72.6558 84.5044ZM24.0814 103.8C20.8654 100.43 18.0611 96.6737 15.7713 92.583C13.1728 87.952 11.2432 82.9865 10.0339 77.8151L17.6237 70.2254C19.013 70.9715 20.5824 71.3832 22.1775 71.3832H34.6556L27.7348 78.304C27.2202 78.8185 27.2202 79.6161 27.7348 80.1307C27.9921 80.3879 28.3265 80.5166 28.6353 80.5166C28.9697 80.5166 29.3042 80.3879 29.5357 80.1307L38.2832 71.3832H44.458C44.6638 72.0521 44.8953 72.721 45.1783 73.3642C36.6881 79.1015 27.7091 84.2471 18.4984 88.6466C17.881 88.9554 17.4179 89.5471 17.315 90.216C17.212 90.8849 17.4179 91.6053 17.9067 92.0942L25.2906 99.4781C25.8052 99.9926 26.3969 100.456 27.0144 100.842L24.0814 103.8ZM39.2095 48.6396L45.9759 55.4061C45.6414 56.0236 45.3584 56.6668 45.1012 57.31C41.1391 56.5381 37.1512 55.6376 33.2406 54.66L39.2095 48.6396ZM56.3443 45.861C54.4147 43.0052 52.5365 40.0465 50.7356 37.0878L58.2739 29.5495V45.1664C57.6307 45.3722 56.9875 45.6037 56.3443 45.861ZM111.376 60.14C109.987 59.3939 108.418 58.9823 106.823 58.9823H94.3445L101.265 52.0615C101.78 51.5469 101.78 50.7493 101.265 50.2348C100.751 49.7202 99.9532 49.7202 99.4386 50.2348L90.6911 58.9823H84.5164C84.3106 58.3134 84.079 57.6444 83.796 57.0012C92.2862 51.2639 101.265 46.1183 110.476 41.7188C111.093 41.4101 111.556 40.8183 111.659 40.1494C111.762 39.4805 111.556 38.7601 111.068 38.2713L103.684 30.8873C103.169 30.3728 102.577 29.9097 101.96 29.5238L104.919 26.565C108.135 29.9354 110.939 33.6917 113.229 37.7824C115.827 42.4135 117.757 47.379 118.966 52.5503L111.376 60.14ZM64.5 9.27586C68.5136 9.27586 72.5272 9.71323 76.4378 10.5623C81.3004 11.6171 85.9829 13.3151 90.3824 15.6307L81.2489 24.7641C80.7344 25.2786 80.7344 26.0762 81.2489 26.5908C81.5062 26.8481 81.8407 26.9767 82.1494 26.9767C82.4582 26.9767 82.8183 26.8481 83.0499 26.5908L92.6979 16.9428C96.4542 19.1297 99.9274 21.7539 103.066 24.7641L99.4129 28.4175C96.0682 27.4913 92.4406 28.4175 89.9707 30.8873L74.2767 46.6329C73.6592 46.2984 73.0417 46.0154 72.3985 45.7581C73.1189 42.0276 73.9679 38.2455 74.8941 34.5407C76.4635 28.3145 78.3417 22.0884 80.4514 16.068C80.6829 15.4248 80.58 14.6787 80.1684 14.1127C79.7567 13.5467 79.1135 13.2122 78.4189 13.2122H71.5238H67.9733C62.6476 13.2122 58.2996 17.5603 58.2996 22.8859V25.8961L49.372 34.8237C46.3618 29.7296 43.5575 24.4554 41.0361 19.1554C40.7274 18.5379 40.1357 18.0748 39.4667 17.9719C38.7721 17.8433 38.0774 18.0748 37.5886 18.5637L30.2047 25.9476C28.378 27.7743 27.3746 30.1927 27.3746 32.7912C27.3746 35.364 28.378 37.8082 30.2047 39.6348L37.3828 46.813L30.3333 53.8624C25.2906 52.4988 20.2479 50.9552 15.3596 49.2314C14.7164 48.9998 13.9703 49.1027 13.4043 49.5144C12.8383 49.926 12.5038 50.5692 12.5038 51.2639V61.7094C12.5038 64.3852 13.6101 66.9065 15.514 68.7075L9.41648 74.805C8.87619 71.6404 8.59318 68.4244 8.59318 65.2084C8.59318 34.3606 33.6779 9.27586 64.5 9.27586ZM64.5 121.09C60.4865 121.09 56.4729 120.652 52.5623 119.803C47.6997 118.748 43.0172 117.05 38.6177 114.735L47.7511 105.601C48.2657 105.087 48.2657 104.289 47.7511 103.775C47.2366 103.26 46.439 103.26 45.9245 103.775L36.2765 113.423C32.5202 111.236 29.0469 108.612 25.9081 105.601L29.5615 101.948C30.4105 102.18 31.2852 102.308 32.16 102.308C34.6813 102.308 37.1769 101.33 39.0036 99.4781L54.7491 83.7326C55.3666 84.067 55.9841 84.35 56.6273 84.6073C55.9069 88.3379 55.0579 92.1199 54.1317 95.8247C52.5623 102.051 50.6841 108.277 48.5744 114.297C48.3429 114.941 48.4458 115.687 48.8574 116.253C49.2691 116.819 49.9123 117.153 50.6069 117.153H57.502H61.0525C66.3782 117.153 70.7262 112.805 70.7262 107.479V104.469L79.6281 95.5674C82.6382 100.662 85.4426 105.936 87.9639 111.236C88.2727 111.853 88.8644 112.316 89.5333 112.419C89.662 112.445 89.7649 112.445 89.8935 112.445C90.4595 112.445 90.9998 112.213 91.4115 111.828L98.7954 104.444C100.622 102.617 101.625 100.198 101.625 97.5999C101.625 95.0272 100.622 92.583 98.7954 90.7563L91.6173 83.5782L98.6668 76.5287C103.709 77.8923 108.752 79.4617 113.64 81.1855C113.872 81.2627 114.104 81.3141 114.361 81.3141C114.798 81.3141 115.236 81.1855 115.596 80.9282C116.162 80.5166 116.496 79.8734 116.496 79.1787V68.7332C116.496 66.0575 115.39 63.5361 113.486 61.7352L119.584 55.6376C120.124 58.8022 120.407 62.0182 120.407 65.2342C120.407 96.0048 95.3221 121.09 64.5 121.09Z" fill="#FF14A1"/>
<path d="M119.867 32.0707C117.139 27.5169 113.846 23.2975 110.116 19.5669C106.359 15.8107 102.166 12.5432 97.6119 9.81604C92.7236 6.88306 87.5008 4.64472 82.0465 3.10105C76.3606 1.50591 70.4689 0.682617 64.5 0.682617C47.2623 0.682617 31.0794 7.39761 18.8843 19.5669C6.68927 31.7363 0 47.9449 0 65.1826C0 71.1258 0.823295 77.0432 2.41843 82.7291C3.96211 88.1834 6.22617 93.4062 9.13343 98.2945C11.8606 102.848 15.1538 107.068 18.8843 110.798C22.6406 114.555 26.8343 117.822 31.3881 120.549C36.2764 123.482 41.4992 125.721 46.9535 127.264C50.8899 128.37 54.9549 129.117 59.0457 129.451C59.0714 129.451 59.1229 129.451 59.1486 129.451C59.8175 129.451 60.3835 128.937 60.435 128.268C60.4864 127.547 59.9719 126.93 59.2515 126.878C55.3151 126.544 51.4302 125.849 47.6482 124.769C42.4254 123.302 37.3827 121.115 32.7002 118.311C28.3265 115.687 24.2872 112.548 20.6853 108.946C17.0834 105.344 13.9446 101.305 11.3203 96.9309C8.51595 92.2484 6.35481 87.2315 4.86259 81.983C3.31891 76.5286 2.54707 70.8685 2.54707 65.1312C2.54707 30.9902 30.3333 3.20396 64.4743 3.20396C70.1859 3.20396 75.8718 3.9758 81.3261 5.51947C86.5489 6.98597 91.5915 9.17284 96.274 11.9772C100.648 14.6014 104.687 17.7403 108.289 21.3422C111.891 24.9441 115.03 28.9834 117.654 33.3571C120.458 38.0396 122.619 43.0566 124.112 48.3051C125.655 53.7594 126.427 59.4195 126.427 65.1569C126.427 97.111 101.523 124.203 69.7228 126.878C69.0024 126.93 68.4878 127.547 68.5393 128.268C68.5908 128.937 69.1568 129.451 69.8257 129.451C69.8514 129.451 69.9029 129.451 69.9286 129.451C85.9828 128.113 100.879 120.832 111.865 108.946C122.902 97.0081 129 81.4427 129 65.1826C129 59.2395 128.177 53.322 126.582 47.6361C125.064 42.1818 122.8 36.959 119.867 32.0707Z" fill="#11CFE7"/>
<path d="M64.5 51.0322C56.7044 51.0322 50.3496 57.387 50.3496 65.1826C50.3496 68.9646 51.8161 72.5151 54.4918 75.1908C57.1675 77.8665 60.718 79.333 64.5 79.333C72.2956 79.333 78.6504 72.9782 78.6504 65.1826C78.6504 61.4006 77.1839 57.8501 74.5082 55.1744C71.8325 52.4987 68.282 51.0322 64.5 51.0322ZM64.5 76.7602C61.4126 76.7602 58.5054 75.551 56.3185 73.3641C54.1316 71.1772 52.9224 68.27 52.9224 65.1826C52.9224 58.8021 58.1195 53.605 64.5 53.605C67.5873 53.605 70.4946 54.8142 72.6815 57.0011C74.8684 59.188 76.0776 62.0952 76.0776 65.1826C76.0776 71.5631 70.8805 76.7602 64.5 76.7602Z" fill="#11CFE7"/>
</svg>
