<svg width="16" height="20" viewBox="0 0 16 20" fill="none" xmlns="http://www.w3.org/2000/svg">
<path d="M7.99947 9.78131C10.2231 9.78131 12.0259 7.59171 12.0259 4.89069C12.0259 2.1896 11.434 0 7.99947 0C4.5649 0 3.9729 2.1896 3.9729 4.89069C3.9729 7.59171 5.7757 9.78131 7.99947 9.78131Z" fill="white"/>
<path d="M0.394835 17.2488C0.394149 17.0841 0.393463 17.2024 0.394835 17.2488V17.2488Z" fill="white"/>
<path d="M15.6052 17.3774C15.6074 17.3323 15.606 17.0646 15.6052 17.3774V17.3774Z" fill="white"/>
<path d="M15.5963 17.0513C15.5217 12.346 14.9072 11.0053 10.2048 10.1566C10.2048 10.1566 9.54283 11.0001 7.99997 11.0001C6.45712 11.0001 5.79506 10.1566 5.79506 10.1566C1.14392 10.996 0.492033 12.3169 0.406318 16.8984C0.39929 17.2725 0.396033 17.2922 0.394775 17.2488C0.395061 17.3301 0.395404 17.4806 0.395404 17.7431C0.395404 17.7431 1.51495 20 7.99997 20C14.4849 20 15.6045 17.7431 15.6045 17.7431C15.6045 17.5745 15.6047 17.4572 15.6048 17.3774C15.6036 17.4043 15.6011 17.3522 15.5963 17.0513Z" fill="white"/>
</svg>
