<svg width="18" height="14" viewBox="0 0 18 14" fill="none" xmlns="http://www.w3.org/2000/svg">
<path d="M16.8359 0.0135193C16.7796 0.0135193 16.7232 0.0135183 16.6386 0.0410406L0.62539 5.98478C0.174313 6.14991 0.174315 6.7828 0.653584 6.92041L4.37497 8.1312L6.60216 12.5065C6.63035 12.589 6.71492 12.644 6.82767 12.644C6.88406 12.644 6.94045 12.6165 6.96868 12.589L9.0549 10.8554L6.71492 9.12181L6.91229 11.4058L5.22074 7.99359L14.1577 2.73772L6.74311 9.14933L12.5507 13.442C12.7481 13.5797 12.9736 13.6622 13.1992 13.6622C13.6502 13.6622 14.1013 13.3595 14.2141 12.8917L17.3434 0.646405C17.3998 0.316201 17.146 0.0135193 16.8359 0.0135193Z" fill="#FF14A1"/>
</svg>
