<svg width="16" height="16" viewBox="0 0 16 16" fill="none" xmlns="http://www.w3.org/2000/svg">
<path d="M7.83781 0.331085C3.6922 0.331085 0.331055 3.69223 0.331055 7.83784C0.331055 9.24611 0.726624 10.5591 1.40135 11.6853L0.398254 15.3446L4.13575 14.3635C5.22881 14.9849 6.49065 15.3446 7.83781 15.3446C11.9834 15.3446 15.3446 11.9834 15.3446 7.83784C15.3446 3.69223 11.9834 0.331085 7.83781 0.331085ZM5.26836 4.33615C5.39034 4.33615 5.51568 4.33541 5.6239 4.34104C5.75777 4.34417 5.90348 4.35397 6.04298 4.66238C6.20876 5.02896 6.56972 5.94858 6.61601 6.04179C6.6623 6.135 6.6951 6.24481 6.63067 6.36679C6.56936 6.4919 6.53748 6.56763 6.4474 6.67835C6.35419 6.78595 6.25206 6.91958 6.16761 7.00091C6.0744 7.09411 5.97815 7.19632 6.08575 7.38211C6.19334 7.5679 6.56702 8.17697 7.11939 8.66867C7.8294 9.30299 8.42846 9.49792 8.61488 9.59113C8.80129 9.68434 8.90925 9.66981 9.01685 9.5447C9.12757 9.42271 9.48187 9.00414 9.60698 8.81773C9.72897 8.63131 9.85349 8.66356 10.0224 8.72487C10.1938 8.78617 11.1079 9.23645 11.2943 9.32966C11.4807 9.42287 11.6029 9.46901 11.6498 9.5447C11.698 9.62289 11.6981 9.99514 11.5435 10.4293C11.389 10.8628 10.6303 11.282 10.29 11.3114C9.94653 11.3433 9.62602 11.4658 8.05773 10.8484C6.16603 10.1033 4.97303 8.16577 4.87983 8.04066C4.78662 7.91868 4.12231 7.03331 4.12231 6.11999C4.12231 5.20354 4.60281 4.75471 4.77109 4.5683C4.94249 4.38188 5.14325 4.33615 5.26836 4.33615Z" fill="#FF14A1"/>
</svg>
