<svg width="16" height="10" viewBox="0 0 16 10" fill="none" xmlns="http://www.w3.org/2000/svg">
<path d="M1.66363 0.923426L1.66361 0.923402C1.45498 0.692212 1.10502 0.692177 0.896391 0.923425C0.79649 1.03416 0.749998 1.17498 0.749998 1.31034C0.749998 1.44571 0.796495 1.58651 0.896348 1.69724L0.896391 1.69729L7.61638 9.14567L7.6164 9.1457C7.82503 9.37689 8.17498 9.37692 8.38362 9.14567L15.1036 1.69729L15.1036 1.69726C15.2987 1.48094 15.2989 1.13979 15.1036 0.923403C14.8949 0.692213 14.545 0.692177 14.3364 0.923426C14.3364 0.923426 14.3364 0.923426 14.3364 0.923426L7.99998 7.94659L1.66363 0.923426Z" fill="white" stroke="white" stroke-width="0.5"/>
</svg>
