<svg width="187" height="187" viewBox="0 0 187 187" fill="none" xmlns="http://www.w3.org/2000/svg">
<g filter="url(#filter0_d)">
<path d="M75.6133 8C72.7326 8 70.3321 10.0394 69.7685 12.7516L69.7633 12.7881L63.955 41.8141L46.7389 76.2281C46.5145 76.5671 46.3161 76.9531 46.1648 77.3651L46.1492 77.4069L45.0846 79.5401H15.9648C12.6719 79.5401 10 82.2054 10 85.5018V168.96C10 172.251 12.6719 174.922 15.9648 174.922H50.7937C51.0807 174.969 51.4095 175 51.7435 175C52.0775 175 52.4062 174.974 52.7298 174.922L52.6933 174.927H147.181C149.963 174.922 152.295 173.023 152.953 170.452L152.963 170.41L176.823 75.0285C176.937 74.5955 177 74.1 177 73.5837C177 70.2925 174.333 67.622 171.04 67.622H105.432V31.8519C105.432 18.7446 94.6872 8.00522 81.5729 8.00522H75.6081L75.6133 8ZM80.5031 19.9234H81.5781C88.2892 19.9234 93.5078 25.1392 93.5078 31.8467V73.5785C93.5078 76.8696 96.1745 79.5401 99.4727 79.5401H163.411L142.531 162.998H57.724V80.9484L74.9871 46.4406C75.2062 46.0077 75.3889 45.5069 75.4933 44.9854L75.4985 44.9488L80.5031 19.9338V19.9234ZM21.9349 91.4583H45.7943V162.993H21.9349V91.4583Z" fill="#FF14A1"/>
</g>
<defs>
<filter id="filter0_d" x="0" y="0" width="187" height="187" filterUnits="userSpaceOnUse" color-interpolation-filters="sRGB">
<feFlood flood-opacity="0" result="BackgroundImageFix"/>
<feColorMatrix in="SourceAlpha" type="matrix" values="0 0 0 0 0 0 0 0 0 0 0 0 0 0 0 0 0 0 127 0"/>
<feOffset dy="2"/>
<feGaussianBlur stdDeviation="5"/>
<feColorMatrix type="matrix" values="0 0 0 0 1 0 0 0 0 0.0784314 0 0 0 0 0.631373 0 0 0 0.25 0"/>
<feBlend mode="normal" in2="BackgroundImageFix" result="effect1_dropShadow"/>
<feBlend mode="normal" in="SourceGraphic" in2="effect1_dropShadow" result="shape"/>
</filter>
</defs>
</svg>
