<svg width="23" height="22" viewBox="0 0 23 22" fill="none" xmlns="http://www.w3.org/2000/svg">
<path d="M16.0463 0H5.95578C2.67171 0 0 2.6391 0 5.8821V15.847C0 19.0909 2.67171 21.7291 5.95578 21.7291H16.0465C19.3304 21.7291 22.0021 19.0909 22.0021 15.847V5.8821C22.0021 2.6391 19.3304 0 16.0463 0ZM11.0011 16.8056C7.68376 16.8056 4.98503 14.1408 4.98503 10.8645C4.98503 7.58824 7.68376 4.92347 11.0011 4.92347C14.3183 4.92347 17.0171 7.58824 17.0171 10.8645C17.0171 14.1408 14.3183 16.8056 11.0011 16.8056ZM17.161 6.32433C16.1807 6.32433 15.3833 5.53688 15.3833 4.56873C15.3833 3.60059 16.1807 2.81314 17.161 2.81314C18.1413 2.81314 18.9389 3.60059 18.9389 4.56873C18.9389 5.53688 18.1413 6.32433 17.161 6.32433Z" fill="#FF14A1"/>
<path d="M11.0306 7.35352C9.00329 7.35352 7.35376 9.00315 7.35376 11.0304C7.35376 13.0576 9.00329 14.7072 11.0306 14.7072C13.0581 14.7072 14.7075 13.0576 14.7075 11.0304C14.7075 9.00315 13.0581 7.35352 11.0306 7.35352Z" fill="#FF14A1"/>
<path d="M17.1609 4.08691C16.892 4.08691 16.6731 4.30375 16.6731 4.56909C16.6731 4.83442 16.892 5.05125 17.1609 5.05125C17.43 5.05125 17.6489 4.83442 17.6489 4.56909C17.6489 4.30375 17.43 4.08691 17.1609 4.08691Z" fill="#FF14A1"/>
</svg>
