<svg width="21" height="16" viewBox="0 0 21 16" fill="none" xmlns="http://www.w3.org/2000/svg">
<path d="M1.92833 4.86576C2.18248 5.0451 2.94858 5.57774 4.22666 6.46341C5.50478 7.34908 6.48391 8.03102 7.16408 8.50928C7.23881 8.5617 7.39758 8.67566 7.64045 8.85131C7.88337 9.02707 8.08521 9.16911 8.24582 9.27745C8.40655 9.38576 8.60085 9.50725 8.82892 9.64175C9.05692 9.77613 9.27184 9.8772 9.47364 9.94412C9.67548 10.0116 9.86232 10.045 10.0342 10.045H10.0455H10.0568C10.2287 10.045 10.4156 10.0115 10.6174 9.94412C10.8191 9.8772 11.0343 9.77601 11.2621 9.64175C11.49 9.5071 11.6843 9.38572 11.845 9.27745C12.0057 9.16911 12.2074 9.02707 12.4504 8.85131C12.6933 8.6755 12.8522 8.5617 12.9269 8.50928C13.6145 8.03102 15.3636 6.8164 18.1738 4.86552C18.7194 4.4845 19.1753 4.02474 19.5415 3.48656C19.9079 2.94862 20.0909 2.38428 20.0909 1.79388C20.0909 1.3005 19.9133 0.878168 19.5583 0.526909C19.2032 0.175571 18.7827 0 18.2971 0H1.79376C1.21828 0 0.775402 0.194302 0.465218 0.582906C0.155073 0.971589 0 1.45742 0 2.04037C0 2.51124 0.205611 3.0215 0.616638 3.57083C1.02763 4.1202 1.465 4.55188 1.92833 4.86576Z" fill="#FF14A1"/>
<path d="M18.9696 6.06569C16.5183 7.72484 14.657 9.01427 13.3865 9.93371C12.9605 10.2475 12.6149 10.4925 12.3495 10.668C12.0841 10.8436 11.7311 11.023 11.29 11.2061C10.8491 11.3894 10.4382 11.4807 10.0569 11.4807H10.0455H10.0342C9.65305 11.4807 9.24191 11.3894 8.801 11.2061C8.36009 11.023 8.00686 10.8436 7.74153 10.668C7.47626 10.4925 7.13054 10.2475 6.70455 9.93371C5.69547 9.19381 3.83813 7.9043 1.13247 6.06569C0.706327 5.78186 0.328876 5.45651 0 5.09033V13.992C0 14.4856 0.175571 14.9077 0.526908 15.259C0.878168 15.6104 1.30054 15.7861 1.79388 15.7861H18.2972C18.7904 15.7861 19.2128 15.6104 19.5641 15.259C19.9155 14.9076 20.091 14.4856 20.091 13.992V5.09033C19.7695 5.44893 19.3959 5.77428 18.9696 6.06569Z" fill="#FF14A1"/>
</svg>
