<svg width="34" height="37" viewBox="0 0 34 37" fill="none" xmlns="http://www.w3.org/2000/svg">
<path d="M21.4433 8.27422C19.6617 6.15101 17.0487 4.93341 14.2747 4.93341C12.0826 4.93341 9.9495 5.71037 8.26796 7.12145C6.35419 8.72702 5.18039 10.9819 4.9626 13.4698C4.74507 15.9587 5.50961 18.3827 7.11544 20.2963C8.89676 22.4195 11.5095 23.6371 14.284 23.6371C16.4756 23.6371 18.6087 22.8601 20.29 21.449C24.2404 18.1346 24.7577 12.2238 21.4433 8.27422ZM19.9567 21.0519C18.3686 22.385 16.3541 23.1184 14.284 23.1184C11.6632 23.1184 9.19534 21.9687 7.51278 19.963C5.9961 18.1558 5.27385 15.8655 5.47948 13.5154C5.68486 11.1653 6.79357 9.03497 8.60123 7.51854C10.1896 6.18546 12.2044 5.45206 14.2747 5.45206C16.895 5.45206 19.3631 6.60179 21.0462 8.60748C24.1768 12.3383 23.688 17.9208 19.9567 21.0519Z" fill="#11CFE7" stroke="#11CFE7"/>
<path d="M25.5697 24.5518L24.1973 25.7025L23.0126 24.2904C28.4432 19.5517 29.1088 11.2898 24.4559 5.74581C21.9249 2.72915 18.2131 1 14.2719 1C11.1582 1 8.12816 2.10313 5.73956 4.10782C0.128409 8.81616 -0.606253 17.2127 4.10208 22.8246C6.63301 25.8403 10.3448 27.5705 14.2861 27.5705C17.3129 27.5705 20.2558 26.52 22.6123 24.6197L23.7997 26.0368L22.4281 27.1876L29.8556 36.038L32.9971 33.4022L25.5697 24.5518ZM22.4851 24.0645C20.1897 25.9912 17.2779 27.0518 14.2861 27.0518C10.4985 27.0518 6.93133 25.3895 4.49917 22.4914C-0.0250534 17.0983 0.68074 9.02989 6.07283 4.50491C8.36824 2.57924 11.2801 1.51865 14.2719 1.51865C18.0594 1.51865 21.6266 3.18095 24.0588 6.07909C28.5835 11.4712 27.8777 19.5396 22.4851 24.0645ZM23.159 27.2514L25.5058 25.2821L32.2662 33.3384L29.9194 35.3076L23.159 27.2514Z" fill="#11CFE7" stroke="#11CFE7"/>
</svg>
