<svg width="22" height="22" viewBox="0 0 22 22" fill="none" xmlns="http://www.w3.org/2000/svg">
<path d="M11 0C8.82441 0 6.69767 0.645138 4.88873 1.85383C3.07979 3.06253 1.66989 4.78049 0.83733 6.79048C0.0047661 8.80047 -0.213071 11.0122 0.211367 13.146C0.635804 15.2798 1.68345 17.2398 3.22183 18.7782C4.76021 20.3165 6.72022 21.3642 8.85401 21.7886C10.9878 22.2131 13.1995 21.9952 15.2095 21.1627C17.2195 20.3301 18.9375 18.9202 20.1462 17.1113C21.3549 15.3023 22 13.1756 22 11C22 9.55546 21.7155 8.12506 21.1627 6.79048C20.6099 5.4559 19.7996 4.24327 18.7782 3.22182C17.7567 2.20038 16.5441 1.39013 15.2095 0.837325C13.8749 0.284523 12.4445 0 11 0ZM14.8645 13.8108L11.8076 12.0218C11.6156 12.1735 11.3848 12.2681 11.1416 12.2947C10.8983 12.3213 10.6525 12.2788 10.4323 12.1722C10.2121 12.0656 10.0263 11.899 9.89634 11.6917C9.76637 11.4844 9.69741 11.2447 9.69737 11C9.69731 10.7361 9.77722 10.4784 9.92657 10.2608C10.0759 10.0433 10.2877 9.8761 10.5339 9.78131V3.53158H11.4632V9.78421C11.7095 9.87835 11.9216 10.0449 12.0714 10.2619C12.2213 10.479 12.3019 10.7363 12.3026 11C12.3031 11.0738 12.2963 11.1475 12.2824 11.22L15.3421 13.0089L14.8645 13.8108Z" fill="#FF14A1"/>
</svg>
