<svg width="15" height="14" viewBox="0 0 15 14" fill="none" xmlns="http://www.w3.org/2000/svg">
<path d="M14.9729 2.15377C14.4227 2.40127 13.8315 2.56795 13.2109 2.64308C13.8446 2.25858 14.3311 1.64931 14.5598 0.923244C13.9673 1.27933 13.3106 1.53819 12.6116 1.67772C12.0527 1.07351 11.2546 0.695953 10.3724 0.695953C8.39175 0.695953 6.93634 2.56858 7.38368 4.51255C4.83484 4.38312 2.57447 3.14564 1.06111 1.26481C0.257396 2.66202 0.644301 4.48982 2.01 5.4154C1.50783 5.39898 1.03432 5.25945 0.621249 5.02648C0.587605 6.46662 1.60627 7.81395 3.08162 8.11384C2.64985 8.23254 2.17697 8.26032 1.69599 8.16688C2.08601 9.40182 3.21868 10.3003 4.56195 10.3255C3.27227 11.3502 1.64739 11.808 0.0200195 11.6135C1.37761 12.4955 2.99065 13.0101 4.72269 13.0101C10.4185 13.0101 13.6365 8.13531 13.4421 3.76312C14.0414 3.32432 14.5617 2.77693 14.9729 2.15377Z" fill="#FF14A1"/>
</svg>
