<svg width="28" height="18" viewBox="0 0 28 18" fill="none" xmlns="http://www.w3.org/2000/svg">
<path d="M27.8515 16.2563C27.8176 16.1734 27.786 16.1053 27.7566 16.051C27.2708 15.0649 26.3425 13.8553 24.9722 12.4202L24.9432 12.3872L24.9287 12.3713L24.9141 12.3542H24.8993C24.2774 11.6872 23.8836 11.2372 23.7186 11.0075C23.4169 10.5692 23.3492 10.1266 23.5142 9.67661C23.6307 9.33725 24.0684 8.62025 24.8263 7.52557C25.2249 6.94473 25.5406 6.47982 25.7738 6.12983C27.4553 3.6107 28.1843 2.00114 27.9606 1.30008L27.8738 1.13625C27.8154 1.03731 27.6648 0.94796 27.422 0.864981C27.1788 0.783067 26.8679 0.769227 26.4888 0.824546L22.2903 0.856459C22.2223 0.829864 22.1252 0.832003 21.9987 0.864981C21.8723 0.89796 21.809 0.914978 21.809 0.914978L21.736 0.955397L21.678 1.00539C21.6293 1.03837 21.5759 1.09582 21.5176 1.17774C21.4595 1.25965 21.4109 1.3554 21.3721 1.46497C20.915 2.79049 20.3953 4.0224 19.812 5.16069C19.4524 5.83941 19.1222 6.42877 18.8206 6.92664C18.5193 7.42451 18.2666 7.79152 18.0627 8.02663C17.8585 8.2628 17.6741 8.4511 17.5085 8.59365C17.3433 8.7362 17.2171 8.79684 17.1297 8.7745C17.0422 8.75216 16.9597 8.73088 16.8817 8.70854C16.7457 8.60961 16.6363 8.47556 16.5539 8.30641C16.471 8.1362 16.4152 7.92238 16.386 7.66493C16.3571 7.40749 16.3399 7.18621 16.335 7.00004C16.3305 6.81387 16.3326 6.55111 16.3425 6.21175C16.3526 5.87239 16.3571 5.64261 16.3571 5.52133C16.3571 5.10538 16.3643 4.6543 16.3787 4.16707C16.3935 3.67878 16.4053 3.29369 16.4153 3.00858C16.4252 2.72454 16.4298 2.42242 16.4298 2.1054C16.4298 1.78732 16.4126 1.53838 16.3787 1.35753C16.3452 1.17774 16.2938 1.00221 16.226 0.831997C16.1579 0.662849 16.0581 0.53094 15.9272 0.438388C15.7961 0.344771 15.6329 0.271368 15.4388 0.216049C14.9237 0.085199 14.2677 0.0139187 13.4705 0.00221662C11.663 -0.0190598 10.5014 0.112856 9.98633 0.396897C9.78225 0.517109 9.59756 0.681999 9.43243 0.889444C9.25744 1.13093 9.23303 1.26178 9.35936 1.28412C9.94258 1.382 10.3555 1.61817 10.5985 1.9905L10.6861 2.18731C10.7541 2.32986 10.8221 2.58198 10.8902 2.94261C10.9582 3.30431 11.002 3.70432 11.0214 4.14156C11.0699 4.94155 11.0699 5.62558 11.0214 6.19473C10.9726 6.76493 10.9267 7.20749 10.8829 7.52557C10.839 7.84259 10.7734 8.10004 10.6861 8.29791C10.5985 8.49471 10.5402 8.61491 10.511 8.65853C10.4819 8.70215 10.4576 8.72982 10.4382 8.74046C10.3119 8.79578 10.1805 8.82342 10.0445 8.82342C9.90837 8.82342 9.74323 8.74683 9.5489 8.59258C9.35461 8.43939 9.15296 8.22876 8.94397 7.96067C8.73497 7.69259 8.49928 7.31706 8.23677 6.83515C7.97447 6.35324 7.70231 5.78408 7.42046 5.12771L7.18725 4.65111C7.04147 4.34473 6.84233 3.89793 6.58963 3.31176C6.33677 2.72666 6.11328 2.15965 5.91899 1.61178C5.84132 1.38199 5.72465 1.20646 5.56917 1.08625L5.4962 1.03731C5.44769 0.99369 5.36982 0.946894 5.263 0.896895C5.15603 0.847959 5.04441 0.812846 4.92768 0.790506L0.933199 0.823491C0.525014 0.823491 0.248056 0.927745 0.102225 1.13519L0.0438618 1.23413C0.0147057 1.28945 0 1.37667 0 1.49689C0 1.6171 0.029156 1.76498 0.0875193 1.94051C0.670641 3.48411 1.30477 4.97346 1.98992 6.40856C2.67506 7.84259 3.27043 8.99789 3.77569 9.87341C4.28105 10.75 4.79615 11.5766 5.32101 12.3542C5.84587 13.1319 6.1933 13.6298 6.36328 13.8489C6.53346 14.0681 6.66714 14.2319 6.76431 14.3415L7.12884 14.7362C7.36209 14.9989 7.70461 15.3138 8.15655 15.6798C8.6086 16.0468 9.10905 16.4085 9.65817 16.7649C10.2074 17.1202 10.8463 17.4106 11.5753 17.6351C12.3043 17.8595 13.0136 17.95 13.7038 17.9063H15.3803C15.7203 17.8734 15.978 17.7532 16.153 17.5447L16.211 17.4627C16.2501 17.3968 16.2865 17.2957 16.3202 17.1585C16.3544 17.0223 16.3713 16.8713 16.3713 16.7074C16.3613 16.2361 16.3931 15.8117 16.4659 15.434C16.5385 15.0564 16.6213 14.7723 16.7139 14.5798C16.8066 14.3883 16.911 14.2266 17.0273 14.0957C17.1438 13.9649 17.2269 13.8851 17.2756 13.8574C17.324 13.8298 17.3626 13.8117 17.3918 13.8C17.625 13.7128 17.8996 13.7979 18.2157 14.0553C18.5316 14.3128 18.828 14.6298 19.1051 15.0074C19.3821 15.3861 19.715 15.8096 20.1036 16.2808C20.4925 16.751 20.8326 17.1021 21.124 17.3319L21.4155 17.5287C21.6102 17.6606 21.8629 17.7808 22.1739 17.8904C22.4844 18 22.7565 18.0276 22.9901 17.9723L26.722 17.9074C27.0911 17.9074 27.3784 17.8383 27.5821 17.701C27.7862 17.5648 27.9076 17.4138 27.9466 17.25C27.9857 17.0861 27.9877 16.8989 27.954 16.6915C27.9195 16.483 27.8854 16.3383 27.8515 16.2563Z" fill="#FF14A1"/>
</svg>
