<svg width="286" height="54" viewBox="0 0 286 54" fill="none" xmlns="http://www.w3.org/2000/svg">
<path d="M263.776 43.192C275.422 43.192 284.864 33.747 284.864 22.096C284.864 10.445 275.422 1 263.776 1C252.129 1 242.688 10.445 242.688 22.096C242.688 33.747 252.129 43.192 263.776 43.192Z" stroke="#11CFE7" stroke-miterlimit="10"/>
<path d="M263.776 22.096H28.6446L3.86621 49.345" stroke="#11CFE7" stroke-miterlimit="10"/>
<path d="M4.04188 53.2126C6.27415 53.2126 8.08374 51.4023 8.08374 49.1692C8.08374 46.9361 6.27415 45.1258 4.04188 45.1258C1.80962 45.1258 0 46.9361 0 49.1692C0 51.4023 1.80962 53.2126 4.04188 53.2126Z" fill="#CC2C93"/>
<path d="M263.776 32.1166C269.308 32.1166 273.793 27.6302 273.793 22.096C273.793 16.5618 269.308 12.0754 263.776 12.0754C258.244 12.0754 253.759 16.5618 253.759 22.096C253.759 27.6302 258.244 32.1166 263.776 32.1166Z" fill="#CC2C93"/>
</svg>
