<svg preserveAspectRatio="none" width="520" height="446" viewBox="0 0 520 446" fill="none" xmlns="http://www.w3.org/2000/svg">
<path d="M330.805 445L147.58 445L134.797 432.501L44.4629 432.501L13.7834 401.537L13.7834 232.8L1.0003 220.017L1.0003 120.025L13.7834 107.526L13.7834 0.999978L229.676 0.999987L242.459 13.499L372.847 13.499L385.63 0.999994L461.76 0.999998L518.574 57.8138L518.574 129.115L506.075 141.614L506.075 432.501L343.588 432.501L330.805 445Z" fill="#00052E" stroke="#01DDFF" stroke-miterlimit="10" stroke-linecap="round"/>
<path d="M518.574 147.296L518.574 433.069" stroke="#01DDFF" stroke-miterlimit="10" stroke-linecap="round"/>
<path d="M129.115 441.591L44.4626 441.591" stroke="#01DDFF" stroke-miterlimit="10" stroke-linecap="round"/>
<path d="M1 239.902L0.999993 397.276" stroke="#01DDFF" stroke-miterlimit="10" stroke-linecap="round"/>
<path d="M368.018 1L247.572 0.999995" stroke="#01DDFF" stroke-miterlimit="10" stroke-linecap="round"/>
</svg>
