<svg width="114" height="114" viewBox="0 0 114 114" fill="none" xmlns="http://www.w3.org/2000/svg">
<path opacity="0.7" d="M56.7386 112.519C87.5221 112.519 112.477 87.5549 112.477 56.7597C112.477 25.9645 87.5221 1 56.7386 1C25.955 1 1 25.9645 1 56.7597C1 87.5549 25.955 112.519 56.7386 112.519Z" fill="#0D0D0D"/>
<path d="M56.7386 112.519C87.5221 112.519 112.477 87.5549 112.477 56.7597C112.477 25.9645 87.5221 1 56.7386 1C25.955 1 1 25.9645 1 56.7597C1 87.5549 25.955 112.519 56.7386 112.519Z" stroke="#FF14A1" stroke-width="1.5" stroke-miterlimit="10"/>
<mask id="path-3-outside-1" maskUnits="userSpaceOnUse" x="10.4045" y="12.2399" width="91" height="90" fill="black">
<rect fill="white" x="10.4045" y="12.2399" width="91" height="90"/>
<path d="M25.244 26.3288C25.4706 26.1021 25.6972 25.8754 25.9238 25.6488L28.4162 28.2932C28.1896 28.5198 28.0385 28.671 27.8119 28.8976L25.244 26.3288ZM21.6943 30.3332L24.5643 32.5998C24.4133 32.8265 24.1867 33.0532 24.0356 33.2798L21.0901 31.0887C21.3167 30.8621 21.4677 30.5598 21.6943 30.3332ZM29.9267 22.2488C30.1533 22.0221 30.4554 21.871 30.682 21.7199L32.7967 24.6665C32.5701 24.8176 32.3435 25.0443 32.117 25.1954L29.9267 22.2488ZM18.2201 35.5465L21.3922 37.3598C21.2411 37.5865 21.0901 37.8887 20.939 38.1154L17.7669 36.3776C17.918 36.0754 18.069 35.7731 18.2201 35.5465ZM35.2135 18.8488C35.5156 18.6977 35.7422 18.5466 36.0443 18.3955L37.7059 21.6443C37.4793 21.7954 37.1772 21.9465 36.9507 22.0221L35.2135 18.8488ZM15.5011 41.1376L18.8243 42.4976C18.7488 42.7998 18.5977 43.0264 18.5222 43.3287L15.1235 42.0442C15.2745 41.742 15.3501 41.4398 15.5011 41.1376ZM40.878 16.2799C41.1801 16.2044 41.4822 16.0532 41.7844 15.9777L42.9928 19.4532C42.6907 19.5288 42.4641 19.6799 42.162 19.7554L40.878 16.2799ZM13.613 47.1064L17.1627 47.9375C17.0872 48.2397 17.0117 48.4664 16.9361 48.7686L13.3864 48.0131C13.4619 47.7109 13.5374 47.4086 13.613 47.1064ZM46.9202 14.4666C47.2223 14.391 47.5244 14.3155 47.8265 14.2399L48.5062 17.791C48.2041 17.8666 47.902 17.9421 47.6754 17.9421L46.9202 14.4666ZM12.5556 53.3019L16.1809 53.6042C16.1809 53.9064 16.1053 54.2086 16.1053 54.5108L12.4801 54.2842C12.4801 53.9064 12.5556 53.6042 12.5556 53.3019ZM12.4045 59.573L16.0298 59.4219C16.0298 59.7241 16.0298 60.0264 16.1053 60.3286L12.4801 60.5552C12.4801 60.1775 12.4801 59.8752 12.4045 59.573ZM77.2818 18.8488C77.5839 18.9999 77.8105 19.151 78.1126 19.3021L76.3 22.4754C76.0734 22.3243 75.7713 22.1732 75.5447 22.0221L77.2818 18.8488ZM82.4931 22.1732C82.7197 22.3999 83.0218 22.551 83.2484 22.7777L80.9826 25.6488C80.756 25.4976 80.5294 25.271 80.3029 25.1199L82.4931 22.1732ZM87.2513 26.3288C87.4779 26.5554 87.7045 26.7821 87.931 27.0087L85.2876 29.5021C85.061 29.2754 84.91 29.1243 84.6834 28.8976L87.2513 26.3288ZM88.4597 33.2043L91.4053 31.0132C91.6319 31.2398 91.7829 31.5421 91.934 31.7687L88.9884 33.8843C88.8374 33.6576 88.6108 33.4309 88.4597 33.2043ZM91.5563 38.0398L94.7284 36.302C94.8795 36.6043 95.0305 36.8309 95.1816 37.1331L91.934 38.7954C91.8584 38.5687 91.7074 38.2665 91.5563 38.0398ZM93.9732 43.2531L97.3719 41.9687C97.4474 42.2709 97.5984 42.5731 97.674 42.8753L94.1998 44.0842C94.1242 43.782 94.0487 43.5553 93.9732 43.2531ZM46.9202 96.5195C47.2223 96.595 47.4488 96.6706 47.7509 96.7461L46.9957 100.297C46.6936 100.222 46.3915 100.146 46.0894 100.071L46.9202 96.5195ZM95.5592 48.7686L99.109 48.0131C99.1845 48.3153 99.26 48.6175 99.3356 48.9197L95.7858 49.5997C95.7103 49.3731 95.6348 49.0709 95.5592 48.7686ZM52.5846 97.5017C52.8867 97.5017 53.1889 97.5773 53.4154 97.5773L53.1889 101.204C52.8867 101.204 52.5846 101.128 52.207 101.128L52.5846 97.5017ZM96.39 54.4353L100.015 54.2086C100.015 54.5108 100.091 54.813 100.091 55.1908L96.4655 55.3419C96.4655 55.0397 96.39 54.7375 96.39 54.4353ZM58.3247 97.5773C58.6268 97.5773 58.9289 97.5773 59.231 97.5017L59.5331 101.128C59.231 101.128 58.9289 101.204 58.5512 101.204L58.3247 97.5773ZM64.0647 96.8973C64.3668 96.8217 64.6689 96.7461 64.8955 96.7461L65.6507 100.297C65.3486 100.373 65.0465 100.448 64.7444 100.524L64.0647 96.8973ZM69.5781 95.3862C69.8802 95.3106 70.1068 95.1595 70.4089 95.0839L71.6929 98.4839C71.3907 98.5595 71.0886 98.7106 70.7865 98.7861L69.5781 95.3862ZM74.865 93.1195C75.0915 92.9684 75.3936 92.8173 75.6202 92.7417L77.3573 95.9151C77.0552 96.0662 76.8287 96.2173 76.5265 96.3684L74.865 93.1195ZM79.6987 90.0973C79.9252 89.9462 80.1518 89.7195 80.3784 89.5684L82.5687 92.5151C82.3421 92.7417 82.04 92.8928 81.8134 93.044L79.6987 90.0973ZM84.1547 86.3951C84.3813 86.244 84.5324 86.0173 84.7589 85.8662L84.8345 85.7906L87.4024 88.3595L87.3268 88.4351C87.1003 88.6617 86.9492 88.8129 86.7226 89.0395L84.1547 86.3951Z"/>
</mask>
<path d="M25.244 26.3288C25.4706 26.1021 25.6972 25.8754 25.9238 25.6488L28.4162 28.2932C28.1896 28.5198 28.0385 28.671 27.8119 28.8976L25.244 26.3288ZM21.6943 30.3332L24.5643 32.5998C24.4133 32.8265 24.1867 33.0532 24.0356 33.2798L21.0901 31.0887C21.3167 30.8621 21.4677 30.5598 21.6943 30.3332ZM29.9267 22.2488C30.1533 22.0221 30.4554 21.871 30.682 21.7199L32.7967 24.6665C32.5701 24.8176 32.3435 25.0443 32.117 25.1954L29.9267 22.2488ZM18.2201 35.5465L21.3922 37.3598C21.2411 37.5865 21.0901 37.8887 20.939 38.1154L17.7669 36.3776C17.918 36.0754 18.069 35.7731 18.2201 35.5465ZM35.2135 18.8488C35.5156 18.6977 35.7422 18.5466 36.0443 18.3955L37.7059 21.6443C37.4793 21.7954 37.1772 21.9465 36.9507 22.0221L35.2135 18.8488ZM15.5011 41.1376L18.8243 42.4976C18.7488 42.7998 18.5977 43.0264 18.5222 43.3287L15.1235 42.0442C15.2745 41.742 15.3501 41.4398 15.5011 41.1376ZM40.878 16.2799C41.1801 16.2044 41.4822 16.0532 41.7844 15.9777L42.9928 19.4532C42.6907 19.5288 42.4641 19.6799 42.162 19.7554L40.878 16.2799ZM13.613 47.1064L17.1627 47.9375C17.0872 48.2397 17.0117 48.4664 16.9361 48.7686L13.3864 48.0131C13.4619 47.7109 13.5374 47.4086 13.613 47.1064ZM46.9202 14.4666C47.2223 14.391 47.5244 14.3155 47.8265 14.2399L48.5062 17.791C48.2041 17.8666 47.902 17.9421 47.6754 17.9421L46.9202 14.4666ZM12.5556 53.3019L16.1809 53.6042C16.1809 53.9064 16.1053 54.2086 16.1053 54.5108L12.4801 54.2842C12.4801 53.9064 12.5556 53.6042 12.5556 53.3019ZM12.4045 59.573L16.0298 59.4219C16.0298 59.7241 16.0298 60.0264 16.1053 60.3286L12.4801 60.5552C12.4801 60.1775 12.4801 59.8752 12.4045 59.573ZM77.2818 18.8488C77.5839 18.9999 77.8105 19.151 78.1126 19.3021L76.3 22.4754C76.0734 22.3243 75.7713 22.1732 75.5447 22.0221L77.2818 18.8488ZM82.4931 22.1732C82.7197 22.3999 83.0218 22.551 83.2484 22.7777L80.9826 25.6488C80.756 25.4976 80.5294 25.271 80.3029 25.1199L82.4931 22.1732ZM87.2513 26.3288C87.4779 26.5554 87.7045 26.7821 87.931 27.0087L85.2876 29.5021C85.061 29.2754 84.91 29.1243 84.6834 28.8976L87.2513 26.3288ZM88.4597 33.2043L91.4053 31.0132C91.6319 31.2398 91.7829 31.5421 91.934 31.7687L88.9884 33.8843C88.8374 33.6576 88.6108 33.4309 88.4597 33.2043ZM91.5563 38.0398L94.7284 36.302C94.8795 36.6043 95.0305 36.8309 95.1816 37.1331L91.934 38.7954C91.8584 38.5687 91.7074 38.2665 91.5563 38.0398ZM93.9732 43.2531L97.3719 41.9687C97.4474 42.2709 97.5984 42.5731 97.674 42.8753L94.1998 44.0842C94.1242 43.782 94.0487 43.5553 93.9732 43.2531ZM46.9202 96.5195C47.2223 96.595 47.4488 96.6706 47.7509 96.7461L46.9957 100.297C46.6936 100.222 46.3915 100.146 46.0894 100.071L46.9202 96.5195ZM95.5592 48.7686L99.109 48.0131C99.1845 48.3153 99.26 48.6175 99.3356 48.9197L95.7858 49.5997C95.7103 49.3731 95.6348 49.0709 95.5592 48.7686ZM52.5846 97.5017C52.8867 97.5017 53.1889 97.5773 53.4154 97.5773L53.1889 101.204C52.8867 101.204 52.5846 101.128 52.207 101.128L52.5846 97.5017ZM96.39 54.4353L100.015 54.2086C100.015 54.5108 100.091 54.813 100.091 55.1908L96.4655 55.3419C96.4655 55.0397 96.39 54.7375 96.39 54.4353ZM58.3247 97.5773C58.6268 97.5773 58.9289 97.5773 59.231 97.5017L59.5331 101.128C59.231 101.128 58.9289 101.204 58.5512 101.204L58.3247 97.5773ZM64.0647 96.8973C64.3668 96.8217 64.6689 96.7461 64.8955 96.7461L65.6507 100.297C65.3486 100.373 65.0465 100.448 64.7444 100.524L64.0647 96.8973ZM69.5781 95.3862C69.8802 95.3106 70.1068 95.1595 70.4089 95.0839L71.6929 98.4839C71.3907 98.5595 71.0886 98.7106 70.7865 98.7861L69.5781 95.3862ZM74.865 93.1195C75.0915 92.9684 75.3936 92.8173 75.6202 92.7417L77.3573 95.9151C77.0552 96.0662 76.8287 96.2173 76.5265 96.3684L74.865 93.1195ZM79.6987 90.0973C79.9252 89.9462 80.1518 89.7195 80.3784 89.5684L82.5687 92.5151C82.3421 92.7417 82.04 92.8928 81.8134 93.044L79.6987 90.0973ZM84.1547 86.3951C84.3813 86.244 84.5324 86.0173 84.7589 85.8662L84.8345 85.7906L87.4024 88.3595L87.3268 88.4351C87.1003 88.6617 86.9492 88.8129 86.7226 89.0395L84.1547 86.3951Z" fill="#FF14A1"/>
<path d="M25.244 26.3288C25.4706 26.1021 25.6972 25.8754 25.9238 25.6488L28.4162 28.2932C28.1896 28.5198 28.0385 28.671 27.8119 28.8976L25.244 26.3288ZM21.6943 30.3332L24.5643 32.5998C24.4133 32.8265 24.1867 33.0532 24.0356 33.2798L21.0901 31.0887C21.3167 30.8621 21.4677 30.5598 21.6943 30.3332ZM29.9267 22.2488C30.1533 22.0221 30.4554 21.871 30.682 21.7199L32.7967 24.6665C32.5701 24.8176 32.3435 25.0443 32.117 25.1954L29.9267 22.2488ZM18.2201 35.5465L21.3922 37.3598C21.2411 37.5865 21.0901 37.8887 20.939 38.1154L17.7669 36.3776C17.918 36.0754 18.069 35.7731 18.2201 35.5465ZM35.2135 18.8488C35.5156 18.6977 35.7422 18.5466 36.0443 18.3955L37.7059 21.6443C37.4793 21.7954 37.1772 21.9465 36.9507 22.0221L35.2135 18.8488ZM15.5011 41.1376L18.8243 42.4976C18.7488 42.7998 18.5977 43.0264 18.5222 43.3287L15.1235 42.0442C15.2745 41.742 15.3501 41.4398 15.5011 41.1376ZM40.878 16.2799C41.1801 16.2044 41.4822 16.0532 41.7844 15.9777L42.9928 19.4532C42.6907 19.5288 42.4641 19.6799 42.162 19.7554L40.878 16.2799ZM13.613 47.1064L17.1627 47.9375C17.0872 48.2397 17.0117 48.4664 16.9361 48.7686L13.3864 48.0131C13.4619 47.7109 13.5374 47.4086 13.613 47.1064ZM46.9202 14.4666C47.2223 14.391 47.5244 14.3155 47.8265 14.2399L48.5062 17.791C48.2041 17.8666 47.902 17.9421 47.6754 17.9421L46.9202 14.4666ZM12.5556 53.3019L16.1809 53.6042C16.1809 53.9064 16.1053 54.2086 16.1053 54.5108L12.4801 54.2842C12.4801 53.9064 12.5556 53.6042 12.5556 53.3019ZM12.4045 59.573L16.0298 59.4219C16.0298 59.7241 16.0298 60.0264 16.1053 60.3286L12.4801 60.5552C12.4801 60.1775 12.4801 59.8752 12.4045 59.573ZM77.2818 18.8488C77.5839 18.9999 77.8105 19.151 78.1126 19.3021L76.3 22.4754C76.0734 22.3243 75.7713 22.1732 75.5447 22.0221L77.2818 18.8488ZM82.4931 22.1732C82.7197 22.3999 83.0218 22.551 83.2484 22.7777L80.9826 25.6488C80.756 25.4976 80.5294 25.271 80.3029 25.1199L82.4931 22.1732ZM87.2513 26.3288C87.4779 26.5554 87.7045 26.7821 87.931 27.0087L85.2876 29.5021C85.061 29.2754 84.91 29.1243 84.6834 28.8976L87.2513 26.3288ZM88.4597 33.2043L91.4053 31.0132C91.6319 31.2398 91.7829 31.5421 91.934 31.7687L88.9884 33.8843C88.8374 33.6576 88.6108 33.4309 88.4597 33.2043ZM91.5563 38.0398L94.7284 36.302C94.8795 36.6043 95.0305 36.8309 95.1816 37.1331L91.934 38.7954C91.8584 38.5687 91.7074 38.2665 91.5563 38.0398ZM93.9732 43.2531L97.3719 41.9687C97.4474 42.2709 97.5984 42.5731 97.674 42.8753L94.1998 44.0842C94.1242 43.782 94.0487 43.5553 93.9732 43.2531ZM46.9202 96.5195C47.2223 96.595 47.4488 96.6706 47.7509 96.7461L46.9957 100.297C46.6936 100.222 46.3915 100.146 46.0894 100.071L46.9202 96.5195ZM95.5592 48.7686L99.109 48.0131C99.1845 48.3153 99.26 48.6175 99.3356 48.9197L95.7858 49.5997C95.7103 49.3731 95.6348 49.0709 95.5592 48.7686ZM52.5846 97.5017C52.8867 97.5017 53.1889 97.5773 53.4154 97.5773L53.1889 101.204C52.8867 101.204 52.5846 101.128 52.207 101.128L52.5846 97.5017ZM96.39 54.4353L100.015 54.2086C100.015 54.5108 100.091 54.813 100.091 55.1908L96.4655 55.3419C96.4655 55.0397 96.39 54.7375 96.39 54.4353ZM58.3247 97.5773C58.6268 97.5773 58.9289 97.5773 59.231 97.5017L59.5331 101.128C59.231 101.128 58.9289 101.204 58.5512 101.204L58.3247 97.5773ZM64.0647 96.8973C64.3668 96.8217 64.6689 96.7461 64.8955 96.7461L65.6507 100.297C65.3486 100.373 65.0465 100.448 64.7444 100.524L64.0647 96.8973ZM69.5781 95.3862C69.8802 95.3106 70.1068 95.1595 70.4089 95.0839L71.6929 98.4839C71.3907 98.5595 71.0886 98.7106 70.7865 98.7861L69.5781 95.3862ZM74.865 93.1195C75.0915 92.9684 75.3936 92.8173 75.6202 92.7417L77.3573 95.9151C77.0552 96.0662 76.8287 96.2173 76.5265 96.3684L74.865 93.1195ZM79.6987 90.0973C79.9252 89.9462 80.1518 89.7195 80.3784 89.5684L82.5687 92.5151C82.3421 92.7417 82.04 92.8928 81.8134 93.044L79.6987 90.0973ZM84.1547 86.3951C84.3813 86.244 84.5324 86.0173 84.7589 85.8662L84.8345 85.7906L87.4024 88.3595L87.3268 88.4351C87.1003 88.6617 86.9492 88.8129 86.7226 89.0395L84.1547 86.3951Z" stroke="#FF14A1" stroke-width="2" mask="url(#path-3-outside-1)"/>
<path d="M62.2361 21.346C69.4993 22.5224 76.4858 25.9132 82.0889 31.5184C90.8048 40.2376 94.1943 52.3476 92.1883 63.6271" stroke="#11CFE7" stroke-width="3" stroke-miterlimit="10"/>
<path d="M82.0889 83.0723C76.2783 88.8851 69.0151 92.345 61.4752 93.383C50.5457 94.9054 38.9937 91.5147 30.6237 83.0723C25.9891 78.4359 22.8763 72.8307 21.2853 66.9487C17.965 54.7695 21.0778 41.1372 30.6237 31.5184C36.8494 25.2904 44.7351 21.8304 52.8285 21" stroke="#11CFE7" stroke-width="3" stroke-miterlimit="10"/>
</svg>
