<svg width="210" height="211" viewBox="0 0 210 211" fill="none" xmlns="http://www.w3.org/2000/svg">
<path d="M105.075 160.799C135.859 160.799 160.814 135.835 160.814 105.039C160.814 74.2443 135.859 49.2798 105.075 49.2798C74.2919 49.2798 49.3369 74.2443 49.3369 105.039C49.3369 135.835 74.2919 160.799 105.075 160.799Z" stroke="#FF14A1" stroke-width="3" stroke-miterlimit="10"/>
<path d="M105.076 199.181C156.924 199.181 198.955 157.134 198.955 105.266C198.955 53.3983 156.924 11.3511 105.076 11.3511C53.2275 11.3511 11.1963 53.3983 11.1963 105.266C11.1963 157.134 53.2275 199.181 105.076 199.181Z" stroke="#11CFE7" stroke-miterlimit="10"/>
<path d="M105.076 176.666C144.494 176.666 176.448 144.699 176.448 105.266C176.448 65.8332 144.494 33.8665 105.076 33.8665C65.6577 33.8665 33.7031 65.8332 33.7031 105.266C33.7031 144.699 65.6577 176.666 105.076 176.666Z" stroke="#11CFE7" stroke-miterlimit="10"/>
<path d="M104.547 194.346C103.867 194.346 103.263 194.346 102.583 194.346L102.734 186.941C103.338 186.941 103.867 186.941 104.471 186.941L104.547 194.346ZM115.347 193.666L114.441 186.337C115.045 186.261 115.649 186.186 116.178 186.11L117.235 193.439C116.631 193.514 115.951 193.59 115.347 193.666ZM91.8583 193.439C91.1786 193.363 90.5743 193.212 89.9701 193.137L91.1786 185.808C91.7828 185.883 92.3115 185.959 92.9157 186.11L91.8583 193.439ZM127.809 191.248L125.845 184.07C126.449 183.919 126.978 183.768 127.582 183.617L129.697 190.719C129.093 190.946 128.489 191.097 127.809 191.248ZM79.3964 190.794C78.7922 190.643 78.188 190.417 77.5083 190.266L79.774 183.239C80.3027 183.39 80.907 183.617 81.4356 183.768L79.3964 190.794ZM139.893 187.092L136.948 180.292C137.476 180.066 138.005 179.839 138.534 179.537L141.63 186.261C141.026 186.563 140.422 186.79 139.893 187.092ZM67.4632 186.337C66.859 186.034 66.2548 185.808 65.7261 185.506L68.9738 178.857C69.5025 179.083 70.0311 179.386 70.5598 179.612L67.4632 186.337ZM151.147 181.199L147.295 174.852C147.823 174.55 148.277 174.248 148.805 173.87L152.808 180.066C152.279 180.519 151.675 180.897 151.147 181.199ZM56.2853 180.217C55.7566 179.839 55.2279 179.537 54.6993 179.159L58.8532 173.039C59.3819 173.341 59.8351 173.719 60.3637 174.021L56.2853 180.217ZM161.494 173.795L156.736 168.128C157.189 167.75 157.642 167.372 158.095 166.995L162.929 172.586C162.476 172.963 162.022 173.341 161.494 173.795ZM170.708 164.955L165.195 159.968C165.572 159.515 165.95 159.061 166.403 158.608L171.992 163.443C171.539 164.048 171.086 164.501 170.708 164.955ZM18.8997 130.275C18.7486 129.67 18.5221 129.066 18.371 128.386L25.546 126.421C25.6971 127.026 25.8481 127.555 25.9992 128.159L18.8997 130.275ZM16.1807 117.884C16.1052 117.279 16.0297 116.599 15.9542 115.995L23.2802 115.088C23.3558 115.693 23.4313 116.297 23.5068 116.826L16.1807 117.884ZM15.2744 105.19V105.039C15.2744 104.51 15.2744 103.83 15.2744 103.226L22.676 103.377C22.676 103.906 22.676 104.51 22.676 105.039L15.2744 105.19ZM23.4313 93.4794L16.1052 92.4216C16.1807 91.8172 16.2563 91.1372 16.4073 90.5328L23.7334 91.7417C23.6579 92.3461 23.5823 92.875 23.4313 93.4794ZM25.9237 82.0706L18.8242 80.0306C18.9752 79.4262 19.2018 78.8217 19.3528 78.1417L26.4523 80.3328C26.2258 80.9373 26.0747 81.5417 25.9237 82.0706ZM30.0021 71.1151L23.2802 68.0173C23.5823 67.4129 23.8089 66.8084 24.111 66.2796L30.7573 69.5284C30.4552 70.0573 30.2287 70.5862 30.0021 71.1151ZM174.258 62.124C173.956 61.5951 173.654 61.1418 173.276 60.6129L179.469 56.6085C179.847 57.1374 180.149 57.6663 180.526 58.2707L174.258 62.124ZM35.591 60.8396L29.3979 56.8352C29.7755 56.3063 30.0776 55.7774 30.4552 55.2485L36.5729 59.404C36.1953 59.8574 35.8932 60.3863 35.591 60.8396ZM167.385 52.6796C167.007 52.2263 166.63 51.773 166.252 51.3196L171.841 46.4841C172.294 46.9374 172.672 47.4663 173.125 47.9952L167.385 52.6796ZM42.615 51.5463L37.026 46.7108C37.4792 46.2574 37.8568 45.7286 38.31 45.2752L43.8234 50.2619C43.3703 50.6396 42.9926 51.093 42.615 51.5463ZM159.303 44.2174C158.85 43.8397 158.397 43.4619 157.944 43.0086L162.778 37.4175C163.231 37.8708 163.76 38.2486 164.213 38.7019L159.303 44.2174ZM150.089 37.0397C149.561 36.7375 149.107 36.3597 148.579 36.0575L152.582 29.7864C153.11 30.1642 153.639 30.4664 154.168 30.8442L150.089 37.0397ZM139.969 31.222C139.44 30.9953 138.911 30.6931 138.383 30.4664L141.479 23.742C142.083 24.0442 142.688 24.2709 143.216 24.5731L139.969 31.222ZM129.093 26.9153C128.564 26.7642 127.96 26.5375 127.356 26.3864L129.395 19.2842C129.999 19.4354 130.603 19.662 131.283 19.8131L129.093 26.9153ZM117.764 24.2709C117.16 24.1953 116.631 24.1198 116.027 23.9687L117.084 16.6398C117.688 16.7154 118.368 16.7909 118.972 16.942L117.764 24.2709ZM106.133 23.2131C105.604 23.2131 105.075 23.2131 104.471 23.2131H104.32V15.7332H104.471C105.075 15.7332 105.68 15.7332 106.284 15.7332L106.133 23.2131Z" fill="#FF14A1"/>
<path d="M104.547 194.346C103.867 194.346 103.263 194.346 102.583 194.346L102.734 186.941C103.338 186.941 103.867 186.941 104.471 186.941L104.547 194.346ZM115.347 193.666L114.441 186.337C115.045 186.261 115.649 186.186 116.178 186.11L117.235 193.439C116.631 193.514 115.951 193.59 115.347 193.666ZM91.8583 193.439C91.1786 193.363 90.5743 193.212 89.9701 193.137L91.1786 185.808C91.7828 185.883 92.3115 185.959 92.9157 186.11L91.8583 193.439ZM127.809 191.248L125.845 184.07C126.449 183.919 126.978 183.768 127.582 183.617L129.697 190.719C129.093 190.946 128.489 191.097 127.809 191.248ZM79.3964 190.794C78.7922 190.643 78.188 190.417 77.5083 190.266L79.774 183.239C80.3027 183.39 80.907 183.617 81.4356 183.768L79.3964 190.794ZM139.893 187.092L136.948 180.292C137.476 180.066 138.005 179.839 138.534 179.537L141.63 186.261C141.026 186.563 140.422 186.79 139.893 187.092ZM67.4632 186.337C66.859 186.034 66.2548 185.808 65.7261 185.506L68.9738 178.857C69.5025 179.083 70.0311 179.386 70.5598 179.612L67.4632 186.337ZM151.147 181.199L147.295 174.852C147.823 174.55 148.277 174.248 148.805 173.87L152.808 180.066C152.279 180.519 151.675 180.897 151.147 181.199ZM56.2853 180.217C55.7566 179.839 55.2279 179.537 54.6993 179.159L58.8532 173.039C59.3819 173.341 59.8351 173.719 60.3637 174.021L56.2853 180.217ZM161.494 173.795L156.736 168.128C157.189 167.75 157.642 167.372 158.095 166.995L162.929 172.586C162.476 172.963 162.022 173.341 161.494 173.795ZM170.708 164.955L165.195 159.968C165.572 159.515 165.95 159.061 166.403 158.608L171.992 163.443C171.539 164.048 171.086 164.501 170.708 164.955ZM18.8997 130.275C18.7486 129.67 18.5221 129.066 18.371 128.386L25.546 126.421C25.6971 127.026 25.8481 127.555 25.9992 128.159L18.8997 130.275ZM16.1807 117.884C16.1052 117.279 16.0297 116.599 15.9542 115.995L23.2802 115.088C23.3558 115.693 23.4313 116.297 23.5068 116.826L16.1807 117.884ZM15.2744 105.19V105.039C15.2744 104.51 15.2744 103.83 15.2744 103.226L22.676 103.377C22.676 103.906 22.676 104.51 22.676 105.039L15.2744 105.19ZM23.4313 93.4794L16.1052 92.4216C16.1807 91.8172 16.2563 91.1372 16.4073 90.5328L23.7334 91.7417C23.6579 92.3461 23.5823 92.875 23.4313 93.4794ZM25.9237 82.0706L18.8242 80.0306C18.9752 79.4262 19.2018 78.8217 19.3528 78.1417L26.4523 80.3328C26.2258 80.9373 26.0747 81.5417 25.9237 82.0706ZM30.0021 71.1151L23.2802 68.0173C23.5823 67.4129 23.8089 66.8084 24.111 66.2796L30.7573 69.5284C30.4552 70.0573 30.2287 70.5862 30.0021 71.1151ZM174.258 62.124C173.956 61.5951 173.654 61.1418 173.276 60.6129L179.469 56.6085C179.847 57.1374 180.149 57.6663 180.526 58.2707L174.258 62.124ZM35.591 60.8396L29.3979 56.8352C29.7755 56.3063 30.0776 55.7774 30.4552 55.2485L36.5729 59.404C36.1953 59.8574 35.8932 60.3863 35.591 60.8396ZM167.385 52.6796C167.007 52.2263 166.63 51.773 166.252 51.3196L171.841 46.4841C172.294 46.9374 172.672 47.4663 173.125 47.9952L167.385 52.6796ZM42.615 51.5463L37.026 46.7108C37.4792 46.2574 37.8568 45.7286 38.31 45.2752L43.8234 50.2619C43.3703 50.6396 42.9926 51.093 42.615 51.5463ZM159.303 44.2174C158.85 43.8397 158.397 43.4619 157.944 43.0086L162.778 37.4175C163.231 37.8708 163.76 38.2486 164.213 38.7019L159.303 44.2174ZM150.089 37.0397C149.561 36.7375 149.107 36.3597 148.579 36.0575L152.582 29.7864C153.11 30.1642 153.639 30.4664 154.168 30.8442L150.089 37.0397ZM139.969 31.222C139.44 30.9953 138.911 30.6931 138.383 30.4664L141.479 23.742C142.083 24.0442 142.688 24.2709 143.216 24.5731L139.969 31.222ZM129.093 26.9153C128.564 26.7642 127.96 26.5375 127.356 26.3864L129.395 19.2842C129.999 19.4354 130.603 19.662 131.283 19.8131L129.093 26.9153ZM117.764 24.2709C117.16 24.1953 116.631 24.1198 116.027 23.9687L117.084 16.6398C117.688 16.7154 118.368 16.7909 118.972 16.942L117.764 24.2709ZM106.133 23.2131C105.604 23.2131 105.075 23.2131 104.471 23.2131H104.32V15.7332H104.471C105.075 15.7332 105.68 15.7332 106.284 15.7332L106.133 23.2131Z" fill="#FF14A1"/>
<path d="M188.306 167.372C185.738 170.848 182.943 174.097 179.922 177.195C164.817 192.835 144.878 203.79 122.522 207.643C116.858 208.626 110.967 209.079 105 209.079C99.7887 209.079 94.7284 208.701 89.7436 207.946C39.5185 200.541 1 157.324 1 105.039C1 47.6175 47.5243 1 105 1C131.283 1 155.301 10.7466 173.654 26.9154C195.33 45.9553 209 73.9107 209 105.039C209 112.595 208.169 119.999 206.659 127.177" stroke="#11CFE7" stroke-width="2" stroke-miterlimit="10"/>
<path d="M188.23 169.11C189.19 169.11 189.967 168.332 189.967 167.373C189.967 166.413 189.19 165.635 188.23 165.635C187.271 165.635 186.493 166.413 186.493 167.373C186.493 168.332 187.271 169.11 188.23 169.11Z" fill="#FF14A1"/>
<path d="M204.544 126.044L205.979 130.35L209 127.026L204.544 126.044Z" fill="#FF14A1"/>
<g opacity="0.41">
<path opacity="0.41" d="M13.5376 64.6174C17.3894 56.0041 22.5253 47.8442 28.945 40.3642C33.1745 35.4532 37.7816 31.071 42.6908 27.1421" stroke="#11CFE7" stroke-width="1.5525" stroke-miterlimit="10" stroke-linecap="round" stroke-linejoin="round"/>
<path opacity="0.41" d="M113.837 203.186C102.961 204.319 91.9339 203.639 81.2847 201.07" stroke="#11CFE7" stroke-width="1.5525" stroke-miterlimit="10" stroke-linecap="round" stroke-linejoin="round"/>
<path opacity="0.41" d="M201.976 116.373C199.786 135.262 192.082 153.773 178.714 169.261" stroke="#11CFE7" stroke-width="1.5525" stroke-miterlimit="10" stroke-linecap="round" stroke-linejoin="round"/>
<path opacity="0.41" d="M168.292 29.9377C178.639 38.8533 186.644 49.431 192.384 60.9154" stroke="#11CFE7" stroke-width="1.5525" stroke-miterlimit="10" stroke-linecap="round" stroke-linejoin="round"/>
<path opacity="0.41" d="M71.1646 11.5023C73.2038 10.8223 75.243 10.1423 77.3577 9.53784" stroke="#11CFE7" stroke-width="1.5525" stroke-miterlimit="10" stroke-linecap="round" stroke-linejoin="round"/>
</g>
<g opacity="0.65">
<path opacity="0.65" d="M105.076 180.897C146.955 180.897 180.904 146.934 180.904 105.04C180.904 63.1446 146.955 29.1821 105.076 29.1821C63.1967 29.1821 29.2471 63.1446 29.2471 105.04C29.2471 146.934 63.1967 180.897 105.076 180.897Z" stroke="#11CFE7" stroke-width="4" stroke-miterlimit="10" stroke-dasharray="1 1"/>
</g>
</svg>
