<svg width="186" height="207" viewBox="0 0 186 207" fill="none" xmlns="http://www.w3.org/2000/svg">
<path d="M134.21 75.5032C134.21 75.5032 134.594 20.3939 92.3501 30.5709C50.1061 20.3939 50.4901 75.5032 50.4901 75.5032C43.5775 71.2788 41.2732 79.5356 42.2333 93.5529C42.4253 97.3933 43.7695 103.538 47.9939 105.074C49.722 105.65 51.4502 105.266 52.7943 104.882C54.7145 110.643 57.2108 118.323 60.6671 127.732C63.9314 136.757 65.0835 139.061 67.0037 141.365C69.3079 144.054 76.0285 150.39 92.3501 150.39C106.559 150.198 112.896 144.822 115.392 142.134C118.081 139.253 119.617 135.221 122.689 126.964C125.569 119.475 128.834 110.451 131.138 104.69C132.482 105.266 134.594 106.034 136.706 105.266C140.931 103.73 142.083 97.7773 142.467 93.7449C143.427 79.5356 141.123 71.2788 134.21 75.5032Z" fill="white"/>
<path d="M91.9662 150.774C77.3728 150.774 70.0761 145.781 66.4277 141.557C64.3155 139.253 63.3554 136.757 59.8991 127.732C57.2109 120.243 54.5226 112.754 52.2184 105.458C50.4902 106.034 48.9541 106.034 47.61 105.458C42.8095 103.729 41.8494 96.4327 41.4654 93.5524C40.8893 86.0637 41.0813 76.8468 45.1137 74.3506C46.4578 73.5825 47.994 73.5825 49.7222 74.5426C49.9142 69.5501 51.2583 45.5478 65.0836 34.4108C71.9963 28.8423 81.2132 27.3061 92.1582 29.9944C103.103 27.3061 112.128 28.8423 119.233 34.4108C133.058 45.3558 134.402 69.3581 134.594 74.5426C136.322 73.5825 138.051 73.5825 139.203 74.3506C143.043 76.6548 143.235 86.0637 142.851 93.5524C142.659 96.6247 141.699 103.729 136.706 105.458C135.17 106.034 133.25 105.842 131.138 105.074C129.026 110.834 125.761 119.475 122.881 126.772C119.809 134.836 118.273 139.253 115.392 142.133C110.4 147.51 102.335 150.39 91.9662 150.582C92.3502 150.774 92.1582 150.774 91.9662 150.774ZM53.1785 104.113L53.3705 104.689C55.8667 112.178 58.555 119.859 61.2433 127.54C64.5076 136.565 65.6597 138.869 67.5798 141.173C71.0362 145.205 78.1409 150.006 92.5422 150.006C102.527 149.814 110.4 147.126 115.2 141.941C117.697 139.253 119.233 135.412 122.497 126.964C125.377 119.475 128.642 110.45 130.946 104.689L131.138 104.113L131.714 104.305C133.634 105.266 135.362 105.458 136.898 104.882C141.123 103.345 142.083 96.6247 142.275 93.9364C143.043 83.9515 141.891 77.4229 139.203 75.8867C138.051 75.1187 136.706 75.5027 134.786 76.4628L134.018 77.0388V76.0788C134.018 75.8867 134.018 47.8521 119.041 35.9469C112.32 30.5704 103.487 29.2263 92.9263 31.7225H92.7343L92.1582 31.1465C81.5972 28.6502 72.7644 29.9944 66.0437 35.3709C51.0663 47.276 51.0663 75.3107 51.0663 75.5027V76.4628L50.2982 75.8867C48.57 74.7346 47.0339 74.5426 45.8818 75.3107C43.1935 76.8468 42.2334 83.3755 42.8095 93.3604C43.0015 95.4726 43.7696 102.769 48.186 104.305C49.5301 104.689 50.8743 104.689 52.6024 104.113H53.1785Z" fill="#010202"/>
<path d="M107.52 39.9788C107.52 39.9788 107.52 44.7792 103.488 45.7393C99.4552 46.6994 95.0387 44.3952 95.0387 44.3952C95.0387 44.3952 91.0063 47.8515 86.7819 48.2356C82.5575 48.4276 78.1411 46.8914 76.797 42.859C76.797 42.859 73.9167 46.6994 71.4205 46.3154C69.1163 45.7393 67.3881 42.667 67.3881 42.667C67.3881 42.667 65.0839 43.4351 62.9717 43.8191C60.6675 44.2032 59.3233 40.9389 59.3233 40.9389C59.3233 40.9389 57.5952 49.0036 57.4031 53.42C57.2111 57.8365 56.4431 65.7092 54.7149 66.6693C52.9867 67.6294 50.2985 70.5097 50.6825 75.8862C51.2586 81.2627 50.6825 91.2477 50.6825 91.2477C50.6825 91.2477 49.3384 90.6716 48.5703 83.7589C47.8022 76.8463 48.3783 64.9411 48.5703 59.5646C48.7623 54.1881 53.5628 39.7868 53.5628 39.7868C53.5628 39.7868 52.0266 30.3779 57.9792 18.6647C57.9792 18.6647 58.7473 24.4253 59.7074 26.1535C59.7074 26.1535 61.2435 18.2807 62.9717 15.7845C62.9717 15.7845 66.044 18.0887 68.1562 21.545C68.1562 21.545 68.1562 17.1286 68.1562 14.0563C68.1562 14.0563 72.7646 15.9765 76.2209 19.0488C76.2209 19.0488 76.0289 14.6324 73.5327 12.5202C73.5327 12.5202 78.1411 10.792 85.4378 15.9765C85.4378 15.9765 82.3655 12.1361 80.4453 10.792C80.4453 10.792 92.5425 11.7521 100.991 15.9765C100.991 15.9765 100.031 10.984 98.303 10.792C98.303 10.792 124.802 15.7845 126.146 32.298C126.146 32.298 136.131 40.5548 137.091 56.4923C138.051 72.2378 137.859 88.3674 134.402 91.2477C134.402 91.2477 134.594 76.8463 134.21 73.3899C133.634 69.7416 129.026 68.0134 128.45 62.6369C127.874 57.4524 129.794 43.8191 124.033 38.4426C124.033 38.4426 120.001 38.0586 119.233 40.1708C118.081 42.475 112.704 47.2755 107.52 39.9788Z" fill="url(#paint0_linear)"/>
<path d="M133.25 92.5919V91.4398C133.25 91.2478 133.442 77.0384 133.058 73.5821C132.866 72.238 131.906 71.0859 130.754 69.7417C129.218 68.0136 127.682 66.0934 127.298 63.0211C127.106 61.869 127.106 60.1408 127.298 58.2206C127.298 51.884 127.49 43.4352 123.265 39.4028C122.113 39.4028 119.617 39.4028 119.233 40.747C118.849 42.0911 116.929 44.2033 114.24 44.5873C112.704 44.7794 110.208 44.3953 107.904 41.5151C107.52 43.0512 106.56 45.5474 103.679 46.3155C100.223 47.0836 96.3827 45.5474 95.2306 44.9714C94.2705 45.7395 90.8142 48.4277 86.9739 48.6197C83.3255 48.8117 78.525 47.6596 76.7969 43.6273C75.8368 44.7794 73.5326 46.8916 71.4204 46.6995C69.1161 46.5075 67.58 44.3953 67.004 43.4352C66.2359 43.6273 64.5077 44.2033 62.9716 44.5873C61.4354 44.9714 60.0913 43.8193 59.3232 42.6672C58.7472 45.1634 57.7871 50.3479 57.595 53.8042C57.211 59.5648 56.4429 66.4774 54.5228 67.4375C52.6026 68.5896 50.4904 71.4699 50.8744 76.0783C51.4505 81.4549 50.8744 91.4398 50.8744 91.4398V92.2079L50.1063 92.0159C49.7223 91.8238 48.3782 90.8638 47.6101 84.1431C46.842 76.8464 47.4181 63.9812 47.6101 59.9488C47.8021 54.7643 52.0265 41.515 52.6026 39.9789C52.4106 38.6348 51.4505 29.8019 57.211 18.6649L57.9791 17.1287L58.1711 18.8569C58.1711 18.8569 58.5551 22.1212 59.1312 24.4254C59.7073 21.9292 60.8594 17.7048 62.0115 15.7846L62.3955 15.2085L62.7795 15.5926C62.9716 15.5926 65.0838 17.3207 67.004 20.009V13.4804L67.772 13.8644C67.964 13.8644 71.6124 15.5926 74.8767 18.0888C74.6847 16.7447 73.9166 14.4405 72.5725 13.2884L71.8044 12.7123L72.7645 12.3283C72.9565 12.3283 76.4128 11.1762 81.9814 14.0564C81.2133 13.0963 80.2532 12.3283 79.4851 11.7522L77.949 10.6001L79.8692 10.7921C80.0612 10.7921 91.1983 11.7522 99.6471 15.5926C99.263 14.0564 98.495 12.1362 97.7269 11.9442C97.7269 11.9442 97.7269 11.9442 97.5349 11.9442L97.7269 10.7921C97.7269 10.7921 97.7269 10.7921 97.9189 10.7921C100.031 11.1762 124.609 16.3607 126.146 32.4902C127.49 33.6423 136.131 42.0911 137.091 56.8765C137.859 68.5896 138.435 88.5595 134.21 92.0159L133.25 92.5919ZM122.689 38.0587C123.265 38.0587 123.649 38.0587 123.649 38.0587H123.841L124.033 38.2507C128.642 42.4751 128.642 51.308 128.45 58.0286C128.45 59.9488 128.45 61.677 128.45 62.8291C128.642 65.5173 130.178 67.2455 131.522 68.9737C132.674 70.3178 133.826 71.6619 134.018 73.3901C134.402 76.2704 134.402 85.6793 134.21 89.7116C136.323 85.4872 136.899 73.5821 135.746 56.6845C134.786 41.323 125.185 33.0662 124.993 32.8742L124.801 32.6822V32.4902C123.841 19.2409 105.6 13.4804 99.4551 11.9442C100.223 13.4804 100.799 15.4006 100.799 15.9766L100.991 17.1287L100.031 16.5527C93.6945 13.2884 85.0537 11.9442 81.4053 11.5602C83.1335 13.2884 85.0537 15.5926 85.0537 15.5926L87.5499 18.6649L84.2856 16.3606C79.2931 12.7123 75.6448 12.5203 73.9166 12.7123C75.8368 15.0165 76.0288 18.8569 76.0288 19.0489V20.393L75.0687 19.4329C72.5725 17.1287 69.5002 15.5926 67.964 14.8245V23.4653L67.004 21.9292C65.4678 19.4329 63.3556 17.5128 62.3955 16.7447C60.8594 19.625 59.5152 26.3456 59.5152 26.3456L59.1312 27.8817L58.3631 26.5376C57.5951 25.1935 57.211 22.5052 56.827 20.5851C51.8345 31.1461 53.1786 39.5949 53.1786 39.5949V39.7869V39.9789C53.1786 40.1709 48.5702 54.3803 48.1861 59.7568C47.9941 63.9812 47.4181 76.6544 48.1861 83.9511C48.5702 87.0234 48.9542 88.7516 49.3383 89.7116C49.5303 86.6394 49.7223 80.1107 49.3383 76.2704C48.7622 69.5497 52.7946 67.0535 53.5627 66.4774C54.5228 65.9014 55.4828 61.869 56.0589 53.6122C56.2509 49.1958 57.9791 41.323 57.9791 40.939L58.3631 39.2108L59.1312 40.747C59.1312 40.747 60.4753 43.6272 62.2035 43.2432C64.3157 42.8592 66.6199 42.0911 66.6199 42.0911L67.004 41.8991L67.196 42.2831C67.196 42.2831 68.7321 45.1634 71.0363 45.3554C72.7645 45.5474 75.2607 43.0512 76.0288 42.0911L76.6049 41.323L76.9889 42.2831C78.333 46.3155 82.7495 47.4676 86.3978 47.2756C90.4302 47.0836 94.2705 43.6273 94.2705 43.6273L94.6546 43.4352L95.0386 43.6273C95.0386 43.6273 99.455 45.9315 103.103 44.9714C106.56 44.2033 106.56 39.9789 106.56 39.7869V38.0587L107.52 39.4028C109.44 42.0911 111.552 43.4352 113.664 43.0512C115.777 42.6672 117.313 40.939 117.697 39.9789C118.849 38.4428 121.153 38.0587 122.689 38.0587Z" fill="#11CFE7"/>
<path d="M107.52 47.084C107.52 47.084 107.52 51.8844 103.679 52.8445C99.8389 53.8046 95.6145 51.5004 95.6145 51.5004C95.6145 51.5004 91.7742 54.9567 87.7418 55.3408C83.7094 55.5328 79.485 53.9966 78.1409 49.9643C78.1409 49.9643 75.2606 53.8046 72.9564 53.4206C70.4601 53.2286 68.924 50.1563 68.924 50.1563C68.924 50.1563 66.8118 50.9244 64.6996 51.3084C62.5874 51.6924 61.0512 48.4281 61.0512 48.4281C61.0512 48.4281 59.3231 56.4929 59.1311 60.9093C58.939 65.3257 58.171 73.1985 56.4428 74.1586C54.7146 75.1187 52.2184 77.9989 52.6024 83.3754C52.9865 88.752 52.6024 98.7369 52.6024 98.7369C52.6024 98.7369 51.2583 98.1609 50.4902 91.2482C49.7221 84.3355 50.2982 72.4304 50.4902 67.0539C50.6822 61.6774 55.2907 47.276 55.2907 47.276C55.2907 47.276 53.9466 37.8671 59.5151 26.154C59.5151 26.154 60.2832 31.9145 61.2433 33.6427C61.2433 33.6427 62.5874 25.77 64.3155 23.2737C64.3155 23.2737 67.1958 25.5779 69.308 29.0343C69.308 29.0343 69.308 24.6179 69.308 21.5456C69.308 21.5456 73.7244 23.4657 76.9888 26.538C76.9888 26.538 76.7967 22.1216 74.3005 20.0094C74.3005 20.0094 78.7169 18.2813 85.6296 23.4657C85.6296 23.4657 82.7493 19.6254 80.8291 18.2812C80.8291 18.2812 92.5422 19.2413 100.607 23.4657C100.607 23.4657 99.6469 18.4733 97.9188 18.2812C97.9188 18.2812 123.457 23.2737 124.609 39.7873C124.609 39.7873 134.21 48.0441 135.17 63.9816C136.13 79.9191 135.938 95.8566 132.482 98.7369C132.482 98.7369 132.674 84.3355 132.29 80.8792C131.906 77.2309 127.298 75.5027 126.721 70.1262C126.337 64.9417 128.066 51.3084 122.497 45.9319C122.497 45.9319 118.657 45.5478 117.889 47.66C117.505 49.7722 112.512 54.3807 107.52 47.084Z" fill="url(#paint1_linear)"/>
<path d="M132.29 78.3824C132.29 78.1904 132.29 77.9983 132.098 77.8063C131.522 76.2702 129.026 76.4622 126.53 75.6941C122.689 74.734 120.193 74.35 120.193 74.35C112.896 73.1979 103.103 72.4298 92.7343 72.2378C88.5099 72.2378 84.2855 72.2378 80.4451 72.4298C78.909 72.4298 77.5649 72.6218 76.2207 72.6218C74.8766 72.6218 73.5325 72.8139 72.1884 73.0059C69.6921 73.1979 67.3879 73.5819 65.2757 73.7739C64.6996 73.9659 64.1236 73.966 63.1635 74.158C61.0513 74.542 52.9865 75.8861 53.1785 76.0782C53.1785 76.0782 53.1785 76.0782 53.5626 76.0782C53.3706 76.2702 53.3706 76.4622 53.1785 76.6542C52.9865 76.6542 52.9865 76.6542 52.7945 76.6542C52.7945 76.8462 52.7945 77.0382 52.7945 77.2303L52.6025 77.4223C52.6025 77.9983 52.6025 78.3824 52.7945 78.9584C52.6025 80.1105 51.8344 88.1753 52.9865 93.9359V94.1279C53.9466 94.1279 54.9067 94.3199 55.6748 94.3199C56.0588 96.0481 56.2508 97.9682 56.6349 99.6964C64.8917 99.5044 72.9564 99.5044 81.2132 99.3124C82.1733 94.5119 83.1334 91.6316 83.7094 89.9035C84.0935 88.7514 84.6695 87.9833 85.4376 87.2152C87.5498 85.295 90.0461 84.911 91.3902 84.911H91.5822H91.7742C91.9662 84.911 92.3503 84.911 92.5423 84.911H92.7343C92.9263 84.911 93.3104 84.911 93.5024 84.911H93.6944H93.8864H94.0784C94.8465 84.911 95.9986 85.103 97.1507 85.4871C97.9188 85.6791 99.2629 86.4471 100.415 87.7913C100.607 88.1753 100.799 88.3673 100.991 88.7514C101.759 90.0955 101.951 91.2476 102.143 91.8237C102.527 93.3598 103.295 96.0481 104.063 99.3124C111.936 99.5044 119.617 99.5044 127.49 99.6964C127.874 97.7762 128.066 95.856 128.45 93.9359C129.794 93.9359 131.138 93.7438 132.482 93.7438C132.674 92.5917 132.866 91.4396 133.058 89.9035C133.442 87.5993 133.634 84.719 133.826 81.0706C133.826 80.6866 134.018 80.3026 134.018 79.9185C133.25 79.5345 132.866 78.9584 132.29 78.3824Z" fill="url(#paint2_linear)"/>
<path d="M81.404 68.9731C81.596 69.9332 79.2918 75.3097 76.9876 74.7337C74.6834 74.3496 69.4989 70.5093 64.3144 70.8933C59.3219 71.0853 64.6984 66.4769 68.3468 66.4769C72.3792 66.2849 81.212 67.629 81.404 68.9731Z" fill="url(#paint3_linear)"/>
<path d="M77.373 75.1185C77.181 75.1185 77.181 75.1185 76.989 75.1185C76.2209 74.9265 75.2608 74.5424 73.9167 73.9664C71.4205 72.8143 67.7721 71.0861 64.5078 71.2781C63.3557 71.2781 62.5876 71.0861 62.2036 70.7021C62.0116 70.51 62.0116 70.126 62.2036 69.5499C62.9717 68.2058 66.0439 66.2856 68.5402 66.2856C71.0364 66.2856 81.5974 67.2457 81.7894 69.1659C81.9815 69.934 80.6373 73.1983 79.1012 74.7344C78.5251 74.9265 77.9491 75.1185 77.373 75.1185ZM65.0839 70.51C68.3482 70.51 71.8045 72.0462 74.3007 73.1983C75.4528 73.7744 76.6049 74.1584 77.181 74.3504C77.565 74.3504 78.1411 74.1584 78.5251 73.7743C80.0613 72.4302 81.0214 69.5499 81.0214 68.9739C80.6373 68.0138 72.7646 66.6697 68.5402 66.8617C66.236 66.8617 63.5477 68.7819 62.9717 69.742C62.9717 69.934 62.7796 70.126 62.9717 70.126C62.9717 70.126 63.3557 70.51 64.5078 70.318C64.6998 70.51 64.8918 70.51 65.0839 70.51Z" fill="#11CFE7"/>
<path d="M102.527 68.9736C102.335 69.9337 104.64 75.3102 106.944 74.7342C109.248 74.3501 114.432 70.5098 119.617 70.8938C124.801 71.2778 119.233 66.4774 115.585 66.4774C111.552 66.2854 102.719 67.6295 102.527 68.9736Z" fill="url(#paint4_linear)"/>
<path d="M106.56 75.1178C105.984 75.1178 105.408 74.9257 104.832 74.3497C103.295 72.8135 101.951 69.7412 102.143 68.7812C102.335 66.861 112.896 65.9009 115.393 65.9009C117.889 65.9009 120.961 67.8211 121.729 69.1652C122.113 69.7413 121.921 70.1253 121.729 70.3173C121.345 70.8934 120.577 71.0854 119.425 70.8934C116.161 70.7013 112.512 72.4295 110.016 73.5816C108.672 74.1577 107.712 74.7337 106.944 74.7337C106.752 75.1178 106.752 75.1178 106.56 75.1178ZM102.911 68.9732C102.911 69.5492 103.872 72.4295 105.408 73.7736C105.984 74.3497 106.368 74.5417 106.752 74.3497C107.328 74.1577 108.48 73.7736 109.632 73.1976C112.32 72.0455 115.969 70.3173 119.425 70.5093C120.769 70.5093 120.961 70.3173 120.961 70.3173C120.961 70.1253 120.961 69.9333 120.961 69.9333C120.385 68.7812 117.505 67.053 115.393 67.053C111.168 66.6689 103.295 68.0131 102.911 68.9732Z" fill="#11CFE7"/>
<path d="M110.208 41.7073C108.672 37.867 106.56 33.8346 102.911 31.9144C102.527 31.7224 102.335 32.1064 102.527 32.4905C104.448 35.9468 106.176 39.9792 106.176 44.0116C104.64 41.7073 102.143 39.5951 100.415 38.251C95.6147 34.6027 90.2382 31.5304 84.2857 30.1862C83.9016 30.1862 83.7096 30.5703 83.9016 30.7623C86.5899 32.6825 88.8941 34.9867 91.0063 37.675C92.1584 39.2111 93.3105 40.7473 94.0786 42.4754C92.5424 41.3233 91.0063 40.3632 89.4701 39.4031C87.55 38.251 85.6298 37.4829 83.9016 36.3308C82.5575 35.5628 81.4054 34.7947 79.8692 34.7947C79.6772 34.7947 79.4852 34.9867 79.4852 35.1787C80.4453 38.251 83.3256 40.1712 84.8617 42.8594C81.9814 41.5153 79.1012 39.9792 76.7969 37.675C77.949 39.4031 79.1012 41.1313 80.4453 42.8594C74.6847 39.2111 70.6523 33.8346 70.2683 26.7299C71.2284 29.0341 72.7646 30.7623 74.6847 32.4905C75.4528 33.2585 76.4129 33.8346 77.181 34.4106C76.7969 34.0266 76.6049 33.4506 76.2209 33.0665C75.2608 31.5304 74.3007 29.9942 73.9167 28.2661C74.3007 28.4581 74.6847 28.8421 74.8768 29.0341C76.0289 29.8022 77.373 30.5703 78.7171 31.3384C79.1012 31.5304 79.4852 31.7224 79.8692 31.9144C80.6373 32.2984 81.4054 32.6825 82.1735 33.0665H82.3655C83.7096 33.6426 85.0537 34.4106 86.2058 35.1787C85.0537 33.2585 83.7096 31.5304 82.1735 29.8022C81.4054 29.0341 80.8293 28.2661 80.0612 27.498C79.6772 27.1139 79.2932 26.7299 78.9091 26.3459C77.565 25.3858 76.4129 24.2337 75.4528 22.6975C75.8369 22.8895 76.0289 23.0816 76.4129 23.4656C79.2932 26.1539 82.9415 27.69 86.3979 29.2262C85.2457 28.2661 84.0936 27.306 83.1335 26.1539C81.5974 24.4257 80.2533 22.5055 78.9091 20.7773C80.2533 22.3135 81.9814 23.6576 83.9016 24.6177C85.0537 25.3858 86.3978 25.9618 87.742 26.5379C89.0861 27.306 90.4302 27.882 91.7744 28.6501C95.2307 30.3783 99.0711 32.1064 101.567 34.9867C100.607 31.1463 98.687 27.306 95.9988 24.2337V24.0417C95.4227 23.6576 94.8467 23.2736 94.2706 22.8895V22.6975C96.1908 23.2736 97.7269 24.4257 99.4551 25.5778C103.295 27.882 106.944 31.5304 109.248 35.3707C111.36 38.8271 112.128 42.6674 111.744 46.6998C111.552 44.9717 110.784 43.2435 110.208 41.7073Z" fill="url(#paint5_linear)"/>
<path d="M141.123 74.159H138.627V40.3637C138.627 30.7628 135.747 21.546 130.37 14.8253C124.994 7.91266 117.889 4.26431 110.208 4.26431H73.7248C66.044 4.26431 58.9394 8.10468 53.5628 14.8253C48.1863 21.738 45.3061 30.7628 45.3061 40.3637V74.159H42.8098V40.3637C42.8098 29.8027 46.0741 20.0098 51.8347 12.5211C57.5952 5.03238 65.468 1 73.7248 1H110.208C118.465 1 126.146 5.03238 132.098 12.5211C137.859 20.0098 141.123 29.8027 141.123 40.3637V74.159Z" fill="white" stroke="black" stroke-width="0.6"/>
<path d="M51.0664 59.1813C47.61 59.5653 41.2734 60.9094 41.2734 66.67C41.2734 74.5427 41.2734 82.9915 41.2734 82.9915C41.2734 82.9915 41.2734 91.4403 41.2734 99.3131C41.2734 105.074 47.61 106.418 51.0664 106.802C52.2185 106.994 53.1786 106.226 53.1786 105.074V82.7995V60.9094C53.3706 59.7573 52.2185 58.9892 51.0664 59.1813Z" fill="#010202"/>
<path d="M51.2586 106.994H51.0666C47.2263 106.61 40.8896 105.074 40.8896 99.1213V66.4782C40.8896 60.5257 47.2263 58.9895 51.0666 58.6055C51.8347 58.6055 52.4107 58.7975 52.9868 59.1815C53.3708 59.5656 53.5629 60.1416 53.5629 60.7177V104.882C53.5629 105.458 53.3708 106.034 52.9868 106.418C52.6028 106.802 52.0267 106.994 51.2586 106.994ZM51.2586 59.5656C47.8023 59.9496 41.8497 61.2937 41.8497 66.6702V99.3133C41.8497 104.69 47.8023 106.034 51.2586 106.418C51.8347 106.418 52.2187 106.226 52.6028 106.034C52.7948 105.842 52.9868 105.458 52.9868 105.074V60.9097C52.9868 60.5257 52.7948 60.3336 52.6028 59.9496C52.2187 59.5656 51.6427 59.5656 51.2586 59.5656Z" fill="#010202"/>
<path d="M35.897 70.3189C35.897 74.9274 35.897 82.8001 35.897 82.8001C35.897 82.8001 35.897 90.6729 35.897 95.2813C35.897 99.8897 41.4655 99.6977 41.4655 99.6977V82.8001V65.9025C41.4655 65.9025 35.897 65.7105 35.897 70.3189Z" fill="url(#paint6_linear)"/>
<path d="M45.6902 105.266C46.6503 105.65 47.6104 106.034 48.5705 106.226V59.5654C47.6104 59.7574 46.6503 60.1415 45.6902 60.5255V105.266Z" fill="#11CFE7"/>
<path d="M29.3684 82.7999C29.3684 91.6327 35.897 92.0168 35.897 92.0168V82.7999V73.583C35.897 73.775 29.3684 73.9671 29.3684 82.7999Z" fill="#11CFE7"/>
<path d="M38.2013 66.67C41.8497 71.2785 41.8497 94.7047 38.7774 95.6648C37.6253 96.0488 36.8572 95.6648 36.0891 95.2808V95.4728C36.0891 100.081 41.6576 99.8892 41.6576 99.8892V82.9916V66.094C41.4656 65.902 39.7375 65.902 38.2013 66.67Z" fill="url(#paint7_linear)"/>
<path d="M132.866 59.1827C136.322 59.5668 142.659 60.9109 142.659 66.6714C142.659 74.5442 142.659 82.993 142.659 82.993C142.659 82.993 142.659 91.4418 142.659 99.3145C142.659 105.075 136.322 106.419 132.866 106.803C131.714 106.995 130.754 106.227 130.754 105.075V82.801V60.9109C130.754 59.7588 131.714 58.9907 132.866 59.1827Z" fill="#010202"/>
<path d="M132.674 106.994C132.098 106.994 131.522 106.802 130.946 106.418C130.562 106.034 130.37 105.458 130.37 104.882V60.718C130.37 60.1419 130.562 59.5659 130.946 59.1818C131.522 58.7978 132.098 58.4137 132.866 58.6058C136.707 58.9898 143.043 60.5259 143.043 66.4785V99.1216C143.043 105.074 136.707 106.61 132.866 106.994C132.866 106.994 132.866 106.994 132.674 106.994ZM132.674 59.5659C132.29 59.5659 131.906 59.7579 131.522 59.9499C131.33 60.1419 131.138 60.5259 131.138 60.91V105.074C131.138 105.458 131.33 105.65 131.522 106.034C131.906 106.418 132.29 106.418 132.866 106.418C136.323 106.034 142.275 104.69 142.275 99.3136V66.6705C142.275 61.294 136.323 59.9499 132.674 59.5659C132.866 59.5659 132.674 59.5659 132.674 59.5659Z" fill="#010202"/>
<path d="M148.036 70.3189C148.036 74.9274 148.036 82.8001 148.036 82.8001C148.036 82.8001 148.036 90.6729 148.036 95.2813C148.036 99.8897 142.467 99.6977 142.467 99.6977V82.8001V65.9025C142.659 65.9025 148.036 65.7105 148.036 70.3189Z" fill="url(#paint8_linear)"/>
<path d="M138.435 105.266C137.475 105.65 136.515 106.034 135.554 106.226V59.5654C136.515 59.7574 137.475 60.1415 138.435 60.5255V105.266Z" fill="#11CFE7"/>
<path d="M154.564 82.8004C154.564 91.6332 148.036 92.0172 148.036 92.0172V82.8004V73.5835C148.036 73.7755 154.564 73.9675 154.564 82.8004Z" fill="#11CFE7"/>
<path d="M145.924 66.671C142.275 71.2795 142.275 94.7057 145.348 95.6658C146.5 96.0498 147.268 95.6658 148.036 95.2817V95.4738C148.036 100.082 142.467 99.8902 142.467 99.8902V82.9926V66.095C142.659 65.9029 144.387 65.9029 145.924 66.671Z" fill="url(#paint9_linear)"/>
<path d="M122.113 122.164C121.537 122.356 110.784 113.716 107.136 108.147C103.295 102.77 97.5347 94.1297 95.8065 92.2095C94.2703 90.4813 92.7342 90.0973 92.3502 89.9053C91.9661 89.9053 90.622 90.2893 88.8938 92.2095C86.9736 94.3217 81.4051 102.77 77.5647 108.147C73.7244 113.524 62.9713 122.356 62.5873 122.164C62.0113 121.972 75.2605 150.007 78.7169 152.119C81.9812 154.231 85.2455 154.423 85.2455 154.423H92.3502H99.4548C99.4548 154.423 102.719 154.231 105.983 152.119C109.44 150.007 122.689 121.972 122.113 122.164Z" fill="#010202"/>
<path d="M138.242 113.139L131.329 111.795C131.329 111.795 128.833 111.795 125.952 114.099C123.072 116.403 108.671 130.997 108.671 130.997C108.671 130.997 107.327 133.301 107.327 136.565C107.327 139.83 107.327 147.702 107.327 147.702C107.327 147.702 107.711 150.199 110.015 151.159C112.127 152.119 117.504 153.271 117.504 153.271L135.169 128.693L138.242 113.139Z" fill="#010202"/>
<path d="M117.889 153.655H117.697C117.505 153.655 112.32 152.311 110.016 151.543C107.712 150.583 107.136 148.087 107.136 147.894V136.757C107.136 133.493 108.48 131.189 108.48 130.997C109.056 130.421 122.881 116.403 125.762 114.099C128.834 111.795 131.33 111.603 131.33 111.603L138.627 112.947L135.554 128.693L117.889 153.655ZM107.904 147.51C107.904 147.702 108.48 149.815 110.208 150.583C112.128 151.351 116.353 152.503 117.505 152.695L134.978 128.309L137.859 113.523L131.33 112.371C131.138 112.371 128.834 112.563 126.146 114.675C123.265 116.98 109.824 130.613 109.056 131.381C108.864 131.765 107.904 133.877 107.904 136.565V147.51Z" fill="#010202"/>
<path d="M113.088 155.767L111.552 142.902C111.552 142.902 110.592 139.062 114.625 133.877C118.657 128.693 129.41 117.364 134.979 113.331C140.547 109.107 140.931 109.107 143.235 109.299L148.612 111.795C148.612 111.795 149.764 112.371 150.148 115.443C150.532 118.516 146.884 128.693 144.387 132.149C141.891 135.605 127.682 155.191 126.146 156.151C124.61 157.111 120.577 158.84 119.041 158.648C117.505 158.456 114.433 156.919 114.433 156.919C114.433 156.919 113.28 156.535 113.088 155.767Z" fill="#010202"/>
<path d="M119.233 159.224H119.041C117.505 159.032 114.432 157.688 114.432 157.496C114.24 157.496 113.088 156.92 112.896 155.959L111.36 143.094C111.36 142.902 110.4 139.062 114.432 133.685C118.273 128.693 129.218 117.172 134.978 112.947C140.739 108.723 141.123 108.531 143.619 108.723L148.996 111.219C149.188 111.219 150.34 111.987 150.724 115.252C151.108 118.516 147.268 128.885 144.963 132.341C141.123 137.718 128.258 155.575 126.53 156.536C124.801 157.496 120.961 159.224 119.233 159.224ZM142.467 109.491C141.123 109.491 139.971 110.067 135.362 113.523C129.794 117.748 118.849 129.077 115.009 134.069C111.168 139.062 111.936 142.71 111.936 142.902L113.472 155.767C113.472 156.152 114.24 156.536 114.624 156.728C114.624 156.728 117.505 158.264 119.041 158.264C120.577 158.456 124.417 156.728 125.954 155.767C127.106 155.191 135.938 143.286 144.195 131.765C146.692 128.309 150.148 118.132 149.956 115.252C149.572 112.563 148.612 111.795 148.612 111.795L143.427 109.299C143.043 109.683 142.659 109.491 142.467 109.491Z" fill="#010202"/>
<path d="M146.884 111.027L143.235 109.299C140.931 109.107 140.547 109.299 134.979 113.331C129.41 117.556 118.465 128.693 114.625 133.877C110.592 139.062 111.552 142.902 111.552 142.902L113.088 155.767C113.088 156.535 114.433 157.111 114.433 157.111C114.433 157.111 115.777 157.687 116.929 158.263C117.121 158.071 117.313 157.879 117.505 157.687L115.969 145.014C115.969 145.014 115.009 141.174 119.041 135.989C123.073 130.805 133.826 119.476 139.395 115.443C144.387 111.795 145.156 111.219 146.884 111.411C147.076 111.219 146.884 111.027 146.884 111.027Z" fill="url(#paint10_linear)"/>
<path d="M117.121 158.648H116.929C115.585 158.072 114.432 157.496 114.432 157.496C114.24 157.496 113.088 156.92 112.896 155.959L111.36 143.094C111.36 142.902 110.4 139.062 114.432 133.685C118.273 128.693 129.218 117.172 134.978 112.947C140.739 108.723 141.123 108.531 143.619 108.723L147.46 110.451V110.643V110.835L147.652 111.219H147.076C145.539 111.219 144.579 111.603 139.779 115.252C134.21 119.476 123.265 130.805 119.425 135.798C115.585 140.79 116.353 144.438 116.353 144.63L117.889 157.496L117.697 157.688C117.505 157.88 117.313 158.072 117.121 158.072V158.648ZM142.467 109.491C141.123 109.491 139.971 110.067 135.362 113.523C129.794 117.748 118.849 129.077 115.009 134.069C111.168 139.062 111.936 142.71 111.936 142.902L113.472 155.767C113.472 156.152 114.24 156.536 114.624 156.728C114.624 156.728 115.777 157.304 116.929 157.688L117.121 157.496L115.585 145.014C115.585 144.822 114.624 140.982 118.657 135.606C122.497 130.613 133.442 119.092 139.203 114.868C143.043 111.987 144.579 111.027 145.923 110.835L143.235 109.491C143.043 109.683 142.659 109.491 142.467 109.491Z" fill="#010202"/>
<path d="M120.193 156.727L126.914 156.919C126.914 156.919 127.682 157.303 131.906 155.575C136.13 153.847 148.228 147.51 152.452 141.366C156.676 135.221 153.412 121.204 152.836 119.86C152.26 118.515 147.46 113.523 147.46 113.523C147.46 113.523 145.539 111.987 141.891 114.867C138.243 117.747 128.642 126.964 123.841 132.341C119.041 137.717 117.889 139.061 117.505 141.558L118.465 154.039C118.465 154.231 118.273 156.343 120.193 156.727Z" fill="#11CFE7"/>
<path d="M127.298 157.495C127.106 157.495 126.914 157.495 126.914 157.495L120.193 157.303C118.465 156.919 118.081 155.191 118.081 154.23L117.121 141.749C117.505 139.253 118.849 137.525 123.649 132.34C128.45 126.772 138.051 117.747 141.699 114.675C145.54 111.602 147.844 113.331 147.844 113.331C148.42 113.907 152.836 118.515 153.22 119.859C153.604 121.011 157.253 135.221 152.836 141.749C148.804 147.702 137.091 154.038 132.098 156.151C129.218 157.111 127.874 157.495 127.298 157.495ZM127.106 156.535C127.298 156.535 128.258 156.727 131.714 155.191C136.707 153.078 148.228 146.934 152.068 141.173C156.101 135.029 152.836 121.203 152.26 120.051C151.876 119.091 148.42 115.251 147.076 113.907C146.884 113.715 145.156 112.755 142.083 115.251C138.435 118.131 128.834 127.348 124.034 132.724C119.233 138.101 118.081 139.445 117.889 141.749L118.849 154.23C118.849 154.23 118.657 155.959 120.193 156.343L127.106 156.535Z" fill="#010202"/>
<path d="M152.26 119.859C152.26 119.667 152.452 119.475 152.452 119.475C151.3 117.747 147.46 113.714 147.46 113.714C147.46 113.714 145.539 112.178 141.891 115.059C138.243 117.939 128.642 127.156 123.841 132.532C119.041 137.909 117.889 139.253 117.505 141.749L118.465 154.23C118.465 154.23 118.273 156.342 120.193 156.919L126.914 157.111C126.914 157.111 127.106 157.303 128.066 157.111C127.682 156.726 127.49 156.342 127.49 156.342C127.49 156.342 126.337 143.477 126.145 141.941C125.953 140.405 126.914 139.445 126.914 139.445C126.914 139.445 142.467 123.507 147.46 121.395C150.148 120.051 151.492 119.859 152.26 119.859Z" fill="url(#paint11_linear)"/>
<path d="M127.298 157.495C127.106 157.495 126.914 157.495 126.914 157.495L120.193 157.303C118.465 156.919 118.081 155.191 118.081 154.23L117.121 141.749C117.505 139.253 118.849 137.525 123.457 132.34C128.258 126.772 137.859 117.747 141.507 114.675C145.348 111.602 147.46 113.331 147.652 113.331C147.844 113.523 151.492 117.363 152.836 119.091L153.028 119.283L152.836 119.475C152.836 119.667 152.644 119.667 152.644 119.859L152.452 120.051H152.26C151.684 120.051 150.532 120.243 147.46 121.395C142.659 123.316 127.298 139.253 127.106 139.445C127.106 139.445 126.338 140.213 126.53 141.557C126.722 143.093 127.874 154.807 127.874 155.959C127.874 156.151 128.066 156.343 128.258 156.535L129.026 157.111L128.258 157.303C127.682 157.303 127.49 157.495 127.298 157.495ZM127.106 156.727C127.106 156.727 127.106 156.727 127.298 156.727C127.106 156.535 127.106 156.535 127.106 156.535C127.106 156.343 125.954 143.669 125.762 142.133C125.57 140.405 126.53 139.445 126.53 139.445C127.106 138.869 142.275 123.316 147.076 121.203C149.188 120.243 150.916 119.859 151.876 119.667C150.532 117.939 147.268 114.483 147.076 114.099C146.884 113.907 145.156 112.947 141.891 115.443C138.243 118.323 128.642 127.54 123.841 132.916C119.041 138.293 117.889 139.637 117.697 141.941L118.657 154.422C118.657 154.422 118.465 156.343 120.001 156.535L127.106 156.727Z" fill="#010202"/>
<path d="M131.522 140.79L132.482 148.279C132.482 148.279 132.482 150.583 134.21 150.391C135.938 150.199 147.844 142.518 149.188 140.982C150.532 139.446 150.532 136.181 150.34 132.725C150.148 129.269 150.34 125.62 147.652 126.004C145.155 126.389 137.859 132.341 135.17 134.837C132.482 137.142 131.522 138.678 131.522 140.79Z" fill="white"/>
<path d="M133.826 150.775C133.25 150.775 132.866 150.583 132.674 150.391C131.906 149.815 131.906 148.471 131.906 148.279L130.946 140.79C130.946 138.678 131.906 137.141 134.786 134.453C137.283 132.149 144.771 125.812 147.46 125.428C148.228 125.236 148.804 125.428 149.188 125.812C150.34 126.772 150.532 129.461 150.532 132.149V132.725C150.724 136.181 150.532 139.446 149.188 141.174C147.844 142.71 135.939 150.583 134.018 150.775C134.018 150.775 134.018 150.775 133.826 150.775ZM131.906 140.79L132.866 148.279C132.866 148.471 132.866 149.431 133.442 149.815C133.634 150.007 133.826 150.007 134.21 150.007C135.747 149.815 147.46 142.326 148.804 140.598C149.956 139.062 149.956 135.989 149.956 132.725V132.149C149.956 129.845 149.764 127.349 148.804 126.58C148.612 126.388 148.228 126.196 147.844 126.388C145.539 126.772 138.819 132.149 135.554 135.221C132.866 137.526 131.906 138.87 131.906 140.79Z" fill="#010202"/>
<path d="M144.003 144.631C144.387 144.439 144.772 144.055 145.156 143.863L143.235 128.117C142.851 128.309 142.467 128.693 142.083 128.885L144.003 144.631Z" fill="#010202"/>
<path d="M140.739 146.743C141.123 146.551 141.507 146.359 141.891 145.975L139.971 130.614C139.587 130.998 139.203 131.19 138.819 131.574L140.739 146.743Z" fill="#010202"/>
<path d="M142.275 145.592C142.659 145.4 143.043 145.208 143.427 144.823L141.507 129.27C141.123 129.462 140.739 129.846 140.355 130.038L142.275 145.592Z" fill="#010202"/>
<path d="M145.731 143.479C146.115 143.287 146.5 142.903 146.884 142.711L144.963 127.157C144.579 127.349 144.195 127.541 143.811 127.925L145.731 143.479Z" fill="#010202"/>
<path d="M147.46 142.135C147.844 141.751 148.228 141.559 148.612 141.367L146.884 126.198C146.5 126.39 146.115 126.582 145.731 126.774L147.46 142.135Z" fill="#010202"/>
<path d="M133.826 135.99L135.555 149.816C135.939 149.624 136.323 149.432 136.707 149.24L134.979 135.03C134.402 135.414 134.21 135.606 133.826 135.99Z" fill="#010202"/>
<path d="M139.011 147.896C139.395 147.704 139.779 147.511 140.163 147.127L138.435 131.958C138.051 132.342 137.667 132.534 137.283 132.918L139.011 147.896Z" fill="#010202"/>
<path d="M147.651 125.813H147.459L149.188 140.598C149.572 140.022 149.956 139.062 150.148 138.102L148.612 125.813C148.228 125.813 148.036 125.813 147.651 125.813Z" fill="#010202"/>
<path d="M132.29 138.102L133.826 150.392C134.018 150.392 134.018 150.392 134.21 150.392C134.402 150.392 134.595 150.2 134.979 150.2L133.442 136.758C132.866 137.142 132.482 137.718 132.29 138.102Z" fill="#010202"/>
<path d="M137.283 148.856C137.667 148.664 138.051 148.472 138.435 148.28L136.707 133.494C136.323 133.878 135.938 134.07 135.554 134.454L137.283 148.856Z" fill="#010202"/>
<path d="M46.2659 113.14L53.1785 111.796C53.1785 111.796 55.6748 111.796 58.555 114.1C61.4353 116.404 75.8367 130.998 75.8367 130.998C75.8367 130.998 77.1808 133.302 77.1808 136.566C77.1808 139.831 77.1808 147.703 77.1808 147.703C77.1808 147.703 76.7968 150.2 74.4926 151.16C72.3804 152.12 67.0039 153.272 67.0039 153.272L49.3382 128.694L46.2659 113.14Z" fill="#010202"/>
<path d="M66.8118 153.464L48.9541 128.501L45.8818 112.756L53.1785 111.412C53.3705 111.412 55.8668 111.412 58.7471 113.908C61.6273 116.212 75.4526 130.229 76.0287 130.805C76.0287 130.997 77.3728 133.11 77.3728 136.566V147.703C77.3728 147.895 76.7968 150.391 74.4926 151.351C72.3804 152.312 67.0038 153.464 66.8118 153.464ZM49.7222 128.117L67.1959 152.504C68.348 152.311 72.5724 151.159 74.4926 150.391C76.4127 149.623 76.7968 147.703 76.7968 147.319V136.374C76.7968 133.494 75.6447 131.382 75.6447 131.189C74.8766 130.421 61.2433 116.596 58.555 114.484C55.8668 112.372 53.7546 112.18 53.3705 112.18L46.8419 113.332L49.7222 128.117Z" fill="#010202"/>
<path d="M71.4203 155.575L72.9565 142.71C72.9565 142.71 73.9166 138.869 69.8842 133.685C65.8518 128.5 55.0988 117.171 49.5302 113.139C43.9617 108.914 43.5777 108.914 41.2734 109.106L35.8969 111.603C35.8969 111.603 34.7448 112.179 34.3608 115.251C33.9767 118.323 37.6251 128.5 40.1213 131.957C42.6176 135.413 56.8269 154.999 58.3631 155.959C59.8992 156.919 63.9316 158.647 65.4677 158.455C67.0039 158.263 70.0762 156.727 70.0762 156.727C70.0762 156.727 71.4203 156.343 71.4203 155.575Z" fill="#010202" stroke="#010202" stroke-width="0.4052" stroke-miterlimit="10" stroke-linecap="round"/>
<path d="M68.7321 144.822L67.1959 157.688V157.88C67.58 157.688 67.964 157.688 68.348 157.688C68.5401 157.688 68.9241 157.496 69.1161 157.496C69.5002 157.496 69.6922 157.304 69.8842 157.112C70.0762 156.92 70.2682 156.92 70.2682 156.92C70.2682 156.92 71.4203 156.343 71.6124 155.575L73.1485 142.71C73.1485 142.71 74.1086 138.87 70.0762 133.685C66.0438 128.501 55.2908 117.172 49.7223 113.139C44.1537 108.915 43.7697 108.915 41.4655 109.107L40.3134 109.683C40.1214 109.875 39.7373 110.067 39.3533 110.259C38.9692 110.643 38.3932 110.835 38.2012 111.219C39.7373 111.219 40.8894 111.987 45.4979 115.252C51.0664 119.476 62.0114 130.613 65.8518 135.798C69.5002 140.982 68.7321 144.822 68.7321 144.822Z" fill="url(#paint12_linear)"/>
<path d="M66.0437 158.839L66.6198 157.687L68.1559 144.822C68.1559 144.822 68.924 140.982 65.0836 136.181C61.2433 131.189 50.4902 119.86 44.7297 115.635C40.1212 112.179 39.1612 111.603 37.817 111.603H36.4729L37.625 110.643C38.009 110.259 38.3931 109.875 38.9691 109.683C39.3532 109.491 39.5452 109.299 39.9292 109.107L41.2734 108.531C43.7696 108.339 44.3456 108.723 49.9142 112.755C55.6747 116.98 66.6198 128.501 70.4601 133.493C74.4925 138.678 73.7244 142.518 73.7244 143.094L72.1883 155.959C71.9963 156.919 70.8442 157.495 70.6522 157.687C70.6522 157.687 70.4601 157.687 70.2681 157.879C69.8841 158.071 69.6921 158.071 69.5 158.263C69.308 158.263 68.924 158.455 68.732 158.455C68.3479 158.455 67.9639 158.647 67.5799 158.647L66.0437 158.839ZM69.116 145.014L67.5799 157.303C67.7719 157.303 67.7719 157.303 67.9639 157.303C68.1559 157.303 68.3479 157.111 68.732 157.111C68.924 157.111 69.308 156.919 69.5 156.919C69.6921 156.727 69.8841 156.727 69.8841 156.727C70.2681 156.535 70.8442 156.151 70.8442 155.767L72.3803 142.902C72.3803 142.902 73.1484 139.062 69.308 134.261C65.4677 129.269 54.7146 117.94 48.9541 113.715C43.3856 109.683 43.0015 109.683 41.0813 109.683L40.3133 110.067C40.1212 110.259 39.7372 110.451 39.5452 110.643L39.3532 110.835C40.6973 111.219 42.2334 112.371 45.6898 114.867C51.4503 119.092 62.3954 130.613 66.2357 135.605C69.8841 140.598 69.308 144.438 69.116 145.014Z" fill="#010202"/>
<path d="M64.5076 156.535L57.787 156.727C57.787 156.727 57.0189 157.111 52.7945 155.383C48.5701 153.654 36.473 147.318 32.2485 141.173C28.0241 135.029 31.2885 121.011 31.8645 119.667C32.4406 118.323 37.241 113.331 37.241 113.331C37.241 113.331 39.1612 111.794 42.8096 114.675C46.4579 117.555 56.0588 126.772 60.8593 132.148C65.6597 137.525 66.8118 138.869 67.1959 141.365L66.2358 153.846C66.2358 154.038 66.4278 156.151 64.5076 156.535Z" fill="#11CFE7"/>
<path d="M57.403 157.303C56.8269 157.303 55.2908 157.111 52.6025 155.959C47.6101 153.847 35.8969 147.51 31.8646 141.557C27.4481 135.029 31.0965 120.819 31.4805 119.667C32.0566 118.323 36.473 113.715 36.857 113.139C36.857 113.139 39.1613 111.411 43.0016 114.483C46.65 117.363 56.2509 126.58 61.0513 132.148C65.8518 137.333 67.1959 139.061 67.58 141.557L66.6199 154.039C66.6199 154.999 66.4279 156.727 64.5077 157.111L57.787 157.303C57.787 157.303 57.595 157.303 57.403 157.303ZM37.6251 113.907C36.281 115.251 32.8247 119.091 32.4406 120.051C32.0566 121.011 28.6003 135.029 32.6326 141.173C36.473 146.934 47.9941 153.078 52.9866 155.191C56.4429 156.727 57.595 156.535 57.595 156.535L64.3157 156.343C65.8518 155.959 65.6598 154.231 65.6598 154.231L66.6199 141.749C66.4278 139.445 65.0837 138.101 60.4753 132.725C55.6748 127.348 46.0739 118.131 42.4256 115.251C39.3533 112.563 37.6251 113.715 37.6251 113.907Z" fill="#010202"/>
<path d="M67.1959 141.557C66.8118 139.061 65.6597 137.717 60.8593 132.34C56.0588 126.964 46.4579 117.747 42.8095 114.867C39.1612 111.986 37.241 113.522 37.241 113.522C37.241 113.522 33.5927 117.363 32.2485 119.283C32.2485 119.283 32.2485 119.283 32.2485 119.475C32.4406 119.667 32.6326 119.859 32.8246 119.859C33.5927 119.859 34.9368 120.243 37.433 121.203C42.2335 123.315 57.979 139.253 57.979 139.253C57.979 139.253 58.9391 140.213 58.7471 141.749C58.555 143.285 57.4029 156.151 57.4029 156.151C57.4029 156.151 57.2109 156.343 57.0189 156.727C57.2109 156.919 57.2109 156.919 57.4029 157.111C57.787 157.111 57.979 157.111 57.979 157.111L64.6996 156.919C66.6198 156.535 66.4278 154.23 66.4278 154.23L67.1959 141.557Z" fill="url(#paint13_linear)"/>
<path d="M57.4031 157.495C57.211 157.495 57.211 157.495 57.019 157.495H56.827L56.635 157.303C56.443 157.111 56.443 157.111 56.251 157.111L55.8669 156.727L56.251 156.343C56.443 156.151 56.443 156.151 56.443 156.151C56.635 154.807 57.5951 143.286 57.7871 141.942C57.9791 140.789 57.211 139.829 57.211 139.829C57.019 139.637 41.6576 123.892 36.8571 121.78C34.3609 120.82 33.2088 120.435 32.4407 120.435H32.2487L32.0566 120.243C31.8646 120.051 31.8646 120.051 31.6726 119.859L31.8646 119.475V118.899L32.0566 118.707C33.4008 116.787 36.8571 113.139 37.0491 112.947C37.0491 112.947 39.3533 111.219 43.3857 114.291C47.0341 117.171 56.635 126.388 61.4354 131.957C66.2359 137.333 67.58 138.869 67.9641 141.557L67.004 154.039C67.004 154.999 66.6199 156.727 64.8918 157.111H64.6997L57.9791 157.303C57.7871 157.303 57.5951 157.495 57.4031 157.495ZM33.0167 119.283C33.9768 119.475 35.513 119.859 37.4332 120.627C42.4256 122.74 57.4031 138.101 58.1711 138.869C58.1711 138.869 59.1312 140.021 58.9392 141.75C58.7472 143.286 57.5951 155.959 57.5951 156.151V156.343L64.3157 156.151C65.6598 155.767 65.6598 154.231 65.6598 154.039L66.6199 141.75C66.4279 139.637 65.2758 138.293 60.4754 132.917C55.6749 127.54 46.074 118.323 42.4256 115.443C39.3533 112.947 37.6252 113.907 37.4332 114.099C37.2411 114.291 34.3609 117.363 33.0167 119.283C33.0167 119.091 33.0167 119.091 33.0167 119.283Z" fill="#010202"/>
<path d="M53.1785 140.598L52.2184 148.087C52.2184 148.087 52.2184 150.391 50.4902 150.199C48.762 150.007 36.8569 142.327 35.5128 140.79C34.1686 139.254 34.1686 135.99 34.3607 132.534C34.5527 129.077 34.3607 125.429 37.0489 125.813C39.5452 126.197 46.8419 132.15 49.5301 134.646C52.2184 137.142 53.1785 138.486 53.1785 140.598Z" fill="white"/>
<path d="M50.8742 150.583C50.6822 150.583 50.6822 150.583 50.4901 150.583C48.57 150.199 36.6648 142.518 35.3207 140.982C33.9766 139.254 33.9766 135.989 33.9766 132.533V131.957C33.9766 129.269 34.1686 126.773 35.3207 125.62C35.7047 125.236 36.2808 125.044 37.0489 125.236C39.7371 125.621 47.4178 131.957 49.7221 134.261C52.6023 136.95 53.5624 138.486 53.5624 140.598L52.6023 148.087C52.6023 148.279 52.6023 149.431 51.8343 150.199C51.6422 150.391 51.2582 150.583 50.8742 150.583ZM36.6648 126.005C36.2808 126.005 36.0888 126.005 35.8967 126.197C34.9367 126.965 34.9366 129.461 34.7446 131.765V132.341C34.5526 135.605 34.5526 138.87 35.8967 140.214C37.2409 141.75 48.954 149.239 50.4901 149.623C50.8742 149.623 51.0662 149.623 51.2582 149.431C51.6422 149.047 51.8343 148.279 51.8343 147.895L52.7944 140.406C52.7944 138.486 52.0263 137.142 49.338 134.645C46.0737 131.573 39.3531 126.197 37.0489 125.813C36.8568 126.005 36.8568 126.005 36.6648 126.005Z" fill="#010202"/>
<path d="M40.5051 144.438C40.1211 144.246 39.7371 143.862 39.353 143.67L41.2732 127.924C41.6572 128.116 42.0413 128.5 42.4253 128.692L40.5051 144.438Z" fill="#010202"/>
<path d="M43.9617 146.55C43.5776 146.358 43.1936 146.166 42.8096 145.782L44.7298 130.42C45.1138 130.804 45.4978 130.996 45.8819 131.381L43.9617 146.55Z" fill="#010202"/>
<path d="M42.2334 145.59C41.8494 145.398 41.4653 145.206 41.0813 144.822L43.0015 129.268C43.3855 129.46 43.7696 129.844 44.1536 130.036L42.2334 145.59Z" fill="#010202"/>
<path d="M38.7774 143.285C38.3933 143.093 38.0093 142.709 37.6252 142.517L39.5454 126.964C39.9295 127.156 40.3135 127.348 40.6975 127.732L38.7774 143.285Z" fill="#010202"/>
<path d="M37.0488 141.942C36.6648 141.558 36.2808 141.366 35.8967 141.174L37.6249 126.004C38.0089 126.196 38.393 126.388 38.777 126.58L37.0488 141.942Z" fill="#010202"/>
<path d="M50.8742 135.797L49.146 149.622C48.762 149.43 48.3779 149.238 47.9939 149.046L49.7221 134.837C50.1061 135.221 50.4901 135.605 50.8742 135.797Z" fill="#010202"/>
<path d="M45.6897 147.703C45.3057 147.511 44.9216 147.319 44.5376 146.935L46.2658 131.765C46.6498 132.149 47.0338 132.341 47.4179 132.725L45.6897 147.703Z" fill="#010202"/>
<path d="M37.049 125.62H37.241L35.5128 140.406C35.1288 139.829 34.7448 138.869 34.5527 137.909L36.0889 125.62C36.2809 125.62 36.6649 125.62 37.049 125.62Z" fill="#010202"/>
<path d="M52.4104 137.909L50.8743 150.198C50.6823 150.198 50.6823 150.198 50.4902 150.198C50.2982 150.198 50.1062 150.006 49.7222 150.006L51.2583 136.564C51.8344 136.948 52.2184 137.525 52.4104 137.909Z" fill="#010202"/>
<path d="M47.4182 148.662C47.0342 148.47 46.6501 148.278 46.2661 148.086L47.9943 133.301C48.3783 133.685 48.7624 133.877 49.1464 134.261L47.4182 148.662Z" fill="#010202"/>
<path d="M101.183 114.484C101.183 114.484 100.799 111.411 98.3029 106.995C97.3428 105.075 93.6944 97.9702 93.6944 97.9702H92.1583H90.4301C90.4301 97.9702 86.7818 105.075 85.8217 106.995C83.5175 111.411 82.9414 114.484 82.9414 114.484C82.9414 114.484 81.2133 137.718 81.4053 143.095C81.7893 148.471 86.7818 150.583 86.7818 150.583L91.9663 151.159L97.1508 150.583C97.1508 150.583 102.143 148.471 102.527 143.095C102.911 137.718 101.183 114.484 101.183 114.484Z" fill="url(#paint14_linear)"/>
<path d="M102.335 149.431C102.335 150.775 101.375 151.735 100.031 151.735H84.0935C82.7494 151.735 81.7893 150.775 81.7893 149.431V135.797C81.7893 134.453 82.7494 133.493 84.0935 133.493H100.031C101.375 133.493 102.335 134.453 102.335 135.797V149.431Z" fill="#11CFE7"/>
<path d="M100.031 152.119H84.0935C82.5574 152.119 81.4053 150.967 81.4053 149.431V135.798C81.4053 134.261 82.5574 133.109 84.0935 133.109H100.031C101.567 133.109 102.719 134.261 102.719 135.798V149.431C102.911 150.967 101.567 152.119 100.031 152.119ZM84.2855 133.685C83.3255 133.685 82.3654 134.454 82.3654 135.606V149.239C82.3654 150.199 83.1334 151.159 84.2855 151.159H100.223C101.183 151.159 102.143 150.391 102.143 149.239V135.606C102.143 134.646 101.375 133.685 100.223 133.685H84.2855Z" fill="#010202"/>
<path d="M92.1582 152.12C96.9304 152.12 100.799 148.251 100.799 143.479C100.799 138.707 96.9304 134.838 92.1582 134.838C87.386 134.838 83.5173 138.707 83.5173 143.479C83.5173 148.251 87.386 152.12 92.1582 152.12Z" fill="#010202"/>
<path d="M92.1584 152.503C87.1659 152.503 83.1335 148.471 83.1335 143.478C83.1335 138.486 87.1659 134.454 92.1584 134.454C97.1509 134.454 101.183 138.486 101.183 143.478C101.183 148.471 97.1509 152.503 92.1584 152.503ZM92.1584 135.222C87.55 135.222 83.9016 138.87 83.9016 143.478C83.9016 148.087 87.55 151.735 92.1584 151.735C96.7668 151.735 100.415 148.087 100.415 143.478C100.415 138.87 96.7668 135.222 92.1584 135.222Z" fill="#010202"/>
<path d="M87.1658 138.486C88.5099 137.142 90.2381 136.374 92.1583 136.374C94.2705 136.374 96.1906 137.334 97.5348 138.87L98.1108 138.294C96.5747 136.566 94.4625 135.605 92.1583 135.605C89.854 135.605 87.9339 136.566 86.3977 138.102L87.1658 138.486Z" fill="url(#paint15_linear)"/>
<path d="M98.6868 139.062L98.1107 139.638C98.8788 140.79 99.2628 142.134 99.2628 143.478C99.2628 145.207 98.4948 146.935 97.5347 148.087L98.1107 148.663C99.4548 147.319 100.031 145.399 100.031 143.478C100.031 141.75 99.4548 140.214 98.6868 139.062Z" fill="url(#paint16_linear)"/>
<path d="M86.5897 149.046L87.1658 148.47C85.8217 147.126 85.0536 145.398 85.0536 143.478C85.0536 141.942 85.6296 140.405 86.3977 139.253L85.8217 138.677C84.8616 140.021 84.0935 141.75 84.0935 143.478C84.2855 145.59 85.0536 147.702 86.5897 149.046Z" fill="url(#paint17_linear)"/>
<path d="M96.7668 148.663C95.6147 149.815 93.8865 150.391 92.1584 150.391C90.6222 150.391 89.0861 149.815 87.934 149.047L87.3579 149.623C88.702 150.775 90.4302 151.351 92.1584 151.351C94.2706 151.351 95.9987 150.583 97.3429 149.431L96.7668 148.663Z" fill="url(#paint18_linear)"/>
<path d="M90.4301 108.531L82.9414 130.997H101.951L94.2705 108.531H90.4301Z" fill="url(#paint19_linear)"/>
<path d="M68.5401 120.436L75.2607 128.5C75.2607 128.5 77.565 131.189 77.565 134.645C77.565 138.101 77.565 146.358 77.565 146.358C77.565 146.358 77.1809 149.046 75.0687 150.007C72.9565 150.967 72.1884 150.775 72.1884 150.775L71.8044 154.231C71.8044 154.231 72.9565 154.615 75.0687 154.039C77.3729 153.463 80.0612 150.199 80.6372 148.278L81.0213 127.924C81.0213 127.924 81.5973 125.044 80.0612 123.316C78.525 121.588 73.3405 116.019 73.3405 116.019C73.3405 116.019 72.3805 115.059 71.4204 115.635C70.2683 116.211 67.964 118.323 67.964 118.323C67.964 118.323 67.58 119.476 68.5401 120.436Z" fill="#11CFE7"/>
<path d="M73.1486 154.808C72.3805 154.808 72.1885 154.808 72.1885 154.616H71.8044L72.1885 150.391H72.5725C72.5725 150.391 73.3406 150.391 75.0687 149.623C76.7969 148.855 77.1809 146.551 77.1809 146.359C77.1809 145.783 77.1809 138.102 77.1809 134.646C77.1809 131.382 74.8767 128.693 74.8767 128.693L68.1561 120.629C67.388 119.668 67.7721 118.324 68.1561 117.94C68.3481 117.94 70.6523 115.828 71.6124 115.252C72.7645 114.676 73.7246 115.252 74.1087 115.636C74.1087 115.636 79.1011 121.205 80.8293 122.933C82.5575 124.853 81.9814 127.541 81.9814 127.925L81.4054 148.279C80.8293 150.391 78.1411 153.848 75.4528 154.424C74.4927 154.808 73.7246 154.808 73.1486 154.808ZM72.5725 153.848C72.9566 153.848 73.9166 153.848 75.4528 153.656C77.565 153.272 80.0612 150.007 80.6373 148.279L81.0213 127.925C81.0213 127.925 81.5974 125.237 80.2533 123.701C78.7171 121.973 73.5326 116.404 73.5326 116.404C73.5326 116.404 72.7645 115.636 71.9965 116.212C71.0364 116.788 68.9242 118.516 68.7322 118.9C68.5401 119.092 68.1561 119.86 68.7322 120.436L75.4528 128.501C75.4528 128.693 77.949 131.382 77.949 135.03C77.949 138.486 77.949 146.743 77.949 146.743C77.949 146.935 77.565 149.815 75.2608 150.775C73.9166 151.351 73.1486 151.543 72.7645 151.543L72.5725 153.848Z" fill="#010202"/>
<path d="M64.8916 115.059C64.8916 115.059 62.5874 112.371 62.2034 112.179V112.947C62.2034 112.947 62.0114 112.947 61.8193 113.139C61.6273 113.331 61.4353 113.139 61.4353 113.139V111.411C61.4353 111.411 61.4353 110.835 62.5874 110.067C63.7395 109.299 66.0437 107.955 66.0437 107.955C66.0437 107.955 66.6198 107.57 67.1959 108.147C67.9639 108.915 69.116 110.835 69.116 110.835L64.8916 115.059Z" fill="#010202" stroke="#010202" stroke-width="0.4052" stroke-miterlimit="10" stroke-linecap="round"/>
<path d="M69.785 111.068L69.1631 110.336L62.8731 115.685L63.495 116.417L69.785 111.068Z" fill="#434341"/>
<path d="M62.5876 115.827L63.5477 115.059L67.7721 119.284L72.5725 115.059L68.1561 111.027L69.3082 110.067L74.6847 115.059C74.6847 115.059 74.8768 115.635 74.6847 115.827C74.4927 116.019 68.3481 121.588 68.3481 121.588C68.3481 121.588 67.9641 121.972 67.196 121.396C66.4279 120.82 62.7796 116.98 62.7796 116.98C62.7796 116.98 62.2035 116.403 62.5876 115.827Z" fill="url(#paint20_linear)"/>
<path d="M67.9641 122.164C67.7721 122.164 67.388 121.972 67.004 121.78C66.4279 121.204 62.7796 117.555 62.5876 117.363C62.2035 117.171 61.8195 116.403 62.3956 115.635C62.3956 115.635 62.3956 115.443 63.3557 114.867L63.5477 114.675L67.7721 118.899L71.9965 115.251L67.58 111.219L69.5002 109.683L75.0688 115.059C75.0688 115.251 75.2608 115.827 75.0688 116.211C74.8767 116.403 70.4603 120.244 68.7322 121.972C68.5402 121.972 68.3481 122.164 67.9641 122.164ZM62.9716 116.019C62.7796 116.403 63.1636 116.595 63.1636 116.595C63.1636 116.595 66.812 120.436 67.58 121.012C67.9641 121.396 68.1561 121.204 68.1561 121.204C70.6523 119.092 74.3007 115.827 74.4927 115.443V115.251L69.5002 110.451L68.9242 111.027L73.3406 115.059L67.9641 119.86L63.5477 115.635C63.1636 115.827 62.9716 116.019 62.9716 116.019Z" fill="#010202"/>
<path d="M63.7395 114.483L67.9639 111.026L72.7644 115.635L68.54 119.475L63.7395 114.483Z" fill="#11CFE7"/>
<path d="M68.5401 120.052L63.1636 114.483L68.156 110.451L73.5326 115.635L68.5401 120.052ZM64.3157 114.483L68.5401 118.707L72.1884 115.443L67.964 111.411L64.3157 114.483Z" fill="#010202"/>
<path d="M77.5651 126.774C78.5195 126.774 79.2932 126 79.2932 125.046C79.2932 124.091 78.5195 123.317 77.5651 123.317C76.6106 123.317 75.8369 124.091 75.8369 125.046C75.8369 126 76.6106 126.774 77.5651 126.774Z" fill="white"/>
<path d="M77.5648 127.157C76.4127 127.157 75.4526 126.197 75.4526 125.045C75.4526 123.893 76.4127 122.933 77.5648 122.933C78.7169 122.933 79.677 123.893 79.677 125.045C79.677 126.197 78.7169 127.157 77.5648 127.157ZM77.5648 123.701C76.7968 123.701 76.2207 124.277 76.2207 125.045C76.2207 125.813 76.7968 126.389 77.5648 126.389C78.3329 126.389 78.909 125.813 78.909 125.045C78.909 124.277 78.3329 123.701 77.5648 123.701Z" fill="#010202"/>
<path d="M116.161 120.436L109.44 128.5C109.44 128.5 107.136 131.189 107.136 134.645C107.136 138.101 107.136 146.358 107.136 146.358C107.136 146.358 107.52 149.046 109.632 150.007C111.744 150.967 112.512 150.775 112.512 150.775L112.896 154.231C112.896 154.231 111.744 154.615 109.632 154.039C107.328 153.463 104.64 150.199 104.064 148.278L103.68 127.924C103.68 127.924 103.103 125.044 104.64 123.316C106.176 121.588 111.36 116.019 111.36 116.019C111.36 116.019 112.32 115.059 113.28 115.635C114.433 116.211 116.737 118.323 116.737 118.323C116.737 118.323 117.121 119.476 116.161 120.436Z" fill="#11CFE7"/>
<path d="M111.552 154.807C110.976 154.807 110.208 154.807 109.056 154.423C106.56 153.847 103.679 150.391 103.103 148.279V148.087L102.719 127.733C102.719 127.349 102.143 124.469 103.871 122.74C105.408 121.012 110.592 115.444 110.592 115.444C110.976 115.06 111.936 114.484 113.088 115.06C114.24 115.636 116.545 117.748 116.545 117.748C116.929 118.324 117.313 119.476 116.545 120.436L109.824 128.501C109.824 128.501 107.52 131.189 107.52 134.453C107.52 137.91 107.52 145.591 107.52 146.167C107.52 146.359 107.904 148.663 109.632 149.431C111.552 150.199 112.128 150.199 112.128 150.199H112.512V150.583L112.896 154.423H112.512C112.704 154.615 112.32 154.807 111.552 154.807ZM104.063 148.279C104.64 150.199 107.136 153.271 109.248 153.655C110.592 154.039 111.552 154.039 112.128 153.847L111.936 151.159C111.552 151.159 110.592 150.967 109.44 150.391C107.136 149.431 106.752 146.551 106.752 146.359C106.752 146.359 106.752 138.102 106.752 134.645C106.752 130.997 109.056 128.309 109.248 128.117L115.969 120.052C116.545 119.476 116.161 118.516 115.969 118.516C115.585 118.324 113.664 116.404 112.704 115.828C111.936 115.444 111.168 116.02 111.168 116.02C111.168 116.02 106.176 121.588 104.64 123.316C103.295 124.853 103.871 127.541 103.871 127.541L104.063 148.279Z" fill="#010202"/>
<path d="M119.809 115.059C119.809 115.059 122.113 112.371 122.497 112.179V112.947C122.497 112.947 122.689 112.947 122.881 113.139C123.073 113.331 123.265 113.139 123.265 113.139V111.411C123.265 111.411 123.265 110.835 122.113 110.067C120.961 109.299 118.849 107.955 118.849 107.955C118.849 107.955 118.273 107.57 117.697 108.147C116.929 108.915 115.777 110.835 115.777 110.835L119.809 115.059Z" fill="#010202" stroke="#010202" stroke-width="0.4052" stroke-miterlimit="10" stroke-linecap="round"/>
<path d="M121.077 116.46L121.699 115.729L115.409 110.38L114.787 111.112L121.077 116.46Z" fill="#434341"/>
<path d="M122.113 115.828L121.153 115.06L116.929 119.284L112.128 115.06L116.545 111.027L115.201 110.067L109.824 115.06C109.824 115.06 109.632 115.636 109.824 115.828C110.016 116.02 116.161 121.588 116.161 121.588C116.161 121.588 116.737 122.165 117.313 121.396C118.081 120.82 121.729 116.98 121.729 116.98C121.729 116.98 122.497 116.404 122.113 115.828Z" fill="url(#paint21_linear)"/>
<path d="M116.737 122.164C116.353 122.164 116.161 121.972 115.969 121.78C114.048 120.052 109.824 116.212 109.632 116.02C109.44 115.636 109.44 115.06 109.632 114.868L115.201 109.491L117.121 111.027L112.704 115.06L116.929 118.708L121.153 114.484L121.345 114.676C122.305 115.252 122.305 115.444 122.305 115.444C122.881 116.212 122.305 116.788 122.113 117.172C121.921 117.364 118.465 121.012 117.697 121.588C117.313 121.972 117.121 122.164 116.737 122.164ZM110.208 115.252C110.208 115.444 110.208 115.444 110.208 115.636C110.4 115.828 114.048 119.092 116.545 121.204C116.545 121.204 116.929 121.396 117.121 121.012C117.697 120.436 121.537 116.596 121.537 116.596C121.537 116.596 121.921 116.212 121.729 115.828C121.729 115.828 121.345 115.636 121.153 115.444L116.929 119.668L111.552 114.868L115.969 110.835L115.201 110.451L110.208 115.252Z" fill="#010202"/>
<path d="M120.961 114.483L116.545 111.026L111.744 115.635L116.161 119.475L120.961 114.483Z" fill="#11CFE7"/>
<path d="M116.161 120.052L111.168 115.635L116.545 110.451L121.537 114.483L116.161 120.052ZM112.512 115.635L116.161 118.899L120.385 114.675L116.737 111.795L112.512 115.635Z" fill="#010202"/>
<path d="M107.136 126.774C108.09 126.774 108.864 126 108.864 125.046C108.864 124.091 108.09 123.317 107.136 123.317C106.181 123.317 105.407 124.091 105.407 125.046C105.407 126 106.181 126.774 107.136 126.774Z" fill="white"/>
<path d="M107.136 127.157C105.984 127.157 105.023 126.197 105.023 125.045C105.023 123.893 105.984 122.933 107.136 122.933C108.288 122.933 109.248 123.893 109.248 125.045C109.248 126.197 108.288 127.157 107.136 127.157ZM107.136 123.701C106.368 123.701 105.792 124.277 105.792 125.045C105.792 125.813 106.368 126.389 107.136 126.389C107.904 126.389 108.48 125.813 108.48 125.045C108.48 124.277 107.904 123.701 107.136 123.701Z" fill="#010202"/>
<path d="M90.0461 119.86C89.278 122.548 87.9339 127.157 87.7419 126.965C87.5499 126.965 88.1259 123.124 89.086 119.476C90.2381 115.059 91.7743 110.643 92.1583 110.643C92.3503 110.835 91.0062 116.212 90.0461 119.86Z" fill="white"/>
<path d="M75.8367 93.3608H62.9714V80.4956H75.8367V93.3608ZM65.4677 91.0566H73.5324V82.9918H65.4677V91.0566Z" fill="#11CFE7"/>
<path d="M123.073 93.3608H107.328L115.201 79.7275L123.073 93.3608ZM111.36 91.0566H119.233L115.201 84.144L111.36 91.0566Z" fill="#11CFE7"/>
<path d="M14.1693 206.537L9.67109 199.565C8.99637 198.665 8.54656 197.991 8.09674 197.541C7.64692 197.316 6.97219 197.091 6.07255 197.091H3.37364L3.37364 206.537H0L0 184.946H3.37364L3.37364 193.942H6.07255C6.97219 193.942 7.64692 193.717 8.09674 193.492C8.54656 193.267 8.99637 192.593 9.67109 191.468L13.9444 184.946H17.7678L12.8198 192.593C11.6953 194.167 10.7956 195.067 10.1209 195.517C10.5707 195.741 11.0206 195.966 11.4704 196.416C11.9202 196.866 12.37 197.541 13.0447 198.665L18.2177 206.537H14.1693Z" fill="white"/>
<path d="M39.1343 206.537H35.7607V191.243L24.2903 206.537H22.2661L22.2661 184.946H25.6398L25.6398 200.24L37.1101 184.946H39.1343V206.537Z" fill="white"/>
<path d="M48.8053 193.267H54.6529C57.1269 193.267 58.9262 193.942 60.0507 195.066C61.1753 196.191 61.85 197.99 61.85 200.014C61.85 202.039 61.1753 203.838 60.0507 204.962C58.9262 206.087 56.902 206.762 54.6529 206.762H45.4316V185.17H59.6009V188.319H48.8053V193.267ZM48.8053 203.388H54.6529C56.0024 203.388 57.1269 203.163 57.8016 202.488C58.4764 201.814 58.7013 200.914 58.7013 199.79C58.7013 197.316 57.3518 196.191 54.6529 196.191H48.8053V203.388Z" fill="white"/>
<path d="M70.3965 194.167H80.2925V197.316H70.3965V203.388H81.1922V206.537H67.2478V184.946H81.1922V188.095H70.3965V194.167Z" fill="white"/>
<path d="M86.3652 184.946H93.3374C96.2613 184.946 98.5103 185.621 100.31 187.195C102.109 188.769 103.009 190.569 103.009 193.043C103.009 195.517 102.109 197.541 100.31 198.89C98.5103 200.465 96.2613 201.139 93.3374 201.139H89.7389V206.537H86.3652V184.946ZM89.7389 197.991H93.5623C95.3616 197.991 96.7111 197.541 98.0605 196.641C99.1851 195.741 99.8598 194.617 99.8598 192.818C99.8598 191.243 99.1851 189.894 98.0605 189.219C96.936 188.319 95.3616 187.87 93.7872 187.87H89.9638V197.991H89.7389Z" fill="white"/>
<path d="M115.378 188.095V206.537H112.005V188.095H105.707V184.946H121.676V188.095H115.378Z" fill="white"/>
<path d="M129.773 194.167H139.669V197.316H129.773V203.388H140.568V206.537H126.624V184.946H140.568V188.095H129.773V194.167Z" fill="white"/>
<path d="M159.686 206.537L155.187 199.565C154.513 198.665 154.063 197.991 153.613 197.541C153.163 197.316 152.489 197.091 151.589 197.091H148.89V206.537H145.516V184.946H148.89V193.942H151.364C152.264 193.942 152.938 193.717 153.388 193.492C153.838 193.267 154.288 192.593 154.963 191.468L159.236 184.946H163.059L158.111 192.593C156.987 194.167 156.087 195.067 155.412 195.517C155.862 195.741 156.312 195.966 156.762 196.416C157.212 196.866 157.661 197.541 158.336 198.665L163.509 206.537H159.686Z" fill="white"/>
<path d="M171.831 201.814L169.807 206.762H166.208L175.204 185.17H177.229L186 206.762H182.401L180.377 201.814H171.831ZM176.104 191.018L172.955 198.44H179.028L176.104 191.018Z" fill="white"/>
<defs>
<linearGradient id="paint0_linear" x1="47.8097" y1="51.2539" x2="137.138" y2="51.2539" gradientUnits="userSpaceOnUse">
<stop offset="6.78887e-08" stop-color="#852078"/>
<stop offset="1" stop-color="#B14291"/>
</linearGradient>
<linearGradient id="paint1_linear" x1="50.1546" y1="58.4663" x2="135.86" y2="58.4663" gradientUnits="userSpaceOnUse">
<stop stop-color="#7F3D90"/>
<stop offset="1" stop-color="#C74A95"/>
</linearGradient>
<linearGradient id="paint2_linear" x1="52.1167" y1="86.1171" x2="133.669" y2="86.1171" gradientUnits="userSpaceOnUse">
<stop stop-color="#25378B"/>
<stop offset="1" stop-color="#1A1B3A"/>
</linearGradient>
<linearGradient id="paint3_linear" x1="62.4966" y1="70.589" x2="81.4843" y2="70.589" gradientUnits="userSpaceOnUse">
<stop offset="6.78887e-08" stop-color="#852078"/>
<stop offset="1" stop-color="#B14291"/>
</linearGradient>
<linearGradient id="paint4_linear" x1="102.464" y1="70.5894" x2="121.452" y2="70.5894" gradientUnits="userSpaceOnUse">
<stop offset="6.78887e-08" stop-color="#852078"/>
<stop offset="1" stop-color="#B14291"/>
</linearGradient>
<linearGradient id="paint5_linear" x1="69.9019" y1="32.1014" x2="112.674" y2="34.9649" gradientUnits="userSpaceOnUse">
<stop offset="6.78887e-08" stop-color="#852078"/>
<stop offset="1" stop-color="#B14291"/>
</linearGradient>
<linearGradient id="paint6_linear" x1="35.9279" y1="82.8894" x2="41.4079" y2="82.8894" gradientUnits="userSpaceOnUse">
<stop stop-color="#7F3D90"/>
<stop offset="1" stop-color="#C74A95"/>
</linearGradient>
<linearGradient id="paint7_linear" x1="35.928" y1="82.8889" x2="41.408" y2="82.8889" gradientUnits="userSpaceOnUse">
<stop stop-color="#7F3D90"/>
<stop offset="1" stop-color="#C74A95"/>
</linearGradient>
<linearGradient id="paint8_linear" x1="142.649" y1="82.8894" x2="148.129" y2="82.8894" gradientUnits="userSpaceOnUse">
<stop stop-color="#7F3D90"/>
<stop offset="1" stop-color="#C74A95"/>
</linearGradient>
<linearGradient id="paint9_linear" x1="142.649" y1="82.8898" x2="148.129" y2="82.8898" gradientUnits="userSpaceOnUse">
<stop stop-color="#7F3D90"/>
<stop offset="1" stop-color="#C74A95"/>
</linearGradient>
<linearGradient id="paint10_linear" x1="111.481" y1="133.71" x2="147.66" y2="133.71" gradientUnits="userSpaceOnUse">
<stop stop-color="#7F3D90"/>
<stop offset="1" stop-color="#C74A95"/>
</linearGradient>
<linearGradient id="paint11_linear" x1="117.381" y1="135.117" x2="152.73" y2="135.117" gradientUnits="userSpaceOnUse">
<stop stop-color="#7F3D90"/>
<stop offset="1" stop-color="#C74A95"/>
</linearGradient>
<linearGradient id="paint12_linear" x1="36.9582" y1="133.483" x2="73.1366" y2="133.483" gradientUnits="userSpaceOnUse">
<stop stop-color="#7F3D90"/>
<stop offset="1" stop-color="#C74A95"/>
</linearGradient>
<linearGradient id="paint13_linear" x1="31.8877" y1="134.97" x2="67.2366" y2="134.97" gradientUnits="userSpaceOnUse">
<stop stop-color="#7F3D90"/>
<stop offset="1" stop-color="#C74A95"/>
</linearGradient>
<linearGradient id="paint14_linear" x1="81.6344" y1="124.658" x2="102.683" y2="124.658" gradientUnits="userSpaceOnUse">
<stop stop-color="#7F3D90"/>
<stop offset="1" stop-color="#C74A95"/>
</linearGradient>
<linearGradient id="paint15_linear" x1="86.4626" y1="137.229" x2="98.1346" y2="137.229" gradientUnits="userSpaceOnUse">
<stop stop-color="#7F3D90"/>
<stop offset="1" stop-color="#C74A95"/>
</linearGradient>
<linearGradient id="paint16_linear" x1="97.3688" y1="143.853" x2="100.022" y2="143.853" gradientUnits="userSpaceOnUse">
<stop stop-color="#7F3D90"/>
<stop offset="1" stop-color="#C74A95"/>
</linearGradient>
<linearGradient id="paint17_linear" x1="84.2471" y1="143.83" x2="87.2378" y2="143.83" gradientUnits="userSpaceOnUse">
<stop stop-color="#7F3D90"/>
<stop offset="1" stop-color="#C74A95"/>
</linearGradient>
<linearGradient id="paint18_linear" x1="87.2559" y1="150.013" x2="97.3905" y2="150.013" gradientUnits="userSpaceOnUse">
<stop stop-color="#7F3D90"/>
<stop offset="1" stop-color="#C74A95"/>
</linearGradient>
<linearGradient id="paint19_linear" x1="82.8828" y1="119.807" x2="101.896" y2="119.807" gradientUnits="userSpaceOnUse">
<stop stop-color="#25378B"/>
<stop offset="1" stop-color="#1A1B3A"/>
</linearGradient>
<linearGradient id="paint20_linear" x1="62.4902" y1="115.865" x2="74.8234" y2="115.865" gradientUnits="userSpaceOnUse">
<stop stop-color="#7F3D90"/>
<stop offset="1" stop-color="#C74A95"/>
</linearGradient>
<linearGradient id="paint21_linear" x1="109.865" y1="115.865" x2="122.198" y2="115.865" gradientUnits="userSpaceOnUse">
<stop stop-color="#7F3D90"/>
<stop offset="1" stop-color="#C74A95"/>
</linearGradient>
</defs>
</svg>
