<svg width="266" height="60" viewBox="0 0 266 60" fill="none" xmlns="http://www.w3.org/2000/svg">
<path d="M259.383 52.9158L240.579 23.0297H22.8454L3.86621 3.86754" stroke="#11CFE7" stroke-miterlimit="10"/>
<path d="M259.207 59.2446C262.895 59.2446 265.885 56.2537 265.885 52.5642C265.885 48.8747 262.895 45.8838 259.207 45.8838C255.519 45.8838 252.529 48.8747 252.529 52.5642C252.529 56.2537 255.519 59.2446 259.207 59.2446Z" fill="#FF14A1"/>
<path d="M4.04193 8.08679C6.2742 8.08679 8.0838 6.27653 8.0838 4.04342C8.0838 1.81032 6.2742 0 4.04193 0C1.80965 0 0 1.81032 0 4.04342C0 6.27653 1.80965 8.08679 4.04193 8.08679Z" fill="#FF14A1"/>
</svg>
