<svg width="286" height="54" viewBox="0 0 286 54" fill="none" xmlns="http://www.w3.org/2000/svg">
<path d="M22.0878 43.192C10.4412 43.192 0.999817 33.747 0.999817 22.096C0.999817 10.445 10.4412 1 22.0878 1C33.7344 1 43.1758 10.445 43.1758 22.096C43.1758 33.747 33.7344 43.192 22.0878 43.192Z" stroke="#11CFE7" stroke-miterlimit="10"/>
<path d="M22.0879 22.096H257.219L281.997 49.345" stroke="#11CFE7" stroke-miterlimit="10"/>
<path d="M281.822 53.2126C279.589 53.2126 277.78 51.4023 277.78 49.1692C277.78 46.9361 279.589 45.1258 281.822 45.1258C284.054 45.1258 285.864 46.9361 285.864 49.1692C285.864 51.4023 284.054 53.2126 281.822 53.2126Z" fill="#CC2C93"/>
<path d="M22.088 32.1166C16.5559 32.1166 12.0712 27.6302 12.0712 22.096C12.0712 16.5618 16.5559 12.0754 22.088 12.0754C27.6201 12.0754 32.1047 16.5618 32.1047 22.096C32.1047 27.6302 27.6201 32.1166 22.088 32.1166Z" fill="#CC2C93"/>
</svg>
