<svg preserveAspectRatio="none" viewBox="0 0 919 545" fill="none" xmlns="http://www.w3.org/2000/svg" xmlns:xlink="http://www.w3.org/1999/xlink">
<g filter="url(#filter0_d)">
<path d="M685.136 520.351H187.195L172.701 505.857H70.2788L35.4937 471.072V279.754L21 265.261V151.887L35.4937 137.394V16.9344H570.152L584.646 31.1062H732.482L746.976 16.9344H833.616L897.711 81.0291V162.194L883.539 176.366V505.857H699.307L685.136 520.351Z" fill="url(#pattern0)" stroke="#01DDFF" stroke-miterlimit="10" stroke-linecap="round"/>
<path d="M897.711 182.807V506.823" stroke="#01DDFF" stroke-miterlimit="10" stroke-linecap="round"/>
<path d="M166.582 516.164H70.2793" stroke="#01DDFF" stroke-miterlimit="10" stroke-linecap="round"/>
<path d="M21 287.484V466.24" stroke="#01DDFF" stroke-miterlimit="10" stroke-linecap="round"/>
<path d="M727.007 16.9342H590.443" stroke="#01DDFF" stroke-miterlimit="10" stroke-linecap="round"/>
</g>
<path d="M685.136 520.351H187.195L172.701 505.857H70.2788L35.4937 471.072V279.755L21 265.261V151.888L35.4937 137.394V16.9346H570.152L584.646 31.1063H732.482L746.976 16.9346H833.616L897.711 81.0292V162.194L883.539 176.366V505.857H699.307L685.136 520.351Z" fill="url(#paint0_linear)" stroke="#01DDFF" stroke-miterlimit="10" stroke-linecap="round"/>
<path d="M685.136 520.351H187.195L172.701 505.857H70.2788L35.4937 471.072V279.755L21 265.261V151.888L35.4937 137.394V16.9346H570.152L584.646 31.1063H732.482L746.976 16.9346H833.616L897.711 81.0292V162.194L883.539 176.366V505.857H699.307L685.136 520.351Z" fill="url(#paint1_linear)" stroke="#01DDFF" stroke-miterlimit="10" stroke-linecap="round"/>
<defs>
<filter id="filter0_d" x="0.5" y="0.434235"  filterUnits="userSpaceOnUse" color-interpolation-filters="sRGB">
<feFlood flood-opacity="0" result="BackgroundImageFix"/>
<feColorMatrix in="SourceAlpha" type="matrix" values="0 0 0 0 0 0 0 0 0 0 0 0 0 0 0 0 0 0 127 0"/>
<feOffset dy="4"/>
<feGaussianBlur stdDeviation="10"/>
<feColorMatrix type="matrix" values="0 0 0 0 0 0 0 0 0 0 0 0 0 0 0 0 0 0 0.7 0"/>
<feBlend mode="normal" in2="BackgroundImageFix" result="effect1_dropShadow"/>
<feBlend mode="normal" in="SourceGraphic" in2="effect1_dropShadow" result="shape"/>
</filter>



</defs>
</svg>
