<svg width="1920" height="1075" viewBox="0 0 1920 1075" fill="none" xmlns="http://www.w3.org/2000/svg">
<mask id="mask0" mask-type="alpha" maskUnits="userSpaceOnUse" x="0" y="0" width="1920" height="1075">
<rect width="1920" height="1075" fill="#C4C4C4"/>
</mask>
<g mask="url(#mask0)">
<mask id="mask1" mask-type="alpha" maskUnits="userSpaceOnUse" x="0" y="55" width="1920" height="437">
<rect y="55" width="1920" height="437" fill="#C4C4C4"/>
</mask>
<g mask="url(#mask1)">
<path d="M-28.0029 285.118L208.037 110.159L274.269 238.502L314.196 205.752L366.336 301.64L524.636 162.676L636.902 329.964L663.441 303.115L679.647 326.423L709.24 296.034L724.741 317.867L802.482 236.141L883.745 338.815L987.321 218.439L1054.26 293.084L1075.63 266.235L1120.72 315.507L1207.86 200.146L1320.83 310.786L1448.13 116.65L1540.19 193.065L1606.9 78L1851.16 263.285L1871.35 212.833L1922.79 250.008" stroke="#E3057A" stroke-width="0.6" stroke-miterlimit="10"/>
<path d="M-33.6396 296.329L197.938 134.352L268.867 253.548L308.325 223.159L363.518 311.671L519.704 183.329L635.727 337.635L662.032 312.851L678.708 334.389L707.831 306.361L723.802 326.423L801.308 251.188L883.51 345.601L987.556 234.961L1054.73 303.705L1076.34 279.217L1121.43 324.358L1210.21 217.849L1322.47 319.932L1454.7 140.253L1545.83 211.358L1616.53 104.258L1857.26 276.562L1879.58 229.65L1929.84 264.17" stroke="#E3057A" stroke-width="0.6" stroke-miterlimit="10"/>
<path d="M-39.5112 307.835L187.604 159.135L263.465 268.595L302.218 241.156L360.465 321.702L514.772 204.276L634.553 345.305L660.623 322.882L677.533 342.355L706.657 316.982L722.628 334.979L799.898 266.53L883.276 352.681L988.026 251.778L1055.2 314.621L1077.04 292.198L1122.13 333.209L1212.56 236.141L1324.12 329.373L1461.28 164.741L1551.7 229.945L1626.39 131.106L1863.14 289.543L1887.8 247.057L1936.88 278.331" stroke="#E3057A" stroke-width="0.6" stroke-miterlimit="10"/>
<path d="M-45.1479 319.342L177.035 184.509L258.064 284.233L296.112 259.154L357.412 331.734L509.839 225.815L633.379 352.977L659.214 332.914L676.359 350.322L705.248 327.603L721.688 343.831L798.724 282.167L883.041 359.468L988.261 268.891L1055.9 325.538L1077.98 305.18L1123.07 342.06L1215.14 254.729L1326 338.815L1468.09 189.525L1557.57 249.123L1636.72 159.136L1869.48 303.115L1896.25 264.465L1944.16 292.789" stroke="#E3057A" stroke-width="0.6" stroke-miterlimit="10"/>
<path d="M-51.0195 331.144L165.996 210.768L252.427 299.87L289.77 277.447L354.358 342.06L504.672 247.648L632.204 360.648L657.57 342.946L675.42 358.583L703.838 338.52L720.749 352.682L797.55 298.1L882.806 366.549L988.495 286.298L1056.37 336.455L1078.68 318.457L1123.78 351.207L1217.49 273.611L1327.64 348.256L1475.14 215.193L1563.68 268.596L1647.29 187.755L1875.58 316.687L1904.94 282.462L1951.44 307.541" stroke="#E3057A" stroke-width="0.6" stroke-miterlimit="10"/>
<path d="M-56.8914 342.946L154.723 237.616L246.79 315.802L283.429 296.329L351.305 352.387L499.505 270.071L630.795 368.614L656.161 353.272L674.245 366.549L702.429 349.141L719.574 361.533L796.14 314.327L882.336 373.63L988.73 304L1056.84 347.666L1079.62 332.029L1124.48 360.353L1220.07 292.789L1329.29 357.698L1482.42 241.747L1569.79 288.658L1658.33 217.554L1881.92 330.259L1913.63 300.46L1958.96 322.588" stroke="#E3057A" stroke-width="0.6" stroke-miterlimit="10"/>
<path d="M-62.9978 354.747L143.214 265.35L241.153 332.029L277.088 315.507L348.252 363.008L494.103 293.084L629.621 376.58L654.517 363.598L673.071 374.81L701.255 360.353L718.635 370.679L794.966 330.554L882.101 380.711L989.2 321.998L1057.55 358.878L1080.33 345.601L1125.19 369.499L1222.89 312.557L1331.16 367.434L1489.7 268.891L1576.13 308.721L1669.61 247.943L1888.27 344.126L1922.56 319.047L1966.48 337.635" stroke="#E3057A" stroke-width="0.6" stroke-miterlimit="10"/>
<path d="M-68.8694 366.844L131.471 293.969L235.282 348.256L270.276 334.979L344.964 373.334L488.701 316.687L628.446 384.546L653.107 373.925L671.897 383.071L699.846 371.269L717.695 379.825L793.557 347.371L881.866 387.791L989.435 340.29L1058.02 370.089L1081.27 359.468L1125.89 378.94L1225.47 332.619L1333.04 377.17L1497.45 296.624L1582.47 329.669L1681.11 279.512L1894.84 358.287L1931.48 337.93L1974.23 352.977" stroke="#E3057A" stroke-width="0.6" stroke-miterlimit="10"/>
<path d="M-75.2107 379.236L119.023 323.178L229.41 365.074L263.7 354.747L341.911 384.251L483.065 340.881L627.038 392.513L651.464 384.546L670.723 391.332L698.437 382.481L716.521 388.972L792.148 364.189L881.632 395.168L989.67 358.878L1058.49 381.596L1082.21 373.63L1126.83 388.382L1228.29 352.977L1334.69 386.907L1505.2 325.539L1589.05 350.617L1693.09 312.262L1901.42 372.745L1940.88 357.108L1981.98 368.614" stroke="#E3057A" stroke-width="0.6" stroke-miterlimit="10"/>
<path d="M-81.3174 391.627L106.575 353.567L223.303 382.185L256.654 375.104L338.622 394.872L477.193 365.663L625.863 400.478L650.054 395.167L669.548 399.888L697.027 393.987L715.347 398.118L790.738 381.595L881.397 402.248L989.904 377.76L1059.19 393.397L1082.91 387.791L1127.54 397.823L1230.88 373.924L1336.57 396.937L1513.42 355.042L1595.86 372.449L1705.54 345.896L1907.99 387.201L1950.27 376.58L1989.96 384.546" stroke="#E3057A" stroke-width="0.6" stroke-miterlimit="10"/>
<path d="M-87.6587 404.315L93.4226 384.842L217.197 399.299L249.843 395.758L335.569 405.79L471.321 391.038L624.454 408.74L648.41 406.085L668.373 408.445L695.618 405.2L714.407 407.56L789.329 399.004L881.162 409.625L990.374 397.234L1059.66 404.905L1083.85 402.249L1128.24 407.265L1233.93 395.168L1338.44 406.675L1521.64 385.432L1602.67 394.283L1718.46 380.711L1914.81 401.954L1959.9 396.644L1997.95 400.479" stroke="#E3057A" stroke-width="0.6" stroke-miterlimit="10"/>
<path d="M-94 417H80.0354H210.856H242.562H332.281H465.215H623.279H646.766H667.199H694.209H713.233H787.92H880.927H990.609H1060.36H1084.79H1129.18H1236.75H1340.32H1530.33H1609.71H1731.84H1921.62H1969.76H2006.17" stroke="#E3057A" stroke-width="0.6" stroke-miterlimit="10"/>
</g>
<mask id="mask2" mask-type="alpha" maskUnits="userSpaceOnUse" x="0" y="493" width="1920" height="602">
<rect y="493" width="1920" height="602" fill="#C4C4C4"/>
</mask>
<g mask="url(#mask2)">
<path d="M127.855 497.001L12.989 506.53H125.338L127.855 497.001Z" stroke="#00F2C5" stroke-miterlimit="10"/>
<path d="M137.465 510.518L246.84 500.324H139.067L137.465 510.518Z" stroke="#00F2C5" stroke-miterlimit="10"/>
<path d="M293.518 497L190.322 506.529H302.442L293.518 497Z" stroke="#00F2C5" stroke-miterlimit="10"/>
<path d="M319.374 510.518L416.621 500.324H309.078L319.374 510.518Z" stroke="#00F2C5" stroke-miterlimit="10"/>
<path d="M459.181 497L367.426 506.529H479.775L459.181 497Z" stroke="#00F2C5" stroke-miterlimit="10"/>
<path d="M501.283 510.518L586.403 500.324H478.859L501.283 510.518Z" stroke="#00F2C5" stroke-miterlimit="10"/>
<path d="M624.844 497L544.759 506.529H656.879L624.844 497Z" stroke="#00F2C5" stroke-miterlimit="10"/>
<path d="M683.193 510.518L756.185 500.324H648.641L683.193 510.518Z" stroke="#00F2C5" stroke-miterlimit="10"/>
<path d="M790.736 497L721.863 506.529H834.211L790.736 497Z" stroke="#00F2C5" stroke-miterlimit="10"/>
<path d="M865.102 510.518L925.967 500.324H818.423L865.102 510.518Z" stroke="#00F2C5" stroke-miterlimit="10"/>
<path d="M956.399 497L899.195 506.529H1011.54L956.399 497Z" stroke="#00F2C5" stroke-miterlimit="10"/>
<path d="M1047.01 510.518L1095.75 500.324H988.205L1047.01 510.518Z" stroke="#00F2C5" stroke-miterlimit="10"/>
<path d="M1122.06 497L1076.3 506.529H1188.65L1122.06 497Z" stroke="#00F2C5" stroke-miterlimit="10"/>
<path d="M1228.92 510.518L1265.53 500.324H1157.99L1228.92 510.518Z" stroke="#00F2C5" stroke-miterlimit="10"/>
<path d="M1287.73 497L1253.63 506.529H1365.98L1287.73 497Z" stroke="#00F2C5" stroke-miterlimit="10"/>
<path d="M1410.83 510.518L1435.31 500.324H1327.77L1410.83 510.518Z" stroke="#00F2C5" stroke-miterlimit="10"/>
<path d="M1453.62 497L1430.96 506.529H1543.08L1453.62 497Z" stroke="#00F2C5" stroke-miterlimit="10"/>
<path d="M1592.74 510.518L1605.09 500.324H1497.55L1592.74 510.518Z" stroke="#00F2C5" stroke-miterlimit="10"/>
<path d="M1619.28 497L1608.07 506.529H1720.42L1619.28 497Z" stroke="#00F2C5" stroke-miterlimit="10"/>
<path d="M1774.65 510.518L1775.1 500.324H1667.33L1774.65 510.518Z" stroke="#00F2C5" stroke-miterlimit="10"/>
<path d="M173.39 503.871L55.7778 514.507H174.076L173.39 503.871Z" stroke="#00F2C5" stroke-miterlimit="10"/>
<path d="M188.034 518.94L299.467 507.638H186.432L188.034 518.94Z" stroke="#00F2C5" stroke-miterlimit="10"/>
<path d="M347.29 503.87L242.492 514.507H360.562L347.29 503.87Z" stroke="#00F2C5" stroke-miterlimit="10"/>
<path d="M380.011 518.94L477.944 507.638H364.909L380.011 518.94Z" stroke="#00F2C5" stroke-miterlimit="10"/>
<path d="M521.191 503.87L428.978 514.507H547.276L521.191 503.87Z" stroke="#00F2C5" stroke-miterlimit="10"/>
<path d="M571.759 518.94L656.421 507.638H543.386L571.759 518.94Z" stroke="#00F2C5" stroke-miterlimit="10"/>
<path d="M695.091 503.87L615.692 514.507H733.99L695.091 503.87Z" stroke="#00F2C5" stroke-miterlimit="10"/>
<path d="M763.736 518.94L834.669 507.638H721.634L763.736 518.94Z" stroke="#00F2C5" stroke-miterlimit="10"/>
<path d="M868.992 503.87L802.406 514.507H920.476L868.992 503.87Z" stroke="#00F2C5" stroke-miterlimit="10"/>
<path d="M955.484 518.94L1013.15 507.638H900.111L955.484 518.94Z" stroke="#00F2C5" stroke-miterlimit="10"/>
<path d="M1042.89 503.87L988.892 514.507H1107.19L1042.89 503.87Z" stroke="#00F2C5" stroke-miterlimit="10"/>
<path d="M1147.23 518.94L1191.62 507.638H1078.59L1147.23 518.94Z" stroke="#00F2C5" stroke-miterlimit="10"/>
<path d="M1216.79 503.87L1175.61 514.507H1293.9L1216.79 503.87Z" stroke="#00F2C5" stroke-miterlimit="10"/>
<path d="M1339.21 518.94L1370.1 507.638H1257.06L1339.21 518.94Z" stroke="#00F2C5" stroke-miterlimit="10"/>
<path d="M1390.69 503.87L1362.32 514.507H1480.39L1390.69 503.87Z" stroke="#00F2C5" stroke-miterlimit="10"/>
<path d="M1530.96 518.94L1548.35 507.638H1435.31L1530.96 518.94Z" stroke="#00F2C5" stroke-miterlimit="10"/>
<path d="M1564.59 503.87L1548.81 514.507H1667.1L1564.59 503.87Z" stroke="#00F2C5" stroke-miterlimit="10"/>
<path d="M1722.93 518.94L1726.82 507.638H1613.79L1722.93 518.94Z" stroke="#00F2C5" stroke-miterlimit="10"/>
<path d="M1738.49 503.87L1735.52 514.507H1853.82L1738.49 503.87Z" stroke="#00F2C5" stroke-miterlimit="10"/>
<path d="M1914.68 518.94L1905.3 507.638H1792.27L1914.68 518.94Z" stroke="#00F2C5" stroke-miterlimit="10"/>
<path d="M39.5317 511.404L-95.2412 523.37H29.6926L39.5317 511.404Z" stroke="#00F2C5" stroke-miterlimit="10"/>
<path d="M40.447 528.245L168.813 515.614H49.5997L40.447 528.245Z" stroke="#00F2C5" stroke-miterlimit="10"/>
<path d="M222.585 511.404L101.999 523.37H226.933L222.585 511.404Z" stroke="#00F2C5" stroke-miterlimit="10"/>
<path d="M243.636 528.245L356.9 515.614H237.687L243.636 528.245Z" stroke="#00F2C5" stroke-miterlimit="10"/>
<path d="M405.638 511.404L299.239 523.37H424.172L405.638 511.404Z" stroke="#00F2C5" stroke-miterlimit="10"/>
<path d="M446.596 528.245L544.987 515.614H425.774L446.596 528.245Z" stroke="#00F2C5" stroke-miterlimit="10"/>
<path d="M588.691 511.404L496.478 523.37H621.412L588.691 511.404Z" stroke="#00F2C5" stroke-miterlimit="10"/>
<path d="M649.556 528.245L732.846 515.614H613.861L649.556 528.245Z" stroke="#00F2C5" stroke-miterlimit="10"/>
<path d="M771.744 511.404L693.718 523.37H818.652L771.744 511.404Z" stroke="#00F2C5" stroke-miterlimit="10"/>
<path d="M852.517 528.245L920.933 515.614H801.948L852.517 528.245Z" stroke="#00F2C5" stroke-miterlimit="10"/>
<path d="M954.798 511.404L890.958 523.37H1015.89L954.798 511.404Z" stroke="#00F2C5" stroke-miterlimit="10"/>
<path d="M1055.71 528.245L1109.02 515.614H989.807L1055.71 528.245Z" stroke="#00F2C5" stroke-miterlimit="10"/>
<path d="M1137.85 511.404L1088.2 523.37H1213.13L1137.85 511.404Z" stroke="#00F2C5" stroke-miterlimit="10"/>
<path d="M1258.67 528.245L1297.11 515.614H1177.89L1258.67 528.245Z" stroke="#00F2C5" stroke-miterlimit="10"/>
<path d="M1320.9 511.404L1285.21 523.37H1410.14L1320.9 511.404Z" stroke="#00F2C5" stroke-miterlimit="10"/>
<path d="M1461.63 528.245L1485.19 515.614H1365.98L1461.63 528.245Z" stroke="#00F2C5" stroke-miterlimit="10"/>
<path d="M1503.96 511.404L1482.45 523.37H1607.38L1503.96 511.404Z" stroke="#00F2C5" stroke-miterlimit="10"/>
<path d="M1664.59 528.245L1673.28 515.614H1554.07L1664.59 528.245Z" stroke="#00F2C5" stroke-miterlimit="10"/>
<path d="M1687.01 511.404L1679.69 523.37H1804.62L1687.01 511.404Z" stroke="#00F2C5" stroke-miterlimit="10"/>
<path d="M1867.78 528.245L1861.37 515.614H1742.16L1867.78 528.245Z" stroke="#00F2C5" stroke-miterlimit="10"/>
<path d="M85.0661 519.826L-53.5967 533.122H78.6593L85.0661 519.826Z" stroke="#00F2C5" stroke-miterlimit="10"/>
<path d="M91.4729 538.661L223.042 524.701H97.1933L91.4729 538.661Z" stroke="#00F2C5" stroke-miterlimit="10"/>
<path d="M278.187 519.825L155.313 533.121H287.569L278.187 519.825Z" stroke="#00F2C5" stroke-miterlimit="10"/>
<path d="M307.018 538.661L421.884 524.701H296.035L307.018 538.661Z" stroke="#00F2C5" stroke-miterlimit="10"/>
<path d="M471.308 519.825L364.222 533.121H496.478L471.308 519.825Z" stroke="#00F2C5" stroke-miterlimit="10"/>
<path d="M522.563 538.661L620.497 524.701H494.647L522.563 538.661Z" stroke="#00F2C5" stroke-miterlimit="10"/>
<path d="M664.429 519.825L573.132 533.121H705.388L664.429 519.825Z" stroke="#00F2C5" stroke-miterlimit="10"/>
<path d="M737.88 538.661L819.11 524.701H693.26L737.88 538.661Z" stroke="#00F2C5" stroke-miterlimit="10"/>
<path d="M857.55 519.825L782.041 533.121H914.297L857.55 519.825Z" stroke="#00F2C5" stroke-miterlimit="10"/>
<path d="M953.425 538.661L1017.72 524.701H891.873L953.425 538.661Z" stroke="#00F2C5" stroke-miterlimit="10"/>
<path d="M1050.67 519.825L990.95 533.121H1123.21L1050.67 519.825Z" stroke="#00F2C5" stroke-miterlimit="10"/>
<path d="M1168.97 538.661L1216.56 524.701H1090.71L1168.97 538.661Z" stroke="#00F2C5" stroke-miterlimit="10"/>
<path d="M1243.79 519.825L1199.86 533.121H1332.12L1243.79 519.825Z" stroke="#00F2C5" stroke-miterlimit="10"/>
<path d="M1384.29 538.661L1415.18 524.701H1289.33L1384.29 538.661Z" stroke="#00F2C5" stroke-miterlimit="10"/>
<path d="M1436.91 519.825L1408.77 533.121H1541.03L1436.91 519.825Z" stroke="#00F2C5" stroke-miterlimit="10"/>
<path d="M1599.83 538.661L1613.79 524.701H1487.94L1599.83 538.661Z" stroke="#00F2C5" stroke-miterlimit="10"/>
<path d="M1630.03 519.825L1617.68 533.121H1749.93L1630.03 519.825Z" stroke="#00F2C5" stroke-miterlimit="10"/>
<path d="M1815.15 538.661L1812.63 524.701H1686.55L1815.15 538.661Z" stroke="#00F2C5" stroke-miterlimit="10"/>
<path d="M1823.16 519.825L1826.59 533.121H1958.84L1823.16 519.825Z" stroke="#00F2C5" stroke-miterlimit="10"/>
<path d="M2030.69 538.661L2011.24 524.701H1885.39L2030.69 538.661Z" stroke="#00F2C5" stroke-miterlimit="10"/>
<path d="M-81.741 550.627L72.0237 534.672H-61.3763L-81.741 550.627Z" stroke="#00F2C5" stroke-miterlimit="10"/>
<path d="M134.948 529.354L-8.51953 544.423H132.431L134.948 529.354Z" stroke="#00F2C5" stroke-miterlimit="10"/>
<path d="M147.991 550.627L282.764 534.672H149.364L147.991 550.627Z" stroke="#00F2C5" stroke-miterlimit="10"/>
<path d="M339.281 529.354L213.89 544.423H354.612L339.281 529.354Z" stroke="#00F2C5" stroke-miterlimit="10"/>
<path d="M377.494 550.627L493.504 534.672H359.875L377.494 550.627Z" stroke="#00F2C5" stroke-miterlimit="10"/>
<path d="M543.843 529.354L436.071 544.423H576.793L543.843 529.354Z" stroke="#00F2C5" stroke-miterlimit="10"/>
<path d="M607.225 550.627L704.015 534.672H570.615L607.225 550.627Z" stroke="#00F2C5" stroke-miterlimit="10"/>
<path d="M748.177 529.354L658.252 544.423H799.203L748.177 529.354Z" stroke="#00F2C5" stroke-miterlimit="10"/>
<path d="M836.957 550.627L914.755 534.672H781.355L836.957 550.627Z" stroke="#00F2C5" stroke-miterlimit="10"/>
<path d="M952.738 529.354L880.661 544.423H1021.38L952.738 529.354Z" stroke="#00F2C5" stroke-miterlimit="10"/>
<path d="M1066.46 550.627L1125.49 534.672H992.095L1066.46 550.627Z" stroke="#00F2C5" stroke-miterlimit="10"/>
<path d="M1157.07 529.354L1102.84 544.423H1243.56L1157.07 529.354Z" stroke="#00F2C5" stroke-miterlimit="10"/>
<path d="M1296.19 550.627L1336.23 534.672H1202.83L1296.19 550.627Z" stroke="#00F2C5" stroke-miterlimit="10"/>
<path d="M1361.63 529.354L1325.02 544.423H1465.97L1361.63 529.354Z" stroke="#00F2C5" stroke-miterlimit="10"/>
<path d="M1525.92 550.627L1546.97 534.672H1413.35L1525.92 550.627Z" stroke="#00F2C5" stroke-miterlimit="10"/>
<path d="M1565.97 529.354L1547.43 544.423H1688.15L1565.97 529.354Z" stroke="#00F2C5" stroke-miterlimit="10"/>
<path d="M1755.66 550.627L1757.71 534.672H1624.09L1755.66 550.627Z" stroke="#00F2C5" stroke-miterlimit="10"/>
<path d="M1770.53 529.354L1769.61 544.423H1910.34L1770.53 529.354Z" stroke="#00F2C5" stroke-miterlimit="10"/>
<path d="M1985.16 550.627L1968.23 534.672H1834.83L1985.16 550.627Z" stroke="#00F2C5" stroke-miterlimit="10"/>
<path d="M-32.0879 564.145L127.168 545.974H-14.9267L-32.0879 564.145Z" stroke="#00F2C5" stroke-miterlimit="10"/>
<path d="M192.152 539.99L44.5657 557.053H194.669L192.152 539.99Z" stroke="#00F2C5" stroke-miterlimit="10"/>
<path d="M213.661 564.145L351.18 545.974H209.313L213.661 564.145Z" stroke="#00F2C5" stroke-miterlimit="10"/>
<path d="M409.299 539.99L281.62 557.053H431.952L409.299 539.99Z" stroke="#00F2C5" stroke-miterlimit="10"/>
<path d="M459.41 564.145L575.42 545.974H433.325L459.41 564.145Z" stroke="#00F2C5" stroke-miterlimit="10"/>
<path d="M626.217 539.99L518.902 557.053H669.235L626.217 539.99Z" stroke="#00F2C5" stroke-miterlimit="10"/>
<path d="M705.159 564.145L799.431 545.974H657.565L705.159 564.145Z" stroke="#00F2C5" stroke-miterlimit="10"/>
<path d="M843.364 539.99L756.185 557.053H906.517L843.364 539.99Z" stroke="#00F2C5" stroke-miterlimit="10"/>
<path d="M950.679 564.145L1023.67 545.974H881.576L950.679 564.145Z" stroke="#00F2C5" stroke-miterlimit="10"/>
<path d="M1060.51 539.99L993.468 557.053H1143.8L1060.51 539.99Z" stroke="#00F2C5" stroke-miterlimit="10"/>
<path d="M1196.43 564.145L1247.68 545.974H1105.82L1196.43 564.145Z" stroke="#00F2C5" stroke-miterlimit="10"/>
<path d="M1277.43 539.99L1230.75 557.053H1381.08L1277.43 539.99Z" stroke="#00F2C5" stroke-miterlimit="10"/>
<path d="M1442.18 564.145L1471.92 545.974H1329.83L1442.18 564.145Z" stroke="#00F2C5" stroke-miterlimit="10"/>
<path d="M1494.58 539.99L1468.03 557.053H1618.14L1494.58 539.99Z" stroke="#00F2C5" stroke-miterlimit="10"/>
<path d="M1687.93 564.145L1695.93 545.974H1554.07L1687.93 564.145Z" stroke="#00F2C5" stroke-miterlimit="10"/>
<path d="M1711.49 539.99L1705.09 557.053H1855.42L1711.49 539.99Z" stroke="#00F2C5" stroke-miterlimit="10"/>
<path d="M1933.67 564.145L1920.17 545.974H1778.08L1933.67 564.145Z" stroke="#00F2C5" stroke-miterlimit="10"/>
<path d="M24.201 552.178L-151.073 571.679H10.2431L24.201 552.178Z" stroke="#00F2C5" stroke-miterlimit="10"/>
<path d="M23.2859 579.878L188.263 559.048H36.5572L23.2859 579.878Z" stroke="#00F2C5" stroke-miterlimit="10"/>
<path d="M255.535 552.178L103.372 571.679H264.687L255.535 552.178Z" stroke="#00F2C5" stroke-miterlimit="10"/>
<path d="M287.798 579.878L427.833 559.048H276.128L287.798 579.878Z" stroke="#00F2C5" stroke-miterlimit="10"/>
<path d="M487.097 552.178L358.044 571.679H519.36L487.097 552.178Z" stroke="#00F2C5" stroke-miterlimit="10"/>
<path d="M552.081 579.878L667.404 559.048H515.699L552.081 579.878Z" stroke="#00F2C5" stroke-miterlimit="10"/>
<path d="M718.659 552.178L612.717 571.679H773.804L718.659 552.178Z" stroke="#00F2C5" stroke-miterlimit="10"/>
<path d="M816.364 579.878L906.975 559.048H755.27L816.364 579.878Z" stroke="#00F2C5" stroke-miterlimit="10"/>
<path d="M949.993 552.178L867.161 571.679H1028.48L949.993 552.178Z" stroke="#00F2C5" stroke-miterlimit="10"/>
<path d="M1080.88 579.878L1146.55 559.048H994.84L1080.88 579.878Z" stroke="#00F2C5" stroke-miterlimit="10"/>
<path d="M1181.55 552.178L1121.83 571.679H1283.15L1181.55 552.178Z" stroke="#00F2C5" stroke-miterlimit="10"/>
<path d="M1345.16 579.878L1386.12 559.048H1234.18L1345.16 579.878Z" stroke="#00F2C5" stroke-miterlimit="10"/>
<path d="M1413.12 552.178L1376.28 571.679H1537.59L1413.12 552.178Z" stroke="#00F2C5" stroke-miterlimit="10"/>
<path d="M1609.44 579.878L1625.46 559.048H1473.75L1609.44 579.878Z" stroke="#00F2C5" stroke-miterlimit="10"/>
<path d="M1644.45 552.178L1630.95 571.679H1792.27L1644.45 552.178Z" stroke="#00F2C5" stroke-miterlimit="10"/>
<path d="M1873.95 579.878L1865.03 559.048H1713.32L1873.95 579.878Z" stroke="#00F2C5" stroke-miterlimit="10"/>
<path d="M1876.01 552.178L1885.62 571.679H2046.94L1876.01 552.178Z" stroke="#00F2C5" stroke-miterlimit="10"/>
<path d="M-196.149 597.829L2.92121 573.674H-159.767L-196.149 597.829Z" stroke="#00F2C5" stroke-miterlimit="10"/>
<path d="M81.6339 565.918L-100.962 588.3H72.9389L81.6339 565.918Z" stroke="#00F2C5" stroke-miterlimit="10"/>
<path d="M89.6426 597.829L260.111 573.674H97.1935L89.6426 597.829Z" stroke="#00F2C5" stroke-miterlimit="10"/>
<path d="M329.443 565.918L173.39 588.3H347.29L329.443 565.918Z" stroke="#00F2C5" stroke-miterlimit="10"/>
<path d="M375.663 597.829L517.072 573.674H354.383L375.663 597.829Z" stroke="#00F2C5" stroke-miterlimit="10"/>
<path d="M577.251 565.918L447.969 588.3H621.641L577.251 565.918Z" stroke="#00F2C5" stroke-miterlimit="10"/>
<path d="M661.455 597.829L774.033 573.674H611.344L661.455 597.829Z" stroke="#00F2C5" stroke-miterlimit="10"/>
<path d="M825.059 565.918L722.32 588.3H896.221L825.059 565.918Z" stroke="#00F2C5" stroke-miterlimit="10"/>
<path d="M947.247 597.829L1031.22 573.674H868.305L947.247 597.829Z" stroke="#00F2C5" stroke-miterlimit="10"/>
<path d="M1072.87 565.918L996.671 588.3H1170.57L1072.87 565.918Z" stroke="#00F2C5" stroke-miterlimit="10"/>
<path d="M1233.04 597.829L1288.18 573.674H1125.49L1233.04 597.829Z" stroke="#00F2C5" stroke-miterlimit="10"/>
<path d="M1320.68 565.918L1271.25 588.3H1445.15L1320.68 565.918Z" stroke="#00F2C5" stroke-miterlimit="10"/>
<path d="M1518.83 597.829L1545.14 573.674H1382.46L1518.83 597.829Z" stroke="#00F2C5" stroke-miterlimit="10"/>
<path d="M1568.48 565.918L1545.6 588.3H1719.5L1568.48 565.918Z" stroke="#00F2C5" stroke-miterlimit="10"/>
<path d="M1804.85 597.829L1802.33 573.674H1639.42L1804.85 597.829Z" stroke="#00F2C5" stroke-miterlimit="10"/>
<path d="M1816.29 565.918L1820.18 588.3H1993.85L1816.29 565.918Z" stroke="#00F2C5" stroke-miterlimit="10"/>
<path d="M2090.64 597.829L2059.3 573.674H1896.61L2090.64 597.829Z" stroke="#00F2C5" stroke-miterlimit="10"/>
<path d="M-145.581 619.324L64.0153 590.959H-111.716L-145.581 619.324Z" stroke="#00F2C5" stroke-miterlimit="10"/>
<path d="M146.389 581.873L-44.4438 608.022H144.33L146.389 581.873Z" stroke="#00F2C5" stroke-miterlimit="10"/>
<path d="M165.838 619.324L341.569 590.959H165.838V619.324Z" stroke="#00F2C5" stroke-miterlimit="10"/>
<path d="M413.189 581.873L253.475 608.022H442.249L413.189 581.873Z" stroke="#00F2C5" stroke-miterlimit="10"/>
<path d="M477.258 619.324L619.124 590.959H443.164L477.258 619.324Z" stroke="#00F2C5" stroke-miterlimit="10"/>
<path d="M679.989 581.873L551.394 608.022H740.168L679.989 581.873Z" stroke="#00F2C5" stroke-miterlimit="10"/>
<path d="M788.677 619.324L896.678 590.959H720.719L788.677 619.324Z" stroke="#00F2C5" stroke-miterlimit="10"/>
<path d="M946.789 581.873L849.313 608.022H1038.09L946.789 581.873Z" stroke="#00F2C5" stroke-miterlimit="10"/>
<path d="M1100.1 619.324L1174 590.959H998.273L1100.1 619.324Z" stroke="#00F2C5" stroke-miterlimit="10"/>
<path d="M1213.36 581.873L1147.23 608.022H1336.01L1213.36 581.873Z" stroke="#00F2C5" stroke-miterlimit="10"/>
<path d="M1411.52 619.324L1451.56 590.959H1275.83L1411.52 619.324Z" stroke="#00F2C5" stroke-miterlimit="10"/>
<path d="M1480.16 581.873L1445.15 608.022H1633.93L1480.16 581.873Z" stroke="#00F2C5" stroke-miterlimit="10"/>
<path d="M1722.93 619.324L1729.11 590.959H1553.38L1722.93 619.324Z" stroke="#00F2C5" stroke-miterlimit="10"/>
<path d="M1746.96 581.873L1743.07 608.022H1931.84L1746.96 581.873Z" stroke="#00F2C5" stroke-miterlimit="10"/>
<path d="M2034.35 619.324L2006.67 590.959H1830.94L2034.35 619.324Z" stroke="#00F2C5" stroke-miterlimit="10"/>
<path d="M-82.6562 644.806L137.465 610.901H-53.3677L-82.6562 644.806Z" stroke="#00F2C5" stroke-miterlimit="10"/>
<path d="M223.5 600.265L24.8875 631.289H231.051L223.5 600.265Z" stroke="#00F2C5" stroke-miterlimit="10"/>
<path d="M258.967 644.806L438.817 610.901H247.755L258.967 644.806Z" stroke="#00F2C5" stroke-miterlimit="10"/>
<path d="M512.038 600.265L350.265 631.289H556.428L512.038 600.265Z" stroke="#00F2C5" stroke-miterlimit="10"/>
<path d="M600.59 644.806L739.939 610.901H549.106L600.59 644.806Z" stroke="#00F2C5" stroke-miterlimit="10"/>
<path d="M800.804 600.265L675.87 631.289H882.034L800.804 600.265Z" stroke="#00F2C5" stroke-miterlimit="10"/>
<path d="M942.442 644.806L1041.29 610.901H850.458L942.442 644.806Z" stroke="#00F2C5" stroke-miterlimit="10"/>
<path d="M1089.57 600.265L1001.25 631.289H1207.41L1089.57 600.265Z" stroke="#00F2C5" stroke-miterlimit="10"/>
<path d="M1284.06 644.806L1342.64 610.901H1151.81L1284.06 644.806Z" stroke="#00F2C5" stroke-miterlimit="10"/>
<path d="M1378.11 600.265L1326.85 631.289H1533.02L1378.11 600.265Z" stroke="#00F2C5" stroke-miterlimit="10"/>
<path d="M1625.69 644.806L1643.99 610.901H1452.93L1625.69 644.806Z" stroke="#00F2C5" stroke-miterlimit="10"/>
<path d="M1666.87 600.265L1652.23 631.289H1858.39L1666.87 600.265Z" stroke="#00F2C5" stroke-miterlimit="10"/>
<path d="M1967.31 644.806L1945.12 610.901H1754.28L1967.31 644.806Z" stroke="#00F2C5" stroke-miterlimit="10"/>
<path d="M-8.74854 676.053L222.585 634.835H13.6755L-8.74854 676.053Z" stroke="#00F2C5" stroke-miterlimit="10"/>
<path d="M312.51 622.204L105.888 659.433H333.561L312.51 622.204Z" stroke="#00F2C5" stroke-miterlimit="10"/>
<path d="M370.172 676.053L552.538 634.835H343.629L370.172 676.053Z" stroke="#00F2C5" stroke-miterlimit="10"/>
<path d="M627.361 622.204L465.13 659.433H692.574L627.361 622.204Z" stroke="#00F2C5" stroke-miterlimit="10"/>
<path d="M748.863 676.053L882.263 634.835H673.354L748.863 676.053Z" stroke="#00F2C5" stroke-miterlimit="10"/>
<path d="M941.984 622.204L824.144 659.433H1051.59L941.984 622.204Z" stroke="#00F2C5" stroke-miterlimit="10"/>
<path d="M1127.78 676.053L1212.22 634.835H1003.08L1127.78 676.053Z" stroke="#00F2C5" stroke-miterlimit="10"/>
<path d="M1256.84 622.204L1183.16 659.433H1410.6L1256.84 622.204Z" stroke="#00F2C5" stroke-miterlimit="10"/>
<path d="M1506.47 676.053L1541.94 634.835H1333.03L1506.47 676.053Z" stroke="#00F2C5" stroke-miterlimit="10"/>
<path d="M1571.46 622.204L1542.17 659.433H1769.61L1571.46 622.204Z" stroke="#00F2C5" stroke-miterlimit="10"/>
<path d="M1885.39 676.053L1871.89 634.835H1662.76L1885.39 676.053Z" stroke="#00F2C5" stroke-miterlimit="10"/>
<path d="M1886.31 622.204L1901.18 659.433H2128.63L1886.31 622.204Z" stroke="#00F2C5" stroke-miterlimit="10"/>
<path d="M75.6849 648.131L-191.573 693.781H61.7271L75.6849 648.131Z" stroke="#00F2C5" stroke-miterlimit="10"/>
<path d="M85.9817 714.611L327.841 663.644H97.1937L85.9817 714.611Z" stroke="#00F2C5" stroke-miterlimit="10"/>
<path d="M421.198 648.131L208.17 693.781H461.469L421.198 648.131Z" stroke="#00F2C5" stroke-miterlimit="10"/>
<path d="M510.665 714.611L691.659 663.644H461.241L510.665 714.611Z" stroke="#00F2C5" stroke-miterlimit="10"/>
<path d="M766.939 648.131L608.141 693.781H861.441L766.939 648.131Z" stroke="#00F2C5" stroke-miterlimit="10"/>
<path d="M935.12 714.611L1055.71 663.644H825.059L935.12 714.611Z" stroke="#00F2C5" stroke-miterlimit="10"/>
<path d="M1112.68 648.131L1007.88 693.781H1261.18L1112.68 648.131Z" stroke="#00F2C5" stroke-miterlimit="10"/>
<path d="M1359.57 714.611L1419.52 663.644H1189.11L1359.57 714.611Z" stroke="#00F2C5" stroke-miterlimit="10"/>
<path d="M1458.19 648.131L1407.85 693.781H1661.15L1458.19 648.131Z" stroke="#00F2C5" stroke-miterlimit="10"/>
<path d="M1784.03 714.611L1783.57 663.644H1552.92L1784.03 714.611Z" stroke="#00F2C5" stroke-miterlimit="10"/>
<path d="M1803.94 648.131L1807.6 693.781H2060.9L1803.94 648.131Z" stroke="#00F2C5" stroke-miterlimit="10"/>
<path d="M-279.667 764.028L48.4558 699.321H-208.963L-279.667 764.028Z" stroke="#00F2C5" stroke-miterlimit="10"/>
<path d="M167.898 680.263L-117.665 737.436H168.585L167.898 680.263Z" stroke="#00F2C5" stroke-miterlimit="10"/>
<path d="M203.822 764.028L455.063 699.321H197.415L203.822 764.028Z" stroke="#00F2C5" stroke-miterlimit="10"/>
<path d="M551.623 680.263L334.019 737.436H620.268L551.623 680.263Z" stroke="#00F2C5" stroke-miterlimit="10"/>
<path d="M687.311 764.028L861.441 699.321H604.022L687.311 764.028Z" stroke="#00F2C5" stroke-miterlimit="10"/>
<path d="M935.349 680.263L785.931 737.436H1071.95L935.349 680.263Z" stroke="#00F2C5" stroke-miterlimit="10"/>
<path d="M1170.8 764.028L1267.82 699.321H1010.4L1170.8 764.028Z" stroke="#00F2C5" stroke-miterlimit="10"/>
<path d="M1319.3 680.263L1237.62 737.436H1523.64L1319.3 680.263Z" stroke="#00F2C5" stroke-miterlimit="10"/>
<path d="M1654.06 764.028L1674.2 699.321H1416.78L1654.06 764.028Z" stroke="#00F2C5" stroke-miterlimit="10"/>
<path d="M1703.03 680.263L1689.3 737.436H1975.55L1703.03 680.263Z" stroke="#00F2C5" stroke-miterlimit="10"/>
<path d="M2137.55 764.028L2080.58 699.321H1823.16L2137.55 764.028Z" stroke="#00F2C5" stroke-miterlimit="10"/>
<path d="M-197.751 828.734L158.516 743.862H-132.538L-197.751 828.734Z" stroke="#00F2C5" stroke-miterlimit="10"/>
<path d="M285.509 719.708L-18.1301 793.279H310.221L285.509 719.708Z" stroke="#00F2C5" stroke-miterlimit="10"/>
<path d="M362.621 828.734L617.98 743.862H326.925L362.621 828.734Z" stroke="#00F2C5" stroke-miterlimit="10"/>
<path d="M716.371 719.708L500.139 793.279H828.491L716.371 719.708Z" stroke="#00F2C5" stroke-miterlimit="10"/>
<path d="M923.221 828.734L1077.44 743.862H786.389L923.221 828.734Z" stroke="#00F2C5" stroke-miterlimit="10"/>
<path d="M1147.23 719.708L1018.41 793.279H1346.76L1147.23 719.708Z" stroke="#00F2C5" stroke-miterlimit="10"/>
<path d="M1483.59 828.734L1537.14 743.862H1245.85L1483.59 828.734Z" stroke="#00F2C5" stroke-miterlimit="10"/>
<path d="M1577.86 719.708L1536.68 793.279H1865.03L1577.86 719.708Z" stroke="#00F2C5" stroke-miterlimit="10"/>
<path d="M2043.96 828.734L1996.6 743.862H1705.54L2043.96 828.734Z" stroke="#00F2C5" stroke-miterlimit="10"/>
<path d="M-89.5208 919.147L298.552 802.586H-36.893L-89.5208 919.147Z" stroke="#00F2C5" stroke-miterlimit="10"/>
<path d="M433.554 770.897L112.067 869.509H497.851L433.554 770.897Z" stroke="#00F2C5" stroke-miterlimit="10"/>
<path d="M578.395 919.147L827.804 802.586H492.588L578.395 919.147Z" stroke="#00F2C5" stroke-miterlimit="10"/>
<path d="M925.052 770.897L720.947 869.509H1106.73L925.052 770.897Z" stroke="#00F2C5" stroke-miterlimit="10"/>
<path d="M1246.31 919.147L1357.29 802.586H1021.84L1246.31 919.147Z" stroke="#00F2C5" stroke-miterlimit="10"/>
<path d="M1416.55 770.897L1329.83 869.509H1715.61L1416.55 770.897Z" stroke="#00F2C5" stroke-miterlimit="10"/>
<path d="M1914.45 919.147L1886.54 802.586H1551.32L1914.45 919.147Z" stroke="#00F2C5" stroke-miterlimit="10"/>
<path d="M75.4561 1051L491.902 881.476H97.1936L75.4561 1051Z" stroke="#00F2C5" stroke-miterlimit="10"/>
<path d="M632.853 838.042L301.527 976.763H768.084L632.853 838.042Z" stroke="#00F2C5" stroke-miterlimit="10"/>
<path d="M899.882 1051L1114.97 881.476H720.261L899.882 1051Z" stroke="#00F2C5" stroke-miterlimit="10"/>
<path d="M1204.21 838.042L1037.86 976.763H1504.41L1204.21 838.042Z" stroke="#00F2C5" stroke-miterlimit="10"/>
<path d="M1724.54 1051L1738.04 881.476H1343.33L1724.54 1051Z" stroke="#00F2C5" stroke-miterlimit="10"/>
<path opacity="0.5" d="M1920 492H0V1080H1920V492Z" fill="url(#paint0_linear)"/>
<mask id="mask3" mask-type="alpha" maskUnits="userSpaceOnUse" x="-461" y="496" width="2646" height="556">
<path d="M127.855 497.001L12.989 506.53H125.338L127.855 497.001Z" stroke="#00F2C5" stroke-miterlimit="10"/>
<path d="M137.465 510.518L246.84 500.324H139.067L137.465 510.518Z" stroke="#00F2C5" stroke-miterlimit="10"/>
<path d="M293.518 497L190.322 506.529H302.442L293.518 497Z" stroke="#00F2C5" stroke-miterlimit="10"/>
<path d="M319.374 510.518L416.621 500.324H309.078L319.374 510.518Z" stroke="#00F2C5" stroke-miterlimit="10"/>
<path d="M459.181 497L367.426 506.529H479.775L459.181 497Z" stroke="#00F2C5" stroke-miterlimit="10"/>
<path d="M501.283 510.518L586.403 500.324H478.859L501.283 510.518Z" stroke="#00F2C5" stroke-miterlimit="10"/>
<path d="M624.844 497L544.759 506.529H656.879L624.844 497Z" stroke="#00F2C5" stroke-miterlimit="10"/>
<path d="M683.193 510.518L756.185 500.324H648.641L683.193 510.518Z" stroke="#00F2C5" stroke-miterlimit="10"/>
<path d="M790.736 497L721.863 506.529H834.211L790.736 497Z" stroke="#00F2C5" stroke-miterlimit="10"/>
<path d="M865.102 510.518L925.967 500.324H818.423L865.102 510.518Z" stroke="#00F2C5" stroke-miterlimit="10"/>
<path d="M956.399 497L899.195 506.529H1011.54L956.399 497Z" stroke="#00F2C5" stroke-miterlimit="10"/>
<path d="M1047.01 510.518L1095.75 500.324H988.205L1047.01 510.518Z" stroke="#00F2C5" stroke-miterlimit="10"/>
<path d="M1122.06 497L1076.3 506.529H1188.65L1122.06 497Z" stroke="#00F2C5" stroke-miterlimit="10"/>
<path d="M1228.92 510.518L1265.53 500.324H1157.99L1228.92 510.518Z" stroke="#00F2C5" stroke-miterlimit="10"/>
<path d="M1287.73 497L1253.63 506.529H1365.98L1287.73 497Z" stroke="#00F2C5" stroke-miterlimit="10"/>
<path d="M1410.83 510.518L1435.31 500.324H1327.77L1410.83 510.518Z" stroke="#00F2C5" stroke-miterlimit="10"/>
<path d="M1453.62 497L1430.96 506.529H1543.08L1453.62 497Z" stroke="#00F2C5" stroke-miterlimit="10"/>
<path d="M1592.74 510.518L1605.09 500.324H1497.55L1592.74 510.518Z" stroke="#00F2C5" stroke-miterlimit="10"/>
<path d="M1619.28 497L1608.07 506.529H1720.42L1619.28 497Z" stroke="#00F2C5" stroke-miterlimit="10"/>
<path d="M1774.65 510.518L1775.1 500.324H1667.33L1774.65 510.518Z" stroke="#00F2C5" stroke-miterlimit="10"/>
<path d="M173.39 503.871L55.7778 514.507H174.076L173.39 503.871Z" stroke="#00F2C5" stroke-miterlimit="10"/>
<path d="M188.034 518.94L299.467 507.638H186.432L188.034 518.94Z" stroke="#00F2C5" stroke-miterlimit="10"/>
<path d="M347.29 503.87L242.492 514.507H360.562L347.29 503.87Z" stroke="#00F2C5" stroke-miterlimit="10"/>
<path d="M380.011 518.94L477.944 507.638H364.909L380.011 518.94Z" stroke="#00F2C5" stroke-miterlimit="10"/>
<path d="M521.191 503.87L428.978 514.507H547.276L521.191 503.87Z" stroke="#00F2C5" stroke-miterlimit="10"/>
<path d="M571.759 518.94L656.421 507.638H543.386L571.759 518.94Z" stroke="#00F2C5" stroke-miterlimit="10"/>
<path d="M695.091 503.87L615.692 514.507H733.99L695.091 503.87Z" stroke="#00F2C5" stroke-miterlimit="10"/>
<path d="M763.736 518.94L834.669 507.638H721.634L763.736 518.94Z" stroke="#00F2C5" stroke-miterlimit="10"/>
<path d="M868.992 503.87L802.406 514.507H920.476L868.992 503.87Z" stroke="#00F2C5" stroke-miterlimit="10"/>
<path d="M955.484 518.94L1013.15 507.638H900.111L955.484 518.94Z" stroke="#00F2C5" stroke-miterlimit="10"/>
<path d="M1042.89 503.87L988.892 514.507H1107.19L1042.89 503.87Z" stroke="#00F2C5" stroke-miterlimit="10"/>
<path d="M1147.23 518.94L1191.62 507.638H1078.59L1147.23 518.94Z" stroke="#00F2C5" stroke-miterlimit="10"/>
<path d="M1216.79 503.87L1175.61 514.507H1293.9L1216.79 503.87Z" stroke="#00F2C5" stroke-miterlimit="10"/>
<path d="M1339.21 518.94L1370.1 507.638H1257.06L1339.21 518.94Z" stroke="#00F2C5" stroke-miterlimit="10"/>
<path d="M1390.69 503.87L1362.32 514.507H1480.39L1390.69 503.87Z" stroke="#00F2C5" stroke-miterlimit="10"/>
<path d="M1530.96 518.94L1548.35 507.638H1435.31L1530.96 518.94Z" stroke="#00F2C5" stroke-miterlimit="10"/>
<path d="M1564.59 503.87L1548.81 514.507H1667.1L1564.59 503.87Z" stroke="#00F2C5" stroke-miterlimit="10"/>
<path d="M1722.93 518.94L1726.82 507.638H1613.79L1722.93 518.94Z" stroke="#00F2C5" stroke-miterlimit="10"/>
<path d="M1738.49 503.87L1735.52 514.507H1853.82L1738.49 503.87Z" stroke="#00F2C5" stroke-miterlimit="10"/>
<path d="M1914.68 518.94L1905.3 507.638H1792.27L1914.68 518.94Z" stroke="#00F2C5" stroke-miterlimit="10"/>
<path d="M39.5317 511.404L-95.2412 523.37H29.6926L39.5317 511.404Z" stroke="#00F2C5" stroke-miterlimit="10"/>
<path d="M40.447 528.245L168.813 515.614H49.5997L40.447 528.245Z" stroke="#00F2C5" stroke-miterlimit="10"/>
<path d="M222.585 511.404L101.999 523.37H226.933L222.585 511.404Z" stroke="#00F2C5" stroke-miterlimit="10"/>
<path d="M243.636 528.245L356.9 515.614H237.687L243.636 528.245Z" stroke="#00F2C5" stroke-miterlimit="10"/>
<path d="M405.638 511.404L299.239 523.37H424.172L405.638 511.404Z" stroke="#00F2C5" stroke-miterlimit="10"/>
<path d="M446.596 528.245L544.987 515.614H425.774L446.596 528.245Z" stroke="#00F2C5" stroke-miterlimit="10"/>
<path d="M588.691 511.404L496.478 523.37H621.412L588.691 511.404Z" stroke="#00F2C5" stroke-miterlimit="10"/>
<path d="M649.556 528.245L732.846 515.614H613.861L649.556 528.245Z" stroke="#00F2C5" stroke-miterlimit="10"/>
<path d="M771.744 511.404L693.718 523.37H818.652L771.744 511.404Z" stroke="#00F2C5" stroke-miterlimit="10"/>
<path d="M852.517 528.245L920.933 515.614H801.948L852.517 528.245Z" stroke="#00F2C5" stroke-miterlimit="10"/>
<path d="M954.798 511.404L890.958 523.37H1015.89L954.798 511.404Z" stroke="#00F2C5" stroke-miterlimit="10"/>
<path d="M1055.71 528.245L1109.02 515.614H989.807L1055.71 528.245Z" stroke="#00F2C5" stroke-miterlimit="10"/>
<path d="M1137.85 511.404L1088.2 523.37H1213.13L1137.85 511.404Z" stroke="#00F2C5" stroke-miterlimit="10"/>
<path d="M1258.67 528.245L1297.11 515.614H1177.89L1258.67 528.245Z" stroke="#00F2C5" stroke-miterlimit="10"/>
<path d="M1320.9 511.404L1285.21 523.37H1410.14L1320.9 511.404Z" stroke="#00F2C5" stroke-miterlimit="10"/>
<path d="M1461.63 528.245L1485.19 515.614H1365.98L1461.63 528.245Z" stroke="#00F2C5" stroke-miterlimit="10"/>
<path d="M1503.96 511.404L1482.45 523.37H1607.38L1503.96 511.404Z" stroke="#00F2C5" stroke-miterlimit="10"/>
<path d="M1664.59 528.245L1673.28 515.614H1554.07L1664.59 528.245Z" stroke="#00F2C5" stroke-miterlimit="10"/>
<path d="M1687.01 511.404L1679.69 523.37H1804.62L1687.01 511.404Z" stroke="#00F2C5" stroke-miterlimit="10"/>
<path d="M1867.78 528.245L1861.37 515.614H1742.16L1867.78 528.245Z" stroke="#00F2C5" stroke-miterlimit="10"/>
<path d="M85.0661 519.826L-53.5967 533.122H78.6593L85.0661 519.826Z" stroke="#00F2C5" stroke-miterlimit="10"/>
<path d="M91.4729 538.661L223.042 524.701H97.1933L91.4729 538.661Z" stroke="#00F2C5" stroke-miterlimit="10"/>
<path d="M278.187 519.825L155.313 533.121H287.569L278.187 519.825Z" stroke="#00F2C5" stroke-miterlimit="10"/>
<path d="M307.018 538.661L421.884 524.701H296.035L307.018 538.661Z" stroke="#00F2C5" stroke-miterlimit="10"/>
<path d="M471.308 519.825L364.222 533.121H496.478L471.308 519.825Z" stroke="#00F2C5" stroke-miterlimit="10"/>
<path d="M522.563 538.661L620.497 524.701H494.647L522.563 538.661Z" stroke="#00F2C5" stroke-miterlimit="10"/>
<path d="M664.429 519.825L573.132 533.121H705.388L664.429 519.825Z" stroke="#00F2C5" stroke-miterlimit="10"/>
<path d="M737.88 538.661L819.11 524.701H693.26L737.88 538.661Z" stroke="#00F2C5" stroke-miterlimit="10"/>
<path d="M857.55 519.825L782.041 533.121H914.297L857.55 519.825Z" stroke="#00F2C5" stroke-miterlimit="10"/>
<path d="M953.425 538.661L1017.72 524.701H891.873L953.425 538.661Z" stroke="#00F2C5" stroke-miterlimit="10"/>
<path d="M1050.67 519.825L990.95 533.121H1123.21L1050.67 519.825Z" stroke="#00F2C5" stroke-miterlimit="10"/>
<path d="M1168.97 538.661L1216.56 524.701H1090.71L1168.97 538.661Z" stroke="#00F2C5" stroke-miterlimit="10"/>
<path d="M1243.79 519.825L1199.86 533.121H1332.12L1243.79 519.825Z" stroke="#00F2C5" stroke-miterlimit="10"/>
<path d="M1384.29 538.661L1415.18 524.701H1289.33L1384.29 538.661Z" stroke="#00F2C5" stroke-miterlimit="10"/>
<path d="M1436.91 519.825L1408.77 533.121H1541.03L1436.91 519.825Z" stroke="#00F2C5" stroke-miterlimit="10"/>
<path d="M1599.83 538.661L1613.79 524.701H1487.94L1599.83 538.661Z" stroke="#00F2C5" stroke-miterlimit="10"/>
<path d="M1630.03 519.825L1617.68 533.121H1749.93L1630.03 519.825Z" stroke="#00F2C5" stroke-miterlimit="10"/>
<path d="M1815.15 538.661L1812.63 524.701H1686.55L1815.15 538.661Z" stroke="#00F2C5" stroke-miterlimit="10"/>
<path d="M1823.16 519.825L1826.59 533.121H1958.84L1823.16 519.825Z" stroke="#00F2C5" stroke-miterlimit="10"/>
<path d="M2030.69 538.661L2011.24 524.701H1885.39L2030.69 538.661Z" stroke="#00F2C5" stroke-miterlimit="10"/>
<path d="M-81.741 550.627L72.0237 534.672H-61.3763L-81.741 550.627Z" stroke="#00F2C5" stroke-miterlimit="10"/>
<path d="M134.948 529.354L-8.51953 544.423H132.431L134.948 529.354Z" stroke="#00F2C5" stroke-miterlimit="10"/>
<path d="M147.991 550.627L282.764 534.672H149.364L147.991 550.627Z" stroke="#00F2C5" stroke-miterlimit="10"/>
<path d="M339.281 529.354L213.89 544.423H354.612L339.281 529.354Z" stroke="#00F2C5" stroke-miterlimit="10"/>
<path d="M377.494 550.627L493.504 534.672H359.875L377.494 550.627Z" stroke="#00F2C5" stroke-miterlimit="10"/>
<path d="M543.843 529.354L436.071 544.423H576.793L543.843 529.354Z" stroke="#00F2C5" stroke-miterlimit="10"/>
<path d="M607.225 550.627L704.015 534.672H570.615L607.225 550.627Z" stroke="#00F2C5" stroke-miterlimit="10"/>
<path d="M748.177 529.354L658.252 544.423H799.203L748.177 529.354Z" stroke="#00F2C5" stroke-miterlimit="10"/>
<path d="M836.957 550.627L914.755 534.672H781.355L836.957 550.627Z" stroke="#00F2C5" stroke-miterlimit="10"/>
<path d="M952.738 529.354L880.661 544.423H1021.38L952.738 529.354Z" stroke="#00F2C5" stroke-miterlimit="10"/>
<path d="M1066.46 550.627L1125.49 534.672H992.095L1066.46 550.627Z" stroke="#00F2C5" stroke-miterlimit="10"/>
<path d="M1157.07 529.354L1102.84 544.423H1243.56L1157.07 529.354Z" stroke="#00F2C5" stroke-miterlimit="10"/>
<path d="M1296.19 550.627L1336.23 534.672H1202.83L1296.19 550.627Z" stroke="#00F2C5" stroke-miterlimit="10"/>
<path d="M1361.63 529.354L1325.02 544.423H1465.97L1361.63 529.354Z" stroke="#00F2C5" stroke-miterlimit="10"/>
<path d="M1525.92 550.627L1546.97 534.672H1413.35L1525.92 550.627Z" stroke="#00F2C5" stroke-miterlimit="10"/>
<path d="M1565.97 529.354L1547.43 544.423H1688.15L1565.97 529.354Z" stroke="#00F2C5" stroke-miterlimit="10"/>
<path d="M1755.66 550.627L1757.71 534.672H1624.09L1755.66 550.627Z" stroke="#00F2C5" stroke-miterlimit="10"/>
<path d="M1770.53 529.354L1769.61 544.423H1910.34L1770.53 529.354Z" stroke="#00F2C5" stroke-miterlimit="10"/>
<path d="M1985.16 550.627L1968.23 534.672H1834.83L1985.16 550.627Z" stroke="#00F2C5" stroke-miterlimit="10"/>
<path d="M-32.0879 564.145L127.168 545.974H-14.9267L-32.0879 564.145Z" stroke="#00F2C5" stroke-miterlimit="10"/>
<path d="M192.152 539.99L44.5657 557.053H194.669L192.152 539.99Z" stroke="#00F2C5" stroke-miterlimit="10"/>
<path d="M213.661 564.145L351.18 545.974H209.313L213.661 564.145Z" stroke="#00F2C5" stroke-miterlimit="10"/>
<path d="M409.299 539.99L281.62 557.053H431.952L409.299 539.99Z" stroke="#00F2C5" stroke-miterlimit="10"/>
<path d="M459.41 564.145L575.42 545.974H433.325L459.41 564.145Z" stroke="#00F2C5" stroke-miterlimit="10"/>
<path d="M626.217 539.99L518.902 557.053H669.235L626.217 539.99Z" stroke="#00F2C5" stroke-miterlimit="10"/>
<path d="M705.159 564.145L799.431 545.974H657.565L705.159 564.145Z" stroke="#00F2C5" stroke-miterlimit="10"/>
<path d="M843.364 539.99L756.185 557.053H906.517L843.364 539.99Z" stroke="#00F2C5" stroke-miterlimit="10"/>
<path d="M950.679 564.145L1023.67 545.974H881.576L950.679 564.145Z" stroke="#00F2C5" stroke-miterlimit="10"/>
<path d="M1060.51 539.99L993.468 557.053H1143.8L1060.51 539.99Z" stroke="#00F2C5" stroke-miterlimit="10"/>
<path d="M1196.43 564.145L1247.68 545.974H1105.82L1196.43 564.145Z" stroke="#00F2C5" stroke-miterlimit="10"/>
<path d="M1277.43 539.99L1230.75 557.053H1381.08L1277.43 539.99Z" stroke="#00F2C5" stroke-miterlimit="10"/>
<path d="M1442.18 564.145L1471.92 545.974H1329.83L1442.18 564.145Z" stroke="#00F2C5" stroke-miterlimit="10"/>
<path d="M1494.58 539.99L1468.03 557.053H1618.14L1494.58 539.99Z" stroke="#00F2C5" stroke-miterlimit="10"/>
<path d="M1687.93 564.145L1695.93 545.974H1554.07L1687.93 564.145Z" stroke="#00F2C5" stroke-miterlimit="10"/>
<path d="M1711.49 539.99L1705.09 557.053H1855.42L1711.49 539.99Z" stroke="#00F2C5" stroke-miterlimit="10"/>
<path d="M1933.67 564.145L1920.17 545.974H1778.08L1933.67 564.145Z" stroke="#00F2C5" stroke-miterlimit="10"/>
<path d="M24.201 552.178L-151.073 571.679H10.2431L24.201 552.178Z" stroke="#00F2C5" stroke-miterlimit="10"/>
<path d="M23.2859 579.878L188.263 559.048H36.5572L23.2859 579.878Z" stroke="#00F2C5" stroke-miterlimit="10"/>
<path d="M255.535 552.178L103.372 571.679H264.687L255.535 552.178Z" stroke="#00F2C5" stroke-miterlimit="10"/>
<path d="M287.798 579.878L427.833 559.048H276.128L287.798 579.878Z" stroke="#00F2C5" stroke-miterlimit="10"/>
<path d="M487.097 552.178L358.044 571.679H519.36L487.097 552.178Z" stroke="#00F2C5" stroke-miterlimit="10"/>
<path d="M552.081 579.878L667.404 559.048H515.699L552.081 579.878Z" stroke="#00F2C5" stroke-miterlimit="10"/>
<path d="M718.659 552.178L612.717 571.679H773.804L718.659 552.178Z" stroke="#00F2C5" stroke-miterlimit="10"/>
<path d="M816.364 579.878L906.975 559.048H755.27L816.364 579.878Z" stroke="#00F2C5" stroke-miterlimit="10"/>
<path d="M949.993 552.178L867.161 571.679H1028.48L949.993 552.178Z" stroke="#00F2C5" stroke-miterlimit="10"/>
<path d="M1080.88 579.878L1146.55 559.048H994.84L1080.88 579.878Z" stroke="#00F2C5" stroke-miterlimit="10"/>
<path d="M1181.55 552.178L1121.83 571.679H1283.15L1181.55 552.178Z" stroke="#00F2C5" stroke-miterlimit="10"/>
<path d="M1345.16 579.878L1386.12 559.048H1234.18L1345.16 579.878Z" stroke="#00F2C5" stroke-miterlimit="10"/>
<path d="M1413.12 552.178L1376.28 571.679H1537.59L1413.12 552.178Z" stroke="#00F2C5" stroke-miterlimit="10"/>
<path d="M1609.44 579.878L1625.46 559.048H1473.75L1609.44 579.878Z" stroke="#00F2C5" stroke-miterlimit="10"/>
<path d="M1644.45 552.178L1630.95 571.679H1792.27L1644.45 552.178Z" stroke="#00F2C5" stroke-miterlimit="10"/>
<path d="M1873.95 579.878L1865.03 559.048H1713.32L1873.95 579.878Z" stroke="#00F2C5" stroke-miterlimit="10"/>
<path d="M1876.01 552.178L1885.62 571.679H2046.94L1876.01 552.178Z" stroke="#00F2C5" stroke-miterlimit="10"/>
<path d="M-196.149 597.829L2.92121 573.674H-159.767L-196.149 597.829Z" stroke="#00F2C5" stroke-miterlimit="10"/>
<path d="M81.6339 565.918L-100.962 588.3H72.9389L81.6339 565.918Z" stroke="#00F2C5" stroke-miterlimit="10"/>
<path d="M89.6426 597.829L260.111 573.674H97.1935L89.6426 597.829Z" stroke="#00F2C5" stroke-miterlimit="10"/>
<path d="M329.443 565.918L173.39 588.3H347.29L329.443 565.918Z" stroke="#00F2C5" stroke-miterlimit="10"/>
<path d="M375.663 597.829L517.072 573.674H354.383L375.663 597.829Z" stroke="#00F2C5" stroke-miterlimit="10"/>
<path d="M577.251 565.918L447.969 588.3H621.641L577.251 565.918Z" stroke="#00F2C5" stroke-miterlimit="10"/>
<path d="M661.455 597.829L774.033 573.674H611.344L661.455 597.829Z" stroke="#00F2C5" stroke-miterlimit="10"/>
<path d="M825.059 565.918L722.32 588.3H896.221L825.059 565.918Z" stroke="#00F2C5" stroke-miterlimit="10"/>
<path d="M947.247 597.829L1031.22 573.674H868.305L947.247 597.829Z" stroke="#00F2C5" stroke-miterlimit="10"/>
<path d="M1072.87 565.918L996.671 588.3H1170.57L1072.87 565.918Z" stroke="#00F2C5" stroke-miterlimit="10"/>
<path d="M1233.04 597.829L1288.18 573.674H1125.49L1233.04 597.829Z" stroke="#00F2C5" stroke-miterlimit="10"/>
<path d="M1320.68 565.918L1271.25 588.3H1445.15L1320.68 565.918Z" stroke="#00F2C5" stroke-miterlimit="10"/>
<path d="M1518.83 597.829L1545.14 573.674H1382.46L1518.83 597.829Z" stroke="#00F2C5" stroke-miterlimit="10"/>
<path d="M1568.48 565.918L1545.6 588.3H1719.5L1568.48 565.918Z" stroke="#00F2C5" stroke-miterlimit="10"/>
<path d="M1804.85 597.829L1802.33 573.674H1639.42L1804.85 597.829Z" stroke="#00F2C5" stroke-miterlimit="10"/>
<path d="M1816.29 565.918L1820.18 588.3H1993.85L1816.29 565.918Z" stroke="#00F2C5" stroke-miterlimit="10"/>
<path d="M2090.64 597.829L2059.3 573.674H1896.61L2090.64 597.829Z" stroke="#00F2C5" stroke-miterlimit="10"/>
<path d="M-145.581 619.324L64.0153 590.959H-111.716L-145.581 619.324Z" stroke="#00F2C5" stroke-miterlimit="10"/>
<path d="M146.389 581.873L-44.4438 608.022H144.33L146.389 581.873Z" stroke="#00F2C5" stroke-miterlimit="10"/>
<path d="M165.838 619.324L341.569 590.959H165.838V619.324Z" stroke="#00F2C5" stroke-miterlimit="10"/>
<path d="M413.189 581.873L253.475 608.022H442.249L413.189 581.873Z" stroke="#00F2C5" stroke-miterlimit="10"/>
<path d="M477.258 619.324L619.124 590.959H443.164L477.258 619.324Z" stroke="#00F2C5" stroke-miterlimit="10"/>
<path d="M679.989 581.873L551.394 608.022H740.168L679.989 581.873Z" stroke="#00F2C5" stroke-miterlimit="10"/>
<path d="M788.677 619.324L896.678 590.959H720.719L788.677 619.324Z" stroke="#00F2C5" stroke-miterlimit="10"/>
<path d="M946.789 581.873L849.313 608.022H1038.09L946.789 581.873Z" stroke="#00F2C5" stroke-miterlimit="10"/>
<path d="M1100.1 619.324L1174 590.959H998.273L1100.1 619.324Z" stroke="#00F2C5" stroke-miterlimit="10"/>
<path d="M1213.36 581.873L1147.23 608.022H1336.01L1213.36 581.873Z" stroke="#00F2C5" stroke-miterlimit="10"/>
<path d="M1411.52 619.324L1451.56 590.959H1275.83L1411.52 619.324Z" stroke="#00F2C5" stroke-miterlimit="10"/>
<path d="M1480.16 581.873L1445.15 608.022H1633.93L1480.16 581.873Z" stroke="#00F2C5" stroke-miterlimit="10"/>
<path d="M1722.93 619.324L1729.11 590.959H1553.38L1722.93 619.324Z" stroke="#00F2C5" stroke-miterlimit="10"/>
<path d="M1746.96 581.873L1743.07 608.022H1931.84L1746.96 581.873Z" stroke="#00F2C5" stroke-miterlimit="10"/>
<path d="M2034.35 619.324L2006.67 590.959H1830.94L2034.35 619.324Z" stroke="#00F2C5" stroke-miterlimit="10"/>
<path d="M-82.6562 644.806L137.465 610.901H-53.3677L-82.6562 644.806Z" stroke="#00F2C5" stroke-miterlimit="10"/>
<path d="M223.5 600.265L24.8875 631.289H231.051L223.5 600.265Z" stroke="#00F2C5" stroke-miterlimit="10"/>
<path d="M258.967 644.806L438.817 610.901H247.755L258.967 644.806Z" stroke="#00F2C5" stroke-miterlimit="10"/>
<path d="M512.038 600.265L350.265 631.289H556.428L512.038 600.265Z" stroke="#00F2C5" stroke-miterlimit="10"/>
<path d="M600.59 644.806L739.939 610.901H549.106L600.59 644.806Z" stroke="#00F2C5" stroke-miterlimit="10"/>
<path d="M800.804 600.265L675.87 631.289H882.034L800.804 600.265Z" stroke="#00F2C5" stroke-miterlimit="10"/>
<path d="M942.442 644.806L1041.29 610.901H850.458L942.442 644.806Z" stroke="#00F2C5" stroke-miterlimit="10"/>
<path d="M1089.57 600.265L1001.25 631.289H1207.41L1089.57 600.265Z" stroke="#00F2C5" stroke-miterlimit="10"/>
<path d="M1284.06 644.806L1342.64 610.901H1151.81L1284.06 644.806Z" stroke="#00F2C5" stroke-miterlimit="10"/>
<path d="M1378.11 600.265L1326.85 631.289H1533.02L1378.11 600.265Z" stroke="#00F2C5" stroke-miterlimit="10"/>
<path d="M1625.69 644.806L1643.99 610.901H1452.93L1625.69 644.806Z" stroke="#00F2C5" stroke-miterlimit="10"/>
<path d="M1666.87 600.265L1652.23 631.289H1858.39L1666.87 600.265Z" stroke="#00F2C5" stroke-miterlimit="10"/>
<path d="M1967.31 644.806L1945.12 610.901H1754.28L1967.31 644.806Z" stroke="#00F2C5" stroke-miterlimit="10"/>
<path d="M-8.74854 676.053L222.585 634.835H13.6755L-8.74854 676.053Z" stroke="#00F2C5" stroke-miterlimit="10"/>
<path d="M312.51 622.204L105.888 659.433H333.561L312.51 622.204Z" stroke="#00F2C5" stroke-miterlimit="10"/>
<path d="M370.172 676.053L552.538 634.835H343.629L370.172 676.053Z" stroke="#00F2C5" stroke-miterlimit="10"/>
<path d="M627.361 622.204L465.13 659.433H692.574L627.361 622.204Z" stroke="#00F2C5" stroke-miterlimit="10"/>
<path d="M748.863 676.053L882.263 634.835H673.354L748.863 676.053Z" stroke="#00F2C5" stroke-miterlimit="10"/>
<path d="M941.984 622.204L824.144 659.433H1051.59L941.984 622.204Z" stroke="#00F2C5" stroke-miterlimit="10"/>
<path d="M1127.78 676.053L1212.22 634.835H1003.08L1127.78 676.053Z" stroke="#00F2C5" stroke-miterlimit="10"/>
<path d="M1256.84 622.204L1183.16 659.433H1410.6L1256.84 622.204Z" stroke="#00F2C5" stroke-miterlimit="10"/>
<path d="M1506.47 676.053L1541.94 634.835H1333.03L1506.47 676.053Z" stroke="#00F2C5" stroke-miterlimit="10"/>
<path d="M1571.46 622.204L1542.17 659.433H1769.61L1571.46 622.204Z" stroke="#00F2C5" stroke-miterlimit="10"/>
<path d="M1885.39 676.053L1871.89 634.835H1662.76L1885.39 676.053Z" stroke="#00F2C5" stroke-miterlimit="10"/>
<path d="M1886.31 622.204L1901.18 659.433H2128.63L1886.31 622.204Z" stroke="#00F2C5" stroke-miterlimit="10"/>
<path d="M75.6849 648.131L-191.573 693.781H61.7271L75.6849 648.131Z" stroke="#00F2C5" stroke-miterlimit="10"/>
<path d="M85.9817 714.611L327.841 663.644H97.1937L85.9817 714.611Z" stroke="#00F2C5" stroke-miterlimit="10"/>
<path d="M421.198 648.131L208.17 693.781H461.469L421.198 648.131Z" stroke="#00F2C5" stroke-miterlimit="10"/>
<path d="M510.665 714.611L691.659 663.644H461.241L510.665 714.611Z" stroke="#00F2C5" stroke-miterlimit="10"/>
<path d="M766.939 648.131L608.141 693.781H861.441L766.939 648.131Z" stroke="#00F2C5" stroke-miterlimit="10"/>
<path d="M935.12 714.611L1055.71 663.644H825.059L935.12 714.611Z" stroke="#00F2C5" stroke-miterlimit="10"/>
<path d="M1112.68 648.131L1007.88 693.781H1261.18L1112.68 648.131Z" stroke="#00F2C5" stroke-miterlimit="10"/>
<path d="M1359.57 714.611L1419.52 663.644H1189.11L1359.57 714.611Z" stroke="#00F2C5" stroke-miterlimit="10"/>
<path d="M1458.19 648.131L1407.85 693.781H1661.15L1458.19 648.131Z" stroke="#00F2C5" stroke-miterlimit="10"/>
<path d="M1784.03 714.611L1783.57 663.644H1552.92L1784.03 714.611Z" stroke="#00F2C5" stroke-miterlimit="10"/>
<path d="M1803.94 648.131L1807.6 693.781H2060.9L1803.94 648.131Z" stroke="#00F2C5" stroke-miterlimit="10"/>
<path d="M-279.667 764.028L48.4558 699.321H-208.963L-279.667 764.028Z" stroke="#00F2C5" stroke-miterlimit="10"/>
<path d="M167.898 680.263L-117.665 737.436H168.585L167.898 680.263Z" stroke="#00F2C5" stroke-miterlimit="10"/>
<path d="M203.822 764.028L455.063 699.321H197.415L203.822 764.028Z" stroke="#00F2C5" stroke-miterlimit="10"/>
<path d="M551.623 680.263L334.019 737.436H620.268L551.623 680.263Z" stroke="#00F2C5" stroke-miterlimit="10"/>
<path d="M687.311 764.028L861.441 699.321H604.022L687.311 764.028Z" stroke="#00F2C5" stroke-miterlimit="10"/>
<path d="M935.349 680.263L785.931 737.436H1071.95L935.349 680.263Z" stroke="#00F2C5" stroke-miterlimit="10"/>
<path d="M1170.8 764.028L1267.82 699.321H1010.4L1170.8 764.028Z" stroke="#00F2C5" stroke-miterlimit="10"/>
<path d="M1319.3 680.263L1237.62 737.436H1523.64L1319.3 680.263Z" stroke="#00F2C5" stroke-miterlimit="10"/>
<path d="M1654.06 764.028L1674.2 699.321H1416.78L1654.06 764.028Z" stroke="#00F2C5" stroke-miterlimit="10"/>
<path d="M1703.03 680.263L1689.3 737.436H1975.55L1703.03 680.263Z" stroke="#00F2C5" stroke-miterlimit="10"/>
<path d="M2137.55 764.028L2080.58 699.321H1823.16L2137.55 764.028Z" stroke="#00F2C5" stroke-miterlimit="10"/>
<path d="M-197.751 828.734L158.516 743.862H-132.538L-197.751 828.734Z" stroke="#00F2C5" stroke-miterlimit="10"/>
<path d="M285.509 719.708L-18.1301 793.279H310.221L285.509 719.708Z" stroke="#00F2C5" stroke-miterlimit="10"/>
<path d="M362.621 828.734L617.98 743.862H326.925L362.621 828.734Z" stroke="#00F2C5" stroke-miterlimit="10"/>
<path d="M716.371 719.708L500.139 793.279H828.491L716.371 719.708Z" stroke="#00F2C5" stroke-miterlimit="10"/>
<path d="M923.221 828.734L1077.44 743.862H786.389L923.221 828.734Z" stroke="#00F2C5" stroke-miterlimit="10"/>
<path d="M1147.23 719.708L1018.41 793.279H1346.76L1147.23 719.708Z" stroke="#00F2C5" stroke-miterlimit="10"/>
<path d="M1483.59 828.734L1537.14 743.862H1245.85L1483.59 828.734Z" stroke="#00F2C5" stroke-miterlimit="10"/>
<path d="M1577.86 719.708L1536.68 793.279H1865.03L1577.86 719.708Z" stroke="#00F2C5" stroke-miterlimit="10"/>
<path d="M2043.96 828.734L1996.6 743.862H1705.54L2043.96 828.734Z" stroke="#00F2C5" stroke-miterlimit="10"/>
<path d="M-89.5208 919.147L298.552 802.586H-36.893L-89.5208 919.147Z" stroke="#00F2C5" stroke-miterlimit="10"/>
<path d="M433.554 770.897L112.067 869.509H497.851L433.554 770.897Z" stroke="#00F2C5" stroke-miterlimit="10"/>
<path d="M578.395 919.147L827.804 802.586H492.588L578.395 919.147Z" stroke="#00F2C5" stroke-miterlimit="10"/>
<path d="M925.052 770.897L720.947 869.509H1106.73L925.052 770.897Z" stroke="#00F2C5" stroke-miterlimit="10"/>
<path d="M1246.31 919.147L1357.29 802.586H1021.84L1246.31 919.147Z" stroke="#00F2C5" stroke-miterlimit="10"/>
<path d="M1416.55 770.897L1329.83 869.509H1715.61L1416.55 770.897Z" stroke="#00F2C5" stroke-miterlimit="10"/>
<path d="M1914.45 919.147L1886.54 802.586H1551.32L1914.45 919.147Z" stroke="#00F2C5" stroke-miterlimit="10"/>
<path d="M75.4561 1051L491.902 881.476H97.1936L75.4561 1051Z" stroke="#00F2C5" stroke-miterlimit="10"/>
<path d="M632.853 838.042L301.527 976.763H768.084L632.853 838.042Z" stroke="#00F2C5" stroke-miterlimit="10"/>
<path d="M899.882 1051L1114.97 881.476H720.261L899.882 1051Z" stroke="#00F2C5" stroke-miterlimit="10"/>
<path d="M1204.21 838.042L1037.86 976.763H1504.41L1204.21 838.042Z" stroke="#00F2C5" stroke-miterlimit="10"/>
<path d="M1724.54 1051L1738.04 881.476H1343.33L1724.54 1051Z" stroke="#00F2C5" stroke-miterlimit="10"/>
</mask>
<g mask="url(#mask3)">
<rect opacity="0.6" x="-0.208984" y="416.083" width="1920" height="492" fill="url(#paint1_linear)"/>
</g>
</g>
<path d="M1821.18 352.994L1668.92 203.405L1479.71 404.002L1315.96 308.117L1175.18 360.596L975.988 160L760.819 360.596L574.107 301.987L410.36 405.963L275.567 206.103L144.02 357.653L-5 198.01V494H1934.01L1941 231.116L1821.18 352.994Z" fill="url(#paint2_linear)"/>
<path d="M144.433 361.473L275.94 207.338L262.964 492.165L144.433 361.473Z" fill="url(#paint3_linear)"/>
<path d="M410.692 410.607L574.391 304.857L462.846 492.164L410.692 410.607Z" fill="url(#paint4_linear)"/>
<path d="M472.578 487.925L757.803 366.462L697.913 499.148L472.578 487.925Z" fill="url(#paint5_linear)"/>
<path d="M761.047 364.466L976.151 160.448L978.397 483.685L761.047 364.466Z" fill="url(#paint6_linear)"/>
<path d="M1175.28 364.466L1316.02 311.092L1402.12 494.908L1175.28 364.466Z" fill="url(#paint7_linear)"/>
<path d="M1668.87 204.594C1665.38 205.342 1479.72 408.612 1479.72 408.612L1683.85 490.419L1668.87 204.594Z" fill="url(#paint8_linear)"/>
<path d="M1819.35 355.238L1668.87 204.594L1479.72 408.612L1316.02 311.092L1175.28 364.466L976.899 158.702L761.047 364.466L574.391 304.857L410.692 410.607L275.94 207.337L144.433 361.473" stroke="#00EAFF" stroke-width="1.7623" stroke-miterlimit="10" stroke-linecap="round" stroke-linejoin="round"/>
<path d="M275.94 207.338L263.214 490.918L-2.79614 199.107" stroke="#00EAFF" stroke-width="1.7623" stroke-miterlimit="10" stroke-linecap="round" stroke-linejoin="round"/>
<path d="M410.692 410.607L462.596 490.917L574.391 304.856" stroke="#00EAFF" stroke-width="1.7623" stroke-miterlimit="10" stroke-linecap="round" stroke-linejoin="round"/>
<path d="M761.047 364.466C759.051 365.215 462.597 490.918 462.597 490.918" stroke="#00EAFF" stroke-width="1.7623" stroke-miterlimit="10" stroke-linecap="round" stroke-linejoin="round"/>
<path d="M760.049 365.464L979.145 487.176L976.151 160.448" stroke="#00EAFF" stroke-width="1.7623" stroke-miterlimit="10" stroke-linecap="round" stroke-linejoin="round"/>
<path d="M979.644 487.177L1175.28 364.467L1398.62 490.17L1316.02 311.093" stroke="#00EAFF" stroke-width="1.7623" stroke-miterlimit="10" stroke-linecap="round" stroke-linejoin="round"/>
<path d="M1479.72 407.863L1398.12 488.922" stroke="#00EAFF" stroke-width="1.7623" stroke-miterlimit="10" stroke-linecap="round" stroke-linejoin="round"/>
<path d="M756.805 364.716L700.658 490.419" stroke="#00EAFF" stroke-width="1.7623" stroke-miterlimit="10" stroke-linecap="round" stroke-linejoin="round"/>
<path d="M1175.03 363.718L1234.92 488.922" stroke="#00EAFF" stroke-width="1.7623" stroke-miterlimit="10" stroke-linecap="round" stroke-linejoin="round"/>
<path d="M1668.88 204.594L1685.59 488.423L1937.38 234.523" stroke="#00EAFF" stroke-width="1.7623" stroke-miterlimit="10" stroke-linecap="round" stroke-linejoin="round"/>
<path d="M1685.1 488.922L1476.73 407.614" stroke="#00EAFF" stroke-width="1.7623" stroke-miterlimit="10" stroke-linecap="round" stroke-linejoin="round"/>
<path opacity="0.2" d="M981.142 482.188C975.901 492.164 920.503 473.708 857.37 440.785C794.236 407.863 747.572 372.946 752.812 362.969C758.052 352.993 813.45 371.449 876.584 404.372C939.718 437.294 986.632 472.211 981.142 482.188Z" fill="url(#paint9_radial)"/>
<path opacity="0.2" d="M1175.53 359.977C1167.55 367.958 1116.89 330.546 1062.49 276.175C1008.09 221.803 970.661 171.422 978.646 163.192C986.631 155.211 1037.29 192.622 1091.69 246.994C1146.09 301.365 1183.77 351.996 1175.53 359.977Z" fill="url(#paint10_radial)"/>
<path opacity="0.3" d="M456.857 480.442C446.626 487.176 399.712 434.052 352.05 361.723C304.388 289.393 274.194 225.295 284.175 218.81C294.406 212.076 341.32 265.201 388.982 337.53C436.644 409.609 467.088 473.708 456.857 480.442Z" fill="url(#paint11_radial)"/>
<path opacity="0.2" d="M240.256 468.72C231.273 476.951 176.873 431.309 118.98 366.961C61.0862 302.613 21.6588 243.752 30.6422 235.521C39.6257 227.291 94.0255 272.933 151.919 337.281C209.812 401.629 249.489 460.49 240.256 468.72Z" fill="url(#paint12_radial)"/>
<path opacity="0.2" d="M1685.34 482.687C1673.12 483.185 1660.14 421.331 1656.15 344.513C1652.16 267.694 1658.89 204.594 1671.12 204.095C1683.35 203.596 1696.32 265.45 1700.32 342.268C1704.06 419.336 1697.32 482.188 1685.34 482.687Z" fill="url(#paint13_radial)"/>
<path opacity="0.2" d="M977.398 461.736C989.664 461.736 999.607 399.316 999.607 322.316C999.607 245.316 989.664 182.895 977.398 182.895C965.133 182.895 955.189 245.316 955.189 322.316C955.189 399.316 965.133 461.736 977.398 461.736Z" fill="url(#paint14_radial)"/>
<path opacity="0.3" d="M952.444 524.088C1480.97 524.088 1909.43 508.679 1909.43 489.67C1909.43 470.661 1480.97 455.251 952.444 455.251C423.915 455.251 -4.54297 470.661 -4.54297 489.67C-4.54297 508.679 423.915 524.088 952.444 524.088Z" fill="url(#paint15_radial)"/>
<path d="M-6.53938 488.173L54.8476 487.425L116.234 486.677L239.008 485.43L484.556 483.933C566.405 483.185 648.255 483.185 730.104 482.935L975.652 482.686L1221.2 482.935C1303.05 483.185 1384.9 483.185 1466.75 483.933L1712.29 485.43L1835.07 486.677L1896.46 487.425L1957.84 488.173C1958.59 488.173 1959.34 488.921 1959.34 489.67C1959.34 490.418 1958.59 491.166 1957.84 491.166L1896.46 491.914L1835.07 492.662L1712.29 493.91L1466.75 495.406C1384.9 496.154 1303.05 496.154 1221.2 496.404L975.652 496.653L730.104 496.404C648.255 496.154 566.405 496.154 484.556 495.406L239.008 493.91L116.234 492.662L54.8476 492.164L-6.53938 491.415C-7.288 491.415 -8.03662 490.667 -8.03662 489.919C-8.03662 488.921 -7.288 488.173 -6.53938 488.173Z" fill="url(#paint16_linear)"/>
</g>
<defs>
<linearGradient id="paint0_linear" x1="959.893" y1="995.914" x2="959.893" y2="475.25" gradientUnits="userSpaceOnUse">
<stop offset="0.00560224" stop-color="#0D0D0D"/>
<stop offset="0.369792" stop-color="#040E3E"/>
<stop offset="0.744792" stop-color="#001579"/>
<stop offset="1" stop-color="#FF14A1" stop-opacity="0.91"/>
</linearGradient>
<linearGradient id="paint1_linear" x1="959.791" y1="416.083" x2="959.791" y2="908.083" gradientUnits="userSpaceOnUse">
<stop offset="0.484375" stop-color="#FF14A1"/>
<stop offset="1" stop-color="#FF17A2" stop-opacity="0"/>
</linearGradient>
<linearGradient id="paint2_linear" x1="967.913" y1="167.225" x2="967.913" y2="565.137" gradientUnits="userSpaceOnUse">
<stop offset="0.00560224" stop-color="#020928"/>
<stop offset="0.34375" stop-color="#01092D"/>
<stop offset="1" stop-color="#001579"/>
</linearGradient>
<linearGradient id="paint3_linear" x1="210.181" y1="213.499" x2="210.181" y2="552.828" gradientUnits="userSpaceOnUse">
<stop offset="0.00560224" stop-color="#030E45"/>
<stop offset="0.1058" stop-color="#031257"/>
<stop offset="1" stop-color="#001579"/>
</linearGradient>
<linearGradient id="paint4_linear" x1="492.534" y1="308.909" x2="492.534" y2="532.058" gradientUnits="userSpaceOnUse">
<stop offset="0.00560224" stop-color="#030E45"/>
<stop offset="0.1058" stop-color="#031257"/>
<stop offset="1" stop-color="#001579"/>
</linearGradient>
<linearGradient id="paint5_linear" x1="615.178" y1="369.332" x2="615.178" y2="527.408" gradientUnits="userSpaceOnUse">
<stop offset="0.00560224" stop-color="#030E45"/>
<stop offset="0.1058" stop-color="#031257"/>
<stop offset="1" stop-color="#001579"/>
</linearGradient>
<linearGradient id="paint6_linear" x1="869.712" y1="167.441" x2="869.712" y2="552.529" gradientUnits="userSpaceOnUse">
<stop offset="0.00560224" stop-color="#030E45"/>
<stop offset="0.1058" stop-color="#031257"/>
<stop offset="1" stop-color="#001579"/>
</linearGradient>
<linearGradient id="paint7_linear" x1="1288.69" y1="315.068" x2="1288.69" y2="534.057" gradientUnits="userSpaceOnUse">
<stop offset="0.00560224" stop-color="#030E45"/>
<stop offset="0.1058" stop-color="#031257"/>
<stop offset="1" stop-color="#001579"/>
</linearGradient>
<linearGradient id="paint8_linear" x1="1581.78" y1="210.777" x2="1581.78" y2="551.295" gradientUnits="userSpaceOnUse">
<stop offset="0.00560224" stop-color="#030E45"/>
<stop offset="0.1058" stop-color="#031257"/>
<stop offset="1" stop-color="#001579"/>
</linearGradient>
<radialGradient id="paint9_radial" cx="0" cy="0" r="1" gradientUnits="userSpaceOnUse" gradientTransform="translate(869.927 424.569) rotate(27.574) scale(117.841 14.3225)">
<stop stop-color="#00EAFF"/>
<stop offset="0.156" stop-color="#03EAFF" stop-opacity="0.8435"/>
<stop offset="0.2854" stop-color="#0EEBFF" stop-opacity="0.7138"/>
<stop offset="0.4052" stop-color="#1FEDFF" stop-opacity="0.5937"/>
<stop offset="0.5194" stop-color="#37EFFF" stop-opacity="0.4792"/>
<stop offset="0.6295" stop-color="#57F1FF" stop-opacity="0.3688"/>
<stop offset="0.7365" stop-color="#7DF4FF" stop-opacity="0.2614"/>
<stop offset="0.8411" stop-color="#ABF8FF" stop-opacity="0.1565"/>
<stop offset="0.9412" stop-color="#DFFCFF" stop-opacity="0.0561501"/>
<stop offset="0.9972" stop-color="white" stop-opacity="0"/>
</radialGradient>
<radialGradient id="paint10_radial" cx="0" cy="0" r="1" gradientUnits="userSpaceOnUse" gradientTransform="translate(1079.59 264.732) rotate(44.9851) scale(127.225 14.3221)">
<stop stop-color="#00EAFF"/>
<stop offset="0.156" stop-color="#03EAFF" stop-opacity="0.8435"/>
<stop offset="0.2854" stop-color="#0EEBFF" stop-opacity="0.7138"/>
<stop offset="0.4052" stop-color="#1FEDFF" stop-opacity="0.5937"/>
<stop offset="0.5194" stop-color="#37EFFF" stop-opacity="0.4792"/>
<stop offset="0.6295" stop-color="#57F1FF" stop-opacity="0.3688"/>
<stop offset="0.7365" stop-color="#7DF4FF" stop-opacity="0.2614"/>
<stop offset="0.8411" stop-color="#ABF8FF" stop-opacity="0.1565"/>
<stop offset="0.9412" stop-color="#DFFCFF" stop-opacity="0.0561501"/>
<stop offset="0.9972" stop-color="white" stop-opacity="0"/>
</radialGradient>
<radialGradient id="paint11_radial" cx="0" cy="0" r="1" gradientUnits="userSpaceOnUse" gradientTransform="translate(372.527 353.265) rotate(56.6141) scale(143.365 15.3636)">
<stop stop-color="#00EAFF"/>
<stop offset="0.156" stop-color="#03EAFF" stop-opacity="0.8435"/>
<stop offset="0.2854" stop-color="#0EEBFF" stop-opacity="0.7138"/>
<stop offset="0.4052" stop-color="#1FEDFF" stop-opacity="0.5937"/>
<stop offset="0.5194" stop-color="#37EFFF" stop-opacity="0.4792"/>
<stop offset="0.6295" stop-color="#57F1FF" stop-opacity="0.3688"/>
<stop offset="0.7365" stop-color="#7DF4FF" stop-opacity="0.2614"/>
<stop offset="0.8411" stop-color="#ABF8FF" stop-opacity="0.1565"/>
<stop offset="0.9412" stop-color="#DFFCFF" stop-opacity="0.0561501"/>
<stop offset="0.9972" stop-color="white" stop-opacity="0"/>
</radialGradient>
<radialGradient id="paint12_radial" cx="0" cy="0" r="1" gradientUnits="userSpaceOnUse" gradientTransform="translate(138.036 355.578) rotate(48.0516) scale(143.376 15.3613)">
<stop stop-color="#00EAFF"/>
<stop offset="0.156" stop-color="#03EAFF" stop-opacity="0.8435"/>
<stop offset="0.2854" stop-color="#0EEBFF" stop-opacity="0.7138"/>
<stop offset="0.4052" stop-color="#1FEDFF" stop-opacity="0.5937"/>
<stop offset="0.5194" stop-color="#37EFFF" stop-opacity="0.4792"/>
<stop offset="0.6295" stop-color="#57F1FF" stop-opacity="0.3688"/>
<stop offset="0.7365" stop-color="#7DF4FF" stop-opacity="0.2614"/>
<stop offset="0.8411" stop-color="#ABF8FF" stop-opacity="0.1565"/>
<stop offset="0.9412" stop-color="#DFFCFF" stop-opacity="0.0561501"/>
<stop offset="0.9972" stop-color="white" stop-opacity="0"/>
</radialGradient>
<radialGradient id="paint13_radial" cx="0" cy="0" r="1" gradientUnits="userSpaceOnUse" gradientTransform="translate(1677.82 347.228) rotate(87.0796) scale(127.597 15.3655)">
<stop stop-color="#00EAFF"/>
<stop offset="0.156" stop-color="#03EAFF" stop-opacity="0.8435"/>
<stop offset="0.2854" stop-color="#0EEBFF" stop-opacity="0.7138"/>
<stop offset="0.4052" stop-color="#1FEDFF" stop-opacity="0.5937"/>
<stop offset="0.5194" stop-color="#37EFFF" stop-opacity="0.4792"/>
<stop offset="0.6295" stop-color="#57F1FF" stop-opacity="0.3688"/>
<stop offset="0.7365" stop-color="#7DF4FF" stop-opacity="0.2614"/>
<stop offset="0.8411" stop-color="#ABF8FF" stop-opacity="0.1565"/>
<stop offset="0.9412" stop-color="#DFFCFF" stop-opacity="0.0561501"/>
<stop offset="0.9972" stop-color="white" stop-opacity="0"/>
</radialGradient>
<radialGradient id="paint14_radial" cx="0" cy="0" r="1" gradientUnits="userSpaceOnUse" gradientTransform="translate(976.896 326.091) rotate(90) scale(127.596 15.3653)">
<stop stop-color="#00EAFF"/>
<stop offset="0.156" stop-color="#03EAFF" stop-opacity="0.8435"/>
<stop offset="0.2854" stop-color="#0EEBFF" stop-opacity="0.7138"/>
<stop offset="0.4052" stop-color="#1FEDFF" stop-opacity="0.5937"/>
<stop offset="0.5194" stop-color="#37EFFF" stop-opacity="0.4792"/>
<stop offset="0.6295" stop-color="#57F1FF" stop-opacity="0.3688"/>
<stop offset="0.7365" stop-color="#7DF4FF" stop-opacity="0.2614"/>
<stop offset="0.8411" stop-color="#ABF8FF" stop-opacity="0.1565"/>
<stop offset="0.9412" stop-color="#DFFCFF" stop-opacity="0.0561501"/>
<stop offset="0.9972" stop-color="white" stop-opacity="0"/>
</radialGradient>
<radialGradient id="paint15_radial" cx="0" cy="0" r="1" gradientUnits="userSpaceOnUse" gradientTransform="translate(978.098 490.513) scale(875.333 23.8236)">
<stop stop-color="#00EAFF"/>
<stop offset="0.156" stop-color="#03EAFF" stop-opacity="0.8435"/>
<stop offset="0.2854" stop-color="#0EEBFF" stop-opacity="0.7138"/>
<stop offset="0.4052" stop-color="#1FEDFF" stop-opacity="0.5937"/>
<stop offset="0.5194" stop-color="#37EFFF" stop-opacity="0.4792"/>
<stop offset="0.6295" stop-color="#57F1FF" stop-opacity="0.3688"/>
<stop offset="0.7365" stop-color="#7DF4FF" stop-opacity="0.2614"/>
<stop offset="0.8411" stop-color="#ABF8FF" stop-opacity="0.1565"/>
<stop offset="0.9412" stop-color="#DFFCFF" stop-opacity="0.0561501"/>
<stop offset="0.9972" stop-color="white" stop-opacity="0"/>
</radialGradient>
<linearGradient id="paint16_linear" x1="-13.6425" y1="489.759" x2="1965.52" y2="489.759" gradientUnits="userSpaceOnUse">
<stop offset="0.00560224" stop-color="#700C99"/>
<stop offset="0.0611429" stop-color="#6A179E"/>
<stop offset="0.1602" stop-color="#5B36AC"/>
<stop offset="0.2914" stop-color="#4268C3"/>
<stop offset="0.4477" stop-color="#1FACE2"/>
<stop offset="0.5784" stop-color="#00EAFF"/>
<stop offset="0.5977" stop-color="#06DEF9"/>
<stop offset="0.7453" stop-color="#3385D1"/>
<stop offset="0.8655" stop-color="#5444B3"/>
<stop offset="0.9524" stop-color="#681BA0"/>
<stop offset="0.9972" stop-color="#700C99"/>
</linearGradient>
</defs>
</svg>
