<svg width="1920" height="1860" viewBox="0 0 1920 1860" fill="none" xmlns="http://www.w3.org/2000/svg">
<mask id="mask0" mask-type="alpha" maskUnits="userSpaceOnUse" x="0" y="0" width="1920" height="1860">
<rect width="1920" height="1860" fill="#0D0D0D"/>
</mask>
<g mask="url(#mask0)">
<g opacity="0.3">
<path opacity="0.41" d="M1093 1761.83L1124.64 1828L1160 1717L1093 1761.83Z" stroke="url(#paint0_linear)" stroke-miterlimit="10"/>
<path opacity="0.41" d="M736 1645.48L667.343 1635L645 1703L736 1645.48Z" stroke="url(#paint1_linear)" stroke-miterlimit="10"/>
<path opacity="0.41" d="M1635.07 1780.99L1645.44 1719.17L1687.3 1769.47L1635.07 1780.99Z" stroke="url(#paint2_linear)" stroke-miterlimit="10"/>
<path opacity="0.41" d="M1075 1641.82L1085.37 1580L1127.22 1630.3L1075 1641.82Z" stroke="url(#paint3_linear)" stroke-miterlimit="10"/>
<path opacity="0.41" d="M1544.45 1795.97L1497.22 1533.31L1345.54 1684.99L1544.45 1795.97Z" stroke="url(#paint4_linear)" stroke-miterlimit="10"/>
<path opacity="0.41" d="M481.912 1672.66L434.68 1410L283 1561.68L481.912 1672.66Z" stroke="url(#paint5_linear)" stroke-miterlimit="10"/>
<path d="M509.952 659.328L676.608 845.184L775.68 718.464L509.952 659.328Z" stroke="url(#paint6_linear)" stroke-width="0.5" stroke-miterlimit="10"/>
<path d="M497.664 395.904L311.424 711.168L622.848 741.12L497.664 395.904Z" stroke="url(#paint7_linear)" stroke-miterlimit="10"/>
<path d="M647.424 28.8C650.88 32.256 802.56 288.384 802.56 288.384L497.664 395.904L470.016 9.51669e-06L647.424 28.8Z" stroke="url(#paint8_linear)" stroke-miterlimit="10"/>
<path d="M862.464 552.575L802.56 288.384L497.664 395.904L862.464 552.575Z" stroke="url(#paint9_linear)" stroke-miterlimit="10"/>
<path d="M622.848 741.12L497.664 395.904L862.464 552.576L622.848 741.12Z" stroke="url(#paint10_linear)" stroke-miterlimit="10" stroke-linecap="round" stroke-linejoin="round"/>
<path d="M700.032 1144.32L676.608 845.184L551.424 924.672L700.032 1144.32Z" stroke="url(#paint11_linear)" stroke-width="0.5" stroke-miterlimit="10"/>
<path d="M835.968 867.456L700.032 1144.32L551.424 924.672L835.968 867.456Z" stroke="url(#paint12_linear)" stroke-miterlimit="10"/>
<path d="M259.2 1004.54C264.576 1009.92 433.536 1411.97 436.224 1408.13C438.912 1403.9 700.032 1144.32 700.032 1144.32L259.2 1004.54Z" stroke="url(#paint13_linear)" stroke-miterlimit="10"/>
<path d="M245.76 417.024L497.664 395.904L311.424 711.167L245.76 417.024Z" stroke="url(#paint14_linear)" stroke-width="0.5" stroke-miterlimit="10"/>
<path d="M470.016 -3.69778e-07L497.664 395.904L243.84 299.52L470.016 -3.69778e-07Z" stroke="url(#paint15_linear)" stroke-miterlimit="10" stroke-linecap="round" stroke-linejoin="round"/>
<path d="M311.424 711.168L-106.752 670.08L243.84 299.52L311.424 711.168Z" stroke="url(#paint16_linear)" stroke-miterlimit="10"/>
<path d="M551.424 924.672L311.424 711.167L622.848 741.119L551.424 924.672Z" stroke="url(#paint17_linear)" stroke-miterlimit="10" stroke-linecap="round" stroke-linejoin="round"/>
<path d="M18.8159 682.368L259.2 1004.54L311.424 711.168L18.8159 682.368Z" stroke="url(#paint18_linear)" stroke-miterlimit="10"/>
<path d="M862.464 552.576L775.68 718.463L569.856 559.104L862.464 552.576Z" stroke="url(#paint19_linear)" stroke-width="0.5" stroke-miterlimit="10"/>
<path d="M802.56 288.384L646.272 391.68L862.464 552.575L802.56 288.384Z" stroke="url(#paint20_linear)" stroke-miterlimit="10" stroke-linecap="round" stroke-linejoin="round"/>
<path d="M569.856 559.104L646.272 391.68L862.464 552.575L569.856 559.104Z" stroke="url(#paint21_linear)" stroke-miterlimit="10"/>
<path d="M647.424 28.7998L646.272 391.68L497.664 395.904L647.424 28.7998Z" stroke="url(#paint22_linear)" stroke-miterlimit="10" stroke-linecap="round" stroke-linejoin="round"/>
<path d="M551.424 924.672L511.104 660.096L775.68 718.464L551.424 924.672Z" stroke="url(#paint23_linear)" stroke-miterlimit="10"/>
<path d="M466.176 1174.27L551.424 924.672L700.032 1144.32L466.176 1174.27Z" stroke="url(#paint24_linear)" stroke-width="0.5" stroke-miterlimit="10"/>
<path d="M511.104 660.095L311.424 711.168L551.424 924.672L511.104 660.095Z" stroke="url(#paint25_linear)" stroke-miterlimit="10"/>
<path d="M311.424 711.168L69.5039 1123.58L18.8159 682.368L311.424 711.168Z" stroke="url(#paint26_linear)" stroke-miterlimit="10"/>
<path d="M33.0238 215.424C33.0238 215.424 -184.32 541.44 -180.864 544.896C-177.408 548.352 -106.368 670.08 -106.368 670.08L33.0238 215.424Z" stroke="url(#paint27_linear)" stroke-miterlimit="10"/>
<path d="M511.104 660.096L243.84 299.52L569.856 559.104L511.104 660.096Z" stroke="url(#paint28_linear)" stroke-width="0.5" stroke-miterlimit="10"/>
<path d="M33.0239 215.424L243.84 299.52L245.76 417.024L33.0239 215.424Z" stroke="url(#paint29_linear)" stroke-width="0.5" stroke-miterlimit="10"/>
<path d="M470.016 -1.86247e-05L33.0239 215.423L243.84 299.519L470.016 -1.86247e-05Z" stroke="url(#paint30_linear)" stroke-miterlimit="10" stroke-linecap="round" stroke-linejoin="round"/>
<path opacity="0.6" d="M1393.92 684.288L1322.5 468.863L1070.59 567.552L975.744 665.472L862.464 552.575" stroke="url(#paint31_linear)" stroke-miterlimit="10"/>
<path opacity="0.4" d="M1034.5 158.591L902.784 408.575L865.152 51.8395L1034.5 158.591Z" stroke="url(#paint32_linear)" stroke-miterlimit="10"/>
<path opacity="0.41" d="M1237.25 384L1181.18 236.544L1086.34 468.096L1237.25 384Z" stroke="url(#paint33_linear)" stroke-miterlimit="10"/>
<path opacity="0.41" d="M1476.86 1074.05L1391.23 1043.71L1457.66 1171.97L1476.86 1074.05Z" stroke="url(#paint34_linear)" stroke-miterlimit="10"/>
<path opacity="0.41" d="M1270.66 785.28L1248.77 607.872L1094.02 609.024L1270.66 785.28Z" stroke="url(#paint35_linear)" stroke-miterlimit="10"/>
<path opacity="0.41" d="M1572.86 741.888L1556.74 612.48L1444.22 612.864L1572.86 741.888Z" stroke="url(#paint36_linear)" stroke-miterlimit="10"/>
<path opacity="0.41" d="M1496.06 947.712L1588.22 879.744L1534.85 774.528L1496.06 947.712Z" stroke="url(#paint37_linear)" stroke-miterlimit="10"/>
<path d="M1123.58 963.456L1098.62 779.52L953.856 761.088L1123.58 963.456Z" stroke="url(#paint38_linear)" stroke-miterlimit="10"/>
<path d="M839.424 1077.5L960.768 995.712L891.648 923.135L839.424 1077.5Z" stroke="url(#paint39_linear)" stroke-miterlimit="10"/>
<path opacity="0.41" d="M1271.81 992.639L1238.4 1046.02L1219.2 983.423L1271.81 992.639Z" stroke="url(#paint40_linear)" stroke-miterlimit="10"/>
<path opacity="0.41" d="M1057.15 1443.84L1093.25 1494.91L1027.97 1488.77L1057.15 1443.84Z" stroke="url(#paint41_linear)" stroke-miterlimit="10"/>
<path opacity="0.41" d="M1597.06 1111.68L1633.15 1162.75L1567.87 1156.61L1597.06 1111.68Z" stroke="url(#paint42_linear)" stroke-miterlimit="10"/>
<path opacity="0.41" d="M928.128 1445.38L1012.22 1263.36L852.096 1283.71L928.128 1445.38Z" stroke="url(#paint43_linear)" stroke-miterlimit="10"/>
<path opacity="0.41" d="M1110.53 1369.34L1329.79 1521.79L1329.79 1307.14L1110.53 1369.34Z" stroke="url(#paint44_linear)" stroke-miterlimit="10"/>
<path opacity="0.39" d="M700.032 1144.32L895.872 1120.13L783.36 1257.22L1099.78 1102.46L1220.35 1123.97" stroke="url(#paint45_linear)" stroke-miterlimit="10"/>
<path d="M311.424 711.168L33.0239 215.424L18.8159 682.368L311.424 711.168Z" stroke="url(#paint46_linear)" stroke-miterlimit="10" stroke-linecap="round" stroke-linejoin="round"/>
<path d="M-181.248 544.512L54.1439 476.16L-106.752 670.08L-181.248 544.512Z" stroke="url(#paint47_linear)" stroke-miterlimit="10"/>
<path d="M-106.752 670.08L-92.544 901.248L18.8161 682.368L-106.752 670.08Z" stroke="url(#paint48_linear)" stroke-miterlimit="10"/>
<path d="M54.144 476.16L122.112 757.248L-106.752 670.08L54.144 476.16Z" stroke="url(#paint49_linear)" stroke-width="0.5" stroke-miterlimit="10"/>
<path d="M33.0239 215.424L54.1439 476.16L-181.248 544.512L33.0239 215.424Z" stroke="url(#paint50_linear)" stroke-miterlimit="10"/>
<path d="M902.784 408.576L802.56 288.384L858.24 255.744L902.784 408.576Z" stroke="url(#paint51_linear)" stroke-miterlimit="10" stroke-linecap="round" stroke-linejoin="round"/>
<path d="M551.424 924.671L311.424 711.167L69.5042 1123.58L551.424 924.671Z" stroke="url(#paint52_linear)" stroke-miterlimit="10" stroke-linecap="round" stroke-linejoin="round"/>
<path d="M835.968 867.84L676.608 845.183L775.68 718.463L835.968 867.84Z" stroke="url(#paint53_linear)" stroke-width="0.5" stroke-miterlimit="10"/>
<path d="M835.968 867.84L622.848 741.119L775.68 718.463L835.968 867.84Z" stroke="url(#paint54_linear)" stroke-miterlimit="10" stroke-linecap="round" stroke-linejoin="round"/>
<path d="M509.952 659.328L245.76 417.024L199.296 643.2L509.952 659.328Z" stroke="url(#paint55_linear)" stroke-width="0.5" stroke-miterlimit="10"/>
<path d="M122.112 757.248L199.296 643.2L311.424 711.168L122.112 757.248Z" stroke="url(#paint56_linear)" stroke-width="0.5" stroke-miterlimit="10"/>
<path d="M54.144 476.16L199.296 643.2L122.112 757.248L54.144 476.16Z" stroke="url(#paint57_linear)" stroke-width="0.5" stroke-miterlimit="10"/>
<path d="M245.76 417.023L54.144 476.159L199.296 643.2L245.76 417.023Z" stroke="url(#paint58_linear)" stroke-width="0.5" stroke-miterlimit="10"/>
<path d="M802.56 288.383L593.664 257.664L647.424 28.7997L802.56 288.383Z" stroke="url(#paint59_linear)" stroke-width="0.5" stroke-miterlimit="10"/>
<path d="M470.016 -9.40963e-06L593.664 257.663L243.84 299.519L470.016 -9.40963e-06Z" stroke="url(#paint60_linear)" stroke-width="0.5" stroke-miterlimit="10"/>
<path d="M646.272 391.68L593.664 257.664L497.664 395.904L646.272 391.68Z" stroke="url(#paint61_linear)" stroke-width="0.5" stroke-miterlimit="10"/>
<path d="M551.424 924.672L466.176 1174.27L259.2 1004.54L551.424 924.672Z" stroke="url(#paint62_linear)" stroke-width="0.5" stroke-miterlimit="10"/>
<path d="M436.224 1408.13L466.176 1174.27L259.2 1004.54L436.224 1408.13Z" stroke="url(#paint63_linear)" stroke-width="0.5" stroke-miterlimit="10"/>
<path d="M122.112 757.247L259.2 1004.54L311.424 711.167L122.112 757.247Z" stroke="url(#paint64_linear)" stroke-width="0.5" stroke-miterlimit="10"/>
</g>
<rect opacity="0.6" width="1920" height="1860" fill="url(#paint65_linear)"/>
</g>
<defs>
<linearGradient id="paint0_linear" x1="1092.23" y1="1776.89" x2="1167.49" y2="1770.77" gradientUnits="userSpaceOnUse">
<stop stop-color="#B9438F"/>
<stop offset="0.9873" stop-color="#6769FF"/>
</linearGradient>
<linearGradient id="paint1_linear" x1="704.938" y1="1633.26" x2="676.872" y2="1717.18" gradientUnits="userSpaceOnUse">
<stop stop-color="#B9438F"/>
<stop offset="0.9873" stop-color="#6769FF"/>
</linearGradient>
<linearGradient id="paint2_linear" x1="1623.48" y1="1760.95" x2="1677.64" y2="1738.62" gradientUnits="userSpaceOnUse">
<stop stop-color="#B9438F"/>
<stop offset="0.9873" stop-color="#6769FF"/>
</linearGradient>
<linearGradient id="paint3_linear" x1="1063.39" y1="1621.72" x2="1117.55" y2="1599.4" gradientUnits="userSpaceOnUse">
<stop stop-color="#B9438F"/>
<stop offset="0.9873" stop-color="#6769FF"/>
</linearGradient>
<linearGradient id="paint4_linear" x1="1564.93" y1="1639.02" x2="1381.37" y2="1749.96" gradientUnits="userSpaceOnUse">
<stop stop-color="#B9438F"/>
<stop offset="0.9873" stop-color="#6769FF"/>
</linearGradient>
<linearGradient id="paint5_linear" x1="502.396" y1="1515.71" x2="318.833" y2="1626.65" gradientUnits="userSpaceOnUse">
<stop stop-color="#B9438F"/>
<stop offset="0.9873" stop-color="#6769FF"/>
</linearGradient>
<linearGradient id="paint6_linear" x1="777.302" y1="752.152" x2="507.083" y2="752.152" gradientUnits="userSpaceOnUse">
<stop stop-color="#B9438F"/>
<stop offset="0.9873" stop-color="#6769FF"/>
</linearGradient>
<linearGradient id="paint7_linear" x1="625.808" y1="567.37" x2="308.128" y2="567.371" gradientUnits="userSpaceOnUse">
<stop stop-color="#B9438F"/>
<stop offset="0.9873" stop-color="#6769FF"/>
</linearGradient>
<linearGradient id="paint8_linear" x1="805.479" y1="198.263" x2="467.83" y2="198.262" gradientUnits="userSpaceOnUse">
<stop stop-color="#B9438F"/>
<stop offset="0.9873" stop-color="#6769FF"/>
</linearGradient>
<linearGradient id="paint9_linear" x1="865.202" y1="420.793" x2="492.362" y2="420.793" gradientUnits="userSpaceOnUse">
<stop stop-color="#B9438F"/>
<stop offset="0.9873" stop-color="#6769FF"/>
</linearGradient>
<linearGradient id="paint10_linear" x1="864.417" y1="568.507" x2="495.721" y2="568.507" gradientUnits="userSpaceOnUse">
<stop stop-color="#B9438F"/>
<stop offset="0.9873" stop-color="#6769FF"/>
</linearGradient>
<linearGradient id="paint11_linear" x1="701.448" y1="995.676" x2="550.095" y2="995.676" gradientUnits="userSpaceOnUse">
<stop stop-color="#B9438F"/>
<stop offset="0.9873" stop-color="#6769FF"/>
</linearGradient>
<linearGradient id="paint12_linear" x1="839.215" y1="1006.36" x2="548.237" y2="1006.36" gradientUnits="userSpaceOnUse">
<stop stop-color="#B9438F"/>
<stop offset="0.9873" stop-color="#6769FF"/>
</linearGradient>
<linearGradient id="paint13_linear" x1="703.804" y1="1205.35" x2="252.47" y2="1205.35" gradientUnits="userSpaceOnUse">
<stop stop-color="#B9438F"/>
<stop offset="0.9873" stop-color="#6769FF"/>
</linearGradient>
<linearGradient id="paint14_linear" x1="499.414" y1="554.268" x2="244.707" y2="554.267" gradientUnits="userSpaceOnUse">
<stop stop-color="#B9438F"/>
<stop offset="0.9873" stop-color="#6769FF"/>
</linearGradient>
<linearGradient id="paint15_linear" x1="499.561" y1="198.08" x2="241.745" y2="198.08" gradientUnits="userSpaceOnUse">
<stop stop-color="#B9438F"/>
<stop offset="0.9873" stop-color="#6769FF"/>
</linearGradient>
<linearGradient id="paint16_linear" x1="313.619" y1="504.302" x2="-110.887" y2="504.302" gradientUnits="userSpaceOnUse">
<stop stop-color="#B9438F"/>
<stop offset="0.9873" stop-color="#6769FF"/>
</linearGradient>
<linearGradient id="paint17_linear" x1="624.885" y1="817.776" x2="309.398" y2="817.776" gradientUnits="userSpaceOnUse">
<stop stop-color="#B9438F"/>
<stop offset="0.9873" stop-color="#6769FF"/>
</linearGradient>
<linearGradient id="paint18_linear" x1="313.57" y1="844.705" x2="14.6446" y2="844.705" gradientUnits="userSpaceOnUse">
<stop stop-color="#B9438F"/>
<stop offset="0.9873" stop-color="#6769FF"/>
</linearGradient>
<linearGradient id="paint19_linear" x1="864.102" y1="635.62" x2="567.001" y2="635.62" gradientUnits="userSpaceOnUse">
<stop stop-color="#B9438F"/>
<stop offset="0.9873" stop-color="#6769FF"/>
</linearGradient>
<linearGradient id="paint20_linear" x1="864.417" y1="420.433" x2="644.336" y2="420.433" gradientUnits="userSpaceOnUse">
<stop stop-color="#B9438F"/>
<stop offset="0.9873" stop-color="#6769FF"/>
</linearGradient>
<linearGradient id="paint21_linear" x1="868.125" y1="474.861" x2="566.71" y2="474.862" gradientUnits="userSpaceOnUse">
<stop stop-color="#B9438F"/>
<stop offset="0.9873" stop-color="#6769FF"/>
</linearGradient>
<linearGradient id="paint22_linear" x1="649.285" y1="212.497" x2="495.721" y2="212.497" gradientUnits="userSpaceOnUse">
<stop stop-color="#B9438F"/>
<stop offset="0.9873" stop-color="#6769FF"/>
</linearGradient>
<linearGradient id="paint23_linear" x1="779.621" y1="792.954" x2="508.628" y2="792.954" gradientUnits="userSpaceOnUse">
<stop stop-color="#B9438F"/>
<stop offset="0.9873" stop-color="#6769FF"/>
</linearGradient>
<linearGradient id="paint24_linear" x1="701.873" y1="1048.91" x2="464.782" y2="1048.91" gradientUnits="userSpaceOnUse">
<stop stop-color="#B9438F"/>
<stop offset="0.9873" stop-color="#6769FF"/>
</linearGradient>
<linearGradient id="paint25_linear" x1="554.147" y1="793.561" x2="307.343" y2="793.562" gradientUnits="userSpaceOnUse">
<stop stop-color="#B9438F"/>
<stop offset="0.9873" stop-color="#6769FF"/>
</linearGradient>
<linearGradient id="paint26_linear" x1="314.492" y1="904.846" x2="16.6039" y2="904.846" gradientUnits="userSpaceOnUse">
<stop stop-color="#B9438F"/>
<stop offset="0.9873" stop-color="#6769FF"/>
</linearGradient>
<linearGradient id="paint27_linear" x1="38.6427" y1="439.001" x2="-183.064" y2="439.001" gradientUnits="userSpaceOnUse">
<stop stop-color="#B9438F"/>
<stop offset="0.9873" stop-color="#6769FF"/>
</linearGradient>
<linearGradient id="paint28_linear" x1="570.978" y1="477.995" x2="238.529" y2="477.995" gradientUnits="userSpaceOnUse">
<stop stop-color="#B9438F"/>
<stop offset="0.9873" stop-color="#6769FF"/>
</linearGradient>
<linearGradient id="paint29_linear" x1="246.887" y1="315.955" x2="28.642" y2="315.954" gradientUnits="userSpaceOnUse">
<stop stop-color="#B9438F"/>
<stop offset="0.9873" stop-color="#6769FF"/>
</linearGradient>
<linearGradient id="paint30_linear" x1="471.835" y1="149.835" x2="31.0231" y2="149.835" gradientUnits="userSpaceOnUse">
<stop stop-color="#B9438F"/>
<stop offset="0.9873" stop-color="#6769FF"/>
</linearGradient>
<linearGradient id="paint31_linear" x1="1395.59" y1="575.631" x2="861.139" y2="575.63" gradientUnits="userSpaceOnUse">
<stop stop-color="#B9438F"/>
<stop offset="0.9873" stop-color="#6769FF"/>
</linearGradient>
<linearGradient id="paint32_linear" x1="1036.95" y1="231.514" x2="862.973" y2="231.514" gradientUnits="userSpaceOnUse">
<stop stop-color="#B9438F"/>
<stop offset="0.9873" stop-color="#6769FF"/>
</linearGradient>
<linearGradient id="paint33_linear" x1="1239.78" y1="351.809" x2="1082.51" y2="351.808" gradientUnits="userSpaceOnUse">
<stop stop-color="#B9438F"/>
<stop offset="0.9873" stop-color="#6769FF"/>
</linearGradient>
<linearGradient id="paint34_linear" x1="1464.3" y1="1060.12" x2="1403.76" y2="1131.35" gradientUnits="userSpaceOnUse">
<stop stop-color="#B9438F"/>
<stop offset="0.9873" stop-color="#6769FF"/>
</linearGradient>
<linearGradient id="paint35_linear" x1="1273.25" y1="698.385" x2="1089.58" y2="698.386" gradientUnits="userSpaceOnUse">
<stop stop-color="#B9438F"/>
<stop offset="0.9873" stop-color="#6769FF"/>
</linearGradient>
<linearGradient id="paint36_linear" x1="1575.55" y1="678.773" x2="1439.6" y2="678.773" gradientUnits="userSpaceOnUse">
<stop stop-color="#B9438F"/>
<stop offset="0.9873" stop-color="#6769FF"/>
</linearGradient>
<linearGradient id="paint37_linear" x1="1546.61" y1="925.763" x2="1481.46" y2="795.193" gradientUnits="userSpaceOnUse">
<stop stop-color="#B9438F"/>
<stop offset="0.9873" stop-color="#6769FF"/>
</linearGradient>
<linearGradient id="paint38_linear" x1="1126.51" y1="864.161" x2="949.105" y2="864.161" gradientUnits="userSpaceOnUse">
<stop stop-color="#B9438F"/>
<stop offset="0.9873" stop-color="#6769FF"/>
</linearGradient>
<linearGradient id="paint39_linear" x1="963.796" y1="1000.86" x2="835.918" y2="1000.86" gradientUnits="userSpaceOnUse">
<stop stop-color="#B9438F"/>
<stop offset="0.9873" stop-color="#6769FF"/>
</linearGradient>
<linearGradient id="paint40_linear" x1="1274.9" y1="1015.69" x2="1216.32" y2="1015.69" gradientUnits="userSpaceOnUse">
<stop stop-color="#B9438F"/>
<stop offset="0.9873" stop-color="#6769FF"/>
</linearGradient>
<linearGradient id="paint41_linear" x1="1079.43" y1="1449.81" x2="1056.93" y2="1503.89" gradientUnits="userSpaceOnUse">
<stop stop-color="#B9438F"/>
<stop offset="0.9873" stop-color="#6769FF"/>
</linearGradient>
<linearGradient id="paint42_linear" x1="1619.29" y1="1117.49" x2="1596.78" y2="1171.57" gradientUnits="userSpaceOnUse">
<stop stop-color="#B9438F"/>
<stop offset="0.9873" stop-color="#6769FF"/>
</linearGradient>
<linearGradient id="paint43_linear" x1="1015.45" y1="1355.37" x2="849.226" y2="1355.37" gradientUnits="userSpaceOnUse">
<stop stop-color="#B9438F"/>
<stop offset="0.9873" stop-color="#6769FF"/>
</linearGradient>
<linearGradient id="paint44_linear" x1="1207.05" y1="1494.63" x2="1258.41" y2="1286.38" gradientUnits="userSpaceOnUse">
<stop stop-color="#B9438F"/>
<stop offset="0.9873" stop-color="#6769FF"/>
</linearGradient>
<linearGradient id="paint45_linear" x1="1220.54" y1="1181.68" x2="699.97" y2="1181.68" gradientUnits="userSpaceOnUse">
<stop stop-color="#B9438F"/>
<stop offset="0.9873" stop-color="#6769FF"/>
</linearGradient>
<linearGradient id="paint46_linear" x1="313.238" y1="463.146" x2="16.8632" y2="463.146" gradientUnits="userSpaceOnUse">
<stop stop-color="#B9438F"/>
<stop offset="0.9873" stop-color="#6769FF"/>
</linearGradient>
<linearGradient id="paint47_linear" x1="59.4986" y1="572.864" x2="-184.019" y2="572.864" gradientUnits="userSpaceOnUse">
<stop stop-color="#B9438F"/>
<stop offset="0.9873" stop-color="#6769FF"/>
</linearGradient>
<linearGradient id="paint48_linear" x1="21.769" y1="788.039" x2="-108.855" y2="788.039" gradientUnits="userSpaceOnUse">
<stop stop-color="#B9438F"/>
<stop offset="0.9873" stop-color="#6769FF"/>
</linearGradient>
<linearGradient id="paint49_linear" x1="123.328" y1="616.383" x2="-108.393" y2="616.383" gradientUnits="userSpaceOnUse">
<stop stop-color="#B9438F"/>
<stop offset="0.9873" stop-color="#6769FF"/>
</linearGradient>
<linearGradient id="paint50_linear" x1="56.06" y1="378.728" x2="-185.536" y2="378.727" gradientUnits="userSpaceOnUse">
<stop stop-color="#B9438F"/>
<stop offset="0.9873" stop-color="#6769FF"/>
</linearGradient>
<linearGradient id="paint51_linear" x1="904.721" y1="332.196" x2="800.714" y2="332.196" gradientUnits="userSpaceOnUse">
<stop stop-color="#B9438F"/>
<stop offset="0.9873" stop-color="#6769FF"/>
</linearGradient>
<linearGradient id="paint52_linear" x1="553.364" y1="917.307" x2="67.6226" y2="917.307" gradientUnits="userSpaceOnUse">
<stop stop-color="#B9438F"/>
<stop offset="0.9873" stop-color="#6769FF"/>
</linearGradient>
<linearGradient id="paint53_linear" x1="837.33" y1="792.76" x2="674.74" y2="792.76" gradientUnits="userSpaceOnUse">
<stop stop-color="#B9438F"/>
<stop offset="0.9873" stop-color="#6769FF"/>
</linearGradient>
<linearGradient id="paint54_linear" x1="837.738" y1="793.119" x2="621.045" y2="793.119" gradientUnits="userSpaceOnUse">
<stop stop-color="#B9438F"/>
<stop offset="0.9873" stop-color="#6769FF"/>
</linearGradient>
<linearGradient id="paint55_linear" x1="512.408" y1="537.781" x2="198.137" y2="537.781" gradientUnits="userSpaceOnUse">
<stop stop-color="#B9438F"/>
<stop offset="0.9873" stop-color="#6769FF"/>
</linearGradient>
<linearGradient id="paint56_linear" x1="313.805" y1="700.445" x2="119.771" y2="700.445" gradientUnits="userSpaceOnUse">
<stop stop-color="#B9438F"/>
<stop offset="0.9873" stop-color="#6769FF"/>
</linearGradient>
<linearGradient id="paint57_linear" x1="200.512" y1="616.018" x2="52.1618" y2="616.018" gradientUnits="userSpaceOnUse">
<stop stop-color="#B9438F"/>
<stop offset="0.9873" stop-color="#6769FF"/>
</linearGradient>
<linearGradient id="paint58_linear" x1="247.151" y1="530.595" x2="52.3285" y2="530.595" gradientUnits="userSpaceOnUse">
<stop stop-color="#B9438F"/>
<stop offset="0.9873" stop-color="#6769FF"/>
</linearGradient>
<linearGradient id="paint59_linear" x1="804.497" y1="158.067" x2="592.354" y2="158.067" gradientUnits="userSpaceOnUse">
<stop stop-color="#B9438F"/>
<stop offset="0.9873" stop-color="#6769FF"/>
</linearGradient>
<linearGradient id="paint60_linear" x1="594.974" y1="149.527" x2="241.54" y2="149.528" gradientUnits="userSpaceOnUse">
<stop stop-color="#B9438F"/>
<stop offset="0.9873" stop-color="#6769FF"/>
</linearGradient>
<linearGradient id="paint61_linear" x1="647.65" y1="326.4" x2="495.768" y2="326.4" gradientUnits="userSpaceOnUse">
<stop stop-color="#B9438F"/>
<stop offset="0.9873" stop-color="#6769FF"/>
</linearGradient>
<linearGradient id="paint62_linear" x1="552.938" y1="1049.51" x2="257.346" y2="1049.51" gradientUnits="userSpaceOnUse">
<stop stop-color="#B9438F"/>
<stop offset="0.9873" stop-color="#6769FF"/>
</linearGradient>
<linearGradient id="paint63_linear" x1="467.207" y1="1206.62" x2="256.904" y2="1206.62" gradientUnits="userSpaceOnUse">
<stop stop-color="#B9438F"/>
<stop offset="0.9873" stop-color="#6769FF"/>
</linearGradient>
<linearGradient id="paint64_linear" x1="312.52" y1="858.649" x2="120.516" y2="858.648" gradientUnits="userSpaceOnUse">
<stop stop-color="#B9438F"/>
<stop offset="0.9873" stop-color="#6769FF"/>
</linearGradient>
<linearGradient id="paint65_linear" x1="960" y1="-277.664" x2="960" y2="710.749" gradientUnits="userSpaceOnUse">
<stop stop-color="#0D0D0D"/>
<stop offset="1" stop-color="#0D0D0D" stop-opacity="0"/>
</linearGradient>
</defs>
</svg>
