<svg width="1920" height="1889" viewBox="0 0 1920 1889" fill="none" xmlns="http://www.w3.org/2000/svg">
<mask id="mask0" mask-type="alpha" maskUnits="userSpaceOnUse" x="0" y="0" width="1920" height="1889">
<rect width="1920" height="1889" transform="matrix(-1 0 0 1 1920 0)" fill="#0D0D0D"/>
</mask>
<g mask="url(#mask0)">
<g opacity="0.3">
<path d="M681.92 1560.42L663.665 1221.4L880.636 1248L681.92 1560.42Z" stroke="url(#paint0_linear)" stroke-width="0.5" stroke-miterlimit="10"/>
<path d="M922.883 1824.85L441.478 1701.24L712.171 1373.18L922.883 1824.85Z" stroke="url(#paint1_linear)" stroke-miterlimit="10"/>
<path d="M1419.41 2033.48C1419.41 2027.22 1319.27 1635 1319.27 1635L922.883 1824.85L1276.5 2231.68L1419.41 2033.48Z" stroke="url(#paint2_linear)" stroke-miterlimit="10"/>
<path d="M1123.16 1324.15L1319.27 1635L922.883 1824.85L1123.16 1324.15Z" stroke="url(#paint3_linear)" stroke-miterlimit="10"/>
<path d="M712.171 1373.18L922.883 1824.85L1123.16 1324.15L712.171 1373.18Z" stroke="url(#paint4_linear)" stroke-miterlimit="10" stroke-linecap="round" stroke-linejoin="round"/>
<path d="M399.231 911.593L663.665 1221.4L467.035 1265.21L399.231 911.593Z" stroke="url(#paint5_linear)" stroke-width="0.5" stroke-miterlimit="10"/>
<path d="M795.1 1047.2L399.232 911.593L467.035 1265.21L795.1 1047.2Z" stroke="url(#paint6_linear)" stroke-miterlimit="10"/>
<path d="M661.057 2046L922.883 1824.85L441.478 1701.24L661.057 2046Z" stroke="url(#paint7_linear)" stroke-width="0.5" stroke-miterlimit="10"/>
<path d="M1276.5 2231.68L922.883 1824.85L771.629 2161.26L1276.5 2231.68Z" stroke="url(#paint8_linear)" stroke-miterlimit="10" stroke-linecap="round" stroke-linejoin="round"/>
<path d="M441.478 1701.24L79.5118 2141.97L771.629 2161.26L441.478 1701.24Z" stroke="url(#paint9_linear)" stroke-miterlimit="10"/>
<path d="M467.035 1265.21L441.478 1701.24L712.171 1373.18L467.035 1265.21Z" stroke="url(#paint10_linear)" stroke-miterlimit="10" stroke-linecap="round" stroke-linejoin="round"/>
<path d="M187.997 2009.49L109.762 1468.62L441.478 1701.24L187.997 2009.49Z" stroke="url(#paint11_linear)" stroke-miterlimit="10"/>
<path d="M1123.16 1324.15L880.636 1248L835.781 1599.02L1123.16 1324.15Z" stroke="url(#paint12_linear)" stroke-width="0.5" stroke-miterlimit="10"/>
<path d="M1319.27 1635L1069.96 1686.12L1123.16 1324.15L1319.27 1635Z" stroke="url(#paint13_linear)" stroke-miterlimit="10" stroke-linecap="round" stroke-linejoin="round"/>
<path d="M835.781 1599.02L1069.96 1686.12L1123.16 1324.15L835.781 1599.02Z" stroke="url(#paint14_linear)" stroke-miterlimit="10"/>
<path d="M1419.41 2033.48L1069.96 1686.12L922.883 1824.85L1419.41 2033.48Z" stroke="url(#paint15_linear)" stroke-miterlimit="10" stroke-linecap="round" stroke-linejoin="round"/>
<path d="M467.035 1265.21L682.441 1558.33L880.636 1248L467.035 1265.21Z" stroke="url(#paint16_linear)" stroke-miterlimit="10"/>
<path d="M145.229 1107.18L467.035 1265.21L399.231 911.593L145.229 1107.18Z" stroke="url(#paint17_linear)" stroke-width="0.5" stroke-miterlimit="10"/>
<path d="M682.441 1558.33L441.478 1701.24L467.035 1265.21L682.441 1558.33Z" stroke="url(#paint18_linear)" stroke-miterlimit="10"/>
<path d="M441.478 1701.24L-187.008 1536.95L187.997 2009.49L441.478 1701.24Z" stroke="url(#paint19_linear)" stroke-miterlimit="10"/>
<path d="M682.442 1558.33L771.629 2161.26L835.782 1599.02L682.442 1558.33Z" stroke="url(#paint20_linear)" stroke-width="0.5" stroke-miterlimit="10"/>
<path opacity="0.4" d="M1666.64 1536.95L1299.97 1423.25L1606.66 1802.43L1666.64 1536.95Z" stroke="url(#paint21_linear)" stroke-miterlimit="10"/>
<path opacity="0.41" d="M1645.25 1125.96L1732.35 1321.54L1419.41 1190.11L1645.25 1125.96Z" stroke="url(#paint22_linear)" stroke-miterlimit="10"/>
<path opacity="0.41" d="M1212.35 233.036L1159.15 344.651L1099.69 157.409L1212.35 233.036Z" stroke="url(#paint23_linear)" stroke-miterlimit="10"/>
<path opacity="0.41" d="M1623.87 459.917L1732.35 599.697L1623.87 707.139L1623.87 459.917Z" stroke="url(#paint24_linear)" stroke-miterlimit="10"/>
<path opacity="0.41" d="M1477.31 194.963L1631.17 171.492L1681.24 323.79L1477.31 194.963Z" stroke="url(#paint25_linear)" stroke-miterlimit="10"/>
<path opacity="0.41" d="M1093.43 507.901L1010.51 489.125L1051.71 567.881L1093.43 507.901Z" stroke="url(#paint26_linear)" stroke-miterlimit="10"/>
<path opacity="0.41" d="M453.996 281.02L439.913 197.048L383.063 265.373L453.996 281.02Z" stroke="url(#paint27_linear)" stroke-miterlimit="10"/>
<path opacity="0.41" d="M1289.93 99.9717L1275.85 16L1219 84.3248L1289.93 99.9717Z" stroke="url(#paint28_linear)" stroke-miterlimit="10"/>
<path opacity="0.41" d="M328.82 403.588L584.387 497.47L410.706 631.512L328.82 403.588Z" stroke="url(#paint29_linear)" stroke-miterlimit="10"/>
<path d="M441.478 1701.24L650.104 2444.47L187.997 2009.49L441.478 1701.24Z" stroke="url(#paint30_linear)" stroke-miterlimit="10" stroke-linecap="round" stroke-linejoin="round"/>
<path d="M420.094 2173.78L215.119 1838.42L79.5117 2141.97L420.094 2173.78Z" stroke="url(#paint31_linear)" stroke-width="0.5" stroke-miterlimit="10"/>
<path d="M1299.97 1423.25L1319.27 1635L1404.29 1613.1L1299.97 1423.25Z" stroke="url(#paint32_linear)" stroke-miterlimit="10" stroke-linecap="round" stroke-linejoin="round"/>
<path d="M467.035 1265.21L441.478 1701.24L-187.008 1536.95L467.035 1265.21Z" stroke="url(#paint33_linear)" stroke-miterlimit="10" stroke-linecap="round" stroke-linejoin="round"/>
<path d="M794.578 1046.68L663.665 1221.4L880.636 1248L794.578 1046.68Z" stroke="url(#paint34_linear)" stroke-width="0.5" stroke-miterlimit="10"/>
<path d="M794.578 1046.68L712.171 1373.18L880.636 1248L794.578 1046.68Z" stroke="url(#paint35_linear)" stroke-miterlimit="10" stroke-linecap="round" stroke-linejoin="round"/>
<path d="M681.92 1560.42L661.057 2046L399.232 1873.88L681.92 1560.42Z" stroke="url(#paint36_linear)" stroke-width="0.5" stroke-miterlimit="10"/>
<path d="M215.118 1838.41L399.231 1873.88L441.478 1701.24L215.118 1838.41Z" stroke="url(#paint37_linear)" stroke-width="0.5" stroke-miterlimit="10"/>
<path d="M420.094 2173.78L399.231 1873.88L215.119 1838.42L420.094 2173.78Z" stroke="url(#paint38_linear)" stroke-width="0.5" stroke-miterlimit="10"/>
<path d="M661.057 2046L420.094 2173.78L399.231 1873.88L661.057 2046Z" stroke="url(#paint39_linear)" stroke-width="0.5" stroke-miterlimit="10"/>
<path d="M1319.27 1635L1148.2 1865.54L1419.41 2033.48L1319.27 1635Z" stroke="url(#paint40_linear)" stroke-width="0.5" stroke-miterlimit="10"/>
<path d="M1276.5 2231.68L1148.2 1865.54L771.629 2161.26L1276.5 2231.68Z" stroke="url(#paint41_linear)" stroke-width="0.5" stroke-miterlimit="10"/>
<path d="M1069.96 1686.12L1148.2 1865.54L922.883 1824.85L1069.96 1686.12Z" stroke="url(#paint42_linear)" stroke-width="0.5" stroke-miterlimit="10"/>
<path d="M467.035 1265.21L145.229 1107.18L109.762 1468.62L467.035 1265.21Z" stroke="url(#paint43_linear)" stroke-width="0.5" stroke-miterlimit="10"/>
<path d="M-108.252 911.593L145.229 1107.18L109.762 1468.62L-108.252 911.593Z" stroke="url(#paint44_linear)" stroke-width="0.5" stroke-miterlimit="10"/>
<path d="M215.119 1838.41L109.762 1468.62L441.478 1701.24L215.119 1838.41Z" stroke="url(#paint45_linear)" stroke-width="0.5" stroke-miterlimit="10"/>
</g>
</g>
<defs>
<linearGradient id="paint0_linear" x1="849.617" y1="1214.02" x2="590.092" y2="1473.54" gradientUnits="userSpaceOnUse">
<stop stop-color="#B9438F"/>
<stop offset="0.9873" stop-color="#6769FF"/>
</linearGradient>
<linearGradient id="paint1_linear" x1="881.588" y1="1536.99" x2="576.481" y2="1842.09" gradientUnits="userSpaceOnUse">
<stop stop-color="#B9438F"/>
<stop offset="0.9873" stop-color="#6769FF"/>
</linearGradient>
<linearGradient id="paint2_linear" x1="1408.65" y1="1718.93" x2="1084.36" y2="2043.21" gradientUnits="userSpaceOnUse">
<stop stop-color="#B9438F"/>
<stop offset="0.9873" stop-color="#6769FF"/>
</linearGradient>
<linearGradient id="paint3_linear" x1="1252.28" y1="1447.84" x2="894.198" y2="1805.93" gradientUnits="userSpaceOnUse">
<stop stop-color="#B9438F"/>
<stop offset="0.9873" stop-color="#6769FF"/>
</linearGradient>
<linearGradient id="paint4_linear" x1="1109.66" y1="1306.73" x2="755.557" y2="1660.83" gradientUnits="userSpaceOnUse">
<stop stop-color="#B9438F"/>
<stop offset="0.9873" stop-color="#6769FF"/>
</linearGradient>
<linearGradient id="paint5_linear" x1="542.878" y1="1052.99" x2="397.516" y2="1198.35" gradientUnits="userSpaceOnUse">
<stop stop-color="#B9438F"/>
<stop offset="0.9873" stop-color="#6769FF"/>
</linearGradient>
<linearGradient id="paint6_linear" x1="664.935" y1="910.415" x2="385.475" y2="1189.88" gradientUnits="userSpaceOnUse">
<stop stop-color="#B9438F"/>
<stop offset="0.9873" stop-color="#6769FF"/>
</linearGradient>
<linearGradient id="paint7_linear" x1="772.78" y1="1670.96" x2="528.154" y2="1915.59" gradientUnits="userSpaceOnUse">
<stop stop-color="#B9438F"/>
<stop offset="0.9873" stop-color="#6769FF"/>
</linearGradient>
<linearGradient id="paint8_linear" x1="1115.01" y1="2012.91" x2="867.4" y2="2260.52" gradientUnits="userSpaceOnUse">
<stop stop-color="#B9438F"/>
<stop offset="0.9873" stop-color="#6769FF"/>
</linearGradient>
<linearGradient id="paint9_linear" x1="642.326" y1="1897.39" x2="234.62" y2="2305.1" gradientUnits="userSpaceOnUse">
<stop stop-color="#B9438F"/>
<stop offset="0.9873" stop-color="#6769FF"/>
</linearGradient>
<linearGradient id="paint10_linear" x1="640.206" y1="1297.38" x2="337.205" y2="1600.38" gradientUnits="userSpaceOnUse">
<stop stop-color="#B9438F"/>
<stop offset="0.9873" stop-color="#6769FF"/>
</linearGradient>
<linearGradient id="paint11_linear" x1="315.348" y1="1570.51" x2="28.2527" y2="1857.6" gradientUnits="userSpaceOnUse">
<stop stop-color="#B9438F"/>
<stop offset="0.9873" stop-color="#6769FF"/>
</linearGradient>
<linearGradient id="paint12_linear" x1="1044.9" y1="1242.58" x2="759.559" y2="1527.92" gradientUnits="userSpaceOnUse">
<stop stop-color="#B9438F"/>
<stop offset="0.9873" stop-color="#6769FF"/>
</linearGradient>
<linearGradient id="paint13_linear" x1="1251.87" y1="1448.94" x2="1040.5" y2="1660.31" gradientUnits="userSpaceOnUse">
<stop stop-color="#B9438F"/>
<stop offset="0.9873" stop-color="#6769FF"/>
</linearGradient>
<linearGradient id="paint14_linear" x1="1203.16" y1="1393.11" x2="913.676" y2="1682.59" gradientUnits="userSpaceOnUse">
<stop stop-color="#B9438F"/>
<stop offset="0.9873" stop-color="#6769FF"/>
</linearGradient>
<linearGradient id="paint15_linear" x1="1244.96" y1="1855.27" x2="1097.48" y2="2002.75" gradientUnits="userSpaceOnUse">
<stop stop-color="#B9438F"/>
<stop offset="0.9873" stop-color="#6769FF"/>
</linearGradient>
<linearGradient id="paint16_linear" x1="812.656" y1="1172.6" x2="552.388" y2="1432.87" gradientUnits="userSpaceOnUse">
<stop stop-color="#B9438F"/>
<stop offset="0.9873" stop-color="#6769FF"/>
</linearGradient>
<linearGradient id="paint17_linear" x1="492.157" y1="1001.45" x2="264.449" y2="1229.16" gradientUnits="userSpaceOnUse">
<stop stop-color="#B9438F"/>
<stop offset="0.9873" stop-color="#6769FF"/>
</linearGradient>
<linearGradient id="paint18_linear" x1="595.524" y1="1388.57" x2="358.487" y2="1625.61" gradientUnits="userSpaceOnUse">
<stop stop-color="#B9438F"/>
<stop offset="0.9873" stop-color="#6769FF"/>
</linearGradient>
<linearGradient id="paint19_linear" x1="258.472" y1="1511.86" x2="-27.6268" y2="1797.96" gradientUnits="userSpaceOnUse">
<stop stop-color="#B9438F"/>
<stop offset="0.9873" stop-color="#6769FF"/>
</linearGradient>
<linearGradient id="paint20_linear" x1="914.765" y1="1675.48" x2="595.474" y2="1994.78" gradientUnits="userSpaceOnUse">
<stop stop-color="#B9438F"/>
<stop offset="0.9873" stop-color="#6769FF"/>
</linearGradient>
<linearGradient id="paint21_linear" x1="1599.02" y1="1464.68" x2="1431.93" y2="1631.77" gradientUnits="userSpaceOnUse">
<stop stop-color="#B9438F"/>
<stop offset="0.9873" stop-color="#6769FF"/>
</linearGradient>
<linearGradient id="paint22_linear" x1="1678.29" y1="1154.35" x2="1527.24" y2="1305.4" gradientUnits="userSpaceOnUse">
<stop stop-color="#B9438F"/>
<stop offset="0.9873" stop-color="#6769FF"/>
</linearGradient>
<linearGradient id="paint23_linear" x1="1213.65" y1="258.427" x2="1087.1" y2="248.175" gradientUnits="userSpaceOnUse">
<stop stop-color="#B9438F"/>
<stop offset="0.9873" stop-color="#6769FF"/>
</linearGradient>
<linearGradient id="paint24_linear" x1="1686.74" y1="517.843" x2="1556.18" y2="648.406" gradientUnits="userSpaceOnUse">
<stop stop-color="#B9438F"/>
<stop offset="0.9873" stop-color="#6769FF"/>
</linearGradient>
<linearGradient id="paint25_linear" x1="1546.92" y1="167.593" x2="1609.74" y2="355.568" gradientUnits="userSpaceOnUse">
<stop stop-color="#B9438F"/>
<stop offset="0.9873" stop-color="#6769FF"/>
</linearGradient>
<linearGradient id="paint26_linear" x1="1074.41" y1="483.004" x2="1018.15" y2="539.267" gradientUnits="userSpaceOnUse">
<stop stop-color="#B9438F"/>
<stop offset="0.9873" stop-color="#6769FF"/>
</linearGradient>
<linearGradient id="paint27_linear" x1="469.743" y1="253.793" x2="396.18" y2="223.473" gradientUnits="userSpaceOnUse">
<stop stop-color="#B9438F"/>
<stop offset="0.9873" stop-color="#6769FF"/>
</linearGradient>
<linearGradient id="paint28_linear" x1="1305.71" y1="72.6637" x2="1232.14" y2="42.3432" gradientUnits="userSpaceOnUse">
<stop stop-color="#B9438F"/>
<stop offset="0.9873" stop-color="#6769FF"/>
</linearGradient>
<linearGradient id="paint29_linear" x1="498.999" y1="405.956" x2="339.354" y2="565.601" gradientUnits="userSpaceOnUse">
<stop stop-color="#B9438F"/>
<stop offset="0.9873" stop-color="#6769FF"/>
</linearGradient>
<linearGradient id="paint30_linear" x1="681.488" y1="1937.29" x2="396.842" y2="2221.93" gradientUnits="userSpaceOnUse">
<stop stop-color="#B9438F"/>
<stop offset="0.9873" stop-color="#6769FF"/>
</linearGradient>
<linearGradient id="paint31_linear" x1="351.92" y1="1972.51" x2="129.369" y2="2195.06" gradientUnits="userSpaceOnUse">
<stop stop-color="#B9438F"/>
<stop offset="0.9873" stop-color="#6769FF"/>
</linearGradient>
<linearGradient id="paint32_linear" x1="1375.33" y1="1494.98" x2="1275.44" y2="1594.87" gradientUnits="userSpaceOnUse">
<stop stop-color="#B9438F"/>
<stop offset="0.9873" stop-color="#6769FF"/>
</linearGradient>
<linearGradient id="paint33_linear" x1="475.922" y1="1270.48" x2="9.40424" y2="1736.99" gradientUnits="userSpaceOnUse">
<stop stop-color="#B9438F"/>
<stop offset="0.9873" stop-color="#6769FF"/>
</linearGradient>
<linearGradient id="paint34_linear" x1="868.268" y1="1117.37" x2="712.112" y2="1273.52" gradientUnits="userSpaceOnUse">
<stop stop-color="#B9438F"/>
<stop offset="0.9873" stop-color="#6769FF"/>
</linearGradient>
<linearGradient id="paint35_linear" x1="868.315" y1="1116.63" x2="660.198" y2="1324.75" gradientUnits="userSpaceOnUse">
<stop stop-color="#B9438F"/>
<stop offset="0.9873" stop-color="#6769FF"/>
</linearGradient>
<linearGradient id="paint36_linear" x1="801.093" y1="1674.32" x2="499.26" y2="1976.15" gradientUnits="userSpaceOnUse">
<stop stop-color="#B9438F"/>
<stop offset="0.9873" stop-color="#6769FF"/>
</linearGradient>
<linearGradient id="paint37_linear" x1="454.125" y1="1708.83" x2="267.77" y2="1895.19" gradientUnits="userSpaceOnUse">
<stop stop-color="#B9438F"/>
<stop offset="0.9873" stop-color="#6769FF"/>
</linearGradient>
<linearGradient id="paint38_linear" x1="426.4" y1="1898.73" x2="283.922" y2="2041.21" gradientUnits="userSpaceOnUse">
<stop stop-color="#B9438F"/>
<stop offset="0.9873" stop-color="#6769FF"/>
</linearGradient>
<linearGradient id="paint39_linear" x1="553.235" y1="1935.98" x2="366.123" y2="2123.09" gradientUnits="userSpaceOnUse">
<stop stop-color="#B9438F"/>
<stop offset="0.9873" stop-color="#6769FF"/>
</linearGradient>
<linearGradient id="paint40_linear" x1="1446.31" y1="1758.47" x2="1242.56" y2="1962.22" gradientUnits="userSpaceOnUse">
<stop stop-color="#B9438F"/>
<stop offset="0.9873" stop-color="#6769FF"/>
</linearGradient>
<linearGradient id="paint41_linear" x1="1253.28" y1="1967.91" x2="913.833" y2="2307.35" gradientUnits="userSpaceOnUse">
<stop stop-color="#B9438F"/>
<stop offset="0.9873" stop-color="#6769FF"/>
</linearGradient>
<linearGradient id="paint42_linear" x1="1134" y1="1747.44" x2="988.127" y2="1893.31" gradientUnits="userSpaceOnUse">
<stop stop-color="#B9438F"/>
<stop offset="0.9873" stop-color="#6769FF"/>
</linearGradient>
<linearGradient id="paint43_linear" x1="348.541" y1="1143.91" x2="64.6469" y2="1427.81" gradientUnits="userSpaceOnUse">
<stop stop-color="#B9438F"/>
<stop offset="0.9873" stop-color="#6769FF"/>
</linearGradient>
<linearGradient id="paint44_linear" x1="115.316" y1="1075.36" x2="-86.6638" y2="1277.34" gradientUnits="userSpaceOnUse">
<stop stop-color="#B9438F"/>
<stop offset="0.9873" stop-color="#6769FF"/>
</linearGradient>
<linearGradient id="paint45_linear" x1="300.947" y1="1558.12" x2="116.542" y2="1742.53" gradientUnits="userSpaceOnUse">
<stop stop-color="#B9438F"/>
<stop offset="0.9873" stop-color="#6769FF"/>
</linearGradient>
</defs>
</svg>
