<svg width="1920" height="2705" viewBox="0 0 1920 2705" fill="none" xmlns="http://www.w3.org/2000/svg">
<mask id="mask0" mask-type="alpha" maskUnits="userSpaceOnUse" x="0" y="0" width="1920" height="2705">
<rect width="1920" height="2705" fill="#0D0D0D"/>
</mask>
<g mask="url(#mask0)">
<g opacity="0.3">
<path d="M1467.26 2326.51L1480.7 2076.91L1320.96 2096.5L1467.26 2326.51Z" stroke="url(#paint0_linear)" stroke-width="0.5" stroke-miterlimit="10"/>
<path d="M1029.5 2820.72L1289.86 2521.2L1401.22 2768.88L1029.5 2820.72Z" stroke="url(#paint1_linear)" stroke-miterlimit="10" stroke-linecap="round" stroke-linejoin="round"/>
<path d="M1142.4 2152.56L1320.96 2096.5L1353.98 2354.93L1142.4 2152.56Z" stroke="url(#paint2_linear)" stroke-width="0.5" stroke-miterlimit="10"/>
<path d="M1625.47 2109.17L1466.88 2324.98L1320.96 2096.5L1625.47 2109.17Z" stroke="url(#paint3_linear)" stroke-miterlimit="10"/>
<path d="M1490.69 2977.39L1401.21 2768.88L1482.62 2684.02L1490.69 2977.39Z" stroke="url(#paint4_linear)" stroke-width="0.5" stroke-miterlimit="10"/>
<path opacity="0.41" d="M1076.74 1349.23L1115.9 1431.41L1159.68 1293.55L1076.74 1349.23Z" stroke="url(#paint5_linear)" stroke-miterlimit="10"/>
<path opacity="0.41" d="M776 1723L727 1786.32L776 1835L776 1723Z" stroke="url(#paint6_linear)" stroke-miterlimit="10"/>
<path opacity="0.41" d="M404.222 1060L429.777 1187.74L323 1222.89L404.222 1060Z" stroke="url(#paint7_linear)" stroke-miterlimit="10"/>
<path opacity="0.41" d="M921.144 1291.28L807.864 1274L771 1386.13L921.144 1291.28Z" stroke="url(#paint8_linear)" stroke-miterlimit="10"/>
<path opacity="0.41" d="M455.144 1713.28L341.864 1696L305 1808.13L455.144 1713.28Z" stroke="url(#paint9_linear)" stroke-miterlimit="10"/>
<path d="M1529.85 1797.36L1386.24 1769.33L1383.93 1869.55L1529.85 1797.36Z" stroke="url(#paint10_linear)" stroke-miterlimit="10"/>
<path opacity="0.41" d="M1164.29 1551.6L1225.34 1537.78L1195.01 1595.76L1164.29 1551.6Z" stroke="url(#paint11_linear)" stroke-miterlimit="10"/>
<path opacity="0.41" d="M1635.07 1384.56L1645.44 1322.74L1687.3 1373.04L1635.07 1384.56Z" stroke="url(#paint12_linear)" stroke-miterlimit="10"/>
<path opacity="0.41" d="M939 1189.82L949.368 1128L991.224 1178.3L939 1189.82Z" stroke="url(#paint13_linear)" stroke-miterlimit="10"/>
<path opacity="0.41" d="M1727.23 1474.8L1539.07 1543.92L1666.94 1642.61L1727.23 1474.8Z" stroke="url(#paint14_linear)" stroke-miterlimit="10"/>
<path d="M1910.78 2754.67L2064 2581.1L1830.91 2657.14L1910.78 2754.67Z" stroke="url(#paint15_linear)" stroke-miterlimit="10"/>
<path d="M1660.03 2778.1L1810.94 2531.18L1910.78 2754.67L1660.03 2778.1Z" stroke="url(#paint16_linear)" stroke-width="0.5" stroke-miterlimit="10"/>
<path d="M1660.03 2778.1L1675.39 2557.3L1810.94 2531.18L1660.03 2778.1Z" stroke="url(#paint17_linear)" stroke-width="0.5" stroke-miterlimit="10"/>
<path d="M1482.62 2684.02L1660.03 2778.1L1675.39 2557.3L1482.62 2684.02Z" stroke="url(#paint18_linear)" stroke-width="0.5" stroke-miterlimit="10"/>
<path d="M1029.5 2820.72L1123.97 2551.15L1401.22 2768.88L1029.5 2820.72Z" stroke="url(#paint19_linear)" stroke-width="0.5" stroke-miterlimit="10"/>
<path d="M509.952 262.896L676.608 448.752L775.68 322.032L509.952 262.896Z" stroke="url(#paint20_linear)" stroke-width="0.5" stroke-miterlimit="10"/>
<path d="M497.664 -0.52832L311.424 314.736L622.848 344.688L497.664 -0.52832Z" stroke="url(#paint21_linear)" stroke-miterlimit="10"/>
<path d="M647.425 -367.632C650.881 -364.176 802.561 -108.048 802.561 -108.048L497.665 -0.528322L470.017 -396.432L647.425 -367.632Z" stroke="url(#paint22_linear)" stroke-miterlimit="10"/>
<path d="M862.464 156.143L802.56 -108.049L497.664 -0.52861L862.464 156.143Z" stroke="url(#paint23_linear)" stroke-miterlimit="10"/>
<path d="M622.848 344.688L497.664 -0.52832L862.464 156.144L622.848 344.688Z" stroke="url(#paint24_linear)" stroke-miterlimit="10" stroke-linecap="round" stroke-linejoin="round"/>
<path d="M700.032 747.888L676.608 448.752L551.424 528.24L700.032 747.888Z" stroke="url(#paint25_linear)" stroke-width="0.5" stroke-miterlimit="10"/>
<path d="M835.968 471.023L700.032 747.888L551.424 528.24L835.968 471.023Z" stroke="url(#paint26_linear)" stroke-miterlimit="10"/>
<path d="M245.76 20.5914L497.664 -0.528567L311.424 314.735L245.76 20.5914Z" stroke="url(#paint27_linear)" stroke-width="0.5" stroke-miterlimit="10"/>
<path d="M311.424 314.736L-106.752 273.648L243.84 -96.9124L311.424 314.736Z" stroke="url(#paint28_linear)" stroke-miterlimit="10"/>
<path d="M551.424 528.24L311.424 314.735L622.848 344.687L551.424 528.24Z" stroke="url(#paint29_linear)" stroke-miterlimit="10" stroke-linecap="round" stroke-linejoin="round"/>
<path d="M862.464 156.144L775.68 322.031L569.856 162.672L862.464 156.144Z" stroke="url(#paint30_linear)" stroke-width="0.5" stroke-miterlimit="10"/>
<path d="M802.56 -108.049L646.272 -4.75252L862.464 156.143L802.56 -108.049Z" stroke="url(#paint31_linear)" stroke-miterlimit="10" stroke-linecap="round" stroke-linejoin="round"/>
<path d="M569.856 162.671L646.272 -4.75245L862.464 156.143L569.856 162.671Z" stroke="url(#paint32_linear)" stroke-miterlimit="10"/>
<path d="M551.425 528.24L511.104 263.664L775.681 322.032L551.425 528.24Z" stroke="url(#paint33_linear)" stroke-miterlimit="10"/>
<path d="M466.176 777.84L551.424 528.24L700.032 747.888L466.176 777.84Z" stroke="url(#paint34_linear)" stroke-width="0.5" stroke-miterlimit="10"/>
<path d="M511.104 263.663L311.424 314.736L551.424 528.24L511.104 263.663Z" stroke="url(#paint35_linear)" stroke-miterlimit="10"/>
<path d="M33.024 -181.009C33.024 -181.009 -184.32 145.007 -180.864 148.463C-177.408 151.919 -106.368 273.647 -106.368 273.647L33.024 -181.009Z" stroke="url(#paint36_linear)" stroke-miterlimit="10"/>
<path d="M511.104 263.664L243.84 -96.9126L569.856 162.672L511.104 263.664Z" stroke="url(#paint37_linear)" stroke-width="0.5" stroke-miterlimit="10"/>
<path d="M33.0244 -181.009L243.84 -96.9124L245.76 20.5915L33.0244 -181.009Z" stroke="url(#paint38_linear)" stroke-width="0.5" stroke-miterlimit="10"/>
<path opacity="0.6" d="M1393.92 287.856L1322.5 72.4311L1070.59 171.119L975.744 269.04L862.464 156.143" stroke="url(#paint39_linear)" stroke-miterlimit="10"/>
<path opacity="0.41" d="M1237.25 -12.4323L1181.18 -159.888L1086.34 71.6636L1237.25 -12.4323Z" stroke="url(#paint40_linear)" stroke-miterlimit="10"/>
<path opacity="0.41" d="M1476.86 677.615L1391.23 647.279L1457.66 775.535L1476.86 677.615Z" stroke="url(#paint41_linear)" stroke-miterlimit="10"/>
<path opacity="0.41" d="M1270.66 388.848L1248.77 211.439L1094.02 212.591L1270.66 388.848Z" stroke="url(#paint42_linear)" stroke-miterlimit="10"/>
<path opacity="0.41" d="M1572.86 345.456L1556.74 216.048L1444.22 216.432L1572.86 345.456Z" stroke="url(#paint43_linear)" stroke-miterlimit="10"/>
<path opacity="0.41" d="M1496.06 551.28L1588.22 483.312L1534.85 378.096L1496.06 551.28Z" stroke="url(#paint44_linear)" stroke-miterlimit="10"/>
<path d="M839.424 681.072L960.768 599.28L891.648 526.703L839.424 681.072Z" stroke="url(#paint45_linear)" stroke-miterlimit="10"/>
<path opacity="0.41" d="M1271.81 596.207L1238.4 649.583L1219.2 586.991L1271.81 596.207Z" stroke="url(#paint46_linear)" stroke-miterlimit="10"/>
<path opacity="0.41" d="M1597.06 715.248L1633.15 766.32L1567.87 760.176L1597.06 715.248Z" stroke="url(#paint47_linear)" stroke-miterlimit="10"/>
<path opacity="0.41" d="M928.128 1048.94L1012.22 866.928L852.096 887.28L928.128 1048.94Z" stroke="url(#paint48_linear)" stroke-miterlimit="10"/>
<path opacity="0.41" d="M1110.53 972.912L1329.79 1125.36L1329.79 910.704L1110.53 972.912Z" stroke="url(#paint49_linear)" stroke-miterlimit="10"/>
<path opacity="0.39" d="M700.032 747.888L895.872 723.696L783.36 860.784L1099.78 706.031L1220.35 727.536" stroke="url(#paint50_linear)" stroke-miterlimit="10"/>
<path d="M311.424 314.736L33.0244 -181.009L18.8164 285.936L311.424 314.736Z" stroke="url(#paint51_linear)" stroke-miterlimit="10" stroke-linecap="round" stroke-linejoin="round"/>
<path d="M-181.248 148.079L54.1439 79.7275L-106.752 273.647L-181.248 148.079Z" stroke="url(#paint52_linear)" stroke-miterlimit="10"/>
<path d="M-106.752 273.647L-92.544 504.816L18.8161 285.936L-106.752 273.647Z" stroke="url(#paint53_linear)" stroke-miterlimit="10"/>
<path d="M54.144 79.7278L122.112 360.816L-106.752 273.648L54.144 79.7278Z" stroke="url(#paint54_linear)" stroke-width="0.5" stroke-miterlimit="10"/>
<path d="M33.0239 -181.009L54.1439 79.7274L-181.248 148.079L33.0239 -181.009Z" stroke="url(#paint55_linear)" stroke-miterlimit="10"/>
<path d="M835.967 471.407L676.607 448.751L775.679 322.031L835.967 471.407Z" stroke="url(#paint56_linear)" stroke-width="0.5" stroke-miterlimit="10"/>
<path d="M835.968 471.407L622.848 344.687L775.68 322.031L835.968 471.407Z" stroke="url(#paint57_linear)" stroke-miterlimit="10" stroke-linecap="round" stroke-linejoin="round"/>
<path d="M509.952 262.895L245.76 20.5913L199.296 246.767L509.952 262.895Z" stroke="url(#paint58_linear)" stroke-width="0.5" stroke-miterlimit="10"/>
<path d="M122.112 360.816L199.296 246.768L311.424 314.736L122.112 360.816Z" stroke="url(#paint59_linear)" stroke-width="0.5" stroke-miterlimit="10"/>
<path d="M54.1435 79.7278L199.296 246.768L122.112 360.816L54.1435 79.7278Z" stroke="url(#paint60_linear)" stroke-width="0.5" stroke-miterlimit="10"/>
<path d="M245.76 20.5911L54.1435 79.7273L199.296 246.768L245.76 20.5911Z" stroke="url(#paint61_linear)" stroke-width="0.5" stroke-miterlimit="10"/>
<path d="M551.424 528.24L466.176 777.84L259.2 608.112L551.424 528.24Z" stroke="url(#paint62_linear)" stroke-width="0.5" stroke-miterlimit="10"/>
<path d="M122.112 360.815L259.2 608.111L311.424 314.735L122.112 360.815Z" stroke="url(#paint63_linear)" stroke-width="0.5" stroke-miterlimit="10"/>
</g>
</g>
<defs>
<linearGradient id="paint0_linear" x1="1343.8" y1="2071.48" x2="1534.87" y2="2262.55" gradientUnits="userSpaceOnUse">
<stop stop-color="#B9438F"/>
<stop offset="0.9873" stop-color="#6769FF"/>
</linearGradient>
<linearGradient id="paint1_linear" x1="1148.4" y1="2659.66" x2="1330.71" y2="2841.96" gradientUnits="userSpaceOnUse">
<stop stop-color="#B9438F"/>
<stop offset="0.9873" stop-color="#6769FF"/>
</linearGradient>
<linearGradient id="paint2_linear" x1="1200.02" y1="2092.5" x2="1410.1" y2="2302.58" gradientUnits="userSpaceOnUse">
<stop stop-color="#B9438F"/>
<stop offset="0.9873" stop-color="#6769FF"/>
</linearGradient>
<linearGradient id="paint3_linear" x1="1371.01" y1="2040.98" x2="1562.63" y2="2232.6" gradientUnits="userSpaceOnUse">
<stop stop-color="#B9438F"/>
<stop offset="0.9873" stop-color="#6769FF"/>
</linearGradient>
<linearGradient id="paint4_linear" x1="1410.42" y1="2754.97" x2="1564.74" y2="2909.3" gradientUnits="userSpaceOnUse">
<stop stop-color="#B9438F"/>
<stop offset="0.9873" stop-color="#6769FF"/>
</linearGradient>
<linearGradient id="paint5_linear" x1="1075.78" y1="1367.93" x2="1168.95" y2="1360.38" gradientUnits="userSpaceOnUse">
<stop stop-color="#B9438F"/>
<stop offset="0.9873" stop-color="#6769FF"/>
</linearGradient>
<linearGradient id="paint6_linear" x1="747.6" y1="1749.24" x2="806.749" y2="1808.21" gradientUnits="userSpaceOnUse">
<stop stop-color="#B9438F"/>
<stop offset="0.9873" stop-color="#6769FF"/>
</linearGradient>
<linearGradient id="paint7_linear" x1="426.619" y1="1118.82" x2="297.699" y2="1161.95" gradientUnits="userSpaceOnUse">
<stop stop-color="#B9438F"/>
<stop offset="0.9873" stop-color="#6769FF"/>
</linearGradient>
<linearGradient id="paint8_linear" x1="869.893" y1="1271.13" x2="823.637" y2="1409.52" gradientUnits="userSpaceOnUse">
<stop stop-color="#B9438F"/>
<stop offset="0.9873" stop-color="#6769FF"/>
</linearGradient>
<linearGradient id="paint9_linear" x1="403.893" y1="1693.13" x2="357.637" y2="1831.52" gradientUnits="userSpaceOnUse">
<stop stop-color="#B9438F"/>
<stop offset="0.9873" stop-color="#6769FF"/>
</linearGradient>
<linearGradient id="paint10_linear" x1="1387.79" y1="1763.74" x2="1478.21" y2="1854.16" gradientUnits="userSpaceOnUse">
<stop stop-color="#B9438F"/>
<stop offset="0.9873" stop-color="#6769FF"/>
</linearGradient>
<linearGradient id="paint11_linear" x1="1178.29" y1="1533.27" x2="1219.72" y2="1574.69" gradientUnits="userSpaceOnUse">
<stop stop-color="#B9438F"/>
<stop offset="0.9873" stop-color="#6769FF"/>
</linearGradient>
<linearGradient id="paint12_linear" x1="1623.48" y1="1364.51" x2="1677.64" y2="1342.19" gradientUnits="userSpaceOnUse">
<stop stop-color="#B9438F"/>
<stop offset="0.9873" stop-color="#6769FF"/>
</linearGradient>
<linearGradient id="paint13_linear" x1="927.385" y1="1169.72" x2="981.546" y2="1147.4" gradientUnits="userSpaceOnUse">
<stop stop-color="#B9438F"/>
<stop offset="0.9873" stop-color="#6769FF"/>
</linearGradient>
<linearGradient id="paint14_linear" x1="1601.94" y1="1476.54" x2="1719.48" y2="1594.08" gradientUnits="userSpaceOnUse">
<stop stop-color="#B9438F"/>
<stop offset="0.9873" stop-color="#6769FF"/>
</linearGradient>
<linearGradient id="paint15_linear" x1="1903.42" y1="2580.34" x2="1995.78" y2="2672.71" gradientUnits="userSpaceOnUse">
<stop stop-color="#B9438F"/>
<stop offset="0.9873" stop-color="#6769FF"/>
</linearGradient>
<linearGradient id="paint16_linear" x1="1710.22" y1="2629.91" x2="1874.08" y2="2793.76" gradientUnits="userSpaceOnUse">
<stop stop-color="#B9438F"/>
<stop offset="0.9873" stop-color="#6769FF"/>
</linearGradient>
<linearGradient id="paint17_linear" x1="1655.39" y1="2575.59" x2="1760.29" y2="2680.49" gradientUnits="userSpaceOnUse">
<stop stop-color="#B9438F"/>
<stop offset="0.9873" stop-color="#6769FF"/>
</linearGradient>
<linearGradient id="paint18_linear" x1="1562.01" y1="2603.01" x2="1699.77" y2="2740.77" gradientUnits="userSpaceOnUse">
<stop stop-color="#B9438F"/>
<stop offset="0.9873" stop-color="#6769FF"/>
</linearGradient>
<linearGradient id="paint19_linear" x1="1046.6" y1="2626.52" x2="1296.52" y2="2876.44" gradientUnits="userSpaceOnUse">
<stop stop-color="#B9438F"/>
<stop offset="0.9873" stop-color="#6769FF"/>
</linearGradient>
<linearGradient id="paint20_linear" x1="777.302" y1="355.72" x2="507.083" y2="355.72" gradientUnits="userSpaceOnUse">
<stop stop-color="#B9438F"/>
<stop offset="0.9873" stop-color="#6769FF"/>
</linearGradient>
<linearGradient id="paint21_linear" x1="625.808" y1="170.938" x2="308.128" y2="170.939" gradientUnits="userSpaceOnUse">
<stop stop-color="#B9438F"/>
<stop offset="0.9873" stop-color="#6769FF"/>
</linearGradient>
<linearGradient id="paint22_linear" x1="805.479" y1="-198.17" x2="467.831" y2="-198.17" gradientUnits="userSpaceOnUse">
<stop stop-color="#B9438F"/>
<stop offset="0.9873" stop-color="#6769FF"/>
</linearGradient>
<linearGradient id="paint23_linear" x1="865.202" y1="24.3611" x2="492.362" y2="24.3608" gradientUnits="userSpaceOnUse">
<stop stop-color="#B9438F"/>
<stop offset="0.9873" stop-color="#6769FF"/>
</linearGradient>
<linearGradient id="paint24_linear" x1="864.417" y1="172.075" x2="495.721" y2="172.075" gradientUnits="userSpaceOnUse">
<stop stop-color="#B9438F"/>
<stop offset="0.9873" stop-color="#6769FF"/>
</linearGradient>
<linearGradient id="paint25_linear" x1="701.447" y1="599.244" x2="550.094" y2="599.244" gradientUnits="userSpaceOnUse">
<stop stop-color="#B9438F"/>
<stop offset="0.9873" stop-color="#6769FF"/>
</linearGradient>
<linearGradient id="paint26_linear" x1="839.214" y1="609.924" x2="548.236" y2="609.924" gradientUnits="userSpaceOnUse">
<stop stop-color="#B9438F"/>
<stop offset="0.9873" stop-color="#6769FF"/>
</linearGradient>
<linearGradient id="paint27_linear" x1="499.414" y1="157.835" x2="244.707" y2="157.835" gradientUnits="userSpaceOnUse">
<stop stop-color="#B9438F"/>
<stop offset="0.9873" stop-color="#6769FF"/>
</linearGradient>
<linearGradient id="paint28_linear" x1="313.619" y1="107.87" x2="-110.887" y2="107.87" gradientUnits="userSpaceOnUse">
<stop stop-color="#B9438F"/>
<stop offset="0.9873" stop-color="#6769FF"/>
</linearGradient>
<linearGradient id="paint29_linear" x1="624.885" y1="421.344" x2="309.398" y2="421.344" gradientUnits="userSpaceOnUse">
<stop stop-color="#B9438F"/>
<stop offset="0.9873" stop-color="#6769FF"/>
</linearGradient>
<linearGradient id="paint30_linear" x1="864.103" y1="239.188" x2="567.002" y2="239.188" gradientUnits="userSpaceOnUse">
<stop stop-color="#B9438F"/>
<stop offset="0.9873" stop-color="#6769FF"/>
</linearGradient>
<linearGradient id="paint31_linear" x1="864.417" y1="24.001" x2="644.336" y2="24.001" gradientUnits="userSpaceOnUse">
<stop stop-color="#B9438F"/>
<stop offset="0.9873" stop-color="#6769FF"/>
</linearGradient>
<linearGradient id="paint32_linear" x1="868.125" y1="78.4291" x2="566.711" y2="78.4294" gradientUnits="userSpaceOnUse">
<stop stop-color="#B9438F"/>
<stop offset="0.9873" stop-color="#6769FF"/>
</linearGradient>
<linearGradient id="paint33_linear" x1="779.622" y1="396.522" x2="508.629" y2="396.522" gradientUnits="userSpaceOnUse">
<stop stop-color="#B9438F"/>
<stop offset="0.9873" stop-color="#6769FF"/>
</linearGradient>
<linearGradient id="paint34_linear" x1="701.873" y1="652.48" x2="464.781" y2="652.48" gradientUnits="userSpaceOnUse">
<stop stop-color="#B9438F"/>
<stop offset="0.9873" stop-color="#6769FF"/>
</linearGradient>
<linearGradient id="paint35_linear" x1="554.147" y1="397.129" x2="307.343" y2="397.13" gradientUnits="userSpaceOnUse">
<stop stop-color="#B9438F"/>
<stop offset="0.9873" stop-color="#6769FF"/>
</linearGradient>
<linearGradient id="paint36_linear" x1="38.643" y1="42.5692" x2="-183.064" y2="42.5692" gradientUnits="userSpaceOnUse">
<stop stop-color="#B9438F"/>
<stop offset="0.9873" stop-color="#6769FF"/>
</linearGradient>
<linearGradient id="paint37_linear" x1="570.978" y1="81.5628" x2="238.529" y2="81.5628" gradientUnits="userSpaceOnUse">
<stop stop-color="#B9438F"/>
<stop offset="0.9873" stop-color="#6769FF"/>
</linearGradient>
<linearGradient id="paint38_linear" x1="246.887" y1="-80.4776" x2="28.6425" y2="-80.4778" gradientUnits="userSpaceOnUse">
<stop stop-color="#B9438F"/>
<stop offset="0.9873" stop-color="#6769FF"/>
</linearGradient>
<linearGradient id="paint39_linear" x1="1395.59" y1="179.198" x2="861.139" y2="179.198" gradientUnits="userSpaceOnUse">
<stop stop-color="#B9438F"/>
<stop offset="0.9873" stop-color="#6769FF"/>
</linearGradient>
<linearGradient id="paint40_linear" x1="1239.78" y1="-44.6235" x2="1082.5" y2="-44.6238" gradientUnits="userSpaceOnUse">
<stop stop-color="#B9438F"/>
<stop offset="0.9873" stop-color="#6769FF"/>
</linearGradient>
<linearGradient id="paint41_linear" x1="1464.3" y1="663.688" x2="1403.76" y2="734.914" gradientUnits="userSpaceOnUse">
<stop stop-color="#B9438F"/>
<stop offset="0.9873" stop-color="#6769FF"/>
</linearGradient>
<linearGradient id="paint42_linear" x1="1273.25" y1="301.953" x2="1089.58" y2="301.954" gradientUnits="userSpaceOnUse">
<stop stop-color="#B9438F"/>
<stop offset="0.9873" stop-color="#6769FF"/>
</linearGradient>
<linearGradient id="paint43_linear" x1="1575.55" y1="282.34" x2="1439.6" y2="282.34" gradientUnits="userSpaceOnUse">
<stop stop-color="#B9438F"/>
<stop offset="0.9873" stop-color="#6769FF"/>
</linearGradient>
<linearGradient id="paint44_linear" x1="1546.62" y1="529.331" x2="1481.46" y2="398.76" gradientUnits="userSpaceOnUse">
<stop stop-color="#B9438F"/>
<stop offset="0.9873" stop-color="#6769FF"/>
</linearGradient>
<linearGradient id="paint45_linear" x1="963.796" y1="604.43" x2="835.917" y2="604.43" gradientUnits="userSpaceOnUse">
<stop stop-color="#B9438F"/>
<stop offset="0.9873" stop-color="#6769FF"/>
</linearGradient>
<linearGradient id="paint46_linear" x1="1274.9" y1="619.259" x2="1216.32" y2="619.259" gradientUnits="userSpaceOnUse">
<stop stop-color="#B9438F"/>
<stop offset="0.9873" stop-color="#6769FF"/>
</linearGradient>
<linearGradient id="paint47_linear" x1="1619.29" y1="721.055" x2="1596.78" y2="775.138" gradientUnits="userSpaceOnUse">
<stop stop-color="#B9438F"/>
<stop offset="0.9873" stop-color="#6769FF"/>
</linearGradient>
<linearGradient id="paint48_linear" x1="1015.45" y1="958.934" x2="849.226" y2="958.934" gradientUnits="userSpaceOnUse">
<stop stop-color="#B9438F"/>
<stop offset="0.9873" stop-color="#6769FF"/>
</linearGradient>
<linearGradient id="paint49_linear" x1="1207.05" y1="1098.19" x2="1258.41" y2="889.95" gradientUnits="userSpaceOnUse">
<stop stop-color="#B9438F"/>
<stop offset="0.9873" stop-color="#6769FF"/>
</linearGradient>
<linearGradient id="paint50_linear" x1="1220.54" y1="785.246" x2="699.97" y2="785.246" gradientUnits="userSpaceOnUse">
<stop stop-color="#B9438F"/>
<stop offset="0.9873" stop-color="#6769FF"/>
</linearGradient>
<linearGradient id="paint51_linear" x1="313.239" y1="66.7136" x2="16.8637" y2="66.7139" gradientUnits="userSpaceOnUse">
<stop stop-color="#B9438F"/>
<stop offset="0.9873" stop-color="#6769FF"/>
</linearGradient>
<linearGradient id="paint52_linear" x1="59.4986" y1="176.432" x2="-184.019" y2="176.432" gradientUnits="userSpaceOnUse">
<stop stop-color="#B9438F"/>
<stop offset="0.9873" stop-color="#6769FF"/>
</linearGradient>
<linearGradient id="paint53_linear" x1="21.769" y1="391.607" x2="-108.855" y2="391.607" gradientUnits="userSpaceOnUse">
<stop stop-color="#B9438F"/>
<stop offset="0.9873" stop-color="#6769FF"/>
</linearGradient>
<linearGradient id="paint54_linear" x1="123.328" y1="219.951" x2="-108.393" y2="219.951" gradientUnits="userSpaceOnUse">
<stop stop-color="#B9438F"/>
<stop offset="0.9873" stop-color="#6769FF"/>
</linearGradient>
<linearGradient id="paint55_linear" x1="56.06" y1="-17.7046" x2="-185.536" y2="-17.7048" gradientUnits="userSpaceOnUse">
<stop stop-color="#B9438F"/>
<stop offset="0.9873" stop-color="#6769FF"/>
</linearGradient>
<linearGradient id="paint56_linear" x1="837.33" y1="396.328" x2="674.739" y2="396.328" gradientUnits="userSpaceOnUse">
<stop stop-color="#B9438F"/>
<stop offset="0.9873" stop-color="#6769FF"/>
</linearGradient>
<linearGradient id="paint57_linear" x1="837.738" y1="396.687" x2="621.045" y2="396.687" gradientUnits="userSpaceOnUse">
<stop stop-color="#B9438F"/>
<stop offset="0.9873" stop-color="#6769FF"/>
</linearGradient>
<linearGradient id="paint58_linear" x1="512.408" y1="141.349" x2="198.137" y2="141.349" gradientUnits="userSpaceOnUse">
<stop stop-color="#B9438F"/>
<stop offset="0.9873" stop-color="#6769FF"/>
</linearGradient>
<linearGradient id="paint59_linear" x1="313.806" y1="304.013" x2="119.771" y2="304.013" gradientUnits="userSpaceOnUse">
<stop stop-color="#B9438F"/>
<stop offset="0.9873" stop-color="#6769FF"/>
</linearGradient>
<linearGradient id="paint60_linear" x1="200.511" y1="219.586" x2="52.1613" y2="219.586" gradientUnits="userSpaceOnUse">
<stop stop-color="#B9438F"/>
<stop offset="0.9873" stop-color="#6769FF"/>
</linearGradient>
<linearGradient id="paint61_linear" x1="247.15" y1="134.163" x2="52.328" y2="134.163" gradientUnits="userSpaceOnUse">
<stop stop-color="#B9438F"/>
<stop offset="0.9873" stop-color="#6769FF"/>
</linearGradient>
<linearGradient id="paint62_linear" x1="552.939" y1="653.08" x2="257.346" y2="653.08" gradientUnits="userSpaceOnUse">
<stop stop-color="#B9438F"/>
<stop offset="0.9873" stop-color="#6769FF"/>
</linearGradient>
<linearGradient id="paint63_linear" x1="312.52" y1="462.217" x2="120.517" y2="462.216" gradientUnits="userSpaceOnUse">
<stop stop-color="#B9438F"/>
<stop offset="0.9873" stop-color="#6769FF"/>
</linearGradient>
</defs>
</svg>
