<svg width="26" height="26" viewBox="0 0 26 26" fill="none" xmlns="http://www.w3.org/2000/svg">
<path d="M13 25.0091C19.6274 25.0091 25 19.6345 25 13.0046C25 6.37462 19.6274 1 13 1C6.37258 1 1 6.37462 1 13.0046C1 19.6345 6.37258 25.0091 13 25.0091Z" fill="#0D0D0D" stroke="#FF14A1" stroke-width="1.5" stroke-miterlimit="10"/>
<mask id="path-2-outside-1" maskUnits="userSpaceOnUse" x="2.45508" y="2.85046" width="21" height="21" fill="black">
<rect fill="white" x="2.45508" y="2.85046" width="21" height="21"/>
<path d="M6.21931 6.45308C6.26809 6.40428 6.31687 6.35548 6.36565 6.30668L6.90223 6.876C6.85345 6.9248 6.82093 6.95733 6.77215 7.00613L6.21931 6.45308ZM5.45508 7.31519L6.07296 7.80318C6.04044 7.85198 5.99166 7.90078 5.95914 7.94958L5.325 7.47785C5.37378 7.42905 5.4063 7.36399 5.45508 7.31519ZM7.22744 5.57469C7.27622 5.52589 7.34126 5.49336 7.39004 5.46083L7.84532 6.09522C7.79654 6.12775 7.74776 6.17655 7.69898 6.20908L7.22744 5.57469ZM4.70711 8.43757L5.39004 8.82796C5.35752 8.87676 5.325 8.94182 5.29248 8.99062L4.60955 8.6165C4.64207 8.55143 4.67459 8.48637 4.70711 8.43757ZM8.36565 4.84271C8.43069 4.81018 8.47947 4.77764 8.54451 4.74511L8.90223 5.44456C8.85345 5.47709 8.78841 5.50963 8.73963 5.52589L8.36565 4.84271ZM4.12174 9.64128L4.83719 9.93407C4.82093 9.99914 4.78841 10.0479 4.77215 10.113L4.04044 9.83647C4.07296 9.77141 4.08922 9.70634 4.12174 9.64128ZM9.58516 4.28965C9.6502 4.27339 9.71524 4.24085 9.78028 4.22459L10.0404 4.97284C9.9754 4.98911 9.92662 5.02164 9.86158 5.0379L9.58516 4.28965ZM3.71524 10.9263L4.47947 11.1052C4.46321 11.1703 4.44695 11.2191 4.43069 11.2842L3.66646 11.1215C3.68272 11.0564 3.69898 10.9914 3.71524 10.9263ZM10.886 3.89926C10.951 3.88299 11.0161 3.86673 11.0811 3.85046L11.2274 4.61498C11.1624 4.63125 11.0974 4.64751 11.0486 4.64751L10.886 3.89926ZM3.4876 12.2602L4.26809 12.3252C4.26809 12.3903 4.25183 12.4553 4.25183 12.5204L3.47134 12.4716C3.47134 12.3903 3.4876 12.3252 3.4876 12.2602ZM3.45508 13.6103L4.23557 13.5777C4.23557 13.6428 4.23557 13.7079 4.25183 13.7729L3.47134 13.8217C3.47134 13.7404 3.47134 13.6753 3.45508 13.6103ZM17.4226 4.84271C17.4876 4.87524 17.5364 4.90777 17.6014 4.94031L17.2112 5.62349C17.1624 5.59096 17.0974 5.55843 17.0486 5.52589L17.4226 4.84271ZM18.5445 5.55843C18.5933 5.60723 18.6583 5.63976 18.7071 5.68856L18.2193 6.30668C18.1705 6.27415 18.1217 6.22535 18.073 6.19281L18.5445 5.55843ZM19.5689 6.45308C19.6177 6.50188 19.6665 6.55067 19.7152 6.59947L19.1461 7.13626C19.0974 7.08746 19.0648 7.05493 19.0161 7.00613L19.5689 6.45308ZM19.8291 7.93331L20.4632 7.46159C20.512 7.51039 20.5445 7.57545 20.577 7.62425L19.9429 8.07971C19.9104 8.03091 19.8616 7.98211 19.8291 7.93331ZM20.4957 8.97436L21.1787 8.60023C21.2112 8.6653 21.2437 8.71409 21.2762 8.77916L20.577 9.13702C20.5608 9.08822 20.5282 9.02316 20.4957 8.97436ZM21.0161 10.0967L21.7478 9.82021C21.764 9.88527 21.7965 9.95034 21.8128 10.0154L21.0648 10.2757C21.0486 10.2106 21.0323 10.1618 21.0161 10.0967ZM10.886 21.5645C10.951 21.5808 10.9998 21.597 11.0648 21.6133L10.9022 22.3778C10.8372 22.3615 10.7722 22.3453 10.7071 22.329L10.886 21.5645ZM21.3575 11.2842L22.1217 11.1215C22.138 11.1866 22.1543 11.2516 22.1705 11.3167L21.4063 11.4631C21.39 11.4143 21.3738 11.3492 21.3575 11.2842ZM12.1055 21.776C12.1705 21.776 12.2356 21.7922 12.2843 21.7922L12.2356 22.573C12.1705 22.573 12.1055 22.5567 12.0242 22.5567L12.1055 21.776ZM21.5364 12.5042L22.3169 12.4554C22.3169 12.5204 22.3331 12.5855 22.3331 12.6668L21.5526 12.6993C21.5526 12.6343 21.5364 12.5692 21.5364 12.5042ZM13.3413 21.7922C13.4063 21.7922 13.4713 21.7922 13.5364 21.776L13.6014 22.5567C13.5364 22.5567 13.4713 22.573 13.39 22.573L13.3413 21.7922ZM14.577 21.6458C14.6421 21.6296 14.7071 21.6133 14.7559 21.6133L14.9185 22.3778C14.8535 22.3941 14.7884 22.4103 14.7234 22.4266L14.577 21.6458ZM15.764 21.3205C15.8291 21.3042 15.8778 21.2717 15.9429 21.2554L16.2193 21.9874C16.1543 22.0037 16.0892 22.0362 16.0242 22.0525L15.764 21.3205ZM16.9022 20.8325C16.951 20.8 17.0161 20.7674 17.0648 20.7512L17.4388 21.4344C17.3738 21.4669 17.325 21.4994 17.26 21.532L16.9022 20.8325ZM17.9429 20.1819C17.9917 20.1493 18.0404 20.1005 18.0892 20.068L18.5608 20.7024C18.512 20.7512 18.4469 20.7837 18.3982 20.8162L17.9429 20.1819ZM18.9022 19.3848C18.951 19.3523 18.9835 19.3035 19.0323 19.2709L19.0486 19.2547L19.6014 19.8077L19.5852 19.824C19.5364 19.8728 19.5039 19.9053 19.4551 19.9541L18.9022 19.3848Z"/>
</mask>
<path d="M6.21931 6.45308C6.26809 6.40428 6.31687 6.35548 6.36565 6.30668L6.90223 6.876C6.85345 6.9248 6.82093 6.95733 6.77215 7.00613L6.21931 6.45308ZM5.45508 7.31519L6.07296 7.80318C6.04044 7.85198 5.99166 7.90078 5.95914 7.94958L5.325 7.47785C5.37378 7.42905 5.4063 7.36399 5.45508 7.31519ZM7.22744 5.57469C7.27622 5.52589 7.34126 5.49336 7.39004 5.46083L7.84532 6.09522C7.79654 6.12775 7.74776 6.17655 7.69898 6.20908L7.22744 5.57469ZM4.70711 8.43757L5.39004 8.82796C5.35752 8.87676 5.325 8.94182 5.29248 8.99062L4.60955 8.6165C4.64207 8.55143 4.67459 8.48637 4.70711 8.43757ZM8.36565 4.84271C8.43069 4.81018 8.47947 4.77764 8.54451 4.74511L8.90223 5.44456C8.85345 5.47709 8.78841 5.50963 8.73963 5.52589L8.36565 4.84271ZM4.12174 9.64128L4.83719 9.93407C4.82093 9.99914 4.78841 10.0479 4.77215 10.113L4.04044 9.83647C4.07296 9.77141 4.08922 9.70634 4.12174 9.64128ZM9.58516 4.28965C9.6502 4.27339 9.71524 4.24085 9.78028 4.22459L10.0404 4.97284C9.9754 4.98911 9.92662 5.02164 9.86158 5.0379L9.58516 4.28965ZM3.71524 10.9263L4.47947 11.1052C4.46321 11.1703 4.44695 11.2191 4.43069 11.2842L3.66646 11.1215C3.68272 11.0564 3.69898 10.9914 3.71524 10.9263ZM10.886 3.89926C10.951 3.88299 11.0161 3.86673 11.0811 3.85046L11.2274 4.61498C11.1624 4.63125 11.0974 4.64751 11.0486 4.64751L10.886 3.89926ZM3.4876 12.2602L4.26809 12.3252C4.26809 12.3903 4.25183 12.4553 4.25183 12.5204L3.47134 12.4716C3.47134 12.3903 3.4876 12.3252 3.4876 12.2602ZM3.45508 13.6103L4.23557 13.5777C4.23557 13.6428 4.23557 13.7079 4.25183 13.7729L3.47134 13.8217C3.47134 13.7404 3.47134 13.6753 3.45508 13.6103ZM17.4226 4.84271C17.4876 4.87524 17.5364 4.90777 17.6014 4.94031L17.2112 5.62349C17.1624 5.59096 17.0974 5.55843 17.0486 5.52589L17.4226 4.84271ZM18.5445 5.55843C18.5933 5.60723 18.6583 5.63976 18.7071 5.68856L18.2193 6.30668C18.1705 6.27415 18.1217 6.22535 18.073 6.19281L18.5445 5.55843ZM19.5689 6.45308C19.6177 6.50188 19.6665 6.55067 19.7152 6.59947L19.1461 7.13626C19.0974 7.08746 19.0648 7.05493 19.0161 7.00613L19.5689 6.45308ZM19.8291 7.93331L20.4632 7.46159C20.512 7.51039 20.5445 7.57545 20.577 7.62425L19.9429 8.07971C19.9104 8.03091 19.8616 7.98211 19.8291 7.93331ZM20.4957 8.97436L21.1787 8.60023C21.2112 8.6653 21.2437 8.71409 21.2762 8.77916L20.577 9.13702C20.5608 9.08822 20.5282 9.02316 20.4957 8.97436ZM21.0161 10.0967L21.7478 9.82021C21.764 9.88527 21.7965 9.95034 21.8128 10.0154L21.0648 10.2757C21.0486 10.2106 21.0323 10.1618 21.0161 10.0967ZM10.886 21.5645C10.951 21.5808 10.9998 21.597 11.0648 21.6133L10.9022 22.3778C10.8372 22.3615 10.7722 22.3453 10.7071 22.329L10.886 21.5645ZM21.3575 11.2842L22.1217 11.1215C22.138 11.1866 22.1543 11.2516 22.1705 11.3167L21.4063 11.4631C21.39 11.4143 21.3738 11.3492 21.3575 11.2842ZM12.1055 21.776C12.1705 21.776 12.2356 21.7922 12.2843 21.7922L12.2356 22.573C12.1705 22.573 12.1055 22.5567 12.0242 22.5567L12.1055 21.776ZM21.5364 12.5042L22.3169 12.4554C22.3169 12.5204 22.3331 12.5855 22.3331 12.6668L21.5526 12.6993C21.5526 12.6343 21.5364 12.5692 21.5364 12.5042ZM13.3413 21.7922C13.4063 21.7922 13.4713 21.7922 13.5364 21.776L13.6014 22.5567C13.5364 22.5567 13.4713 22.573 13.39 22.573L13.3413 21.7922ZM14.577 21.6458C14.6421 21.6296 14.7071 21.6133 14.7559 21.6133L14.9185 22.3778C14.8535 22.3941 14.7884 22.4103 14.7234 22.4266L14.577 21.6458ZM15.764 21.3205C15.8291 21.3042 15.8778 21.2717 15.9429 21.2554L16.2193 21.9874C16.1543 22.0037 16.0892 22.0362 16.0242 22.0525L15.764 21.3205ZM16.9022 20.8325C16.951 20.8 17.0161 20.7674 17.0648 20.7512L17.4388 21.4344C17.3738 21.4669 17.325 21.4994 17.26 21.532L16.9022 20.8325ZM17.9429 20.1819C17.9917 20.1493 18.0404 20.1005 18.0892 20.068L18.5608 20.7024C18.512 20.7512 18.4469 20.7837 18.3982 20.8162L17.9429 20.1819ZM18.9022 19.3848C18.951 19.3523 18.9835 19.3035 19.0323 19.2709L19.0486 19.2547L19.6014 19.8077L19.5852 19.824C19.5364 19.8728 19.5039 19.9053 19.4551 19.9541L18.9022 19.3848Z" fill="#FF14A1"/>
<path d="M6.21931 6.45308C6.26809 6.40428 6.31687 6.35548 6.36565 6.30668L6.90223 6.876C6.85345 6.9248 6.82093 6.95733 6.77215 7.00613L6.21931 6.45308ZM5.45508 7.31519L6.07296 7.80318C6.04044 7.85198 5.99166 7.90078 5.95914 7.94958L5.325 7.47785C5.37378 7.42905 5.4063 7.36399 5.45508 7.31519ZM7.22744 5.57469C7.27622 5.52589 7.34126 5.49336 7.39004 5.46083L7.84532 6.09522C7.79654 6.12775 7.74776 6.17655 7.69898 6.20908L7.22744 5.57469ZM4.70711 8.43757L5.39004 8.82796C5.35752 8.87676 5.325 8.94182 5.29248 8.99062L4.60955 8.6165C4.64207 8.55143 4.67459 8.48637 4.70711 8.43757ZM8.36565 4.84271C8.43069 4.81018 8.47947 4.77764 8.54451 4.74511L8.90223 5.44456C8.85345 5.47709 8.78841 5.50963 8.73963 5.52589L8.36565 4.84271ZM4.12174 9.64128L4.83719 9.93407C4.82093 9.99914 4.78841 10.0479 4.77215 10.113L4.04044 9.83647C4.07296 9.77141 4.08922 9.70634 4.12174 9.64128ZM9.58516 4.28965C9.6502 4.27339 9.71524 4.24085 9.78028 4.22459L10.0404 4.97284C9.9754 4.98911 9.92662 5.02164 9.86158 5.0379L9.58516 4.28965ZM3.71524 10.9263L4.47947 11.1052C4.46321 11.1703 4.44695 11.2191 4.43069 11.2842L3.66646 11.1215C3.68272 11.0564 3.69898 10.9914 3.71524 10.9263ZM10.886 3.89926C10.951 3.88299 11.0161 3.86673 11.0811 3.85046L11.2274 4.61498C11.1624 4.63125 11.0974 4.64751 11.0486 4.64751L10.886 3.89926ZM3.4876 12.2602L4.26809 12.3252C4.26809 12.3903 4.25183 12.4553 4.25183 12.5204L3.47134 12.4716C3.47134 12.3903 3.4876 12.3252 3.4876 12.2602ZM3.45508 13.6103L4.23557 13.5777C4.23557 13.6428 4.23557 13.7079 4.25183 13.7729L3.47134 13.8217C3.47134 13.7404 3.47134 13.6753 3.45508 13.6103ZM17.4226 4.84271C17.4876 4.87524 17.5364 4.90777 17.6014 4.94031L17.2112 5.62349C17.1624 5.59096 17.0974 5.55843 17.0486 5.52589L17.4226 4.84271ZM18.5445 5.55843C18.5933 5.60723 18.6583 5.63976 18.7071 5.68856L18.2193 6.30668C18.1705 6.27415 18.1217 6.22535 18.073 6.19281L18.5445 5.55843ZM19.5689 6.45308C19.6177 6.50188 19.6665 6.55067 19.7152 6.59947L19.1461 7.13626C19.0974 7.08746 19.0648 7.05493 19.0161 7.00613L19.5689 6.45308ZM19.8291 7.93331L20.4632 7.46159C20.512 7.51039 20.5445 7.57545 20.577 7.62425L19.9429 8.07971C19.9104 8.03091 19.8616 7.98211 19.8291 7.93331ZM20.4957 8.97436L21.1787 8.60023C21.2112 8.6653 21.2437 8.71409 21.2762 8.77916L20.577 9.13702C20.5608 9.08822 20.5282 9.02316 20.4957 8.97436ZM21.0161 10.0967L21.7478 9.82021C21.764 9.88527 21.7965 9.95034 21.8128 10.0154L21.0648 10.2757C21.0486 10.2106 21.0323 10.1618 21.0161 10.0967ZM10.886 21.5645C10.951 21.5808 10.9998 21.597 11.0648 21.6133L10.9022 22.3778C10.8372 22.3615 10.7722 22.3453 10.7071 22.329L10.886 21.5645ZM21.3575 11.2842L22.1217 11.1215C22.138 11.1866 22.1543 11.2516 22.1705 11.3167L21.4063 11.4631C21.39 11.4143 21.3738 11.3492 21.3575 11.2842ZM12.1055 21.776C12.1705 21.776 12.2356 21.7922 12.2843 21.7922L12.2356 22.573C12.1705 22.573 12.1055 22.5567 12.0242 22.5567L12.1055 21.776ZM21.5364 12.5042L22.3169 12.4554C22.3169 12.5204 22.3331 12.5855 22.3331 12.6668L21.5526 12.6993C21.5526 12.6343 21.5364 12.5692 21.5364 12.5042ZM13.3413 21.7922C13.4063 21.7922 13.4713 21.7922 13.5364 21.776L13.6014 22.5567C13.5364 22.5567 13.4713 22.573 13.39 22.573L13.3413 21.7922ZM14.577 21.6458C14.6421 21.6296 14.7071 21.6133 14.7559 21.6133L14.9185 22.3778C14.8535 22.3941 14.7884 22.4103 14.7234 22.4266L14.577 21.6458ZM15.764 21.3205C15.8291 21.3042 15.8778 21.2717 15.9429 21.2554L16.2193 21.9874C16.1543 22.0037 16.0892 22.0362 16.0242 22.0525L15.764 21.3205ZM16.9022 20.8325C16.951 20.8 17.0161 20.7674 17.0648 20.7512L17.4388 21.4344C17.3738 21.4669 17.325 21.4994 17.26 21.532L16.9022 20.8325ZM17.9429 20.1819C17.9917 20.1493 18.0404 20.1005 18.0892 20.068L18.5608 20.7024C18.512 20.7512 18.4469 20.7837 18.3982 20.8162L17.9429 20.1819ZM18.9022 19.3848C18.951 19.3523 18.9835 19.3035 19.0323 19.2709L19.0486 19.2547L19.6014 19.8077L19.5852 19.824C19.5364 19.8728 19.5039 19.9053 19.4551 19.9541L18.9022 19.3848Z" stroke="#FF14A1" stroke-width="0.6" mask="url(#path-2-outside-1)"/>
<path d="M14.1855 5.38037C15.7493 5.63364 17.2534 6.36364 18.4597 7.57039C20.3361 9.44755 21.0659 12.0547 20.634 14.4831" stroke="#11CFE7" stroke-miterlimit="10"/>
<path d="M18.459 18.6695C17.208 19.9209 15.6443 20.6658 14.021 20.8893C11.668 21.2171 9.18097 20.4871 7.37899 18.6695C6.38119 17.6713 5.71103 16.4646 5.36851 15.1982C4.65367 12.5762 5.32383 9.64125 7.37899 7.57042C8.71931 6.22959 10.417 5.48469 12.1595 5.30591" stroke="#11CFE7" stroke-miterlimit="10"/>
</svg>
