<svg width="84" height="124" viewBox="0 0 84 124" fill="none" xmlns="http://www.w3.org/2000/svg">
<path d="M6.36599 123.238L4.34504 120.106C4.0419 119.702 3.83981 119.398 3.63771 119.196C3.43562 119.095 3.13247 118.994 2.72828 118.994H1.51571L1.51571 123.238H0L0 113.538H1.51571L1.51571 117.579H2.72828C3.13247 117.579 3.43562 117.478 3.63771 117.377C3.83981 117.276 4.0419 116.973 4.34504 116.468L6.26495 113.538H7.98276L5.75971 116.973C5.25447 117.681 4.85028 118.085 4.54714 118.287C4.74923 118.388 4.95133 118.489 5.15343 118.691C5.35552 118.893 5.55761 119.196 5.86075 119.701L8.18485 123.238H6.36599Z" fill="white"/>
<path d="M17.5822 123.238H16.0665V116.367L10.9131 123.238H10.0037L10.0037 113.538H11.5194L11.5194 120.409L16.6728 113.538H17.5822V123.238Z" fill="white"/>
<path d="M21.9273 117.276H24.5546C25.6661 117.276 26.4745 117.579 26.9797 118.085C27.4849 118.59 27.7881 119.398 27.7881 120.308C27.7881 121.217 27.4849 122.026 26.9797 122.531C26.4745 123.036 25.565 123.339 24.5546 123.339H20.4116V113.639H26.7776V115.053H21.9273V117.276ZM21.9273 121.823H24.5546C25.1609 121.823 25.6661 121.722 25.9692 121.419C26.2724 121.116 26.3734 120.712 26.3734 120.207C26.3734 119.095 25.7671 118.59 24.5546 118.59H21.9273V121.823Z" fill="white"/>
<path d="M31.6278 117.681H36.0739V119.095H31.6278V121.823H36.4781V123.238H30.2131V113.538H36.4781V114.952H31.6278V117.681Z" fill="white"/>
<path d="M38.8022 113.538H41.9347C43.2483 113.538 44.2588 113.841 45.0672 114.548C45.8756 115.255 46.2798 116.064 46.2798 117.175C46.2798 118.287 45.8756 119.196 45.0672 119.803C44.2588 120.51 43.2483 120.813 41.9347 120.813H40.318V123.238H38.8022V113.538ZM40.318 119.398H42.0358C42.8442 119.398 43.4504 119.196 44.0567 118.792C44.562 118.388 44.8651 117.883 44.8651 117.074C44.8651 116.367 44.562 115.761 44.0567 115.457C43.5515 115.053 42.8441 114.851 42.1368 114.851H40.419V119.398H40.318Z" fill="white"/>
<path d="M51.8373 114.952V123.238H50.3216V114.952H47.4923V113.538H54.6667V114.952H51.8373Z" fill="white"/>
<path d="M58.3044 117.681H62.7505V119.095H58.3044V121.823H63.1547V123.238H56.8898V113.538H63.1547V114.952H58.3044V117.681Z" fill="white"/>
<path d="M71.7437 123.238L69.7227 120.106C69.4196 119.702 69.2175 119.398 69.0154 119.196C68.8133 119.095 68.5102 118.994 68.106 118.994H66.8934V123.238H65.3777V113.538H66.8934V117.579H68.0049C68.4091 117.579 68.7123 117.478 68.9143 117.377C69.1164 117.276 69.3185 116.973 69.6217 116.468L71.5416 113.538H73.2594L71.0363 116.973C70.5311 117.681 70.1269 118.085 69.8238 118.287C70.0259 118.388 70.228 118.489 70.4301 118.691C70.6322 118.893 70.8342 119.196 71.1374 119.701L73.4615 123.238H71.7437Z" fill="white"/>
<path d="M77.2003 121.116L76.2908 123.339H74.6741L78.716 113.639H79.6254L83.5663 123.339H81.9495L81.0401 121.116H77.2003ZM79.1202 116.266L77.7055 119.6H80.4338L79.1202 116.266Z" fill="white"/>
<path d="M69.0541 49.3609C69.0541 49.3609 69.3033 13.5888 41.8823 20.1948C14.4612 13.5888 14.7105 49.3609 14.7105 49.3609C10.2234 46.6187 8.72767 51.9783 9.35088 61.0771C9.47552 63.57 10.348 67.5585 13.0901 68.5556C14.2119 68.9295 15.3337 68.6803 16.2062 68.431C17.4526 72.1702 19.0729 77.1559 21.3164 83.2633C23.4353 89.1214 24.1832 90.6171 25.4296 92.1128C26.9253 93.8578 31.2877 97.971 41.8823 97.971C51.1057 97.8463 55.2189 94.3564 56.8392 92.6114C58.5842 90.7418 59.5813 88.1243 61.5756 82.7647C63.4452 77.9037 65.5641 72.0456 67.0598 68.3063C67.9323 68.6803 69.3033 69.1788 70.6744 68.6803C73.4165 67.6831 74.1643 63.8192 74.4136 61.2018C75.0368 51.9783 73.5411 46.6187 69.0541 49.3609Z" fill="white"/>
<path d="M41.633 98.2202C32.1603 98.2202 27.4239 94.9796 25.0557 92.2375C23.6846 90.7418 23.0614 89.1214 20.8179 83.2633C19.0729 78.4023 17.3279 73.5413 15.8322 68.8049C14.7105 69.1788 13.7133 69.1788 12.8409 68.8049C9.72482 67.6831 9.10162 62.9468 8.85233 61.0771C8.47841 56.2161 8.60305 50.2333 11.2205 48.613C12.093 48.1144 13.0901 48.1144 14.2119 48.7376C14.3366 45.497 15.209 29.9168 24.1832 22.6876C28.6703 19.073 34.6531 18.0759 41.7576 19.8209C48.8622 18.0759 54.7203 19.073 59.3321 22.6876C68.3062 29.7922 69.1787 45.3723 69.3034 48.7376C70.4251 48.1144 71.5469 48.1144 72.2948 48.613C74.7876 50.1087 74.9122 56.2161 74.6629 61.0771C74.5383 63.0714 73.9151 67.6831 70.6744 68.8049C69.6773 69.1788 68.4309 69.0542 67.0598 68.5556C65.6888 72.2949 63.5699 77.9037 61.7002 82.6401C59.706 87.875 58.7089 90.7418 56.8392 92.6114C53.5986 96.1013 48.3636 97.971 41.633 98.0956C41.8823 98.2202 41.7576 98.2202 41.633 98.2202ZM16.4555 67.9324L16.5801 68.3063C18.2004 73.1673 19.9454 78.153 21.6904 83.1386C23.8093 88.9968 24.5571 90.4925 25.8035 91.9882C28.0471 94.6057 32.6588 97.7217 42.0069 97.7217C48.4883 97.597 53.5986 95.8521 56.7146 92.4867C58.3349 90.7418 59.3321 88.2489 61.451 82.7647C63.3206 77.9037 65.4395 72.0456 66.9352 68.3063L67.0598 67.9324L67.4337 68.057C68.6802 68.6803 69.8019 68.8049 70.7991 68.431C73.5412 67.4338 74.1644 63.0714 74.289 61.3264C74.7876 54.8451 74.0397 50.6073 72.2948 49.6101C71.5469 49.1116 70.6744 49.3609 69.428 49.9841L68.9294 50.358V49.7348C68.9294 49.6101 68.9294 31.4125 59.2074 23.6847C54.845 20.1948 49.1115 19.3223 42.2562 20.9426H42.1316L41.7576 20.5687C34.9024 18.9484 29.1689 19.8209 24.8064 23.3108C15.0844 31.0386 15.0844 49.2362 15.0844 49.3609V49.9841L14.5858 49.6101C13.4641 48.8623 12.4669 48.7376 11.7191 49.2362C9.97411 50.2333 9.3509 54.4712 9.72482 60.9525C9.84947 62.3236 10.348 67.0599 13.2148 68.057C14.0873 68.3063 14.9598 68.3063 16.0815 67.9324H16.4555Z" fill="#010202"/>
<path d="M51.7289 26.3022C51.7289 26.3022 51.7289 29.4182 49.1114 30.0414C46.4939 30.6646 43.6272 29.1689 43.6272 29.1689C43.6272 29.1689 41.0097 31.4125 38.2676 31.6618C35.5255 31.7864 32.6588 30.7893 31.7863 28.1718C31.7863 28.1718 29.9167 30.6646 28.2963 30.4154C26.8006 30.0414 25.6788 28.0472 25.6788 28.0472C25.6788 28.0472 24.1832 28.5457 22.8121 28.795C21.3164 29.0443 20.4439 26.9254 20.4439 26.9254C20.4439 26.9254 19.3221 32.1603 19.1975 35.0271C19.0729 37.8938 18.5743 43.0041 17.4525 43.6273C16.3308 44.2505 14.5858 46.1202 14.8351 49.6101C15.209 53.1001 14.8351 59.5814 14.8351 59.5814C14.8351 59.5814 13.9626 59.2075 13.464 54.7204C12.9654 50.2333 13.3394 42.5056 13.464 39.0156C13.5886 35.5257 16.7047 26.1776 16.7047 26.1776C16.7047 26.1776 15.7075 20.0701 19.5714 12.467C19.5714 12.467 20.07 16.2063 20.6932 17.328C20.6932 17.328 21.6903 12.2177 22.8121 10.5974C22.8121 10.5974 24.8064 12.0931 26.1774 14.3366C26.1774 14.3366 26.1774 11.4699 26.1774 9.47562C26.1774 9.47562 29.1688 10.722 31.4123 12.7163C31.4123 12.7163 31.2877 9.84954 29.6674 8.47849C29.6674 8.47849 32.6588 7.35672 37.3951 10.722C37.3951 10.722 35.4009 8.22921 34.1545 7.35672C34.1545 7.35672 42.0069 7.97992 47.4911 10.722C47.4911 10.722 46.8679 7.48136 45.7461 7.35672C45.7461 7.35672 62.9466 10.5974 63.8191 21.3165C63.8191 21.3165 70.3004 26.6761 70.9236 37.0213C71.5468 47.2419 71.4222 57.7118 69.1787 59.5814C69.1787 59.5814 69.3033 50.2333 69.054 47.9898C68.6801 45.6216 65.6887 44.4998 65.3148 41.0099C64.9409 37.6446 66.1873 28.795 62.448 25.3051C62.448 25.3051 59.8306 25.0558 59.332 26.4268C58.5842 27.9225 55.0942 31.0386 51.7289 26.3022Z" fill="url(#paint0_linear)"/>
<path d="M68.4309 60.454V59.7061C68.4309 59.5815 68.5555 50.358 68.3062 48.1145C68.1816 47.242 67.5584 46.4941 66.8105 45.6216C65.8134 44.4999 64.8163 43.2535 64.567 41.2592C64.4423 40.5113 64.4423 39.3896 64.567 38.1432C64.567 34.03 64.6916 28.5458 61.9495 25.9283C61.2017 25.9283 59.5813 25.9283 59.332 26.8008C59.0828 27.6733 57.8363 29.0443 56.0914 29.2936C55.0942 29.4183 53.4739 29.169 51.9782 27.2994C51.7289 28.2965 51.1057 29.9168 49.2361 30.4154C46.9926 30.914 44.4997 29.9168 43.7519 29.5429C43.1287 30.0415 40.8851 31.7865 38.3923 31.9111C36.0241 32.0357 32.9081 31.2879 31.7863 28.6704C31.1631 29.4183 29.6674 30.7893 28.2964 30.6647C26.8007 30.54 25.8035 29.169 25.4296 28.5458C24.931 28.6704 23.8093 29.0443 22.8121 29.2936C21.815 29.5429 20.9425 28.7951 20.444 28.0472C20.07 29.6676 19.4468 33.0329 19.3222 35.2764C19.0729 39.0156 18.5743 43.5027 17.3279 44.1259C16.0815 44.8738 14.7105 46.7434 14.9597 49.7348C15.3337 53.2248 14.9597 59.7061 14.9597 59.7061V60.2047L14.4612 60.08C14.2119 59.9554 13.3394 59.3322 12.8408 54.9697C12.3423 50.2334 12.7162 41.8824 12.8408 39.2649C12.9655 35.8996 15.7076 27.2994 16.0815 26.3022C15.9569 25.4297 15.3337 19.6962 19.0729 12.4671L19.5715 11.4699L19.6961 12.5917C19.6961 12.5917 19.9454 14.7106 20.3193 16.2063C20.6932 14.586 21.4411 11.8438 22.1889 10.5974L22.4382 10.2235L22.6875 10.4728C22.8121 10.4728 24.1832 11.5946 25.4296 13.3395V9.10174L25.9282 9.35102C26.0528 9.35102 28.421 10.4728 30.5399 12.0931C30.4153 11.2206 29.9167 9.72494 29.0442 8.9771L28.5456 8.60317L29.1688 8.35389C29.2935 8.35389 31.537 7.60604 35.1516 9.47566C34.6531 8.85245 34.0299 8.35389 33.5313 7.97997L32.5342 7.23212L33.7806 7.35676C33.9052 7.35676 41.1344 7.97997 46.6186 10.4728C46.3694 9.47566 45.8708 8.22925 45.3722 8.10461C45.3722 8.10461 45.3722 8.10461 45.2476 8.10461L45.3722 7.35676C45.3722 7.35676 45.3722 7.35676 45.4969 7.35676C46.8679 7.60604 62.822 10.9714 63.8191 21.4412C64.6916 22.1891 70.3005 27.6733 70.9237 37.2707C71.4223 44.8738 71.7962 57.8365 69.0541 60.08L68.4309 60.454ZM61.5756 25.0558C61.9495 25.0558 62.1988 25.0558 62.1988 25.0558H62.3234L62.4481 25.1805C65.4395 27.9226 65.4395 33.6561 65.3148 38.0185C65.3148 39.2649 65.3148 40.3867 65.3148 41.1346C65.4395 42.8795 66.4366 44.0013 67.3091 45.1231C68.0569 45.9956 68.8048 46.868 68.9294 47.9898C69.1787 49.8594 69.1787 55.9669 69.0541 58.5843C70.4251 55.8422 70.799 48.1145 70.0512 37.146C69.428 27.1747 63.1959 21.8152 63.0713 21.6905L62.9466 21.5659V21.4412C62.3234 12.841 50.4825 9.10174 46.494 8.10461C46.9926 9.10174 47.3665 10.3481 47.3665 10.7221L47.4911 11.4699L46.8679 11.096C42.7547 8.9771 37.1459 8.10461 34.7777 7.85532C35.8995 8.97709 37.1459 10.4728 37.1459 10.4728L38.7662 12.4671L36.6473 10.9714C33.4067 8.60317 31.0385 8.47853 29.9167 8.60317C31.1631 10.0989 31.2877 12.5917 31.2877 12.7163V13.5888L30.6645 12.9656C29.0442 11.4699 27.0499 10.4728 26.0528 9.97423V15.5831L25.4296 14.586C24.4325 12.9656 23.0614 11.7192 22.4382 11.2206C21.4411 13.0903 20.5686 17.4527 20.5686 17.4527L20.3193 18.4498L19.8208 17.5773C19.3222 16.7049 19.0729 14.9599 18.8236 13.7135C15.5829 20.5687 16.4554 26.053 16.4554 26.053V26.1776V26.3022C16.4554 26.4269 13.464 35.6503 13.2148 39.1403C13.0901 41.8824 12.7162 50.1087 13.2148 54.8451C13.464 56.8394 13.7133 57.9611 13.9626 58.5843C14.0872 56.5901 14.2119 52.3523 13.9626 49.8594C13.5887 45.497 16.2062 43.8767 16.7047 43.5027C17.3279 43.1288 17.9511 40.5113 18.325 35.1518C18.4497 32.285 19.5715 27.1747 19.5715 26.9254L19.8208 25.8037L20.3193 26.8008C20.3193 26.8008 21.1918 28.6704 22.3136 28.4211C23.6846 28.1719 25.1803 27.6733 25.1803 27.6733L25.4296 27.5486L25.5542 27.7979C25.5542 27.7979 26.5514 29.6676 28.0471 29.7922C29.1688 29.9168 30.7892 28.2965 31.2877 27.6733L31.6617 27.1747L31.911 27.7979C32.7834 30.4154 35.6502 31.1632 38.0184 31.0386C40.6358 30.914 43.1287 28.6704 43.1287 28.6704L43.378 28.5458L43.6272 28.6704C43.6272 28.6704 46.494 30.1661 48.8622 29.5429C51.1057 29.0443 51.1057 26.3022 51.1057 26.1776V25.0558L51.7289 25.9283C52.9753 27.6733 54.3464 28.5458 55.7174 28.2965C57.0885 28.0472 58.0856 26.9254 58.3349 26.3022C59.0828 25.3051 60.5785 25.0558 61.5756 25.0558Z" fill="#11CFE7"/>
<path d="M51.7289 30.9139C51.7289 30.9139 51.7289 34.0299 49.2361 34.6531C46.7433 35.2764 44.0012 33.7807 44.0012 33.7807C44.0012 33.7807 41.5083 36.0242 38.8909 36.2735C36.2734 36.3981 33.5313 35.401 32.6588 32.7835C32.6588 32.7835 30.7892 35.2764 29.2935 35.0271C27.6732 34.9024 26.676 32.9082 26.676 32.9082C26.676 32.9082 25.305 33.4067 23.9339 33.656C22.5629 33.9053 21.5657 31.7864 21.5657 31.7864C21.5657 31.7864 20.444 37.0213 20.3193 39.8881C20.1947 42.7548 19.6961 47.8651 18.5743 48.4883C17.4526 49.1115 15.8322 50.9812 16.0815 54.4711C16.3308 57.9611 16.0815 64.4424 16.0815 64.4424C16.0815 64.4424 15.209 64.0685 14.7105 59.5814C14.2119 55.0943 14.5858 47.3666 14.7105 43.8766C14.8351 40.3866 17.8265 31.0385 17.8265 31.0385C17.8265 31.0385 16.954 24.9311 20.5686 17.328C20.5686 17.328 21.0672 21.0672 21.6904 22.189C21.6904 22.189 22.5629 17.0787 23.6846 15.4584C23.6846 15.4584 25.5543 16.9541 26.9253 19.1976C26.9253 19.1976 26.9253 16.3309 26.9253 14.3366C26.9253 14.3366 29.7921 15.583 31.911 17.5773C31.911 17.5773 31.7863 14.7105 30.166 13.3395C30.166 13.3395 33.0327 12.2177 37.5198 15.583C37.5198 15.583 35.6502 13.0902 34.4038 12.2177C34.4038 12.2177 42.0069 12.8409 47.2418 15.583C47.2418 15.583 46.6186 12.3424 45.4969 12.2177C45.4969 12.2177 62.0742 15.4584 62.822 26.1775C62.822 26.1775 69.0541 31.5371 69.6773 41.8823C70.3005 52.2276 70.1758 62.5728 67.9323 64.4424C67.9323 64.4424 68.0569 55.0943 67.8077 52.8508C67.5584 50.4826 64.567 49.3608 64.1931 45.8709C63.9438 42.5056 65.0656 33.656 61.451 30.1661C61.451 30.1661 58.9581 29.9168 58.4596 31.2878C58.2103 32.6589 54.9696 35.6503 51.7289 30.9139Z" fill="url(#paint1_linear)"/>
<path d="M67.8077 51.2305C67.8077 51.1059 67.8077 50.9812 67.683 50.8566C67.3091 49.8594 65.6888 49.9841 64.0684 49.4855C61.5756 48.8623 59.9553 48.613 59.9553 48.613C55.2189 47.8652 48.8622 47.3666 42.1316 47.242C39.3895 47.242 36.6474 47.242 34.1545 47.3666C33.1574 47.3666 32.2849 47.4913 31.4124 47.4913C30.5399 47.4913 29.6674 47.6159 28.795 47.7405C27.1746 47.8652 25.6789 48.1145 24.3079 48.2391C23.9339 48.3637 23.56 48.3637 22.9368 48.4884C21.5658 48.7377 16.3308 49.6102 16.4555 49.7348C16.4555 49.7348 16.4555 49.7348 16.7047 49.7348C16.5801 49.8594 16.5801 49.9841 16.4555 50.1087C16.3308 50.1087 16.3308 50.1087 16.2062 50.1087C16.2062 50.2334 16.2062 50.358 16.2062 50.4826L16.0815 50.6073C16.0815 50.9812 16.0815 51.2305 16.2062 51.6044C16.0815 52.3523 15.583 57.5872 16.3308 61.3264V61.4511C16.954 61.4511 17.5772 61.5757 18.0758 61.5757C18.3251 62.6975 18.4497 63.9439 18.699 65.0657C24.0586 64.941 29.2935 64.941 34.6531 64.8164C35.2763 61.7004 35.8995 59.8307 36.2734 58.709C36.5227 57.9611 36.8966 57.4626 37.3952 56.964C38.7663 55.7176 40.3866 55.4683 41.2591 55.4683H41.3837H41.5084C41.633 55.4683 41.8823 55.4683 42.0069 55.4683H42.1316C42.2562 55.4683 42.5055 55.4683 42.6301 55.4683H42.7548H42.8794H43.0041C43.5026 55.4683 44.2505 55.5929 44.9983 55.8422C45.4969 55.9669 46.3694 56.4654 47.1172 57.3379C47.2419 57.5872 47.3665 57.7118 47.4911 57.9611C47.9897 58.8336 48.1144 59.5815 48.239 59.9554C48.4883 60.9525 48.9868 62.6975 49.4854 64.8164C54.5957 64.941 59.5814 64.941 64.6917 65.0657C64.9409 63.8193 65.0656 62.5728 65.3149 61.3264C66.1874 61.3264 67.0598 61.2018 67.9323 61.2018C68.057 60.4539 68.1816 59.7061 68.3063 58.709C68.5555 57.2133 68.6802 55.3437 68.8048 52.9755C68.8048 52.7262 68.9295 52.4769 68.9295 52.2276C68.4309 51.9783 68.1816 51.6044 67.8077 51.2305Z" fill="url(#paint2_linear)"/>
<path d="M34.7769 45.1224C34.9016 45.7456 33.4059 49.2356 31.9102 48.8617C30.4145 48.6124 27.0492 46.1195 23.6839 46.3688C20.4432 46.4935 23.9331 43.5021 26.3013 43.5021C28.9188 43.3774 34.6523 44.2499 34.7769 45.1224Z" fill="url(#paint3_linear)"/>
<path d="M32.1604 49.1115C32.0357 49.1115 32.0357 49.1115 31.9111 49.1115C31.4125 48.9869 30.7893 48.7376 29.9168 48.3637C28.2965 47.6159 25.9283 46.4941 23.8094 46.6187C23.0615 46.6187 22.563 46.4941 22.3137 46.2448C22.1891 46.1202 22.1891 45.8709 22.3137 45.497C22.8123 44.6245 24.8065 43.3781 26.4269 43.3781C28.0472 43.3781 34.9025 44.0013 35.0271 45.2477C35.1517 45.7462 34.2793 47.8651 33.2821 48.8623C32.9082 48.9869 32.5343 49.1115 32.1604 49.1115ZM24.1833 46.1202C26.3022 46.1202 28.5458 47.1173 30.1661 47.8651C30.9139 48.2391 31.6618 48.4883 32.0357 48.613C32.285 48.613 32.6589 48.4883 32.9082 48.2391C33.9053 47.3666 34.5285 45.4969 34.5285 45.123C34.2793 44.4998 29.169 43.6273 26.4269 43.752C24.9312 43.752 23.1862 44.9984 22.8123 45.6216C22.8123 45.7462 22.6876 45.8709 22.8123 45.8709C22.8123 45.8709 23.0615 46.1202 23.8094 45.9955C23.934 46.1202 24.0587 46.1202 24.1833 46.1202Z" fill="#11CFE7"/>
<path d="M48.4882 45.123C48.3636 45.7462 49.8593 49.2361 51.355 48.8622C52.8507 48.6129 56.216 46.1201 59.5813 46.3694C62.9466 46.6187 59.332 43.5026 56.9638 43.5026C54.3464 43.378 48.6129 44.2505 48.4882 45.123Z" fill="url(#paint4_linear)"/>
<path d="M51.1057 49.1115C50.7318 49.1115 50.3579 48.9868 49.9839 48.6129C48.9868 47.6158 48.1143 45.6215 48.239 44.9983C48.3636 43.7519 55.2189 43.1287 56.8392 43.1287C58.4595 43.1287 60.4538 44.3751 60.9524 45.2476C61.2017 45.6215 61.077 45.8708 60.9524 45.9954C60.7031 46.3694 60.2045 46.494 59.4567 46.3694C57.3378 46.2447 54.9696 47.3665 53.3493 48.1143C52.4768 48.4883 51.8536 48.8622 51.355 48.8622C51.2303 49.1115 51.2304 49.1115 51.1057 49.1115ZM48.7375 45.123C48.7375 45.4969 49.3607 47.3665 50.3579 48.239C50.7318 48.6129 50.9811 48.7376 51.2304 48.6129C51.6043 48.4883 52.3521 48.239 53.1 47.8651C54.8449 47.1172 57.2131 45.9954 59.4567 46.1201C60.3292 46.1201 60.4538 45.9954 60.4538 45.9954C60.4538 45.8708 60.4538 45.7462 60.4538 45.7462C60.0799 44.9983 58.2103 43.8765 56.8392 43.8765C54.0971 43.6273 48.9868 44.4997 48.7375 45.123Z" fill="#11CFE7"/>
<path d="M53.474 27.4239C52.4768 24.9311 51.1058 22.3137 48.7376 21.0672C48.4883 20.9426 48.3637 21.1919 48.4883 21.4412C49.7347 23.6847 50.8565 26.3022 50.8565 28.9196C49.8594 27.4239 48.239 26.0529 47.1173 25.1804C44.0012 22.8122 40.5113 20.818 36.6474 19.9455C36.3981 19.9455 36.2735 20.1948 36.3981 20.3194C38.1431 21.5658 39.6388 23.0615 41.0098 24.8065C41.7577 25.8036 42.5055 26.8007 43.0041 27.9225C42.007 27.1747 41.0098 26.5515 40.0127 25.9283C38.7663 25.1804 37.5199 24.6818 36.3981 23.934C35.5256 23.4354 34.7778 22.9369 33.7806 22.9369C33.656 22.9369 33.5314 23.0615 33.5314 23.1861C34.1546 25.1804 36.0242 26.4268 37.0213 28.1718C35.1517 27.2993 33.2821 26.3022 31.7864 24.8065C32.5342 25.9283 33.2821 27.05 34.1546 28.1718C30.4153 25.8036 27.7979 22.3137 27.5486 17.7019C28.1718 19.1976 29.1689 20.3194 30.4153 21.4412C30.9139 21.9397 31.5371 22.3137 32.0357 22.6876C31.7864 22.4383 31.6617 22.0644 31.4125 21.8151C30.7893 20.818 30.1661 19.8208 29.9168 18.6991C30.1661 18.8237 30.4153 19.073 30.54 19.1976C31.2878 19.6962 32.1603 20.1948 33.0328 20.6933C33.2821 20.818 33.5314 20.9426 33.7806 21.0672C34.2792 21.3165 34.7778 21.5658 35.2764 21.8151H35.401C36.2735 22.189 37.146 22.6876 37.8938 23.1861C37.146 21.9397 36.2735 20.818 35.2764 19.6962C34.7778 19.1976 34.4039 18.6991 33.9053 18.2005C33.656 17.9512 33.4067 17.7019 33.1574 17.4526C32.285 16.8294 31.5371 16.0816 30.9139 15.0845C31.1632 15.2091 31.2878 15.3337 31.5371 15.583C33.4067 17.328 35.7749 18.3251 38.0185 19.3223C37.2706 18.6991 36.5228 18.0759 35.8996 17.328C34.9024 16.2062 34.0299 14.9598 33.1574 13.838C34.0299 14.8352 35.1517 15.7077 36.3981 16.3309C37.146 16.8294 38.0185 17.2034 38.8909 17.5773C39.7634 18.0758 40.6359 18.4498 41.5084 18.9483C43.752 20.0701 46.2448 21.1919 47.8651 23.0615C47.2419 20.5687 45.9955 18.0759 44.2505 16.0816V15.9569C43.8766 15.7077 43.5027 15.4584 43.1287 15.2091V15.0845C44.3752 15.4584 45.3723 16.2062 46.4941 16.9541C48.9869 18.4498 51.3551 20.818 52.8508 23.3108C54.2218 25.5543 54.7204 28.0472 54.4711 30.6646C54.3465 29.5428 53.8479 28.4211 53.474 27.4239Z" fill="url(#paint5_linear)"/>
<path d="M73.5413 48.4883H71.921V26.5515C71.921 20.3194 70.0514 14.3366 66.5614 9.97417C63.0715 5.48709 58.4597 3.1189 53.4741 3.1189H29.7922C24.8066 3.1189 20.1948 5.61173 16.7049 9.97417C13.2149 14.4613 11.3453 20.3194 11.3453 26.5515V48.4883H9.72498V26.5515C9.72498 19.6962 11.8439 13.3395 15.5831 8.47848C19.3224 3.61747 24.4327 1 29.7922 1H53.4741C58.8336 1 63.8193 3.61747 67.6832 8.47848C71.4224 13.3395 73.5413 19.6962 73.5413 26.5515V48.4883Z" fill="white" stroke="black" stroke-width="0.6"/>
<path d="M15.0844 38.7663C12.8408 39.0156 8.72766 39.8881 8.72766 43.6273C8.72766 48.7376 8.72766 54.2218 8.72766 54.2218C8.72766 54.2218 8.72766 59.7061 8.72766 64.8163C8.72766 68.5556 12.8408 69.4281 15.0844 69.6774C15.8322 69.802 16.4554 69.3034 16.4554 68.5556V54.0972V39.8881C16.5801 39.1402 15.8322 38.6417 15.0844 38.7663Z" fill="#010202"/>
<path d="M15.2091 69.802H15.0845C12.5917 69.5527 8.47852 68.5556 8.47852 64.6917V43.5027C8.47852 39.6388 12.5917 38.6417 15.0845 38.3924C15.5831 38.3924 15.957 38.517 16.3309 38.7663C16.5802 39.0156 16.7048 39.3895 16.7048 39.7635V68.431C16.7048 68.8049 16.5802 69.1788 16.3309 69.4281C16.0816 69.6774 15.7077 69.802 15.2091 69.802ZM15.2091 39.0156C12.9656 39.2649 9.10172 40.1374 9.10172 43.6273V64.8164C9.10172 68.3063 12.9656 69.1788 15.2091 69.4281C15.5831 69.4281 15.8324 69.3034 16.0816 69.1788C16.2063 69.0542 16.3309 68.8049 16.3309 68.5556V39.8881C16.3309 39.6388 16.2063 39.5142 16.0816 39.2649C15.8324 39.0156 15.4584 39.0156 15.2091 39.0156Z" fill="#010202"/>
<path d="M5.23779 45.9955C5.23779 48.9869 5.23779 54.0972 5.23779 54.0972C5.23779 54.0972 5.23779 59.2075 5.23779 62.1989C5.23779 65.1903 8.85239 65.0656 8.85239 65.0656V54.0972V43.1288C8.85239 43.1288 5.23779 43.0041 5.23779 45.9955Z" fill="url(#paint6_linear)"/>
<path d="M11.5946 68.6802C12.2178 68.9295 12.841 69.1788 13.4642 69.3034V39.0156C12.841 39.1402 12.2178 39.3895 11.5946 39.6388V68.6802Z" fill="#11CFE7"/>
<path d="M1 54.0972C1 59.8307 5.23781 60.08 5.23781 60.08V54.0972V48.1144C5.23781 48.2391 1 48.3637 1 54.0972Z" fill="#11CFE7"/>
<path d="M6.73348 43.6273C9.10167 46.6187 9.10167 61.825 7.10741 62.4482C6.35956 62.6975 5.86099 62.4482 5.36243 62.1989V62.3235C5.36243 65.3149 8.97703 65.1903 8.97703 65.1903V54.2219V43.2534C8.85239 43.1288 7.73061 43.1288 6.73348 43.6273Z" fill="url(#paint7_linear)"/>
<path d="M68.1816 38.7663C70.4251 39.0156 74.5383 39.8881 74.5383 43.6273C74.5383 48.7376 74.5383 54.2218 74.5383 54.2218C74.5383 54.2218 74.5383 59.7061 74.5383 64.8163C74.5383 68.5556 70.4251 69.4281 68.1816 69.6774C67.4338 69.802 66.8105 69.3034 66.8105 68.5556V54.0972V39.8881C66.8105 39.1402 67.4338 38.6417 68.1816 38.7663Z" fill="#010202"/>
<path d="M68.0571 69.802C67.6832 69.802 67.3092 69.6773 66.9353 69.4281C66.686 69.1788 66.5614 68.8049 66.5614 68.4309V39.7634C66.5614 39.3895 66.686 39.0156 66.9353 38.7663C67.3092 38.517 67.6832 38.2677 68.1817 38.3924C70.6746 38.6417 74.7877 39.6388 74.7877 43.5027V64.6917C74.7877 68.5556 70.6746 69.5527 68.1817 69.802C68.1817 69.802 68.1817 69.802 68.0571 69.802ZM68.0571 39.0156C67.8078 39.0156 67.5585 39.1402 67.3092 39.2649C67.1846 39.3895 67.06 39.6388 67.06 39.8881V68.5556C67.06 68.8048 67.1846 68.9295 67.3092 69.1788C67.5585 69.4281 67.8078 69.4281 68.1817 69.4281C70.4253 69.1788 74.2892 68.3063 74.2892 64.8163V43.6273C74.2892 40.1374 70.4253 39.2649 68.0571 39.0156C68.1817 39.0156 68.0571 39.0156 68.0571 39.0156Z" fill="#010202"/>
<path d="M78.0284 45.9955C78.0284 48.9869 78.0284 54.0972 78.0284 54.0972C78.0284 54.0972 78.0284 59.2075 78.0284 62.1989C78.0284 65.1903 74.4138 65.0656 74.4138 65.0656V54.0972V43.1288C74.5385 43.1288 78.0284 43.0041 78.0284 45.9955Z" fill="url(#paint8_linear)"/>
<path d="M71.7963 68.6802C71.173 68.9295 70.5498 69.1788 69.9266 69.3034V39.0156C70.5498 39.1402 71.173 39.3895 71.7963 39.6388V68.6802Z" fill="#11CFE7"/>
<path d="M82.2661 54.0972C82.2661 59.8307 78.0283 60.08 78.0283 60.08V54.0972V48.1144C78.0283 48.2391 82.2661 48.3637 82.2661 54.0972Z" fill="#11CFE7"/>
<path d="M76.6574 43.6273C74.2892 46.6187 74.2892 61.825 76.2834 62.4482C77.0313 62.6975 77.5299 62.4482 78.0284 62.1989V62.3235C78.0284 65.3149 74.4138 65.1903 74.4138 65.1903V54.2219V43.2534C74.5385 43.1288 75.6602 43.1288 76.6574 43.6273Z" fill="url(#paint9_linear)"/>
<path d="M61.2017 79.6487C60.8277 79.7733 53.8478 74.1644 51.4796 70.5498C48.9868 67.0599 45.2476 61.451 44.1258 60.2046C43.1287 59.0829 42.1315 58.8336 41.8823 58.7089C41.633 58.7089 40.7605 58.9582 39.6387 60.2046C38.3923 61.5757 34.7777 67.0599 32.2849 70.5498C29.7921 74.0398 22.8121 79.7733 22.5629 79.6487C22.1889 79.524 30.7892 97.7217 33.0327 99.0927C35.1516 100.464 37.2705 100.588 37.2705 100.588H41.8823H46.494C46.494 100.588 48.6129 100.464 50.7318 99.0927C52.9753 97.7217 61.5756 79.524 61.2017 79.6487Z" fill="#010202"/>
<path d="M71.671 73.7898L67.1839 72.9173C67.1839 72.9173 65.5636 72.9173 63.694 74.413C61.8243 75.9087 52.4762 85.3815 52.4762 85.3815C52.4762 85.3815 51.6038 86.8772 51.6038 88.9961C51.6038 91.115 51.6038 96.2252 51.6038 96.2252C51.6038 96.2252 51.853 97.8456 53.3487 98.4688C54.7198 99.092 58.2097 99.8398 58.2097 99.8398L69.6768 83.8858L71.671 73.7898Z" fill="#010202"/>
<path d="M58.4596 100.09H58.335C58.2104 100.09 54.8451 99.2173 53.3494 98.7187C51.8537 98.0955 51.4797 96.4752 51.4797 96.3505V89.1213C51.4797 87.0024 52.3522 85.5067 52.3522 85.3821C52.7261 85.0082 61.7003 75.9094 63.5699 74.4137C65.5642 72.918 67.1845 72.7933 67.1845 72.7933L71.9209 73.6658L69.9266 83.8864L58.4596 100.09ZM51.9783 96.1013C51.9783 96.2259 52.3522 97.597 53.474 98.0955C54.7204 98.5941 57.4625 99.3419 58.2104 99.4666L69.5527 83.6371L71.4223 74.0397L67.1845 73.2919C67.0599 73.2919 65.5642 73.4165 63.8192 74.7876C61.9496 76.2833 53.2247 85.1328 52.7261 85.6314C52.6015 85.8807 51.9783 87.2517 51.9783 88.9967V96.1013Z" fill="#010202"/>
<path d="M55.3437 101.461L54.3466 93.1099C54.3466 93.1099 53.7234 90.6171 56.3408 87.2517C58.9583 83.8864 65.9382 76.5326 69.5528 73.9151C73.1674 71.173 73.4167 71.173 74.9124 71.2976L78.4024 72.918C78.4024 72.918 79.1502 73.2919 79.3995 75.2862C79.6488 77.2804 77.2806 83.8864 75.6602 86.13C74.0399 88.3735 64.8165 101.087 63.8193 101.71C62.8222 102.333 60.2047 103.455 59.2076 103.33C58.2105 103.206 56.2162 102.209 56.2162 102.209C56.2162 102.209 55.4684 101.959 55.3437 101.461Z" fill="#010202"/>
<path d="M59.3321 103.704H59.2075C58.2104 103.58 56.2161 102.707 56.2161 102.583C56.0915 102.583 55.3436 102.209 55.219 101.586L54.2218 93.2346C54.2218 93.11 53.5986 90.6171 56.2161 87.1272C58.7089 83.8865 65.8135 76.408 69.5527 73.6659C73.292 70.9238 73.5412 70.7992 75.1616 70.9238L78.6515 72.5441C78.7762 72.5441 79.524 73.0427 79.7733 75.1616C80.0226 77.2805 77.5298 84.0111 76.0341 86.2547C73.5412 89.7446 65.1903 101.336 64.0685 101.959C62.9467 102.583 60.4539 103.704 59.3321 103.704ZM74.4137 71.4224C73.5412 71.4224 72.7934 71.7963 69.802 74.0398C66.1874 76.7819 59.0828 84.1358 56.59 87.3764C54.0972 90.6171 54.5958 92.9853 54.5958 93.1099L55.5929 101.461C55.5929 101.71 56.0914 101.959 56.3407 102.084C56.3407 102.084 58.2104 103.081 59.2075 103.081C60.2046 103.206 62.6974 102.084 63.6946 101.461C64.4424 101.087 70.1759 93.3592 75.5355 85.8808C77.1558 83.6372 79.3994 77.0312 79.2747 75.1616C79.0254 73.4166 78.4022 72.9181 78.4022 72.9181L75.0369 71.2977C74.7876 71.547 74.5384 71.4224 74.4137 71.4224Z" fill="#010202"/>
<path d="M77.2806 72.4195L74.9124 71.2977C73.4167 71.173 73.1674 71.2977 69.5528 73.9152C65.9382 76.6573 58.8337 83.8865 56.3408 87.2518C53.7234 90.6171 54.3466 93.1099 54.3466 93.1099L55.3437 101.461C55.3437 101.959 56.2162 102.333 56.2162 102.333C56.2162 102.333 57.0887 102.707 57.8365 103.081C57.9612 102.957 58.0858 102.832 58.2105 102.707L57.2133 94.481C57.2133 94.481 56.5901 91.9881 59.2076 88.6228C61.8251 85.2575 68.805 77.9037 72.4196 75.2862C75.6603 72.918 76.1588 72.5441 77.2806 72.6687C77.4052 72.5441 77.2806 72.4195 77.2806 72.4195Z" fill="url(#paint10_linear)"/>
<path d="M57.9611 103.331H57.8364C56.9639 102.957 56.2161 102.583 56.2161 102.583C56.0915 102.583 55.3436 102.209 55.219 101.586L54.2218 93.2346C54.2218 93.11 53.5986 90.6171 56.2161 87.1272C58.7089 83.8865 65.8135 76.408 69.5527 73.6659C73.292 70.9238 73.5412 70.7992 75.1616 70.9238L77.6544 72.0456V72.1702V72.2949L77.779 72.5441H77.4051C76.408 72.5441 75.7848 72.7934 72.6688 75.1616C69.0542 77.9037 61.9496 85.2575 59.4568 88.4982C56.9639 91.7389 57.4625 94.1071 57.4625 94.2317L58.4596 102.583L58.335 102.707C58.2104 102.832 58.0857 102.957 57.9611 102.957V103.331ZM74.4137 71.4224C73.5412 71.4224 72.7934 71.7963 69.802 74.0398C66.1874 76.7819 59.0828 84.1358 56.59 87.3764C54.0972 90.6171 54.5958 92.9853 54.5958 93.1099L55.5929 101.461C55.5929 101.71 56.0914 101.959 56.3407 102.084C56.3407 102.084 57.0886 102.458 57.8364 102.707L57.9611 102.583L56.9639 94.481C56.9639 94.3564 56.3407 91.8635 58.9582 88.3736C61.451 85.1329 68.5556 77.6544 72.2948 74.9123C74.7876 73.0427 75.7848 72.4195 76.6573 72.2949L74.9123 71.4224C74.7876 71.547 74.5384 71.4224 74.4137 71.4224Z" fill="#010202"/>
<path d="M59.9553 102.084L64.3178 102.209C64.3178 102.209 64.8163 102.458 67.5584 101.336C70.3005 100.214 78.1529 96.1013 80.8951 92.1128C83.6372 88.1243 81.5183 79.0254 81.1443 78.153C80.7704 77.2805 77.6544 74.0398 77.6544 74.0398C77.6544 74.0398 76.408 73.0427 74.0398 74.9123C71.6716 76.7819 65.4395 82.7647 62.3235 86.2546C59.2075 89.7446 58.4596 90.6171 58.2103 92.2374L58.8335 100.339C58.8335 100.464 58.7089 101.835 59.9553 102.084Z" fill="#11CFE7"/>
<path d="M64.5672 102.583C64.4425 102.583 64.3179 102.583 64.3179 102.583L59.9554 102.458C58.8337 102.209 58.5844 101.087 58.5844 100.464L57.9612 92.3621C58.2105 90.7417 59.083 89.62 62.199 86.2547C65.315 82.6401 71.5471 76.7819 73.9153 74.7877C76.4081 72.7934 77.9038 73.9152 77.9038 73.9152C78.2777 74.2891 81.1445 77.2805 81.3937 78.153C81.643 78.9008 84.0112 88.1243 81.1445 92.3621C78.527 96.226 70.9239 100.339 67.6832 101.71C65.8136 102.333 64.9411 102.583 64.5672 102.583ZM64.4425 101.959C64.5672 101.959 65.1904 102.084 67.4339 101.087C70.6746 99.7159 78.1531 95.7274 80.6459 91.9882C83.2634 87.9996 81.1445 79.0255 80.7705 78.2776C80.5213 77.6544 78.2777 75.1616 77.4052 74.2891C77.2806 74.1645 76.1588 73.5413 74.1645 75.1616C71.7964 77.0312 65.5643 83.014 62.4483 86.5039C59.3322 89.9939 58.5844 90.8664 58.4597 92.3621L59.083 100.464C59.083 100.464 58.9583 101.586 59.9554 101.835L64.4425 101.959Z" fill="#010202"/>
<path d="M80.7704 78.1529C80.7704 78.0283 80.895 77.9037 80.895 77.9037C80.1472 76.7819 77.6544 74.1644 77.6544 74.1644C77.6544 74.1644 76.408 73.1673 74.0398 75.0369C71.6716 76.9065 65.4395 82.8893 62.3235 86.3793C59.2075 89.8692 58.4596 90.7417 58.2103 92.3621L58.8335 100.464C58.8335 100.464 58.7089 101.835 59.9553 102.209L64.3178 102.333C64.3178 102.333 64.4424 102.458 65.0656 102.333C64.8163 102.084 64.6917 101.835 64.6917 101.835C64.6917 101.835 63.9438 93.4838 63.8192 92.4867C63.6945 91.4896 64.3178 90.8664 64.3178 90.8664C64.3178 90.8664 74.4137 80.5211 77.6544 79.1501C79.3994 78.2776 80.2718 78.1529 80.7704 78.1529Z" fill="url(#paint11_linear)"/>
<path d="M64.5672 102.583C64.4425 102.583 64.3179 102.583 64.3179 102.583L59.9554 102.458C58.8337 102.209 58.5844 101.087 58.5844 100.464L57.9612 92.3621C58.2105 90.7417 59.083 89.62 62.0743 86.2547C65.1904 82.6401 71.4224 76.7819 73.7906 74.7877C76.2834 72.7934 77.6545 73.9152 77.7791 73.9152C77.9038 74.0398 80.272 76.5326 81.1445 77.6544L81.2691 77.7791L81.1445 77.9037C81.1445 78.0283 81.0198 78.0283 81.0198 78.153L80.8952 78.2776H80.7705C80.3966 78.2776 79.6488 78.4023 77.6545 79.1501C74.5385 80.3965 64.5672 90.7417 64.4425 90.8664C64.4425 90.8664 63.944 91.365 64.0686 92.2374C64.1932 93.2346 64.9411 100.838 64.9411 101.586C64.9411 101.71 65.0657 101.835 65.1904 101.959L65.6889 102.333L65.1904 102.458C64.8165 102.458 64.6918 102.583 64.5672 102.583ZM64.4425 102.084C64.4425 102.084 64.4425 102.084 64.5672 102.084C64.4425 101.959 64.4425 101.959 64.4425 101.959C64.4425 101.835 63.6947 93.6085 63.57 92.6114C63.4454 91.4896 64.0686 90.8664 64.0686 90.8664C64.4425 90.4925 74.2892 80.3965 77.4052 79.0255C78.7763 78.4023 79.898 78.153 80.5212 78.0283C79.6488 76.9066 77.5299 74.663 77.4052 74.4137C77.2806 74.2891 76.1588 73.6659 74.0399 75.2862C71.6717 77.1558 65.4397 83.1386 62.3236 86.6286C59.2076 90.1185 58.4598 90.991 58.3351 92.4867L58.9583 100.588C58.9583 100.588 58.8337 101.835 59.8308 101.959L64.4425 102.084Z" fill="#010202"/>
<path d="M67.3092 91.7388L67.9324 96.5999C67.9324 96.5999 67.9324 98.0955 69.0542 97.9709C70.176 97.8463 77.9037 92.8606 78.7762 91.8635C79.6487 90.8664 79.6487 88.7475 79.5241 86.5039C79.3994 84.2604 79.5241 81.8922 77.7791 82.1415C76.1587 82.3907 71.4224 86.2546 69.6774 87.875C67.9324 89.3707 67.3092 90.3678 67.3092 91.7388Z" fill="white"/>
<path d="M68.8049 98.2202C68.431 98.2202 68.1817 98.0955 68.0571 97.9709C67.5585 97.597 67.5585 96.7245 67.5585 96.5998L66.9353 91.7388C66.9353 90.3678 67.5585 89.3706 69.4281 87.6257C71.0485 86.13 75.9095 82.0168 77.6545 81.7675C78.153 81.6429 78.5269 81.7675 78.7762 82.0168C79.5241 82.64 79.6487 84.385 79.6487 86.13V86.5039C79.7734 88.7474 79.6487 90.8663 78.7762 91.9881C77.9037 92.9852 70.176 98.0955 68.9296 98.2202C68.9296 98.2202 68.9296 98.2202 68.8049 98.2202ZM67.5585 91.7388L68.1817 96.5998C68.1817 96.7245 68.1817 97.3477 68.5556 97.597C68.6803 97.7216 68.8049 97.7216 69.0542 97.7216C70.0513 97.597 77.6545 92.736 78.5269 91.6142C79.2748 90.6171 79.2748 88.6228 79.2748 86.5039V86.13C79.2748 84.6343 79.1502 83.0139 78.5269 82.5154C78.4023 82.3907 78.153 82.2661 77.9037 82.3907C76.408 82.64 72.0456 86.13 69.9267 88.1242C68.1817 89.6199 67.5585 90.4924 67.5585 91.7388Z" fill="#010202"/>
<path d="M75.411 94.2317C75.6602 94.107 75.9095 93.8578 76.1588 93.7331L74.9124 83.5125C74.6631 83.6372 74.4138 83.8865 74.1646 84.0111L75.411 94.2317Z" fill="#010202"/>
<path d="M73.2919 95.6028C73.5412 95.4781 73.7905 95.3535 74.0398 95.1042L72.7934 85.1329C72.5441 85.3822 72.2948 85.5068 72.0455 85.7561L73.2919 95.6028Z" fill="#010202"/>
<path d="M74.2893 94.8549C74.5385 94.7302 74.7878 94.6056 75.0371 94.3563L73.7907 84.2604C73.5414 84.385 73.2921 84.6343 73.0428 84.7589L74.2893 94.8549Z" fill="#010202"/>
<path d="M76.5328 93.4839C76.7821 93.3592 77.0314 93.11 77.2806 92.9853L76.0342 82.8894C75.7849 83.014 75.5357 83.1387 75.2864 83.3879L76.5328 93.4839Z" fill="#010202"/>
<path d="M77.6546 92.6114C77.9039 92.3622 78.1532 92.2375 78.4025 92.1129L77.2807 82.2662C77.0314 82.3908 76.7821 82.5155 76.5328 82.6401L77.6546 92.6114Z" fill="#010202"/>
<path d="M68.8051 88.6228L69.9268 97.597C70.1761 97.4724 70.4254 97.3477 70.6747 97.2231L69.5529 87.9996C69.179 88.2489 69.0543 88.3736 68.8051 88.6228Z" fill="#010202"/>
<path d="M72.1702 96.3506C72.4195 96.226 72.6688 96.1013 72.9181 95.8521L71.7963 86.0054C71.547 86.2547 71.2977 86.3793 71.0485 86.6286L72.1702 96.3506Z" fill="#010202"/>
<path d="M77.7791 82.0168H77.6544L78.7762 91.6142C79.0255 91.2403 79.2747 90.6171 79.3994 89.9939L78.4023 82.0168C78.153 82.0168 78.0283 82.0168 77.7791 82.0168Z" fill="#010202"/>
<path d="M67.8079 89.9939L68.805 97.971C68.9296 97.971 68.9296 97.971 69.0543 97.971C69.1789 97.971 69.3036 97.8463 69.5528 97.8463L68.5557 89.1214C68.1818 89.3707 67.9325 89.7446 67.8079 89.9939Z" fill="#010202"/>
<path d="M71.0485 96.9738C71.2978 96.8492 71.5471 96.7245 71.7964 96.5999L70.6746 87.0025C70.4253 87.2518 70.176 87.3764 69.9268 87.6257L71.0485 96.9738Z" fill="#010202"/>
<path d="M11.9685 73.7905L16.4556 72.918C16.4556 72.918 18.0759 72.918 19.9456 74.4137C21.8152 75.9094 31.1633 85.3822 31.1633 85.3822C31.1633 85.3822 32.0358 86.8779 32.0358 88.9968C32.0358 91.1157 32.0358 96.2259 32.0358 96.2259C32.0358 96.2259 31.7865 97.8463 30.2908 98.4695C28.9197 99.0927 25.4298 99.8405 25.4298 99.8405L13.9628 83.8865L11.9685 73.7905Z" fill="#010202"/>
<path d="M25.305 99.9652L13.7134 83.7618L11.7191 73.5412L16.4555 72.6688C16.5801 72.6688 18.2005 72.6688 20.0701 74.2891C21.9397 75.7848 30.9139 84.8836 31.2878 85.2575C31.2878 85.3822 32.1603 86.7532 32.1603 88.9968V96.226C32.1603 96.3506 31.7864 97.9709 30.2907 98.5941C28.9196 99.2174 25.4297 99.9652 25.305 99.9652ZM14.2119 83.5126L25.5543 99.342C26.3021 99.2173 29.0443 98.4695 30.2907 97.9709C31.5371 97.4724 31.7864 96.226 31.7864 95.9767V88.8721C31.7864 87.0025 31.0385 85.6315 31.0385 85.5068C30.54 85.0082 21.6904 76.0341 19.9454 74.663C18.2005 73.292 16.8294 73.1673 16.5801 73.1673L12.3423 73.9152L14.2119 83.5126Z" fill="#010202"/>
<path d="M28.2964 101.336L29.2935 92.9852C29.2935 92.9852 29.9167 90.4924 27.2992 87.1271C24.6818 83.7618 17.7019 76.4079 14.0873 73.7905C10.4727 71.0484 10.2234 71.0484 8.72768 71.173L5.23773 72.7934C5.23773 72.7934 4.48988 73.1673 4.2406 75.1615C3.99132 77.1558 6.3595 83.7618 7.97984 86.0053C9.60017 88.2489 18.8236 100.962 19.8208 101.585C20.8179 102.209 23.4354 103.33 24.4325 103.206C25.4296 103.081 27.4239 102.084 27.4239 102.084C27.4239 102.084 28.2964 101.835 28.2964 101.336Z" fill="#010202" stroke="#010202" stroke-width="0.4052" stroke-miterlimit="10" stroke-linecap="round"/>
<path d="M26.5516 94.3563L25.5545 102.707V102.832C25.8038 102.707 26.053 102.707 26.3023 102.707C26.427 102.707 26.6763 102.583 26.8009 102.583C27.0502 102.583 27.1748 102.458 27.2995 102.333C27.4241 102.209 27.5487 102.209 27.5487 102.209C27.5487 102.209 28.2966 101.835 28.4212 101.336L29.4184 92.9852C29.4184 92.9852 30.0416 90.4924 27.4241 87.1271C24.8066 83.7618 17.8267 76.4079 14.2121 73.7905C10.5975 71.0484 10.3482 71.0484 8.85254 71.173L8.1047 71.5469C7.98005 71.6716 7.73077 71.7962 7.48149 71.9209C7.23221 72.1701 6.85828 72.2948 6.73364 72.5441C7.73077 72.5441 8.47862 73.0426 11.47 75.1615C15.0846 77.9037 22.1892 85.1328 24.682 88.4982C27.0502 91.8635 26.5516 94.3563 26.5516 94.3563Z" fill="url(#paint12_linear)"/>
<path d="M24.8066 103.455L25.1805 102.707L26.1776 94.3563C26.1776 94.3563 26.6762 91.8635 24.1834 88.7475C21.6905 85.5068 14.7106 78.153 10.9714 75.4108C7.98 73.1673 7.3568 72.7934 6.48431 72.7934H5.61182L6.35966 72.1702C6.60894 71.9209 6.85823 71.6716 7.23215 71.547C7.48143 71.4223 7.60608 71.2977 7.85536 71.173L8.72785 70.7991C10.3482 70.6745 10.7221 70.9238 14.3367 73.5412C18.0759 76.2833 25.1805 83.7618 27.6733 87.0025C30.2908 90.3678 29.7922 92.8606 29.7922 93.2346L28.7951 101.586C28.6705 102.209 27.9226 102.583 27.798 102.707C27.798 102.707 27.6733 102.707 27.5487 102.832C27.2994 102.957 27.1748 102.957 27.0501 103.081C26.9255 103.081 26.6762 103.206 26.5516 103.206C26.3023 103.206 26.053 103.33 25.8037 103.33L24.8066 103.455ZM26.8008 94.481L25.8037 102.458C25.9283 102.458 25.9284 102.458 26.053 102.458C26.1776 102.458 26.3023 102.333 26.5516 102.333C26.6762 102.333 26.9255 102.209 27.0501 102.209C27.1748 102.084 27.2994 102.084 27.2994 102.084C27.5487 101.959 27.9226 101.71 27.9226 101.461L28.9197 93.1099C28.9197 93.1099 29.4183 90.6171 26.9255 87.501C24.4327 84.2604 17.4527 76.9065 13.7135 74.1644C10.0989 71.547 9.84962 71.547 8.60321 71.547L8.10464 71.7962C7.98 71.9209 7.73072 72.0455 7.60608 72.1702L7.48144 72.2948C8.35392 72.5441 9.35105 73.2919 11.5946 74.9123C15.3338 77.6544 22.4384 85.1329 24.9312 88.3735C27.2994 91.6142 26.9255 94.107 26.8008 94.481Z" fill="#010202"/>
<path d="M23.8094 101.959L19.4469 102.084C19.4469 102.084 18.9484 102.333 16.2063 101.212C13.4641 100.09 5.61175 95.9766 2.86964 91.9881C0.127529 87.9996 2.24643 78.9008 2.62035 78.0283C2.99428 77.1558 6.11031 73.9151 6.11031 73.9151C6.11031 73.9151 7.35672 72.918 9.72491 74.7876C12.0931 76.6572 18.3252 82.64 21.4412 86.13C24.5572 89.6199 25.3051 90.4924 25.5544 92.1128L24.9312 100.214C24.9312 100.339 25.0558 101.71 23.8094 101.959Z" fill="#11CFE7"/>
<path d="M19.1977 102.458C18.8238 102.458 17.8267 102.333 16.0817 101.586C12.841 100.214 5.23788 96.1013 2.62042 92.2375C-0.246332 87.9996 2.12186 78.7762 2.37114 78.0283C2.74506 77.1559 5.61181 74.1645 5.86109 73.7905C5.86109 73.7905 7.35679 72.6688 9.84962 74.663C12.2178 76.5327 18.4499 82.5154 21.5659 86.13C24.6819 89.4953 25.5544 90.6171 25.8037 92.2375L25.1805 100.339C25.1805 100.962 25.0559 102.084 23.8094 102.333L19.447 102.458C19.447 102.458 19.3224 102.458 19.1977 102.458ZM6.35966 74.2891C5.48717 75.1616 3.24363 77.6544 2.99435 78.2776C2.74506 78.9008 0.501518 87.9997 3.11898 91.9882C5.61181 95.7274 13.0903 99.7159 16.331 101.087C18.5745 102.084 19.3224 101.959 19.3224 101.959L23.6848 101.835C24.6819 101.586 24.5573 100.464 24.5573 100.464L25.1805 92.3621C25.0558 90.8664 24.1834 89.9939 21.192 86.504C18.0759 83.014 11.8439 77.0312 9.47569 75.1616C7.48143 73.4166 6.35966 74.1645 6.35966 74.2891Z" fill="#010202"/>
<path d="M25.5545 92.2374C25.3052 90.6171 24.5573 89.7446 21.4413 86.2546C18.3253 82.7647 12.0932 76.7819 9.72502 74.9123C7.35684 73.0427 6.11043 74.0398 6.11043 74.0398C6.11043 74.0398 3.74224 76.5326 2.86975 77.779C2.86975 77.779 2.86975 77.779 2.86975 77.9037C2.99439 78.0283 3.11903 78.153 3.24367 78.153C3.74224 78.153 4.61473 78.4022 6.23507 79.0254C9.3511 80.3965 19.5717 90.7417 19.5717 90.7417C19.5717 90.7417 20.1949 91.3649 20.0702 92.3621C19.9456 93.3592 19.1978 101.71 19.1978 101.71C19.1978 101.71 19.0731 101.835 18.9485 102.084C19.0731 102.209 19.0731 102.209 19.1978 102.333C19.447 102.333 19.5717 102.333 19.5717 102.333L23.9341 102.209C25.1805 101.959 25.0559 100.464 25.0559 100.464L25.5545 92.2374Z" fill="url(#paint13_linear)"/>
<path d="M19.1978 102.583C19.0731 102.583 19.0731 102.583 18.9485 102.583H18.8239L18.6992 102.458C18.5746 102.333 18.5746 102.333 18.4499 102.333L18.2007 102.084L18.4499 101.835C18.5746 101.71 18.5746 101.71 18.5746 101.71C18.6992 100.838 19.3224 93.3592 19.4471 92.4867C19.5717 91.7388 19.0731 91.1156 19.0731 91.1156C18.9485 90.991 8.9772 80.7704 5.86117 79.3993C4.24083 78.7761 3.49298 78.5269 2.99442 78.5269H2.86977L2.74513 78.4022C2.62049 78.2776 2.62049 78.2776 2.49585 78.1529L2.62049 77.9036V77.5297L2.74513 77.4051C3.61762 76.1587 5.86116 73.7905 5.98581 73.6658C5.98581 73.6658 7.4815 72.5441 10.099 74.5383C12.4672 76.408 18.6992 82.3907 21.8153 86.0053C24.9313 89.4953 25.8038 90.4924 26.0531 92.2374L25.4299 100.339C25.4299 100.962 25.1806 102.084 24.0588 102.333H23.9342L19.5717 102.458C19.4471 102.458 19.3224 102.583 19.1978 102.583ZM3.36834 77.779C3.99155 77.9037 4.98868 78.1529 6.23509 78.6515C9.47576 80.0226 19.1978 89.9939 19.6964 90.4924C19.6964 90.4924 20.3196 91.2403 20.1949 92.362C20.0703 93.3592 19.3224 101.585 19.3224 101.71V101.835L23.6849 101.71C24.5574 101.461 24.5574 100.464 24.5574 100.339L25.1806 92.362C25.0559 90.991 24.3081 90.1185 21.192 86.6285C18.076 83.1386 11.8439 77.1558 9.47576 75.2862C7.4815 73.6658 6.35973 74.289 6.23509 74.4137C6.11045 74.5383 4.24083 76.5326 3.36834 77.779C3.36834 77.6544 3.36834 77.6544 3.36834 77.779Z" fill="#010202"/>
<path d="M16.4555 91.6143L15.8323 96.4753C15.8323 96.4753 15.8323 97.971 14.7105 97.8463C13.5887 97.7217 5.86097 92.736 4.98849 91.7389C4.116 90.7418 4.116 88.6229 4.24064 86.3793C4.36528 84.1358 4.24064 81.7676 5.98562 82.0169C7.60595 82.2662 12.3423 86.1301 14.0873 87.7504C15.8323 89.3707 16.4555 90.2432 16.4555 91.6143Z" fill="white"/>
<path d="M14.9598 98.0956C14.8351 98.0956 14.8351 98.0956 14.7105 98.0956C13.4641 97.8463 5.73631 92.8607 4.86382 91.8636C3.99133 90.7418 3.99133 88.6229 3.99133 86.3794V86.0054C3.99133 84.2605 4.11598 82.6401 4.86382 81.8923C5.11311 81.643 5.48703 81.5183 5.98559 81.643C7.73057 81.8923 12.7162 86.0054 14.2119 87.5011C16.0815 89.2461 16.7047 90.2432 16.7047 91.6143L16.0815 96.4753C16.0815 96.5999 16.0815 97.3478 15.583 97.8464C15.4583 97.971 15.209 98.0956 14.9598 98.0956ZM5.73631 82.1416C5.48703 82.1416 5.36239 82.1415 5.23775 82.2662C4.61454 82.7648 4.61454 84.3851 4.4899 85.8808V86.2547C4.36525 88.3736 4.36526 90.4925 5.23775 91.365C6.11023 92.3621 13.7134 97.2231 14.7105 97.4724C14.9598 97.4724 15.0844 97.4724 15.2091 97.3478C15.4583 97.0985 15.583 96.5999 15.583 96.3507L16.2062 91.4896C16.2062 90.2432 15.7076 89.3707 13.9626 87.7504C11.8437 85.7561 7.48129 82.2662 5.98559 82.0169C5.86095 82.1416 5.86095 82.1416 5.73631 82.1416Z" fill="#010202"/>
<path d="M8.22905 94.1071C7.97976 93.9824 7.73048 93.7331 7.4812 93.6085L8.72761 83.3879C8.9769 83.5126 9.22618 83.7618 9.47546 83.8865L8.22905 94.1071Z" fill="#010202"/>
<path d="M10.4727 95.478C10.2234 95.3534 9.97414 95.2288 9.72485 94.9795L10.9713 85.0082C11.2205 85.2575 11.4698 85.3821 11.7191 85.6314L10.4727 95.478Z" fill="#010202"/>
<path d="M9.35087 94.8548C9.10159 94.7302 8.85231 94.6055 8.60303 94.3563L9.84944 84.2603C10.0987 84.385 10.348 84.6342 10.5973 84.7589L9.35087 94.8548Z" fill="#010202"/>
<path d="M7.10735 93.3592C6.85807 93.2345 6.60878 92.9853 6.3595 92.8606L7.60591 82.7647C7.85519 82.8893 8.10448 83.014 8.35376 83.2632L7.10735 93.3592Z" fill="#010202"/>
<path d="M5.98552 92.4867C5.73623 92.2374 5.48695 92.1128 5.23767 91.9881L6.35944 82.1414C6.60872 82.2661 6.85801 82.3907 7.10729 82.5154L5.98552 92.4867Z" fill="#010202"/>
<path d="M14.9597 88.4981L13.8379 97.4723C13.5887 97.3477 13.3394 97.223 13.0901 97.0984L14.2119 87.8749C14.4611 88.1242 14.7104 88.3735 14.9597 88.4981Z" fill="#010202"/>
<path d="M11.5944 96.2259C11.3451 96.1013 11.0958 95.9767 10.8466 95.7274L11.9683 85.8807C12.2176 86.13 12.4669 86.2546 12.7162 86.5039L11.5944 96.2259Z" fill="#010202"/>
<path d="M5.98557 81.8922H6.11021L4.98844 91.4895C4.73916 91.1156 4.48988 90.4924 4.36523 89.8692L5.36236 81.8922C5.487 81.8922 5.73629 81.8922 5.98557 81.8922Z" fill="#010202"/>
<path d="M15.9568 89.8692L14.9596 97.8462C14.835 97.8462 14.835 97.8462 14.7104 97.8462C14.5857 97.8462 14.4611 97.7216 14.2118 97.7216L15.2089 88.9967C15.5828 89.246 15.8321 89.6199 15.9568 89.8692Z" fill="#010202"/>
<path d="M12.7162 96.8491C12.467 96.7245 12.2177 96.5998 11.9684 96.4752L13.0902 86.8778C13.3394 87.1271 13.5887 87.2517 13.838 87.501L12.7162 96.8491Z" fill="#010202"/>
<path d="M47.6159 74.663C47.6159 74.663 47.3666 72.6687 45.7463 69.802C45.1231 68.5556 42.7549 63.9438 42.7549 63.9438H41.7578H40.636C40.636 63.9438 38.2678 68.5556 37.6446 69.802C36.1489 72.6687 35.775 74.663 35.775 74.663C35.775 74.663 34.6532 89.7446 34.7779 93.2346C35.0271 96.7245 38.2678 98.0956 38.2678 98.0956L41.6331 98.4695L44.9984 98.0956C44.9984 98.0956 48.2391 96.7245 48.4884 93.2346C48.7377 89.7446 47.6159 74.663 47.6159 74.663Z" fill="url(#paint14_linear)"/>
<path d="M48.3636 97.3477C48.3636 98.2202 47.7404 98.8434 46.8679 98.8434H36.5227C35.6502 98.8434 35.027 98.2202 35.027 97.3477V88.4982C35.027 87.6257 35.6502 87.0025 36.5227 87.0025H46.8679C47.7404 87.0025 48.3636 87.6257 48.3636 88.4982V97.3477Z" fill="#11CFE7"/>
<path d="M46.8679 99.0927H36.5227C35.5256 99.0927 34.7777 98.3448 34.7777 97.3477V88.4982C34.7777 87.5011 35.5256 86.7532 36.5227 86.7532H46.8679C47.865 86.7532 48.6129 87.5011 48.6129 88.4982V97.3477C48.7375 98.3448 47.865 99.0927 46.8679 99.0927ZM36.6473 87.1271C36.0241 87.1271 35.4009 87.6257 35.4009 88.3735V97.2231C35.4009 97.8463 35.8995 98.4695 36.6473 98.4695H46.9926C47.6158 98.4695 48.239 97.9709 48.239 97.2231V88.3735C48.239 87.7503 47.7404 87.1271 46.9926 87.1271H36.6473Z" fill="#010202"/>
<path d="M41.7578 99.0928C44.8555 99.0928 47.3666 96.5816 47.3666 93.4839C47.3666 90.3862 44.8555 87.8751 41.7578 87.8751C38.6601 87.8751 36.1489 90.3862 36.1489 93.4839C36.1489 96.5816 38.6601 99.0928 41.7578 99.0928Z" fill="#010202"/>
<path d="M41.7578 99.3419C38.5171 99.3419 35.8997 96.7245 35.8997 93.4838C35.8997 90.2431 38.5171 87.6257 41.7578 87.6257C44.9985 87.6257 47.6159 90.2431 47.6159 93.4838C47.6159 96.7245 44.9985 99.3419 41.7578 99.3419ZM41.7578 88.1242C38.7664 88.1242 36.3982 90.4924 36.3982 93.4838C36.3982 96.4752 38.7664 98.8434 41.7578 98.8434C44.7492 98.8434 47.1174 96.4752 47.1174 93.4838C47.1174 90.4924 44.7492 88.1242 41.7578 88.1242Z" fill="#010202"/>
<path d="M38.517 90.2432C39.3895 89.3707 40.5113 88.8721 41.7577 88.8721C43.1287 88.8721 44.3751 89.4953 45.2476 90.4924L45.6215 90.1185C44.6244 88.9967 43.2534 88.3735 41.7577 88.3735C40.262 88.3735 39.0156 88.9967 38.0184 89.9939L38.517 90.2432Z" fill="url(#paint15_linear)"/>
<path d="M45.9954 90.6171L45.6215 90.991C46.12 91.7388 46.3693 92.6113 46.3693 93.4838C46.3693 94.6056 45.8708 95.7274 45.2476 96.4752L45.6215 96.8491C46.494 95.9766 46.8679 94.7302 46.8679 93.4838C46.8679 92.362 46.494 91.3649 45.9954 90.6171Z" fill="url(#paint16_linear)"/>
<path d="M38.143 97.0984L38.517 96.7245C37.6445 95.852 37.1459 94.7302 37.1459 93.4838C37.1459 92.4867 37.5198 91.4896 38.0184 90.7417L37.6445 90.3678C37.0213 91.2403 36.5227 92.3621 36.5227 93.4838C36.6473 94.8549 37.1459 96.2259 38.143 97.0984Z" fill="url(#paint17_linear)"/>
<path d="M44.7491 96.8492C44.0013 97.597 42.8795 97.9709 41.7578 97.9709C40.7606 97.9709 39.7635 97.597 39.0157 97.0984L38.6417 97.4724C39.5142 98.2202 40.636 98.5941 41.7578 98.5941C43.1288 98.5941 44.2506 98.0956 45.1231 97.3477L44.7491 96.8492Z" fill="url(#paint18_linear)"/>
<path d="M40.6359 70.7991L35.7749 85.3822H48.1144L43.1287 70.7991H40.6359Z" fill="url(#paint19_linear)"/>
<path d="M26.4267 78.5268L30.7891 83.7618C30.7891 83.7618 32.2848 85.5067 32.2848 87.7503C32.2848 89.9938 32.2848 95.3534 32.2848 95.3534C32.2848 95.3534 32.0356 97.0984 30.6645 97.7216C29.2935 98.3448 28.7949 98.2202 28.7949 98.2202L28.5456 100.464C28.5456 100.464 29.2935 100.713 30.6645 100.339C32.1602 99.9651 33.9052 97.8462 34.2791 96.5998L34.5284 83.3878C34.5284 83.3878 34.9023 81.5182 33.9052 80.3965C32.908 79.2747 29.5427 75.6601 29.5427 75.6601C29.5427 75.6601 28.9195 75.0369 28.2963 75.4108C27.5485 75.7847 26.0528 77.1558 26.0528 77.1558C26.0528 77.1558 25.8035 77.9036 26.4267 78.5268Z" fill="#11CFE7"/>
<path d="M29.4182 100.838C28.9196 100.838 28.795 100.838 28.795 100.713H28.5457L28.795 97.9709H29.0442C29.0442 97.9709 29.5428 97.9709 30.6646 97.4723C31.7864 96.9738 32.0356 95.4781 32.0356 95.3534C32.0356 94.9795 32.0356 89.9939 32.0356 87.7503C32.0356 85.6314 30.5399 83.8864 30.5399 83.8864L26.1775 78.6515C25.6789 78.0283 25.9282 77.1558 26.1775 76.9065C26.3021 76.9065 27.7978 75.5355 28.421 75.1615C29.1689 74.7876 29.7921 75.1615 30.0414 75.4108C30.0414 75.4108 33.282 79.0254 34.4038 80.1472C35.5256 81.3936 35.1517 83.1386 35.1517 83.3879L34.7777 96.5999C34.4038 97.9709 32.6588 100.214 30.9139 100.588C30.2907 100.838 29.7921 100.838 29.4182 100.838ZM29.0442 100.214C29.2935 100.214 29.9167 100.214 30.9139 100.09C32.2849 99.8405 33.9053 97.7216 34.2792 96.5999L34.5285 83.3879C34.5285 83.3879 34.9024 81.6429 34.0299 80.6458C33.0328 79.524 29.6675 75.9094 29.6675 75.9094C29.6675 75.9094 29.1689 75.4108 28.6703 75.7848C28.0471 76.1587 26.6761 77.2804 26.5514 77.5297C26.4268 77.6544 26.1775 78.1529 26.5514 78.5269L30.9139 83.7618C30.9139 83.8864 32.5342 85.6314 32.5342 87.9996C32.5342 90.2431 32.5342 95.6027 32.5342 95.6027C32.5342 95.7274 32.2849 97.597 30.7892 98.2202C29.9167 98.5941 29.4182 98.7188 29.1689 98.7188L29.0442 100.214Z" fill="#010202"/>
<path d="M24.0586 75.0369C24.0586 75.0369 22.5629 73.292 22.3136 73.1673V73.6659C22.3136 73.6659 22.189 73.6659 22.0643 73.7905C21.9397 73.9152 21.8151 73.7905 21.8151 73.7905V72.6688C21.8151 72.6688 21.8151 72.2948 22.5629 71.7963C23.3108 71.2977 24.8065 70.4252 24.8065 70.4252C24.8065 70.4252 25.1804 70.1759 25.5543 70.5499C26.0529 71.0484 26.8007 72.2948 26.8007 72.2948L24.0586 75.0369Z" fill="#010202" stroke="#010202" stroke-width="0.4052" stroke-miterlimit="10" stroke-linecap="round"/>
<path d="M27.235 72.446L26.8313 71.9713L22.7484 75.4432L23.1521 75.9179L27.235 72.446Z" fill="#434341"/>
<path d="M22.563 75.5355L23.1862 75.0369L25.9283 77.7791L29.0443 75.0369L26.1776 72.4195L26.9254 71.7963L30.4154 75.0369C30.4154 75.0369 30.54 75.4109 30.4154 75.5355C30.2908 75.6601 26.3022 79.2747 26.3022 79.2747C26.3022 79.2747 26.0529 79.524 25.5544 79.1501C25.0558 78.7762 22.6876 76.2833 22.6876 76.2833C22.6876 76.2833 22.3137 75.9094 22.563 75.5355Z" fill="url(#paint20_linear)"/>
<path d="M26.053 79.6487C25.9283 79.6487 25.679 79.524 25.4298 79.3994C25.0558 79.0255 22.6876 76.6573 22.563 76.5326C22.3137 76.408 22.0644 75.9094 22.4384 75.4109C22.4384 75.4109 22.4384 75.2862 23.0616 74.9123L23.1862 74.7877L25.9283 77.5298L28.6704 75.1616L25.8037 72.5441L27.0501 71.547L30.6647 75.0369C30.6647 75.1616 30.7893 75.5355 30.6647 75.7848C30.54 75.9094 27.6733 78.4023 26.5515 79.524C26.4269 79.524 26.3022 79.6487 26.053 79.6487ZM22.8123 75.6602C22.6876 75.9094 22.9369 76.0341 22.9369 76.0341C22.9369 76.0341 25.3051 78.5269 25.8037 78.9008C26.053 79.1501 26.1776 79.0255 26.1776 79.0255C27.7979 77.6544 30.1661 75.5355 30.2908 75.2862V75.1616L27.0501 72.0456L26.6762 72.4195L29.5429 75.0369L26.053 78.153L23.1862 75.4109C22.9369 75.5355 22.8123 75.6602 22.8123 75.6602Z" fill="#010202"/>
<path d="M23.3108 74.663L26.0529 72.4195L29.1689 75.4109L26.4268 77.9037L23.3108 74.663Z" fill="#11CFE7"/>
<path d="M26.4268 78.2776L22.9369 74.663L26.1776 72.0456L29.6675 75.4109L26.4268 78.2776ZM23.6847 74.663L26.4268 77.4051L28.795 75.2862L26.0529 72.6688L23.6847 74.663Z" fill="#010202"/>
<path d="M32.285 82.6401C32.9045 82.6401 33.4068 82.1379 33.4068 81.5183C33.4068 80.8988 32.9045 80.3966 32.285 80.3966C31.6654 80.3966 31.1632 80.8988 31.1632 81.5183C31.1632 82.1379 31.6654 82.6401 32.285 82.6401Z" fill="white"/>
<path d="M32.2849 82.8893C31.537 82.8893 30.9138 82.2661 30.9138 81.5183C30.9138 80.7704 31.537 80.1472 32.2849 80.1472C33.0327 80.1472 33.6559 80.7704 33.6559 81.5183C33.6559 82.2661 33.0327 82.8893 32.2849 82.8893ZM32.2849 80.6458C31.7863 80.6458 31.4124 81.0197 31.4124 81.5183C31.4124 82.0168 31.7863 82.3908 32.2849 82.3908C32.7834 82.3908 33.1574 82.0168 33.1574 81.5183C33.1574 81.0197 32.7834 80.6458 32.2849 80.6458Z" fill="#010202"/>
<path d="M57.3378 78.5268L52.9754 83.7618C52.9754 83.7618 51.4797 85.5067 51.4797 87.7503C51.4797 89.9938 51.4797 95.3534 51.4797 95.3534C51.4797 95.3534 51.729 97.0984 53.1 97.7216C54.4711 98.3448 54.9697 98.2202 54.9697 98.2202L55.2189 100.464C55.2189 100.464 54.4711 100.713 53.1 100.339C51.6043 99.9651 49.8594 97.8462 49.4854 96.5998L49.2362 83.3878C49.2362 83.3878 48.8622 81.5182 49.8594 80.3965C50.8565 79.2747 54.2218 75.6601 54.2218 75.6601C54.2218 75.6601 54.845 75.0369 55.4682 75.4108C56.2161 75.7847 57.7118 77.1558 57.7118 77.1558C57.7118 77.1558 57.9611 77.9036 57.3378 78.5268Z" fill="#11CFE7"/>
<path d="M54.3464 100.838C53.9725 100.838 53.4739 100.838 52.7261 100.588C51.1058 100.214 49.2361 97.9709 48.8622 96.5999V96.4752L48.6129 83.2632C48.6129 83.014 48.239 81.1443 49.3608 80.0226C50.3579 78.9008 53.7232 75.2862 53.7232 75.2862C53.9725 75.0369 54.5957 74.663 55.3436 75.0369C56.0914 75.4108 57.5871 76.7819 57.5871 76.7819C57.8364 77.1558 58.0857 77.9037 57.5871 78.5269L53.2247 83.7618C53.2247 83.7618 51.729 85.5068 51.729 87.6257C51.729 89.8692 51.729 94.8549 51.729 95.2288C51.729 95.3535 51.9782 96.8491 53.1 97.3477C54.3464 97.8463 54.7204 97.8463 54.7204 97.8463H54.9696V98.0956L55.2189 100.588H54.9696C55.0943 100.713 54.845 100.838 54.3464 100.838ZM49.4854 96.5999C49.8593 97.8463 51.4797 99.8405 52.8507 100.09C53.7232 100.339 54.3464 100.339 54.7204 100.214L54.5957 98.4695C54.3464 98.4695 53.7232 98.3448 52.9754 97.9709C51.4797 97.3477 51.2304 95.4781 51.2304 95.3534C51.2304 95.3534 51.2304 89.9939 51.2304 87.7503C51.2304 85.3821 52.7261 83.6372 52.8507 83.5125L57.2132 78.2776C57.5871 77.9037 57.3378 77.2805 57.2132 77.2805C56.9639 77.1558 55.7175 75.9094 55.0943 75.5355C54.5957 75.2862 54.0971 75.6601 54.0971 75.6601C54.0971 75.6601 50.8565 79.2747 49.8593 80.3965C48.9869 81.3936 49.3608 83.1386 49.3608 83.1386L49.4854 96.5999Z" fill="#010202"/>
<path d="M59.7061 75.0369C59.7061 75.0369 61.2018 73.292 61.4511 73.1673V73.6659C61.4511 73.6659 61.5757 73.6659 61.7003 73.7905C61.825 73.9152 61.9496 73.7905 61.9496 73.7905V72.6688C61.9496 72.6688 61.9496 72.2948 61.2018 71.7963C60.4539 71.2977 59.0829 70.4252 59.0829 70.4252C59.0829 70.4252 58.709 70.1759 58.335 70.5499C57.8365 71.0484 57.0886 72.2948 57.0886 72.2948L59.7061 75.0369Z" fill="#010202" stroke="#010202" stroke-width="0.4052" stroke-miterlimit="10" stroke-linecap="round"/>
<path d="M60.5291 75.9455L60.9329 75.4708L56.8499 71.9988L56.4462 72.4736L60.5291 75.9455Z" fill="#434341"/>
<path d="M61.2019 75.5355L60.5787 75.0369L57.8366 77.7791L54.7205 75.0369L57.5873 72.4195L56.7148 71.7963L53.2248 75.0369C53.2248 75.0369 53.1002 75.4109 53.2248 75.5355C53.3495 75.6601 57.338 79.2747 57.338 79.2747C57.338 79.2747 57.7119 79.6487 58.0858 79.1501C58.5844 78.7762 60.9526 76.2833 60.9526 76.2833C60.9526 76.2833 61.4512 75.9094 61.2019 75.5355Z" fill="url(#paint21_linear)"/>
<path d="M57.7118 79.6487C57.4625 79.6487 57.3379 79.524 57.2132 79.3994C55.9668 78.2776 53.2247 75.7848 53.1001 75.6601C52.9754 75.4108 52.9754 75.0369 53.1001 74.9123L56.7147 71.4223L57.9611 72.4195L55.0943 75.0369L57.8364 77.4051L60.5786 74.663L60.7032 74.7876C61.3264 75.1616 61.3264 75.2862 61.3264 75.2862C61.7003 75.7848 61.3264 76.1587 61.2018 76.408C61.0771 76.5326 58.8336 78.9008 58.335 79.2747C58.0857 79.524 57.9611 79.6487 57.7118 79.6487ZM53.474 75.1616C53.474 75.2862 53.474 75.2862 53.474 75.4109C53.5986 75.5355 55.9668 77.6544 57.5872 79.0255C57.5872 79.0255 57.8364 79.1501 57.9611 78.9008C58.335 78.5269 60.8278 76.0341 60.8278 76.0341C60.8278 76.0341 61.0771 75.7848 60.9525 75.5355C60.9525 75.5355 60.7032 75.4109 60.5786 75.2862L57.8364 78.0283L54.3465 74.9123L57.2132 72.2948L56.7147 72.0455L53.474 75.1616Z" fill="#010202"/>
<path d="M60.4539 74.663L57.5871 72.4195L54.4711 75.4109L57.3378 77.9037L60.4539 74.663Z" fill="#11CFE7"/>
<path d="M57.3378 78.2776L54.0972 75.4109L57.5871 72.0456L60.8278 74.663L57.3378 78.2776ZM54.9697 75.4109L57.3378 77.5298L60.0799 74.7877L57.7118 72.918L54.9697 75.4109Z" fill="#010202"/>
<path d="M51.4798 82.6401C52.0993 82.6401 52.6016 82.1379 52.6016 81.5183C52.6016 80.8988 52.0993 80.3966 51.4798 80.3966C50.8603 80.3966 50.358 80.8988 50.358 81.5183C50.358 82.1379 50.8603 82.6401 51.4798 82.6401Z" fill="white"/>
<path d="M51.4797 82.8893C50.7319 82.8893 50.1086 82.2661 50.1086 81.5183C50.1086 80.7704 50.7319 80.1472 51.4797 80.1472C52.2276 80.1472 52.8508 80.7704 52.8508 81.5183C52.8508 82.2661 52.2276 82.8893 51.4797 82.8893ZM51.4797 80.6458C50.9811 80.6458 50.6072 81.0197 50.6072 81.5183C50.6072 82.0168 50.9811 82.3908 51.4797 82.3908C51.9783 82.3908 52.3522 82.0168 52.3522 81.5183C52.3522 81.0197 51.9783 80.6458 51.4797 80.6458Z" fill="#010202"/>
<path d="M40.3868 78.153C39.8882 79.898 39.0157 82.8893 38.8911 82.7647C38.7664 82.7647 39.1404 80.2719 39.7636 77.9037C40.5114 75.0369 41.5085 72.1702 41.7578 72.1702C41.8825 72.2948 41.01 75.7848 40.3868 78.153Z" fill="white"/>
<path d="M31.1631 60.9525H22.8121V52.6015H31.1631V60.9525ZM24.4325 59.4568H29.6674V54.2218H24.4325V59.4568Z" fill="#11CFE7"/>
<path d="M61.825 60.9525H51.6044L56.7147 52.1029L61.825 60.9525ZM54.2218 59.4568H59.3321L56.7147 54.9697L54.2218 59.4568Z" fill="#11CFE7"/>
<defs>
<linearGradient id="paint0_linear" x1="12.9703" y1="33.621" x2="70.9543" y2="33.621" gradientUnits="userSpaceOnUse">
<stop offset="6.78887e-08" stop-color="#852078"/>
<stop offset="1" stop-color="#B14291"/>
</linearGradient>
<linearGradient id="paint1_linear" x1="14.4926" y1="38.3023" x2="70.1249" y2="38.3023" gradientUnits="userSpaceOnUse">
<stop stop-color="#7F3D90"/>
<stop offset="1" stop-color="#C74A95"/>
</linearGradient>
<linearGradient id="paint2_linear" x1="15.7662" y1="56.2512" x2="68.7025" y2="56.2512" gradientUnits="userSpaceOnUse">
<stop stop-color="#25378B"/>
<stop offset="1" stop-color="#1A1B3A"/>
</linearGradient>
<linearGradient id="paint3_linear" x1="22.5039" y1="46.1713" x2="34.829" y2="46.1713" gradientUnits="userSpaceOnUse">
<stop offset="6.78887e-08" stop-color="#852078"/>
<stop offset="1" stop-color="#B14291"/>
</linearGradient>
<linearGradient id="paint4_linear" x1="48.447" y1="46.1718" x2="60.7721" y2="46.1718" gradientUnits="userSpaceOnUse">
<stop offset="6.78887e-08" stop-color="#852078"/>
<stop offset="1" stop-color="#B14291"/>
</linearGradient>
<linearGradient id="paint5_linear" x1="27.3108" y1="21.1886" x2="55.0744" y2="23.0473" gradientUnits="userSpaceOnUse">
<stop offset="6.78887e-08" stop-color="#852078"/>
<stop offset="1" stop-color="#B14291"/>
</linearGradient>
<linearGradient id="paint6_linear" x1="5.25786" y1="54.1551" x2="8.815" y2="54.1551" gradientUnits="userSpaceOnUse">
<stop stop-color="#7F3D90"/>
<stop offset="1" stop-color="#C74A95"/>
</linearGradient>
<linearGradient id="paint7_linear" x1="5.25785" y1="54.1552" x2="8.81499" y2="54.1552" gradientUnits="userSpaceOnUse">
<stop stop-color="#7F3D90"/>
<stop offset="1" stop-color="#C74A95"/>
</linearGradient>
<linearGradient id="paint8_linear" x1="74.5319" y1="54.1551" x2="78.089" y2="54.1551" gradientUnits="userSpaceOnUse">
<stop stop-color="#7F3D90"/>
<stop offset="1" stop-color="#C74A95"/>
</linearGradient>
<linearGradient id="paint9_linear" x1="74.5319" y1="54.1552" x2="78.089" y2="54.1552" gradientUnits="userSpaceOnUse">
<stop stop-color="#7F3D90"/>
<stop offset="1" stop-color="#C74A95"/>
</linearGradient>
<linearGradient id="paint10_linear" x1="54.3006" y1="87.1435" x2="77.7846" y2="87.1435" gradientUnits="userSpaceOnUse">
<stop stop-color="#7F3D90"/>
<stop offset="1" stop-color="#C74A95"/>
</linearGradient>
<linearGradient id="paint11_linear" x1="58.1303" y1="88.0569" x2="81.0757" y2="88.0569" gradientUnits="userSpaceOnUse">
<stop stop-color="#7F3D90"/>
<stop offset="1" stop-color="#C74A95"/>
</linearGradient>
<linearGradient id="paint12_linear" x1="5.92684" y1="86.9956" x2="29.4106" y2="86.9956" gradientUnits="userSpaceOnUse">
<stop stop-color="#7F3D90"/>
<stop offset="1" stop-color="#C74A95"/>
</linearGradient>
<linearGradient id="paint13_linear" x1="2.63555" y1="87.9616" x2="25.5809" y2="87.9616" gradientUnits="userSpaceOnUse">
<stop stop-color="#7F3D90"/>
<stop offset="1" stop-color="#C74A95"/>
</linearGradient>
<linearGradient id="paint14_linear" x1="34.9266" y1="81.267" x2="48.5894" y2="81.267" gradientUnits="userSpaceOnUse">
<stop stop-color="#7F3D90"/>
<stop offset="1" stop-color="#C74A95"/>
</linearGradient>
<linearGradient id="paint15_linear" x1="38.0606" y1="89.4276" x2="45.637" y2="89.4276" gradientUnits="userSpaceOnUse">
<stop stop-color="#7F3D90"/>
<stop offset="1" stop-color="#C74A95"/>
</linearGradient>
<linearGradient id="paint16_linear" x1="45.1399" y1="93.7269" x2="46.8623" y2="93.7269" gradientUnits="userSpaceOnUse">
<stop stop-color="#7F3D90"/>
<stop offset="1" stop-color="#C74A95"/>
</linearGradient>
<linearGradient id="paint17_linear" x1="36.6224" y1="93.7127" x2="38.5637" y2="93.7127" gradientUnits="userSpaceOnUse">
<stop stop-color="#7F3D90"/>
<stop offset="1" stop-color="#C74A95"/>
</linearGradient>
<linearGradient id="paint18_linear" x1="38.5755" y1="97.726" x2="45.154" y2="97.726" gradientUnits="userSpaceOnUse">
<stop stop-color="#7F3D90"/>
<stop offset="1" stop-color="#C74A95"/>
</linearGradient>
<linearGradient id="paint19_linear" x1="35.7369" y1="78.1183" x2="48.0787" y2="78.1183" gradientUnits="userSpaceOnUse">
<stop stop-color="#25378B"/>
<stop offset="1" stop-color="#1A1B3A"/>
</linearGradient>
<linearGradient id="paint20_linear" x1="22.4998" y1="75.5596" x2="30.5054" y2="75.5596" gradientUnits="userSpaceOnUse">
<stop stop-color="#7F3D90"/>
<stop offset="1" stop-color="#C74A95"/>
</linearGradient>
<linearGradient id="paint21_linear" x1="53.2513" y1="75.5596" x2="61.257" y2="75.5596" gradientUnits="userSpaceOnUse">
<stop stop-color="#7F3D90"/>
<stop offset="1" stop-color="#C74A95"/>
</linearGradient>
</defs>
</svg>
