<svg preserveAspectRatio="none" width="63" height="63" viewBox="0 0 63 63" fill="none" xmlns="http://www.w3.org/2000/svg">
<path d="M31.4435 62.1121C48.257 62.1121 61.8871 48.4769 61.8871 31.657C61.8871 14.8371 48.257 1.2019 31.4435 1.2019C14.63 1.2019 1 14.8371 1 31.657C1 48.4769 14.63 62.1121 31.4435 62.1121Z" fill="#0D0D0D" stroke="#FF14A1" stroke-width="1.5" stroke-miterlimit="10"/>
<path d="M34.446 12.3145C38.4131 12.957 42.229 14.809 45.2893 17.8704C50.0498 22.6327 51.9011 29.247 50.8055 35.4077" stroke="#11CFE7" stroke-width="2" stroke-miterlimit="10"/>
<path d="M45.2894 46.0284C42.1158 49.2033 38.1487 51.0931 34.0305 51.66C28.061 52.4915 21.7515 50.6395 17.18 46.0284C14.6486 43.4961 12.9484 40.4346 12.0794 37.222C10.2659 30.5699 11.9661 23.1241 17.18 17.8705C20.5803 14.4688 24.8874 12.579 29.3078 12.1255" stroke="#11CFE7" stroke-width="2" stroke-miterlimit="10"/>
</svg>
