<svg width="1065" height="192" viewBox="0 0 1065 192" fill="none" xmlns="http://www.w3.org/2000/svg">
<g filter="url(#filter0_d)">
<path d="M65.864 142.672C75.1998 145.131 84.7613 139.556 87.2203 130.22C89.6793 120.885 84.1046 111.323 74.7688 108.864C65.4331 106.405 55.8716 111.98 53.4126 121.315C50.9536 130.651 56.5283 140.213 65.864 142.672Z" stroke="#E22026" stroke-width="5" stroke-miterlimit="10"/>
</g>
<g opacity="0.4">
<path d="M104.655 119.859C104.655 119.859 113.346 132.08 133.784 141.32C133.784 141.32 114.345 138.208 103.138 125.031L87.5311 123.915C87.2154 123.209 86.7701 122.582 86.1954 122.032L104.655 119.859Z" fill="#E22127"/>
<path d="M101.609 127.09C101.609 127.09 112.967 140.339 125.272 143.047C125.272 143.047 112.35 146.353 98.4777 130.479L88.0745 127.278C88.1736 126.676 88.1411 126.058 88.0528 125.46L101.609 127.09Z" fill="#E22127"/>
<path d="M99.1105 139.54C99.1105 139.54 93.8477 140.67 91.0809 135.143L85.2833 131.615C85.6161 131.402 85.911 131.17 86.1679 130.921L92.8585 134.129C92.8964 134.146 95.5857 137.875 99.1105 139.54Z" fill="#E22127"/>
<path d="M87.0642 129.907C87.2275 129.66 87.4086 129.374 87.5519 129.071C87.6236 128.92 87.6952 128.768 87.7489 128.654L96.5728 131.665C96.5728 131.665 101.622 138.641 108.181 141.833C108.181 141.833 103.942 141.777 99.5824 138.836C97.9064 137.673 96.1642 136.062 94.7085 133.844L87.0642 129.907Z" fill="#E22127"/>
</g>
<g opacity="0.4">
<path d="M42.4529 102.123C42.4529 102.123 28.6211 107.916 6.38442 104.977C6.38442 104.977 24.5383 112.594 41.0114 107.316L54.8567 114.606C55.4972 114.173 56.2067 113.875 56.985 113.711L42.4529 102.123Z" fill="#E22127"/>
<path d="M41.2187 109.914C41.2187 109.914 24.5791 115.172 12.6983 110.978C12.6983 110.978 21.9284 120.606 42.0898 114.445L52.6151 117.217C52.8488 116.653 53.2026 116.145 53.5932 115.684L41.2187 109.914Z" fill="#E22127"/>
<path d="M36.7744 121.766C36.7744 121.766 40.6484 125.503 45.9152 122.269L52.7015 122.333C52.5316 121.976 52.4033 121.623 52.3167 121.276L44.9409 120.469C44.9361 120.511 40.6474 122.212 36.7744 121.766Z" fill="#E22127"/>
<path d="M52.0858 119.983C52.0777 119.687 52.0744 119.349 52.1127 119.016C52.1319 118.849 52.151 118.683 52.1654 118.558L43.0818 116.458C43.0818 116.458 35.1113 119.718 27.8556 118.967C27.8556 118.967 31.4856 121.157 36.7406 120.96C38.7779 120.857 41.1081 120.408 43.5151 119.292L52.0858 119.983Z" fill="#E22127"/>
</g>
<g filter="url(#filter1_d)">
<path d="M1002.37 118.119L970.142 129.201L981.224 161.43L1013.45 150.348L1002.37 118.119Z" stroke="#F8C60D" stroke-width="5" stroke-miterlimit="10"/>
</g>
<g opacity="0.4">
<path d="M1020.32 118.969C1020.32 118.969 1034.53 125.475 1057.8 123.171C1057.8 123.171 1038.63 130.487 1021.64 124.428L1006.97 131.55C1006.32 131.078 1005.59 130.743 1004.79 130.546L1020.32 118.969Z" fill="#F8C60D"/>
<path d="M1021.34 127.127C1021.34 127.127 1038.5 133.172 1051.02 129.207C1051.02 129.207 1041.07 138.923 1020.28 131.817L1009.22 134.347C1008.99 133.751 1008.64 133.21 1008.25 132.716L1021.34 127.127Z" fill="#F8C60D"/>
<path d="M1025.57 139.625C1025.57 139.625 1021.4 143.387 1016.03 139.838L1008.95 139.673C1009.14 139.307 1009.29 138.944 1009.39 138.585L1017.1 137.996C1017.1 137.996 1021.52 139.958 1025.57 139.625Z" fill="#F8C60D"/>
<path d="M1009.68 137.247C1009.69 136.938 1009.71 136.586 1009.68 136.238C1009.67 136.064 1009.65 135.889 1009.64 135.759L1019.18 133.88C1019.18 133.88 1027.37 137.548 1034.95 137.014C1034.95 137.014 1031.1 139.171 1025.63 138.787C1023.51 138.61 1021.1 138.063 1018.63 136.819L1009.68 137.247Z" fill="#F8C60D"/>
</g>
<g opacity="0.4">
<path d="M955.42 139.686C955.42 139.686 949.043 153.923 930.012 167.568C930.012 167.568 949.253 160.389 957.996 144.655L973.732 140.326C973.885 139.535 974.217 138.794 974.69 138.122L955.42 139.686Z" fill="#F8C60D"/>
<path d="M960.031 146.464C960.031 146.464 951.119 162.343 939.073 167.589C939.073 167.589 952.968 168.33 963.901 149.289L973.904 143.898C973.715 143.302 973.603 142.662 973.55 142.039L960.031 146.464Z" fill="#F8C60D"/>
<path d="M965.109 158.656C965.109 158.656 970.729 158.726 972.431 152.529L977.615 147.769C977.236 147.633 976.873 147.437 976.548 147.22L970.361 151.897C970.361 151.897 968.365 156.25 965.109 158.656Z" fill="#F8C60D"/>
<path d="M975.466 146.378C975.239 146.155 974.99 145.894 974.779 145.612C974.693 145.46 974.568 145.33 974.503 145.216L966.078 150.111C966.078 150.111 962.329 158.277 956.256 162.889C956.256 162.889 960.61 161.97 964.432 158.086C965.936 156.576 967.354 154.563 968.41 152.001L975.466 146.378Z" fill="#F8C60D"/>
</g>
<g filter="url(#filter2_d)">
<path d="M407.407 178.056L419.067 134.715L450.771 166.485L407.407 178.056Z" stroke="#3DB0A3" stroke-width="5" stroke-miterlimit="10"/>
</g>
<g opacity="0.4">
<path d="M442.97 128.909C442.97 128.909 461.486 129.829 486.105 117.065C486.105 117.065 468.2 133.552 446.829 134.341L433.796 148.636C432.869 148.403 431.919 148.354 430.945 148.491L442.97 128.909Z" fill="#3DB0A3"/>
<path d="M447.656 137.402C447.656 137.402 469.213 136.521 481.263 126.65C481.263 126.65 474.579 141.724 448.548 143.036L437.476 150.684C436.968 150.126 436.343 149.685 435.695 149.312L447.656 137.402Z" fill="#3DB0A3"/>
<path d="M457.806 149.313C457.806 149.313 454.873 155.287 447.39 153.741L439.527 156.668C439.574 156.181 439.575 155.718 439.529 155.277L447.766 151.239C447.836 151.262 453.49 151.46 457.806 149.313Z" fill="#3DB0A3"/>
<path d="M439.255 153.677C439.14 153.329 439.001 152.935 438.817 152.564C438.724 152.378 438.632 152.193 438.563 152.053L448.241 145.793C448.241 145.793 458.879 146.233 466.999 142.31C466.999 142.31 463.699 146.382 457.507 148.362C455.095 149.099 452.196 149.556 448.929 149.271L439.255 153.677Z" fill="#3DB0A3"/>
</g>
<g opacity="0.4">
<path d="M394.833 141.647C394.833 141.647 379.554 152.11 351.851 154.215C351.851 154.215 375.732 158.821 394.354 148.308L412.95 153.656C413.64 152.983 414.397 152.406 415.284 152.02L394.833 141.647Z" fill="#3DB0A3"/>
<path d="M395.306 151.367C395.306 151.367 376.479 161.908 361.064 159.831C361.064 159.831 374.672 169.174 397.513 156.657L410.954 157.337C411.109 156.582 411.375 155.865 411.758 155.235L395.306 151.367Z" fill="#3DB0A3"/>
<path d="M392.921 166.826C392.921 166.826 398.541 170.329 404.146 165.147L412.345 163.527C412.031 163.152 411.819 162.763 411.6 162.323L402.466 163.237C402.466 163.237 397.73 166.413 392.921 166.826Z" fill="#3DB0A3"/>
<path d="M411.018 160.782C410.909 160.378 410.859 160.019 410.801 159.609C410.772 159.403 410.795 159.191 410.773 159.037L399.223 158.772C399.223 158.772 390.376 164.723 381.395 165.615C381.395 165.615 386.352 167.38 392.616 165.769C395.095 165.16 397.758 164.002 400.416 162.059L411.018 160.782Z" fill="#3DB0A3"/>
</g>
<g filter="url(#filter3_d)">
<path d="M742.987 50.2297L716.631 10.801L712.408 13.624L738.764 53.0527L742.987 50.2297Z" fill="#0283C5" stroke="#0283C5" stroke-miterlimit="10"/>
<path d="M709.795 46.547L748.813 21.3662L746.058 17.0981L707.041 42.2789L709.795 46.547Z" fill="#0283C5" stroke="#0283C5" stroke-miterlimit="10"/>
</g>
<g opacity="0.4">
<path d="M761.522 23.7457C761.522 23.7457 772.55 35.4408 795.655 42.2459C795.655 42.2459 774.534 41.8196 760.698 29.4971C755.157 30.094 749.617 30.6909 744.076 31.2879C739.98 32.0005 735.745 32.5005 731.414 32.7972C731.229 32.8047 731.044 32.8123 730.859 32.8198C741.124 29.8042 751.301 26.7704 761.522 23.7457Z" fill="#0283C5"/>
<path d="M759.324 31.9208C759.324 31.9208 773.327 44.3238 786.844 45.333C786.844 45.333 773.601 50.7615 756.554 35.9838C748.133 34.9742 739.711 33.9645 731.246 32.9458C740.352 33.0873 744.936 33.1186 744.936 33.1186C744.936 33.1186 740.952 33.0737 732.938 32.9749C741.686 32.6291 750.532 32.2575 759.324 31.9208Z" fill="#0283C5"/>
<path d="M758.534 45.4836C758.534 45.4836 753.126 47.4391 749.336 42.0177C743.502 39.1567 737.702 36.3488 731.868 33.4878C734.919 34.7164 738.014 35.9542 741.162 37.1571C741.971 37.4623 742.78 37.7676 743.589 38.0729C746.069 38.9538 748.549 39.8347 751.082 40.6807C751.126 40.6899 754.576 44.2046 758.534 45.4836Z" fill="#0283C5"/>
<path d="M744.31 37.0287C743.791 36.8753 740.509 35.8743 739.99 35.7209C738.178 35.1619 733.339 33.7007 731.483 33.1326C739.213 34.5959 746.909 36.0062 754.64 37.4695C754.64 37.4695 761.065 44.1256 768.507 46.5391C768.507 46.5391 763.981 47.1165 758.937 44.6488C756.978 43.6921 754.898 42.2056 753 40.0679L744.31 37.0287Z" fill="#0283C5"/>
</g>
<g opacity="0.4">
<path d="M700.238 11.0995C700.238 11.0995 685.446 17.355 661.522 14.2823C661.522 14.2823 681.013 22.3588 698.622 16.6868C703.461 19.4793 708.265 22.2186 713.103 25.0111C716.579 27.2918 720.258 29.4769 724.062 31.5041C724.229 31.5846 724.396 31.6651 724.562 31.7456C716.49 24.8403 708.364 17.9699 700.238 11.0995Z" fill="#0283C5"/>
<path d="M698.974 19.4221C698.974 19.4221 681.179 25.1017 668.382 20.6151C668.382 20.6151 678.318 30.9361 699.902 24.2509C708.022 26.7132 716.143 29.1755 724.264 31.6377C715.868 28.0628 711.684 26.3238 711.684 26.3238C711.684 26.3238 715.349 27.9093 722.734 31.0454C714.808 27.2003 706.891 23.3112 698.974 19.4221Z" fill="#0283C5"/>
<path d="M694.223 32.1641C694.223 32.1641 698.401 36.1511 704.032 32.6807C710.514 32.4164 716.986 32.1961 723.424 31.9227C720.136 31.8385 716.813 31.7012 713.456 31.5108C712.592 31.4696 711.728 31.4284 710.83 31.3341C708.213 31.1135 705.543 30.9278 702.926 30.7071C702.961 30.7603 698.355 32.6067 694.223 32.1641Z" fill="#0283C5"/>
<path d="M710.652 30.196C711.19 30.2614 714.59 30.6901 715.127 30.7555C717.012 30.9623 722.024 31.5872 723.954 31.8032C716.287 30.0317 708.673 28.2253 701.006 26.4538C701.006 26.4538 692.475 29.9661 684.651 29.1721C684.651 29.1721 688.567 31.544 694.176 31.2825C696.399 31.1919 698.844 30.6884 701.435 29.4807L710.652 30.196Z" fill="#0283C5"/>
</g>
<defs>
<filter id="filter0_d" x="37.9058" y="95.3574" width="64.8211" height="64.8211" filterUnits="userSpaceOnUse" color-interpolation-filters="sRGB">
<feFlood flood-opacity="0" result="BackgroundImageFix"/>
<feColorMatrix in="SourceAlpha" type="matrix" values="0 0 0 0 0 0 0 0 0 0 0 0 0 0 0 0 0 0 127 0"/>
<feOffset dy="2"/>
<feGaussianBlur stdDeviation="4"/>
<feColorMatrix type="matrix" values="0 0 0 0 0.886275 0 0 0 0 0.12549 0 0 0 0 0.14902 0 0 0 0.6 0"/>
<feBlend mode="normal" in2="BackgroundImageFix" result="effect1_dropShadow"/>
<feBlend mode="normal" in="SourceGraphic" in2="effect1_dropShadow" result="shape"/>
</filter>
<filter id="filter1_d" x="958.965" y="108.942" width="65.6655" height="65.6655" filterUnits="userSpaceOnUse" color-interpolation-filters="sRGB">
<feFlood flood-opacity="0" result="BackgroundImageFix"/>
<feColorMatrix in="SourceAlpha" type="matrix" values="0 0 0 0 0 0 0 0 0 0 0 0 0 0 0 0 0 0 127 0"/>
<feOffset dy="2"/>
<feGaussianBlur stdDeviation="4"/>
<feColorMatrix type="matrix" values="0 0 0 0 0.972549 0 0 0 0 0.776471 0 0 0 0 0.0509804 0 0 0 0.6 0"/>
<feBlend mode="normal" in2="BackgroundImageFix" result="effect1_dropShadow"/>
<feBlend mode="normal" in="SourceGraphic" in2="effect1_dropShadow" result="shape"/>
</filter>
<filter id="filter2_d" x="383.912" y="116.982" width="79.6864" height="74.6062" filterUnits="userSpaceOnUse" color-interpolation-filters="sRGB">
<feFlood flood-opacity="0" result="BackgroundImageFix"/>
<feColorMatrix in="SourceAlpha" type="matrix" values="0 0 0 0 0 0 0 0 0 0 0 0 0 0 0 0 0 0 127 0"/>
<feOffset dy="2"/>
<feGaussianBlur stdDeviation="4"/>
<feColorMatrix type="matrix" values="0 0 0 0 0.239216 0 0 0 0 0.690196 0 0 0 0 0.639216 0 0 0 0.6 0"/>
<feBlend mode="normal" in2="BackgroundImageFix" result="effect1_dropShadow"/>
<feBlend mode="normal" in="SourceGraphic" in2="effect1_dropShadow" result="shape"/>
</filter>
<filter id="filter3_d" x="698.349" y="4.10742" width="59.1545" height="59.6388" filterUnits="userSpaceOnUse" color-interpolation-filters="sRGB">
<feFlood flood-opacity="0" result="BackgroundImageFix"/>
<feColorMatrix in="SourceAlpha" type="matrix" values="0 0 0 0 0 0 0 0 0 0 0 0 0 0 0 0 0 0 127 0"/>
<feOffset dy="2"/>
<feGaussianBlur stdDeviation="4"/>
<feColorMatrix type="matrix" values="0 0 0 0 0.00784314 0 0 0 0 0.513726 0 0 0 0 0.772549 0 0 0 0.6 0"/>
<feBlend mode="normal" in2="BackgroundImageFix" result="effect1_dropShadow"/>
<feBlend mode="normal" in="SourceGraphic" in2="effect1_dropShadow" result="shape"/>
</filter>
</defs>
</svg>
